<?xml version="1.0" encoding="utf-8" ?>
<svg baseProfile="full" height="240" version="1.1" width="1000" xmlns="http://www.w3.org/2000/svg" xmlns:ev="http://www.w3.org/2001/xml-events" xmlns:xlink="http://www.w3.org/1999/xlink"><defs /><rect fill="rgb(255, 255, 255)" height="30" width="970" x="15" y="15" /><text style="font-family: times; font-size: 8pt" text-anchor="end" x="70" y="32.0">Detector1</text><rect fill="rgb(230, 230, 230)" height="30" width="970" x="15" y="45" /><text style="font-family: times; font-size: 8pt" text-anchor="end" x="70" y="62.0">Filter1</text><rect fill="rgb(255, 255, 255)" height="30" width="970" x="15" y="75" /><text style="font-family: times; font-size: 8pt" text-anchor="end" x="70" y="92.0">Heater1</text><rect fill="rgb(230, 230, 230)" height="30" width="970" x="15" y="105" /><text style="font-family: times; font-size: 8pt" text-anchor="end" x="70" y="122.0">Mixer1</text><rect fill="rgb(255, 255, 255)" height="30" width="970" x="15" y="135" /><text style="font-family: times; font-size: 8pt" text-anchor="end" x="70" y="152.0">Mixer2</text><line style="stroke: #888888;stroke-width: 1;" x1="985.0" x2="985.0" y1="15" y2="195" /><text style="font-family: times; font-size: 8pt" text-anchor="middle" x="985.0" y="218">46.0</text><line style="stroke: #888888;stroke-width: 1;" x1="965.3260869565217" x2="965.3260869565217" y1="15" y2="195" /><line style="stroke: #888888;stroke-width: 1;" x1="906.304347826087" x2="906.304347826087" y1="15" y2="195" /><text style="font-family: times; font-size: 8pt" text-anchor="middle" x="906.304347826087" y="218">42.0</text><line style="stroke: #888888;stroke-width: 1;" x1="876.7934782608696" x2="876.7934782608696" y1="15" y2="195" /><line style="stroke: #888888;stroke-width: 1;" x1="758.75" x2="758.75" y1="15" y2="195" /><text style="font-family: times; font-size: 8pt" text-anchor="middle" x="758.75" y="218">34.5</text><line style="stroke: #888888;stroke-width: 1;" x1="660.3804347826087" x2="660.3804347826087" y1="15" y2="195" /><text style="font-family: times; font-size: 8pt" text-anchor="middle" x="660.3804347826087" y="218">29.5</text><line style="stroke: #888888;stroke-width: 1;" x1="630.8695652173914" x2="630.8695652173914" y1="15" y2="195" /><line style="stroke: #888888;stroke-width: 1;" x1="611.1956521739131" x2="611.1956521739131" y1="15" y2="195" /><text style="font-family: times; font-size: 8pt" text-anchor="middle" x="611.1956521739131" y="218">27.0</text><line style="stroke: #888888;stroke-width: 1;" x1="601.3586956521739" x2="601.3586956521739" y1="15" y2="195" /><line style="stroke: #888888;stroke-width: 1;" x1="591.5217391304348" x2="591.5217391304348" y1="15" y2="195" /><line style="stroke: #888888;stroke-width: 1;" x1="453.804347826087" x2="453.804347826087" y1="15" y2="195" /><text style="font-family: times; font-size: 8pt" text-anchor="middle" x="453.804347826087" y="218">19.0</text><line style="stroke: #888888;stroke-width: 1;" x1="434.1304347826087" x2="434.1304347826087" y1="15" y2="195" /><line style="stroke: #888888;stroke-width: 1;" x1="424.29347826086956" x2="424.29347826086956" y1="15" y2="195" /><line style="stroke: #888888;stroke-width: 1;" x1="365.2717391304348" x2="365.2717391304348" y1="15" y2="195" /><text style="font-family: times; font-size: 8pt" text-anchor="middle" x="365.2717391304348" y="218">14.5</text><line style="stroke: #888888;stroke-width: 1;" x1="325.92391304347825" x2="325.92391304347825" y1="15" y2="195" /><text style="font-family: times; font-size: 8pt" text-anchor="middle" x="325.92391304347825" y="218">12.5</text><line style="stroke: #888888;stroke-width: 1;" x1="296.4130434782609" x2="296.4130434782609" y1="15" y2="195" /><line style="stroke: #888888;stroke-width: 1;" x1="266.9021739130435" x2="266.9021739130435" y1="15" y2="195" /><text style="font-family: times; font-size: 8pt" text-anchor="middle" x="266.9021739130435" y="218">9.5</text><line style="stroke: #888888;stroke-width: 1;" x1="247.22826086956522" x2="247.22826086956522" y1="15" y2="195" /><line style="stroke: #888888;stroke-width: 1;" x1="237.3913043478261" x2="237.3913043478261" y1="15" y2="195" /><line style="stroke: #888888;stroke-width: 1;" x1="227.55434782608697" x2="227.55434782608697" y1="15" y2="195" /><text style="font-family: times; font-size: 8pt" text-anchor="middle" x="227.55434782608697" y="218">7.5</text><line style="stroke: #888888;stroke-width: 1;" x1="148.85869565217394" x2="148.85869565217394" y1="15" y2="195" /><text style="font-family: times; font-size: 8pt" text-anchor="middle" x="148.85869565217394" y="218">3.5</text><line style="stroke: #888888;stroke-width: 1;" x1="119.34782608695653" x2="119.34782608695653" y1="15" y2="195" /><line style="stroke: #888888;stroke-width: 1;" x1="99.67391304347827" x2="99.67391304347827" y1="15" y2="195" /><text style="font-family: times; font-size: 8pt" text-anchor="middle" x="99.67391304347827" y="218">1.0</text><line style="stroke: #888888;stroke-width: 1;" x1="80.0" x2="80.0" y1="15" y2="195" /><rect height="30" style="fill:#bce6b3; stroke: #166f2b; stroke-width: 2" width="98.36956521739131" x="325.92391304347825" y="15" /><text style="font-family: times; font-size: 8pt" text-anchor="middle" x="375.1086956521739" y="32.0">O5</text><rect height="30" style="fill:#bce6b3; stroke: #166f2b; stroke-width: 2" width="59.02173913043478" x="906.304347826087" y="15" /><text style="font-family: times; font-size: 8pt" text-anchor="middle" x="935.8152173913044" y="32.0">O10</text><rect height="30" style="fill:#cdcdcd; stroke: #000000; stroke-width: 2" width="29.51086956521739" x="296.4130434782609" y="15" /><text style="font-family: times; font-size: 8pt" text-anchor="middle" x="311.16847826086956" y="32.0">O2</text><rect height="30" style="fill:#cdcdcd; stroke: #000000; stroke-width: 2" width="29.51086956521739" x="876.7934782608696" y="15" /><text style="font-family: times; font-size: 8pt" text-anchor="middle" x="891.5489130434784" y="32.0">O9</text><rect height="30" style="fill:#cdcdcd; stroke: #000000; stroke-width: 2" width="19.67391304347826" x="965.3260869565217" y="15" /><text style="font-family: times; font-size: 8pt" text-anchor="middle" x="975.1630434782609" y="32.0">o1</text><rect height="30" style="fill:#d1e6ff; stroke: #3a5684; stroke-width: 2" width="118.04347826086956" x="247.22826086956522" y="45" /><text style="font-family: times; font-size: 8pt" text-anchor="middle" x="306.25" y="62.0">O4</text><rect height="30" style="fill:#d1e6ff; stroke: #3a5684; stroke-width: 2" width="59.02173913043478" x="601.3586956521739" y="45" /><text style="font-family: times; font-size: 8pt" text-anchor="middle" x="630.8695652173913" y="62.0">O8</text><rect height="30" style="fill:#cdcdcd; stroke: #000000; stroke-width: 2" width="9.83695652173913" x="237.3913043478261" y="45" /><text style="font-family: times; font-size: 8pt" text-anchor="middle" x="242.30978260869566" y="62.0">O1</text><rect height="30" style="fill:#cdcdcd; stroke: #000000; stroke-width: 2" width="9.83695652173913" x="591.5217391304348" y="45" /><text style="font-family: times; font-size: 8pt" text-anchor="middle" x="596.4402173913044" y="62.0">O7</text><rect height="30" style="fill:#f0f0f0; stroke: #393939; stroke-width: 2" width="78.69565217391305" x="148.85869565217394" y="75" /><text style="font-family: times; font-size: 8pt" text-anchor="middle" x="188.20652173913047" y="92.0">O3</text><rect height="30" style="fill:#f0f0f0; stroke: #393939; stroke-width: 2" width="177.06521739130434" x="434.1304347826087" y="75" /><text style="font-family: times; font-size: 8pt" text-anchor="middle" x="522.6630434782609" y="92.0">O6</text><rect height="30" style="fill:#cdcdcd; stroke: #000000; stroke-width: 2" width="68.85869565217392" x="80.0" y="75" /><text style="font-family: times; font-size: 8pt" text-anchor="middle" x="114.42934782608697" y="92.0">i5</text><rect height="30" style="fill:#cdcdcd; stroke: #000000; stroke-width: 2" width="68.85869565217392" x="365.2717391304348" y="75" /><text style="font-family: times; font-size: 8pt" text-anchor="middle" x="399.70108695652175" y="92.0">O4</text><rect height="30" style="fill:#fccecf; stroke: #cc3333; stroke-width: 2" width="118.04347826086956" x="119.34782608695653" y="105" /><text style="font-family: times; font-size: 8pt" text-anchor="middle" x="178.3695652173913" y="122.0">O1</text><rect height="30" style="fill:#fccecf; stroke: #cc3333; stroke-width: 2" width="118.04347826086956" x="758.75" y="105" /><text style="font-family: times; font-size: 8pt" text-anchor="middle" x="817.7717391304348" y="122.0">O9</text><rect height="30" style="fill:#fccecf; stroke: #cc3333; stroke-width: 2" width="137.71739130434784" x="453.804347826087" y="105" /><text style="font-family: times; font-size: 8pt" text-anchor="middle" x="522.6630434782609" y="122.0">O7</text><rect height="30" style="fill:#cdcdcd; stroke: #000000; stroke-width: 2" width="19.67391304347826" x="80.0" y="105" /><text style="font-family: times; font-size: 8pt" text-anchor="middle" x="89.83695652173913" y="122.0">i1</text><rect height="30" style="fill:#cdcdcd; stroke: #000000; stroke-width: 2" width="19.67391304347826" x="99.67391304347827" y="105" /><text style="font-family: times; font-size: 8pt" text-anchor="middle" x="109.51086956521739" y="122.0">i2</text><rect height="30" style="fill:#cdcdcd; stroke: #000000; stroke-width: 2" width="29.51086956521739" x="424.29347826086956" y="105" /><text style="font-family: times; font-size: 8pt" text-anchor="middle" x="439.04891304347825" y="122.0">O5</text><rect height="30" style="fill:#cdcdcd; stroke: #000000; stroke-width: 2" width="19.67391304347826" x="247.22826086956522" y="105" /><text style="font-family: times; font-size: 8pt" text-anchor="middle" x="257.0652173913044" y="122.0">O3</text><rect height="30" style="fill:#cdcdcd; stroke: #000000; stroke-width: 2" width="19.67391304347826" x="611.1956521739131" y="105" /><text style="font-family: times; font-size: 8pt" text-anchor="middle" x="621.0326086956522" y="122.0">O6</text><rect height="30" style="fill:#cdcdcd; stroke: #000000; stroke-width: 2" width="98.36956521739131" x="660.3804347826087" y="105" /><text style="font-family: times; font-size: 8pt" text-anchor="middle" x="709.5652173913044" y="122.0">O8</text><rect height="30" style="fill:#fccecf; stroke: #cc3333; stroke-width: 2" width="177.06521739130434" x="119.34782608695653" y="135" /><text style="font-family: times; font-size: 8pt" text-anchor="middle" x="207.8804347826087" y="152.0">O2</text><rect height="30" style="fill:#cdcdcd; stroke: #000000; stroke-width: 2" width="19.67391304347826" x="80.0" y="135" /><text style="font-family: times; font-size: 8pt" text-anchor="middle" x="89.83695652173913" y="152.0">i3</text><rect height="30" style="fill:#cdcdcd; stroke: #000000; stroke-width: 2" width="19.67391304347826" x="99.67391304347827" y="135" /><text style="font-family: times; font-size: 8pt" text-anchor="middle" x="109.51086956521739" y="152.0">i4</text></svg>