<?xml version="1.0" encoding="utf-8" ?>
<svg baseProfile="full" height="210" version="1.1" width="1000" xmlns="http://www.w3.org/2000/svg" xmlns:ev="http://www.w3.org/2001/xml-events" xmlns:xlink="http://www.w3.org/1999/xlink"><defs /><rect fill="rgb(255, 255, 255)" height="30" width="970" x="15" y="15" /><text style="font-family: times; font-size: 8pt" text-anchor="end" x="70" y="32.0">Detector1</text><rect fill="rgb(230, 230, 230)" height="30" width="970" x="15" y="45" /><text style="font-family: times; font-size: 8pt" text-anchor="end" x="70" y="62.0">Detector2</text><rect fill="rgb(255, 255, 255)" height="30" width="970" x="15" y="75" /><text style="font-family: times; font-size: 8pt" text-anchor="end" x="70" y="92.0">Mixer1</text><rect fill="rgb(230, 230, 230)" height="30" width="970" x="15" y="105" /><text style="font-family: times; font-size: 8pt" text-anchor="end" x="70" y="122.0">Mixer2</text><line style="stroke: #888888;stroke-width: 1;" x1="984.9999999999999" x2="984.9999999999999" y1="15" y2="165" /><text style="font-family: times; font-size: 8pt" text-anchor="middle" x="984.9999999999999" y="188">44.5</text><line style="stroke: #888888;stroke-width: 1;" x1="974.8314606741573" x2="974.8314606741573" y1="15" y2="165" /><line style="stroke: #888888;stroke-width: 1;" x1="964.6629213483145" x2="964.6629213483145" y1="15" y2="165" /><line style="stroke: #888888;stroke-width: 1;" x1="944.3258426966291" x2="944.3258426966291" y1="15" y2="165" /><text style="font-family: times; font-size: 8pt" text-anchor="middle" x="944.3258426966291" y="188">42.5</text><line style="stroke: #888888;stroke-width: 1;" x1="903.6516853932584" x2="903.6516853932584" y1="15" y2="165" /><text style="font-family: times; font-size: 8pt" text-anchor="middle" x="903.6516853932584" y="188">40.5</text><line style="stroke: #888888;stroke-width: 1;" x1="883.314606741573" x2="883.314606741573" y1="15" y2="165" /><line style="stroke: #888888;stroke-width: 1;" x1="862.9775280898876" x2="862.9775280898876" y1="15" y2="165" /><text style="font-family: times; font-size: 8pt" text-anchor="middle" x="862.9775280898876" y="188">38.5</text><line style="stroke: #888888;stroke-width: 1;" x1="822.3033707865168" x2="822.3033707865168" y1="15" y2="165" /><text style="font-family: times; font-size: 8pt" text-anchor="middle" x="822.3033707865168" y="188">36.5</text><line style="stroke: #888888;stroke-width: 1;" x1="771.4606741573033" x2="771.4606741573033" y1="15" y2="165" /><text style="font-family: times; font-size: 8pt" text-anchor="middle" x="771.4606741573033" y="188">34.0</text><line style="stroke: #888888;stroke-width: 1;" x1="740.9550561797753" x2="740.9550561797753" y1="15" y2="165" /><line style="stroke: #888888;stroke-width: 1;" x1="720.6179775280898" x2="720.6179775280898" y1="15" y2="165" /><text style="font-family: times; font-size: 8pt" text-anchor="middle" x="720.6179775280898" y="188">31.5</text><line style="stroke: #888888;stroke-width: 1;" x1="679.943820224719" x2="679.943820224719" y1="15" y2="165" /><text style="font-family: times; font-size: 8pt" text-anchor="middle" x="679.943820224719" y="188">29.5</text><line style="stroke: #888888;stroke-width: 1;" x1="639.2696629213483" x2="639.2696629213483" y1="15" y2="165" /><text style="font-family: times; font-size: 8pt" text-anchor="middle" x="639.2696629213483" y="188">27.5</text><line style="stroke: #888888;stroke-width: 1;" x1="598.5955056179774" x2="598.5955056179774" y1="15" y2="165" /><text style="font-family: times; font-size: 8pt" text-anchor="middle" x="598.5955056179774" y="188">25.5</text><line style="stroke: #888888;stroke-width: 1;" x1="557.9213483146067" x2="557.9213483146067" y1="15" y2="165" /><text style="font-family: times; font-size: 8pt" text-anchor="middle" x="557.9213483146067" y="188">23.5</text><line style="stroke: #888888;stroke-width: 1;" x1="527.4157303370787" x2="527.4157303370787" y1="15" y2="165" /><line style="stroke: #888888;stroke-width: 1;" x1="496.9101123595505" x2="496.9101123595505" y1="15" y2="165" /><text style="font-family: times; font-size: 8pt" text-anchor="middle" x="496.9101123595505" y="188">20.5</text><line style="stroke: #888888;stroke-width: 1;" x1="486.7415730337078" x2="486.7415730337078" y1="15" y2="165" /><line style="stroke: #888888;stroke-width: 1;" x1="456.23595505617976" x2="456.23595505617976" y1="15" y2="165" /><text style="font-family: times; font-size: 8pt" text-anchor="middle" x="456.23595505617976" y="188">18.5</text><line style="stroke: #888888;stroke-width: 1;" x1="446.0674157303371" x2="446.0674157303371" y1="15" y2="165" /><line style="stroke: #888888;stroke-width: 1;" x1="415.56179775280896" x2="415.56179775280896" y1="15" y2="165" /><text style="font-family: times; font-size: 8pt" text-anchor="middle" x="415.56179775280896" y="188">16.5</text><line style="stroke: #888888;stroke-width: 1;" x1="405.39325842696627" x2="405.39325842696627" y1="15" y2="165" /><line style="stroke: #888888;stroke-width: 1;" x1="385.0561797752809" x2="385.0561797752809" y1="15" y2="165" /><line style="stroke: #888888;stroke-width: 1;" x1="364.71910112359546" x2="364.71910112359546" y1="15" y2="165" /><text style="font-family: times; font-size: 8pt" text-anchor="middle" x="364.71910112359546" y="188">14.0</text><line style="stroke: #888888;stroke-width: 1;" x1="354.5505617977528" x2="354.5505617977528" y1="15" y2="165" /><line style="stroke: #888888;stroke-width: 1;" x1="344.3820224719101" x2="344.3820224719101" y1="15" y2="165" /><line style="stroke: #888888;stroke-width: 1;" x1="334.2134831460674" x2="334.2134831460674" y1="15" y2="165" /><line style="stroke: #888888;stroke-width: 1;" x1="313.876404494382" x2="313.876404494382" y1="15" y2="165" /><text style="font-family: times; font-size: 8pt" text-anchor="middle" x="313.876404494382" y="188">11.5</text><line style="stroke: #888888;stroke-width: 1;" x1="273.2022471910112" x2="273.2022471910112" y1="15" y2="165" /><text style="font-family: times; font-size: 8pt" text-anchor="middle" x="273.2022471910112" y="188">9.5</text><line style="stroke: #888888;stroke-width: 1;" x1="252.86516853932582" x2="252.86516853932582" y1="15" y2="165" /><line style="stroke: #888888;stroke-width: 1;" x1="242.69662921348313" x2="242.69662921348313" y1="15" y2="165" /><line style="stroke: #888888;stroke-width: 1;" x1="232.52808988764045" x2="232.52808988764045" y1="15" y2="165" /><text style="font-family: times; font-size: 8pt" text-anchor="middle" x="232.52808988764045" y="188">7.5</text><line style="stroke: #888888;stroke-width: 1;" x1="222.35955056179773" x2="222.35955056179773" y1="15" y2="165" /><line style="stroke: #888888;stroke-width: 1;" x1="212.19101123595505" x2="212.19101123595505" y1="15" y2="165" /><line style="stroke: #888888;stroke-width: 1;" x1="181.68539325842696" x2="181.68539325842696" y1="15" y2="165" /><text style="font-family: times; font-size: 8pt" text-anchor="middle" x="181.68539325842696" y="188">5.0</text><line style="stroke: #888888;stroke-width: 1;" x1="100.33707865168539" x2="100.33707865168539" y1="15" y2="165" /><text style="font-family: times; font-size: 8pt" text-anchor="middle" x="100.33707865168539" y="188">1.0</text><line style="stroke: #888888;stroke-width: 1;" x1="90.1685393258427" x2="90.1685393258427" y1="15" y2="165" /><line style="stroke: #888888;stroke-width: 1;" x1="80.0" x2="80.0" y1="15" y2="165" /><rect height="30" style="fill:#bce6b3; stroke: #166f2b; stroke-width: 2" width="142.35955056179773" x="273.2022471910112" y="15" /><text style="font-family: times; font-size: 8pt" text-anchor="middle" x="344.3820224719101" y="32.0">O10</text><rect height="30" style="fill:#bce6b3; stroke: #166f2b; stroke-width: 2" width="142.35955056179773" x="720.6179775280898" y="15" /><text style="font-family: times; font-size: 8pt" text-anchor="middle" x="791.7977528089887" y="32.0">O8</text><rect height="30" style="fill:#bce6b3; stroke: #166f2b; stroke-width: 2" width="142.35955056179773" x="496.9101123595505" y="15" /><text style="font-family: times; font-size: 8pt" text-anchor="middle" x="568.0898876404494" y="32.0">O12</text><rect height="30" style="fill:#cdcdcd; stroke: #000000; stroke-width: 2" width="40.674157303370784" x="679.943820224719" y="15" /><text style="font-family: times; font-size: 8pt" text-anchor="middle" x="700.2808988764044" y="32.0">O2</text><rect height="30" style="fill:#cdcdcd; stroke: #000000; stroke-width: 2" width="40.674157303370784" x="232.52808988764045" y="15" /><text style="font-family: times; font-size: 8pt" text-anchor="middle" x="252.86516853932585" y="32.0">O4,St</text><rect height="30" style="fill:#cdcdcd; stroke: #000000; stroke-width: 2" width="40.674157303370784" x="456.23595505617976" y="15" /><text style="font-family: times; font-size: 8pt" text-anchor="middle" x="476.57303370786514" y="32.0">O6,St</text><rect height="30" style="fill:#cdcdcd; stroke: #000000; stroke-width: 2" width="20.337078651685392" x="862.9775280898876" y="15" /><text style="font-family: times; font-size: 8pt" text-anchor="middle" x="873.1460674157304" y="32.0">o2</text><rect height="30" style="fill:#cdcdcd; stroke: #000000; stroke-width: 2" width="40.674157303370784" x="415.56179775280896" y="15" /><text style="font-family: times; font-size: 8pt" text-anchor="middle" x="435.89887640449433" y="32.0">St</text><rect height="30" style="fill:#cdcdcd; stroke: #000000; stroke-width: 2" width="40.674157303370784" x="639.2696629213483" y="15" /><text style="font-family: times; font-size: 8pt" text-anchor="middle" x="659.6067415730337" y="32.0">St</text><rect height="30" style="fill:#bce6b3; stroke: #166f2b; stroke-width: 2" width="142.35955056179773" x="385.0561797752809" y="45" /><text style="font-family: times; font-size: 8pt" text-anchor="middle" x="456.23595505617976" y="62.0">O11</text><rect height="30" style="fill:#bce6b3; stroke: #166f2b; stroke-width: 2" width="142.35955056179773" x="822.3033707865168" y="45" /><text style="font-family: times; font-size: 8pt" text-anchor="middle" x="893.4831460674156" y="62.0">O9</text><rect height="30" style="fill:#bce6b3; stroke: #166f2b; stroke-width: 2" width="142.35955056179773" x="598.5955056179774" y="45" /><text style="font-family: times; font-size: 8pt" text-anchor="middle" x="669.7752808988763" y="62.0">O7</text><rect height="30" style="fill:#cdcdcd; stroke: #000000; stroke-width: 2" width="40.674157303370784" x="557.9213483146067" y="45" /><text style="font-family: times; font-size: 8pt" text-anchor="middle" x="578.2584269662921" y="62.0">O1,St</text><rect height="30" style="fill:#cdcdcd; stroke: #000000; stroke-width: 2" width="50.84269662921348" x="771.4606741573033" y="45" /><text style="font-family: times; font-size: 8pt" text-anchor="middle" x="796.88202247191" y="62.0">O3</text><rect height="30" style="fill:#cdcdcd; stroke: #000000; stroke-width: 2" width="40.674157303370784" x="344.3820224719101" y="45" /><text style="font-family: times; font-size: 8pt" text-anchor="middle" x="364.71910112359546" y="62.0">O5,St</text><rect height="30" style="fill:#cdcdcd; stroke: #000000; stroke-width: 2" width="30.50561797752809" x="740.9550561797753" y="45" /><text style="font-family: times; font-size: 8pt" text-anchor="middle" x="756.2078651685393" y="62.0">St</text><rect height="30" style="fill:#cdcdcd; stroke: #000000; stroke-width: 2" width="10.168539325842696" x="964.6629213483145" y="45" /><text style="font-family: times; font-size: 8pt" text-anchor="middle" x="969.7471910112358" y="62.0">o3</text><rect height="30" style="fill:#cdcdcd; stroke: #000000; stroke-width: 2" width="30.50561797752809" x="527.4157303370787" y="45" /><text style="font-family: times; font-size: 8pt" text-anchor="middle" x="542.6685393258427" y="62.0">St</text><rect height="30" style="fill:#fccecf; stroke: #cc3333; stroke-width: 2" width="81.34831460674157" x="252.86516853932582" y="75" /><text style="font-family: times; font-size: 8pt" text-anchor="middle" x="293.5393258426966" y="92.0">O6</text><rect height="30" style="fill:#fccecf; stroke: #cc3333; stroke-width: 2" width="81.34831460674157" x="100.33707865168539" y="75" /><text style="font-family: times; font-size: 8pt" text-anchor="middle" x="141.01123595505618" y="92.0">O4</text><rect height="30" style="fill:#fccecf; stroke: #cc3333; stroke-width: 2" width="81.34831460674157" x="405.39325842696627" y="75" /><text style="font-family: times; font-size: 8pt" text-anchor="middle" x="446.0674157303371" y="92.0">O3</text><rect height="30" style="fill:#cdcdcd; stroke: #000000; stroke-width: 2" width="20.337078651685392" x="364.71910112359546" y="75" /><text style="font-family: times; font-size: 8pt" text-anchor="middle" x="374.88764044943815" y="92.0">i3</text><rect height="30" style="fill:#cdcdcd; stroke: #000000; stroke-width: 2" width="20.337078651685392" x="385.0561797752809" y="75" /><text style="font-family: times; font-size: 8pt" text-anchor="middle" x="395.2247191011236" y="92.0">i9</text><rect height="30" style="fill:#cdcdcd; stroke: #000000; stroke-width: 2" width="10.168539325842696" x="90.1685393258427" y="75" /><text style="font-family: times; font-size: 8pt" text-anchor="middle" x="95.25280898876404" y="92.0">i4</text><rect height="30" style="fill:#cdcdcd; stroke: #000000; stroke-width: 2" width="10.168539325842696" x="80.0" y="75" /><text style="font-family: times; font-size: 8pt" text-anchor="middle" x="85.08426966292134" y="92.0">i10</text><rect height="30" style="fill:#cdcdcd; stroke: #000000; stroke-width: 2" width="10.168539325842696" x="242.69662921348313" y="75" /><text style="font-family: times; font-size: 8pt" text-anchor="middle" x="247.78089887640448" y="92.0">i6</text><rect height="30" style="fill:#cdcdcd; stroke: #000000; stroke-width: 2" width="10.168539325842696" x="232.52808988764045" y="75" /><text style="font-family: times; font-size: 8pt" text-anchor="middle" x="237.6123595505618" y="92.0">i12</text><rect height="30" style="fill:#cdcdcd; stroke: #000000; stroke-width: 2" width="20.337078651685392" x="212.19101123595505" y="75" /><text style="font-family: times; font-size: 8pt" text-anchor="middle" x="222.35955056179773" y="92.0">St</text><rect height="30" style="fill:#cdcdcd; stroke: #000000; stroke-width: 2" width="20.337078651685392" x="344.3820224719101" y="75" /><text style="font-family: times; font-size: 8pt" text-anchor="middle" x="354.5505617977528" y="92.0">St</text><rect height="30" style="fill:#fccecf; stroke: #cc3333; stroke-width: 2" width="81.34831460674157" x="364.71910112359546" y="105" /><text style="font-family: times; font-size: 8pt" text-anchor="middle" x="405.39325842696627" y="122.0">O2</text><rect height="30" style="fill:#fccecf; stroke: #cc3333; stroke-width: 2" width="81.34831460674157" x="100.33707865168539" y="105" /><text style="font-family: times; font-size: 8pt" text-anchor="middle" x="141.01123595505618" y="122.0">O1</text><rect height="30" style="fill:#fccecf; stroke: #cc3333; stroke-width: 2" width="81.34831460674157" x="232.52808988764045" y="105" /><text style="font-family: times; font-size: 8pt" text-anchor="middle" x="273.2022471910112" y="122.0">O5</text><rect height="30" style="fill:#cdcdcd; stroke: #000000; stroke-width: 2" width="10.168539325842696" x="80.0" y="105" /><text style="font-family: times; font-size: 8pt" text-anchor="middle" x="85.08426966292134" y="122.0">i1</text><rect height="30" style="fill:#cdcdcd; stroke: #000000; stroke-width: 2" width="10.168539325842696" x="90.1685393258427" y="105" /><text style="font-family: times; font-size: 8pt" text-anchor="middle" x="95.25280898876404" y="122.0">i7</text><rect height="30" style="fill:#cdcdcd; stroke: #000000; stroke-width: 2" width="10.168539325842696" x="344.3820224719101" y="105" /><text style="font-family: times; font-size: 8pt" text-anchor="middle" x="349.46629213483146" y="122.0">i2</text><rect height="30" style="fill:#cdcdcd; stroke: #000000; stroke-width: 2" width="10.168539325842696" x="354.5505617977528" y="105" /><text style="font-family: times; font-size: 8pt" text-anchor="middle" x="359.63483146067415" y="122.0">i8</text><rect height="30" style="fill:#cdcdcd; stroke: #000000; stroke-width: 2" width="10.168539325842696" x="222.35955056179773" y="105" /><text style="font-family: times; font-size: 8pt" text-anchor="middle" x="227.44382022471908" y="122.0">i5</text><rect height="30" style="fill:#cdcdcd; stroke: #000000; stroke-width: 2" width="10.168539325842696" x="212.19101123595505" y="105" /><text style="font-family: times; font-size: 8pt" text-anchor="middle" x="217.2752808988764" y="122.0">i11</text><rect height="30" style="fill:#cdcdcd; stroke: #000000; stroke-width: 2" width="30.50561797752809" x="181.68539325842696" y="105" /><text style="font-family: times; font-size: 8pt" text-anchor="middle" x="196.938202247191" y="122.0">St</text><rect height="30" style="fill:#cdcdcd; stroke: #000000; stroke-width: 2" width="30.50561797752809" x="313.876404494382" y="105" /><text style="font-family: times; font-size: 8pt" text-anchor="middle" x="329.12921348314603" y="122.0">St</text></svg>