<?xml version="1.0" encoding="utf-8" ?>
<svg baseProfile="full" height="420" version="1.1" width="1000" xmlns="http://www.w3.org/2000/svg" xmlns:ev="http://www.w3.org/2001/xml-events" xmlns:xlink="http://www.w3.org/1999/xlink"><defs /><rect fill="rgb(255, 255, 255)" height="30" width="970" x="15" y="15" /><text style="font-family: times; font-size: 8pt" text-anchor="end" x="70" y="32.0">Detector1</text><rect fill="rgb(230, 230, 230)" height="30" width="970" x="15" y="45" /><text style="font-family: times; font-size: 8pt" text-anchor="end" x="70" y="62.0">Detector2</text><rect fill="rgb(255, 255, 255)" height="30" width="970" x="15" y="75" /><text style="font-family: times; font-size: 8pt" text-anchor="end" x="70" y="92.0">Detector3</text><rect fill="rgb(230, 230, 230)" height="30" width="970" x="15" y="105" /><text style="font-family: times; font-size: 8pt" text-anchor="end" x="70" y="122.0">Detector4</text><rect fill="rgb(255, 255, 255)" height="30" width="970" x="15" y="135" /><text style="font-family: times; font-size: 8pt" text-anchor="end" x="70" y="152.0">Detector5</text><rect fill="rgb(230, 230, 230)" height="30" width="970" x="15" y="165" /><text style="font-family: times; font-size: 8pt" text-anchor="end" x="70" y="182.0">Detector6</text><rect fill="rgb(255, 255, 255)" height="30" width="970" x="15" y="195" /><text style="font-family: times; font-size: 8pt" text-anchor="end" x="70" y="212.0">Mixer1</text><rect fill="rgb(230, 230, 230)" height="30" width="970" x="15" y="225" /><text style="font-family: times; font-size: 8pt" text-anchor="end" x="70" y="242.0">Mixer2</text><rect fill="rgb(255, 255, 255)" height="30" width="970" x="15" y="255" /><text style="font-family: times; font-size: 8pt" text-anchor="end" x="70" y="272.0">Mixer4</text><rect fill="rgb(230, 230, 230)" height="30" width="970" x="15" y="285" /><text style="font-family: times; font-size: 8pt" text-anchor="end" x="70" y="302.0">Mixer5</text><rect fill="rgb(255, 255, 255)" height="30" width="970" x="15" y="315" /><text style="font-family: times; font-size: 8pt" text-anchor="end" x="70" y="332.0">Mixer6</text><line style="stroke: #888888;stroke-width: 1;" x1="985.0" x2="985.0" y1="15" y2="375" /><text style="font-family: times; font-size: 8pt" text-anchor="middle" x="985.0" y="398">26.0</text><line style="stroke: #888888;stroke-width: 1;" x1="967.5961538461538" x2="967.5961538461538" y1="15" y2="375" /><line style="stroke: #888888;stroke-width: 1;" x1="810.9615384615385" x2="810.9615384615385" y1="15" y2="375" /><text style="font-family: times; font-size: 8pt" text-anchor="middle" x="810.9615384615385" y="398">21.0</text><line style="stroke: #888888;stroke-width: 1;" x1="793.5576923076923" x2="793.5576923076923" y1="15" y2="375" /><line style="stroke: #888888;stroke-width: 1;" x1="723.9423076923076" x2="723.9423076923076" y1="15" y2="375" /><text style="font-family: times; font-size: 8pt" text-anchor="middle" x="723.9423076923076" y="398">18.5</text><line style="stroke: #888888;stroke-width: 1;" x1="706.5384615384615" x2="706.5384615384615" y1="15" y2="375" /><line style="stroke: #888888;stroke-width: 1;" x1="689.1346153846154" x2="689.1346153846154" y1="15" y2="375" /><line style="stroke: #888888;stroke-width: 1;" x1="671.7307692307692" x2="671.7307692307692" y1="15" y2="375" /><text style="font-family: times; font-size: 8pt" text-anchor="middle" x="671.7307692307692" y="398">17.0</text><line style="stroke: #888888;stroke-width: 1;" x1="654.3269230769231" x2="654.3269230769231" y1="15" y2="375" /><line style="stroke: #888888;stroke-width: 1;" x1="636.9230769230769" x2="636.9230769230769" y1="15" y2="375" /><line style="stroke: #888888;stroke-width: 1;" x1="602.1153846153846" x2="602.1153846153846" y1="15" y2="375" /><text style="font-family: times; font-size: 8pt" text-anchor="middle" x="602.1153846153846" y="398">15.0</text><line style="stroke: #888888;stroke-width: 1;" x1="584.7115384615385" x2="584.7115384615385" y1="15" y2="375" /><line style="stroke: #888888;stroke-width: 1;" x1="549.9038461538462" x2="549.9038461538462" y1="15" y2="375" /><text style="font-family: times; font-size: 8pt" text-anchor="middle" x="549.9038461538462" y="398">13.5</text><line style="stroke: #888888;stroke-width: 1;" x1="532.5" x2="532.5" y1="15" y2="375" /><line style="stroke: #888888;stroke-width: 1;" x1="462.88461538461536" x2="462.88461538461536" y1="15" y2="375" /><text style="font-family: times; font-size: 8pt" text-anchor="middle" x="462.88461538461536" y="398">11.0</text><line style="stroke: #888888;stroke-width: 1;" x1="445.4807692307692" x2="445.4807692307692" y1="15" y2="375" /><line style="stroke: #888888;stroke-width: 1;" x1="428.0769230769231" x2="428.0769230769231" y1="15" y2="375" /><line style="stroke: #888888;stroke-width: 1;" x1="393.2692307692308" x2="393.2692307692308" y1="15" y2="375" /><text style="font-family: times; font-size: 8pt" text-anchor="middle" x="393.2692307692308" y="398">9.0</text><line style="stroke: #888888;stroke-width: 1;" x1="358.46153846153845" x2="358.46153846153845" y1="15" y2="375" /><line style="stroke: #888888;stroke-width: 1;" x1="341.0576923076923" x2="341.0576923076923" y1="15" y2="375" /><text style="font-family: times; font-size: 8pt" text-anchor="middle" x="341.0576923076923" y="398">7.5</text><line style="stroke: #888888;stroke-width: 1;" x1="306.25" x2="306.25" y1="15" y2="375" /><line style="stroke: #888888;stroke-width: 1;" x1="288.8461538461538" x2="288.8461538461538" y1="15" y2="375" /><text style="font-family: times; font-size: 8pt" text-anchor="middle" x="288.8461538461538" y="398">6.0</text><line style="stroke: #888888;stroke-width: 1;" x1="254.03846153846155" x2="254.03846153846155" y1="15" y2="375" /><line style="stroke: #888888;stroke-width: 1;" x1="219.23076923076923" x2="219.23076923076923" y1="15" y2="375" /><text style="font-family: times; font-size: 8pt" text-anchor="middle" x="219.23076923076923" y="398">4.0</text><line style="stroke: #888888;stroke-width: 1;" x1="167.01923076923077" x2="167.01923076923077" y1="15" y2="375" /><text style="font-family: times; font-size: 8pt" text-anchor="middle" x="167.01923076923077" y="398">2.5</text><line style="stroke: #888888;stroke-width: 1;" x1="149.6153846153846" x2="149.6153846153846" y1="15" y2="375" /><line style="stroke: #888888;stroke-width: 1;" x1="132.21153846153845" x2="132.21153846153845" y1="15" y2="375" /><line style="stroke: #888888;stroke-width: 1;" x1="114.8076923076923" x2="114.8076923076923" y1="15" y2="375" /><text style="font-family: times; font-size: 8pt" text-anchor="middle" x="114.8076923076923" y="398">1.0</text><line style="stroke: #888888;stroke-width: 1;" x1="97.40384615384616" x2="97.40384615384616" y1="15" y2="375" /><line style="stroke: #888888;stroke-width: 1;" x1="80.0" x2="80.0" y1="15" y2="375" /><rect height="30" style="fill:#bce6b3; stroke: #166f2b; stroke-width: 2" width="243.65384615384613" x="341.0576923076923" y="15" /><text style="font-family: times; font-size: 8pt" text-anchor="middle" x="462.88461538461536" y="32.0">O7</text><rect height="30" style="fill:#cdcdcd; stroke: #000000; stroke-width: 2" width="34.80769230769231" x="306.25" y="15" /><text style="font-family: times; font-size: 8pt" text-anchor="middle" x="323.65384615384613" y="32.0">O1</text><rect height="30" style="fill:#cdcdcd; stroke: #000000; stroke-width: 2" width="17.403846153846153" x="584.7115384615385" y="15" /><text style="font-family: times; font-size: 8pt" text-anchor="middle" x="593.4134615384615" y="32.0">o1</text><rect height="30" style="fill:#bce6b3; stroke: #166f2b; stroke-width: 2" width="243.65384615384613" x="723.9423076923076" y="45" /><text style="font-family: times; font-size: 8pt" text-anchor="middle" x="845.7692307692307" y="62.0">O9</text><rect height="30" style="fill:#cdcdcd; stroke: #000000; stroke-width: 2" width="52.21153846153846" x="671.7307692307692" y="45" /><text style="font-family: times; font-size: 8pt" text-anchor="middle" x="697.8365384615385" y="62.0">O3</text><rect height="30" style="fill:#cdcdcd; stroke: #000000; stroke-width: 2" width="17.403846153846153" x="967.5961538461538" y="45" /><text style="font-family: times; font-size: 8pt" text-anchor="middle" x="976.2980769230769" y="62.0">o3</text><rect height="30" style="fill:#bce6b3; stroke: #166f2b; stroke-width: 2" width="243.65384615384613" x="462.88461538461536" y="75" /><text style="font-family: times; font-size: 8pt" text-anchor="middle" x="584.7115384615385" y="92.0">O10</text><rect height="30" style="fill:#cdcdcd; stroke: #000000; stroke-width: 2" width="17.403846153846153" x="445.4807692307692" y="75" /><text style="font-family: times; font-size: 8pt" text-anchor="middle" x="454.1826923076923" y="92.0">O4,St</text><rect height="30" style="fill:#cdcdcd; stroke: #000000; stroke-width: 2" width="17.403846153846153" x="706.5384615384615" y="75" /><text style="font-family: times; font-size: 8pt" text-anchor="middle" x="715.2403846153846" y="92.0">o4</text><rect height="30" style="fill:#bce6b3; stroke: #166f2b; stroke-width: 2" width="243.65384615384613" x="393.2692307692308" y="105" /><text style="font-family: times; font-size: 8pt" text-anchor="middle" x="515.0961538461538" y="122.0">O11</text><rect height="30" style="fill:#cdcdcd; stroke: #000000; stroke-width: 2" width="34.80769230769231" x="358.46153846153845" y="105" /><text style="font-family: times; font-size: 8pt" text-anchor="middle" x="375.8653846153846" y="122.0">O5</text><rect height="30" style="fill:#cdcdcd; stroke: #000000; stroke-width: 2" width="17.403846153846153" x="636.9230769230769" y="105" /><text style="font-family: times; font-size: 8pt" text-anchor="middle" x="645.625" y="122.0">o5</text><rect height="30" style="fill:#bce6b3; stroke: #166f2b; stroke-width: 2" width="243.65384615384613" x="549.9038461538462" y="135" /><text style="font-family: times; font-size: 8pt" text-anchor="middle" x="671.7307692307693" y="152.0">O8</text><rect height="30" style="fill:#cdcdcd; stroke: #000000; stroke-width: 2" width="17.403846153846153" x="532.5" y="135" /><text style="font-family: times; font-size: 8pt" text-anchor="middle" x="541.2019230769231" y="152.0">O2</text><rect height="30" style="fill:#cdcdcd; stroke: #000000; stroke-width: 2" width="17.403846153846153" x="793.5576923076923" y="135" /><text style="font-family: times; font-size: 8pt" text-anchor="middle" x="802.2596153846154" y="152.0">o2</text><rect height="30" style="fill:#bce6b3; stroke: #166f2b; stroke-width: 2" width="243.65384615384613" x="445.4807692307692" y="165" /><text style="font-family: times; font-size: 8pt" text-anchor="middle" x="567.3076923076923" y="182.0">O12</text><rect height="30" style="fill:#cdcdcd; stroke: #000000; stroke-width: 2" width="17.403846153846153" x="428.0769230769231" y="165" /><text style="font-family: times; font-size: 8pt" text-anchor="middle" x="436.7788461538462" y="182.0">O6</text><rect height="30" style="fill:#cdcdcd; stroke: #000000; stroke-width: 2" width="17.403846153846153" x="689.1346153846154" y="165" /><text style="font-family: times; font-size: 8pt" text-anchor="middle" x="697.8365384615385" y="182.0">o6</text><rect height="30" style="fill:#fccecf; stroke: #cc3333; stroke-width: 2" width="139.23076923076923" x="167.01923076923077" y="195" /><text style="font-family: times; font-size: 8pt" text-anchor="middle" x="236.6346153846154" y="212.0">O1</text><rect height="30" style="fill:#cdcdcd; stroke: #000000; stroke-width: 2" width="17.403846153846153" x="80.0" y="195" /><text style="font-family: times; font-size: 8pt" text-anchor="middle" x="88.70192307692308" y="212.0">i1</text><rect height="30" style="fill:#cdcdcd; stroke: #000000; stroke-width: 2" width="69.61538461538461" x="97.40384615384616" y="195" /><text style="font-family: times; font-size: 8pt" text-anchor="middle" x="132.21153846153845" y="212.0">i7</text><rect height="30" style="fill:#fccecf; stroke: #cc3333; stroke-width: 2" width="139.23076923076923" x="532.5" y="225" /><text style="font-family: times; font-size: 8pt" text-anchor="middle" x="602.1153846153846" y="242.0">O3</text><rect height="30" style="fill:#fccecf; stroke: #cc3333; stroke-width: 2" width="139.23076923076923" x="167.01923076923077" y="225" /><text style="font-family: times; font-size: 8pt" text-anchor="middle" x="236.6346153846154" y="242.0">O4</text><rect height="30" style="fill:#cdcdcd; stroke: #000000; stroke-width: 2" width="17.403846153846153" x="445.4807692307692" y="225" /><text style="font-family: times; font-size: 8pt" text-anchor="middle" x="454.1826923076923" y="242.0">i3</text><rect height="30" style="fill:#cdcdcd; stroke: #000000; stroke-width: 2" width="69.61538461538461" x="462.88461538461536" y="225" /><text style="font-family: times; font-size: 8pt" text-anchor="middle" x="497.6923076923077" y="242.0">i9</text><rect height="30" style="fill:#cdcdcd; stroke: #000000; stroke-width: 2" width="17.403846153846153" x="149.6153846153846" y="225" /><text style="font-family: times; font-size: 8pt" text-anchor="middle" x="158.31730769230768" y="242.0">i4</text><rect height="30" style="fill:#cdcdcd; stroke: #000000; stroke-width: 2" width="69.61538461538461" x="80.0" y="225" /><text style="font-family: times; font-size: 8pt" text-anchor="middle" x="114.8076923076923" y="242.0">i10</text><rect height="30" style="fill:#cdcdcd; stroke: #000000; stroke-width: 2" width="52.21153846153846" x="393.2692307692308" y="225" /><text style="font-family: times; font-size: 8pt" text-anchor="middle" x="419.375" y="242.0">St</text><rect height="30" style="fill:#fccecf; stroke: #cc3333; stroke-width: 2" width="139.23076923076923" x="219.23076923076923" y="255" /><text style="font-family: times; font-size: 8pt" text-anchor="middle" x="288.8461538461538" y="272.0">O5</text><rect height="30" style="fill:#cdcdcd; stroke: #000000; stroke-width: 2" width="52.21153846153846" x="167.01923076923077" y="255" /><text style="font-family: times; font-size: 8pt" text-anchor="middle" x="193.125" y="272.0">i5</text><rect height="30" style="fill:#cdcdcd; stroke: #000000; stroke-width: 2" width="34.80769230769231" x="80.0" y="255" /><text style="font-family: times; font-size: 8pt" text-anchor="middle" x="97.40384615384616" y="272.0">i11</text><rect height="30" style="fill:#fccecf; stroke: #cc3333; stroke-width: 2" width="139.23076923076923" x="393.2692307692308" y="285" /><text style="font-family: times; font-size: 8pt" text-anchor="middle" x="462.88461538461536" y="302.0">O2</text><rect height="30" style="fill:#cdcdcd; stroke: #000000; stroke-width: 2" width="87.01923076923077" x="167.01923076923077" y="285" /><text style="font-family: times; font-size: 8pt" text-anchor="middle" x="210.52884615384616" y="302.0">i2</text><rect height="30" style="fill:#cdcdcd; stroke: #000000; stroke-width: 2" width="104.42307692307692" x="288.8461538461538" y="285" /><text style="font-family: times; font-size: 8pt" text-anchor="middle" x="341.05769230769226" y="302.0">i8</text><rect height="30" style="fill:#fccecf; stroke: #cc3333; stroke-width: 2" width="139.23076923076923" x="288.8461538461538" y="315" /><text style="font-family: times; font-size: 8pt" text-anchor="middle" x="358.46153846153845" y="332.0">O6</text><rect height="30" style="fill:#cdcdcd; stroke: #000000; stroke-width: 2" width="69.61538461538461" x="219.23076923076923" y="315" /><text style="font-family: times; font-size: 8pt" text-anchor="middle" x="254.03846153846155" y="332.0">i6</text><rect height="30" style="fill:#cdcdcd; stroke: #000000; stroke-width: 2" width="17.403846153846153" x="114.8076923076923" y="315" /><text style="font-family: times; font-size: 8pt" text-anchor="middle" x="123.50961538461539" y="332.0">i12</text></svg>