<?xml version="1.0" encoding="utf-8" ?>
<svg baseProfile="full" height="180" version="1.1" width="1000" xmlns="http://www.w3.org/2000/svg" xmlns:ev="http://www.w3.org/2001/xml-events" xmlns:xlink="http://www.w3.org/1999/xlink"><defs /><rect fill="rgb(255, 255, 255)" height="30" width="970" x="15" y="15" /><text style="font-family: times; font-size: 8pt" text-anchor="end" x="70" y="32.0">Mixer1</text><rect fill="rgb(230, 230, 230)" height="30" width="970" x="15" y="45" /><text style="font-family: times; font-size: 8pt" text-anchor="end" x="70" y="62.0">Mixer2</text><rect fill="rgb(255, 255, 255)" height="30" width="970" x="15" y="75" /><text style="font-family: times; font-size: 8pt" text-anchor="end" x="70" y="92.0">Mixer3</text><line style="stroke: #888888;stroke-width: 1;" x1="985.0" x2="985.0" y1="15" y2="135" /><text style="font-family: times; font-size: 8pt" text-anchor="middle" x="985.0" y="158">23.5</text><line style="stroke: #888888;stroke-width: 1;" x1="946.4893617021277" x2="946.4893617021277" y1="15" y2="135" /><line style="stroke: #888888;stroke-width: 1;" x1="792.4468085106383" x2="792.4468085106383" y1="15" y2="135" /><text style="font-family: times; font-size: 8pt" text-anchor="middle" x="792.4468085106383" y="158">18.5</text><line style="stroke: #888888;stroke-width: 1;" x1="773.1914893617021" x2="773.1914893617021" y1="15" y2="135" /><line style="stroke: #888888;stroke-width: 1;" x1="619.1489361702128" x2="619.1489361702128" y1="15" y2="135" /><text style="font-family: times; font-size: 8pt" text-anchor="middle" x="619.1489361702128" y="158">14.0</text><line style="stroke: #888888;stroke-width: 1;" x1="580.6382978723404" x2="580.6382978723404" y1="15" y2="135" /><line style="stroke: #888888;stroke-width: 1;" x1="561.3829787234042" x2="561.3829787234042" y1="15" y2="135" /><text style="font-family: times; font-size: 8pt" text-anchor="middle" x="561.3829787234042" y="158">12.5</text><line style="stroke: #888888;stroke-width: 1;" x1="426.59574468085106" x2="426.59574468085106" y1="15" y2="135" /><text style="font-family: times; font-size: 8pt" text-anchor="middle" x="426.59574468085106" y="158">9.0</text><line style="stroke: #888888;stroke-width: 1;" x1="407.3404255319149" x2="407.3404255319149" y1="15" y2="135" /><line style="stroke: #888888;stroke-width: 1;" x1="388.0851063829787" x2="388.0851063829787" y1="15" y2="135" /><line style="stroke: #888888;stroke-width: 1;" x1="368.82978723404256" x2="368.82978723404256" y1="15" y2="135" /><text style="font-family: times; font-size: 8pt" text-anchor="middle" x="368.82978723404256" y="158">7.5</text><line style="stroke: #888888;stroke-width: 1;" x1="311.06382978723406" x2="311.06382978723406" y1="15" y2="135" /><text style="font-family: times; font-size: 8pt" text-anchor="middle" x="311.06382978723406" y="158">6.0</text><line style="stroke: #888888;stroke-width: 1;" x1="272.55319148936167" x2="272.55319148936167" y1="15" y2="135" /><line style="stroke: #888888;stroke-width: 1;" x1="157.02127659574467" x2="157.02127659574467" y1="15" y2="135" /><text style="font-family: times; font-size: 8pt" text-anchor="middle" x="157.02127659574467" y="158">2.0</text><line style="stroke: #888888;stroke-width: 1;" x1="137.7659574468085" x2="137.7659574468085" y1="15" y2="135" /><line style="stroke: #888888;stroke-width: 1;" x1="118.51063829787233" x2="118.51063829787233" y1="15" y2="135" /><line style="stroke: #888888;stroke-width: 1;" x1="99.25531914893617" x2="99.25531914893617" y1="15" y2="135" /><text style="font-family: times; font-size: 8pt" text-anchor="middle" x="99.25531914893617" y="158">0.5</text><line style="stroke: #888888;stroke-width: 1;" x1="80.0" x2="80.0" y1="15" y2="135" /><rect height="30" style="fill:#fccecf; stroke: #cc3333; stroke-width: 2" width="154.04255319148936" x="619.1489361702128" y="15" /><text style="font-family: times; font-size: 8pt" text-anchor="middle" x="696.1702127659574" y="32.0">O6</text><rect height="30" style="fill:#fccecf; stroke: #cc3333; stroke-width: 2" width="154.04255319148936" x="118.51063829787233" y="15" /><text style="font-family: times; font-size: 8pt" text-anchor="middle" x="195.531914893617" y="32.0">O1</text><rect height="30" style="fill:#fccecf; stroke: #cc3333; stroke-width: 2" width="154.04255319148936" x="407.3404255319149" y="15" /><text style="font-family: times; font-size: 8pt" text-anchor="middle" x="484.36170212765956" y="32.0">O4</text><rect height="30" style="fill:#cdcdcd; stroke: #000000; stroke-width: 2" width="19.25531914893617" x="80.0" y="15" /><text style="font-family: times; font-size: 8pt" text-anchor="middle" x="89.62765957446808" y="32.0">i1</text><rect height="30" style="fill:#cdcdcd; stroke: #000000; stroke-width: 2" width="19.25531914893617" x="99.25531914893617" y="15" /><text style="font-family: times; font-size: 8pt" text-anchor="middle" x="108.88297872340425" y="32.0">i2</text><rect height="30" style="fill:#cdcdcd; stroke: #000000; stroke-width: 2" width="19.25531914893617" x="368.82978723404256" y="15" /><text style="font-family: times; font-size: 8pt" text-anchor="middle" x="378.45744680851067" y="32.0">i7</text><rect height="30" style="fill:#cdcdcd; stroke: #000000; stroke-width: 2" width="19.25531914893617" x="388.0851063829787" y="15" /><text style="font-family: times; font-size: 8pt" text-anchor="middle" x="397.71276595744683" y="32.0">i8</text><rect height="30" style="fill:#cdcdcd; stroke: #000000; stroke-width: 2" width="96.27659574468085" x="272.55319148936167" y="15" /><text style="font-family: times; font-size: 8pt" text-anchor="middle" x="320.6914893617021" y="32.0">St</text><rect height="30" style="fill:#cdcdcd; stroke: #000000; stroke-width: 2" width="57.765957446808514" x="561.3829787234042" y="15" /><text style="font-family: times; font-size: 8pt" text-anchor="middle" x="590.2659574468084" y="32.0">O3</text><rect height="30" style="fill:#fccecf; stroke: #cc3333; stroke-width: 2" width="154.04255319148936" x="157.02127659574467" y="45" /><text style="font-family: times; font-size: 8pt" text-anchor="middle" x="234.04255319148933" y="62.0">O2</text><rect height="30" style="fill:#fccecf; stroke: #cc3333; stroke-width: 2" width="154.04255319148936" x="426.59574468085106" y="45" /><text style="font-family: times; font-size: 8pt" text-anchor="middle" x="503.6170212765957" y="62.0">O5</text><rect height="30" style="fill:#fccecf; stroke: #cc3333; stroke-width: 2" width="154.04255319148936" x="792.4468085106383" y="45" /><text style="font-family: times; font-size: 8pt" text-anchor="middle" x="869.468085106383" y="62.0">O7</text><rect height="30" style="fill:#cdcdcd; stroke: #000000; stroke-width: 2" width="38.51063829787234" x="118.51063829787233" y="45" /><text style="font-family: times; font-size: 8pt" text-anchor="middle" x="137.7659574468085" y="62.0">i3</text><rect height="30" style="fill:#cdcdcd; stroke: #000000; stroke-width: 2" width="38.51063829787234" x="80.0" y="45" /><text style="font-family: times; font-size: 8pt" text-anchor="middle" x="99.25531914893617" y="62.0">i4</text><rect height="30" style="fill:#cdcdcd; stroke: #000000; stroke-width: 2" width="57.765957446808514" x="368.82978723404256" y="45" /><text style="font-family: times; font-size: 8pt" text-anchor="middle" x="397.71276595744683" y="62.0">O1,St</text><rect height="30" style="fill:#cdcdcd; stroke: #000000; stroke-width: 2" width="19.25531914893617" x="773.1914893617021" y="45" /><text style="font-family: times; font-size: 8pt" text-anchor="middle" x="782.8191489361702" y="62.0">O6</text><rect height="30" style="fill:#cdcdcd; stroke: #000000; stroke-width: 2" width="38.51063829787234" x="946.4893617021277" y="45" /><text style="font-family: times; font-size: 8pt" text-anchor="middle" x="965.7446808510639" y="62.0">o1</text><rect height="30" style="fill:#fccecf; stroke: #cc3333; stroke-width: 2" width="154.04255319148936" x="157.02127659574467" y="75" /><text style="font-family: times; font-size: 8pt" text-anchor="middle" x="234.04255319148933" y="92.0">O3</text><rect height="30" style="fill:#cdcdcd; stroke: #000000; stroke-width: 2" width="19.25531914893617" x="118.51063829787233" y="75" /><text style="font-family: times; font-size: 8pt" text-anchor="middle" x="128.13829787234042" y="92.0">i5</text><rect height="30" style="fill:#cdcdcd; stroke: #000000; stroke-width: 2" width="19.25531914893617" x="137.7659574468085" y="75" /><text style="font-family: times; font-size: 8pt" text-anchor="middle" x="147.39361702127658" y="92.0">i6</text></svg>