<?xml version="1.0" encoding="utf-8" ?>
<svg baseProfile="full" height="210" version="1.1" width="1000" xmlns="http://www.w3.org/2000/svg" xmlns:ev="http://www.w3.org/2001/xml-events" xmlns:xlink="http://www.w3.org/1999/xlink"><defs /><rect fill="rgb(255, 255, 255)" height="30" width="970" x="15" y="15" /><text style="font-family: times; font-size: 8pt" text-anchor="end" x="70" y="32.0">Mixer1</text><rect fill="rgb(230, 230, 230)" height="30" width="970" x="15" y="45" /><text style="font-family: times; font-size: 8pt" text-anchor="end" x="70" y="62.0">Mixer2</text><rect fill="rgb(255, 255, 255)" height="30" width="970" x="15" y="75" /><text style="font-family: times; font-size: 8pt" text-anchor="end" x="70" y="92.0">Mixer3</text><rect fill="rgb(230, 230, 230)" height="30" width="970" x="15" y="105" /><text style="font-family: times; font-size: 8pt" text-anchor="end" x="70" y="122.0">Mixer4</text><line style="stroke: #888888;stroke-width: 1;" x1="985.0" x2="985.0" y1="15" y2="165" /><text style="font-family: times; font-size: 8pt" text-anchor="middle" x="985.0" y="188">19.5</text><line style="stroke: #888888;stroke-width: 1;" x1="961.7948717948718" x2="961.7948717948718" y1="15" y2="165" /><line style="stroke: #888888;stroke-width: 1;" x1="776.1538461538462" x2="776.1538461538462" y1="15" y2="165" /><text style="font-family: times; font-size: 8pt" text-anchor="middle" x="776.1538461538462" y="188">15.0</text><line style="stroke: #888888;stroke-width: 1;" x1="706.5384615384615" x2="706.5384615384615" y1="15" y2="165" /><text style="font-family: times; font-size: 8pt" text-anchor="middle" x="706.5384615384615" y="188">13.5</text><line style="stroke: #888888;stroke-width: 1;" x1="683.3333333333333" x2="683.3333333333333" y1="15" y2="165" /><line style="stroke: #888888;stroke-width: 1;" x1="590.5128205128206" x2="590.5128205128206" y1="15" y2="165" /><text style="font-family: times; font-size: 8pt" text-anchor="middle" x="590.5128205128206" y="188">11.0</text><line style="stroke: #888888;stroke-width: 1;" x1="520.8974358974359" x2="520.8974358974359" y1="15" y2="165" /><text style="font-family: times; font-size: 8pt" text-anchor="middle" x="520.8974358974359" y="188">9.5</text><line style="stroke: #888888;stroke-width: 1;" x1="497.6923076923077" x2="497.6923076923077" y1="15" y2="165" /><line style="stroke: #888888;stroke-width: 1;" x1="404.87179487179486" x2="404.87179487179486" y1="15" y2="165" /><text style="font-family: times; font-size: 8pt" text-anchor="middle" x="404.87179487179486" y="188">7.0</text><line style="stroke: #888888;stroke-width: 1;" x1="312.05128205128204" x2="312.05128205128204" y1="15" y2="165" /><text style="font-family: times; font-size: 8pt" text-anchor="middle" x="312.05128205128204" y="188">5.0</text><line style="stroke: #888888;stroke-width: 1;" x1="265.64102564102564" x2="265.64102564102564" y1="15" y2="165" /><text style="font-family: times; font-size: 8pt" text-anchor="middle" x="265.64102564102564" y="188">4.0</text><line style="stroke: #888888;stroke-width: 1;" x1="219.23076923076923" x2="219.23076923076923" y1="15" y2="165" /><text style="font-family: times; font-size: 8pt" text-anchor="middle" x="219.23076923076923" y="188">3.0</text><line style="stroke: #888888;stroke-width: 1;" x1="172.82051282051282" x2="172.82051282051282" y1="15" y2="165" /><text style="font-family: times; font-size: 8pt" text-anchor="middle" x="172.82051282051282" y="188">2.0</text><line style="stroke: #888888;stroke-width: 1;" x1="126.41025641025641" x2="126.41025641025641" y1="15" y2="165" /><text style="font-family: times; font-size: 8pt" text-anchor="middle" x="126.41025641025641" y="188">1.0</text><line style="stroke: #888888;stroke-width: 1;" x1="103.2051282051282" x2="103.2051282051282" y1="15" y2="165" /><line style="stroke: #888888;stroke-width: 1;" x1="80.0" x2="80.0" y1="15" y2="165" /><rect height="30" style="fill:#fccecf; stroke: #cc3333; stroke-width: 2" width="185.64102564102564" x="219.23076923076923" y="15" /><text style="font-family: times; font-size: 8pt" text-anchor="middle" x="312.05128205128204" y="32.0">O3</text><rect height="30" style="fill:#cdcdcd; stroke: #000000; stroke-width: 2" width="46.41025641025641" x="126.41025641025641" y="15" /><text style="font-family: times; font-size: 8pt" text-anchor="middle" x="149.6153846153846" y="32.0">i5</text><rect height="30" style="fill:#cdcdcd; stroke: #000000; stroke-width: 2" width="46.41025641025641" x="172.82051282051282" y="15" /><text style="font-family: times; font-size: 8pt" text-anchor="middle" x="196.02564102564102" y="32.0">i6</text><rect height="30" style="fill:#fccecf; stroke: #cc3333; stroke-width: 2" width="185.64102564102564" x="404.87179487179486" y="45" /><text style="font-family: times; font-size: 8pt" text-anchor="middle" x="497.6923076923077" y="62.0">O5</text><rect height="30" style="fill:#fccecf; stroke: #cc3333; stroke-width: 2" width="185.64102564102564" x="126.41025641025641" y="45" /><text style="font-family: times; font-size: 8pt" text-anchor="middle" x="219.23076923076923" y="62.0">O2</text><rect height="30" style="fill:#cdcdcd; stroke: #000000; stroke-width: 2" width="23.205128205128204" x="80.0" y="45" /><text style="font-family: times; font-size: 8pt" text-anchor="middle" x="91.6025641025641" y="62.0">i3</text><rect height="30" style="fill:#cdcdcd; stroke: #000000; stroke-width: 2" width="23.205128205128204" x="103.2051282051282" y="45" /><text style="font-family: times; font-size: 8pt" text-anchor="middle" x="114.8076923076923" y="62.0">i4</text><rect height="30" style="fill:#cdcdcd; stroke: #000000; stroke-width: 2" width="92.82051282051282" x="312.05128205128204" y="45" /><text style="font-family: times; font-size: 8pt" text-anchor="middle" x="358.46153846153845" y="62.0">O1</text><rect height="30" style="fill:#fccecf; stroke: #cc3333; stroke-width: 2" width="185.64102564102564" x="312.05128205128204" y="75" /><text style="font-family: times; font-size: 8pt" text-anchor="middle" x="404.87179487179486" y="92.0">O4</text><rect height="30" style="fill:#fccecf; stroke: #cc3333; stroke-width: 2" width="185.64102564102564" x="520.8974358974359" y="75" /><text style="font-family: times; font-size: 8pt" text-anchor="middle" x="613.7179487179487" y="92.0">O6</text><rect height="30" style="fill:#cdcdcd; stroke: #000000; stroke-width: 2" width="46.41025641025641" x="219.23076923076923" y="75" /><text style="font-family: times; font-size: 8pt" text-anchor="middle" x="242.43589743589743" y="92.0">i7</text><rect height="30" style="fill:#cdcdcd; stroke: #000000; stroke-width: 2" width="46.41025641025641" x="265.64102564102564" y="75" /><text style="font-family: times; font-size: 8pt" text-anchor="middle" x="288.8461538461538" y="92.0">i8</text><rect height="30" style="fill:#cdcdcd; stroke: #000000; stroke-width: 2" width="23.205128205128204" x="497.6923076923077" y="75" /><text style="font-family: times; font-size: 8pt" text-anchor="middle" x="509.29487179487177" y="92.0">O3</text><rect height="30" style="fill:#fccecf; stroke: #cc3333; stroke-width: 2" width="185.64102564102564" x="126.41025641025641" y="105" /><text style="font-family: times; font-size: 8pt" text-anchor="middle" x="219.23076923076923" y="122.0">O1</text><rect height="30" style="fill:#fccecf; stroke: #cc3333; stroke-width: 2" width="185.64102564102564" x="776.1538461538462" y="105" /><text style="font-family: times; font-size: 8pt" text-anchor="middle" x="868.974358974359" y="122.0">O7</text><rect height="30" style="fill:#cdcdcd; stroke: #000000; stroke-width: 2" width="23.205128205128204" x="80.0" y="105" /><text style="font-family: times; font-size: 8pt" text-anchor="middle" x="91.6025641025641" y="122.0">i1</text><rect height="30" style="fill:#cdcdcd; stroke: #000000; stroke-width: 2" width="23.205128205128204" x="103.2051282051282" y="105" /><text style="font-family: times; font-size: 8pt" text-anchor="middle" x="114.8076923076923" y="122.0">i2</text><rect height="30" style="fill:#cdcdcd; stroke: #000000; stroke-width: 2" width="92.82051282051282" x="590.5128205128206" y="105" /><text style="font-family: times; font-size: 8pt" text-anchor="middle" x="636.9230769230769" y="122.0">O5</text><rect height="30" style="fill:#cdcdcd; stroke: #000000; stroke-width: 2" width="69.61538461538461" x="706.5384615384615" y="105" /><text style="font-family: times; font-size: 8pt" text-anchor="middle" x="741.3461538461538" y="122.0">O6</text><rect height="30" style="fill:#cdcdcd; stroke: #000000; stroke-width: 2" width="23.205128205128204" x="961.7948717948718" y="105" /><text style="font-family: times; font-size: 8pt" text-anchor="middle" x="973.3974358974359" y="122.0">o1</text></svg>