<?xml version="1.0" encoding="utf-8" ?>
<svg baseProfile="full" height="150" version="1.1" width="1000" xmlns="http://www.w3.org/2000/svg" xmlns:ev="http://www.w3.org/2001/xml-events" xmlns:xlink="http://www.w3.org/1999/xlink"><defs /><rect fill="rgb(255, 255, 255)" height="30" width="970" x="15" y="15" /><text style="font-family: times; font-size: 8pt" text-anchor="end" x="70" y="32.0">Mixer1</text><rect fill="rgb(230, 230, 230)" height="30" width="970" x="15" y="45" /><text style="font-family: times; font-size: 8pt" text-anchor="end" x="70" y="62.0">Mixer2</text><line style="stroke: #888888;stroke-width: 1;" x1="985.0" x2="985.0" y1="15" y2="105" /><text style="font-family: times; font-size: 8pt" text-anchor="middle" x="985.0" y="128">31.0</text><line style="stroke: #888888;stroke-width: 1;" x1="970.4032258064517" x2="970.4032258064517" y1="15" y2="105" /><line style="stroke: #888888;stroke-width: 1;" x1="853.6290322580645" x2="853.6290322580645" y1="15" y2="105" /><text style="font-family: times; font-size: 8pt" text-anchor="middle" x="853.6290322580645" y="128">26.5</text><line style="stroke: #888888;stroke-width: 1;" x1="751.4516129032259" x2="751.4516129032259" y1="15" y2="105" /><text style="font-family: times; font-size: 8pt" text-anchor="middle" x="751.4516129032259" y="128">23.0</text><line style="stroke: #888888;stroke-width: 1;" x1="693.0645161290323" x2="693.0645161290323" y1="15" y2="105" /><text style="font-family: times; font-size: 8pt" text-anchor="middle" x="693.0645161290323" y="128">21.0</text><line style="stroke: #888888;stroke-width: 1;" x1="634.6774193548388" x2="634.6774193548388" y1="15" y2="105" /><text style="font-family: times; font-size: 8pt" text-anchor="middle" x="634.6774193548388" y="128">19.0</text><line style="stroke: #888888;stroke-width: 1;" x1="576.2903225806451" x2="576.2903225806451" y1="15" y2="105" /><text style="font-family: times; font-size: 8pt" text-anchor="middle" x="576.2903225806451" y="128">17.0</text><line style="stroke: #888888;stroke-width: 1;" x1="532.5" x2="532.5" y1="15" y2="105" /><text style="font-family: times; font-size: 8pt" text-anchor="middle" x="532.5" y="128">15.5</text><line style="stroke: #888888;stroke-width: 1;" x1="503.30645161290323" x2="503.30645161290323" y1="15" y2="105" /><line style="stroke: #888888;stroke-width: 1;" x1="488.7096774193549" x2="488.7096774193549" y1="15" y2="105" /><text style="font-family: times; font-size: 8pt" text-anchor="middle" x="488.7096774193549" y="128">14.0</text><line style="stroke: #888888;stroke-width: 1;" x1="444.9193548387097" x2="444.9193548387097" y1="15" y2="105" /><text style="font-family: times; font-size: 8pt" text-anchor="middle" x="444.9193548387097" y="128">12.5</text><line style="stroke: #888888;stroke-width: 1;" x1="386.53225806451616" x2="386.53225806451616" y1="15" y2="105" /><text style="font-family: times; font-size: 8pt" text-anchor="middle" x="386.53225806451616" y="128">10.5</text><line style="stroke: #888888;stroke-width: 1;" x1="357.3387096774194" x2="357.3387096774194" y1="15" y2="105" /><line style="stroke: #888888;stroke-width: 1;" x1="342.741935483871" x2="342.741935483871" y1="15" y2="105" /><text style="font-family: times; font-size: 8pt" text-anchor="middle" x="342.741935483871" y="128">9.0</text><line style="stroke: #888888;stroke-width: 1;" x1="328.14516129032256" x2="328.14516129032256" y1="15" y2="105" /><line style="stroke: #888888;stroke-width: 1;" x1="313.5483870967742" x2="313.5483870967742" y1="15" y2="105" /><line style="stroke: #888888;stroke-width: 1;" x1="284.35483870967744" x2="284.35483870967744" y1="15" y2="105" /><text style="font-family: times; font-size: 8pt" text-anchor="middle" x="284.35483870967744" y="128">7.0</text><line style="stroke: #888888;stroke-width: 1;" x1="269.758064516129" x2="269.758064516129" y1="15" y2="105" /><line style="stroke: #888888;stroke-width: 1;" x1="240.56451612903226" x2="240.56451612903226" y1="15" y2="105" /><text style="font-family: times; font-size: 8pt" text-anchor="middle" x="240.56451612903226" y="128">5.5</text><line style="stroke: #888888;stroke-width: 1;" x1="152.98387096774195" x2="152.98387096774195" y1="15" y2="105" /><text style="font-family: times; font-size: 8pt" text-anchor="middle" x="152.98387096774195" y="128">2.5</text><line style="stroke: #888888;stroke-width: 1;" x1="123.79032258064517" x2="123.79032258064517" y1="15" y2="105" /><line style="stroke: #888888;stroke-width: 1;" x1="109.19354838709677" x2="109.19354838709677" y1="15" y2="105" /><text style="font-family: times; font-size: 8pt" text-anchor="middle" x="109.19354838709677" y="128">1.0</text><line style="stroke: #888888;stroke-width: 1;" x1="80.0" x2="80.0" y1="15" y2="105" /><rect height="30" style="fill:#fccecf; stroke: #cc3333; stroke-width: 2" width="116.7741935483871" x="576.2903225806451" y="15" /><text style="font-family: times; font-size: 8pt" text-anchor="middle" x="634.6774193548387" y="32.0">O5</text><rect height="30" style="fill:#fccecf; stroke: #cc3333; stroke-width: 2" width="116.7741935483871" x="123.79032258064517" y="15" /><text style="font-family: times; font-size: 8pt" text-anchor="middle" x="182.17741935483872" y="32.0">O1</text><rect height="30" style="fill:#fccecf; stroke: #cc3333; stroke-width: 2" width="116.7741935483871" x="853.6290322580645" y="15" /><text style="font-family: times; font-size: 8pt" text-anchor="middle" x="912.016129032258" y="32.0">O7</text><rect height="30" style="fill:#fccecf; stroke: #cc3333; stroke-width: 2" width="116.7741935483871" x="328.14516129032256" y="15" /><text style="font-family: times; font-size: 8pt" text-anchor="middle" x="386.5322580645161" y="32.0">O3</text><rect height="30" style="fill:#cdcdcd; stroke: #000000; stroke-width: 2" width="29.193548387096776" x="80.0" y="15" /><text style="font-family: times; font-size: 8pt" text-anchor="middle" x="94.59677419354838" y="32.0">i1</text><rect height="30" style="fill:#cdcdcd; stroke: #000000; stroke-width: 2" width="14.596774193548388" x="109.19354838709677" y="15" /><text style="font-family: times; font-size: 8pt" text-anchor="middle" x="116.49193548387096" y="32.0">i2</text><rect height="30" style="fill:#cdcdcd; stroke: #000000; stroke-width: 2" width="29.193548387096776" x="284.35483870967744" y="15" /><text style="font-family: times; font-size: 8pt" text-anchor="middle" x="298.95161290322585" y="32.0">i5</text><rect height="30" style="fill:#cdcdcd; stroke: #000000; stroke-width: 2" width="14.596774193548388" x="313.5483870967742" y="15" /><text style="font-family: times; font-size: 8pt" text-anchor="middle" x="320.8467741935484" y="32.0">i6</text><rect height="30" style="fill:#cdcdcd; stroke: #000000; stroke-width: 2" width="43.79032258064517" x="240.56451612903226" y="15" /><text style="font-family: times; font-size: 8pt" text-anchor="middle" x="262.4596774193548" y="32.0">St</text><rect height="30" style="fill:#cdcdcd; stroke: #000000; stroke-width: 2" width="43.79032258064517" x="488.7096774193549" y="15" /><text style="font-family: times; font-size: 8pt" text-anchor="middle" x="510.60483870967744" y="32.0">O1,St</text><rect height="30" style="fill:#cdcdcd; stroke: #000000; stroke-width: 2" width="43.79032258064517" x="532.5" y="15" /><text style="font-family: times; font-size: 8pt" text-anchor="middle" x="554.3951612903226" y="32.0">O2,St</text><rect height="30" style="fill:#cdcdcd; stroke: #000000; stroke-width: 2" width="43.79032258064517" x="444.9193548387097" y="15" /><text style="font-family: times; font-size: 8pt" text-anchor="middle" x="466.81451612903226" y="32.0">St</text><rect height="30" style="fill:#cdcdcd; stroke: #000000; stroke-width: 2" width="102.17741935483872" x="751.4516129032259" y="15" /><text style="font-family: times; font-size: 8pt" text-anchor="middle" x="802.5403225806452" y="32.0">O6</text><rect height="30" style="fill:#cdcdcd; stroke: #000000; stroke-width: 2" width="14.596774193548388" x="970.4032258064517" y="15" /><text style="font-family: times; font-size: 8pt" text-anchor="middle" x="977.7016129032259" y="32.0">o1</text><rect height="30" style="fill:#fccecf; stroke: #cc3333; stroke-width: 2" width="116.7741935483871" x="152.98387096774195" y="45" /><text style="font-family: times; font-size: 8pt" text-anchor="middle" x="211.3709677419355" y="62.0">O2</text><rect height="30" style="fill:#fccecf; stroke: #cc3333; stroke-width: 2" width="116.7741935483871" x="386.53225806451616" y="45" /><text style="font-family: times; font-size: 8pt" text-anchor="middle" x="444.9193548387097" y="62.0">O4</text><rect height="30" style="fill:#fccecf; stroke: #cc3333; stroke-width: 2" width="116.7741935483871" x="634.6774193548388" y="45" /><text style="font-family: times; font-size: 8pt" text-anchor="middle" x="693.0645161290323" y="62.0">O6</text><rect height="30" style="fill:#cdcdcd; stroke: #000000; stroke-width: 2" width="14.596774193548388" x="109.19354838709677" y="45" /><text style="font-family: times; font-size: 8pt" text-anchor="middle" x="116.49193548387096" y="62.0">i3</text><rect height="30" style="fill:#cdcdcd; stroke: #000000; stroke-width: 2" width="29.193548387096776" x="123.79032258064517" y="45" /><text style="font-family: times; font-size: 8pt" text-anchor="middle" x="138.38709677419357" y="62.0">i4</text><rect height="30" style="fill:#cdcdcd; stroke: #000000; stroke-width: 2" width="14.596774193548388" x="342.741935483871" y="45" /><text style="font-family: times; font-size: 8pt" text-anchor="middle" x="350.0403225806452" y="62.0">i7</text><rect height="30" style="fill:#cdcdcd; stroke: #000000; stroke-width: 2" width="29.193548387096776" x="357.3387096774194" y="45" /><text style="font-family: times; font-size: 8pt" text-anchor="middle" x="371.9354838709678" y="62.0">i8</text><rect height="30" style="fill:#cdcdcd; stroke: #000000; stroke-width: 2" width="58.38709677419355" x="284.35483870967744" y="45" /><text style="font-family: times; font-size: 8pt" text-anchor="middle" x="313.5483870967742" y="62.0">St</text><rect height="30" style="fill:#cdcdcd; stroke: #000000; stroke-width: 2" width="58.38709677419355" x="576.2903225806451" y="45" /><text style="font-family: times; font-size: 8pt" text-anchor="middle" x="605.483870967742" y="62.0">O3,St</text></svg>