<?xml version="1.0" encoding="utf-8" ?>
<svg baseProfile="full" height="390" version="1.1" width="1000" xmlns="http://www.w3.org/2000/svg" xmlns:ev="http://www.w3.org/2001/xml-events" xmlns:xlink="http://www.w3.org/1999/xlink"><defs /><rect fill="rgb(255, 255, 255)" height="30" width="970" x="15" y="15" /><text style="font-family: times; font-size: 8pt" text-anchor="end" x="70" y="32.0">Detector1</text><rect fill="rgb(230, 230, 230)" height="30" width="970" x="15" y="45" /><text style="font-family: times; font-size: 8pt" text-anchor="end" x="70" y="62.0">Detector2</text><rect fill="rgb(255, 255, 255)" height="30" width="970" x="15" y="75" /><text style="font-family: times; font-size: 8pt" text-anchor="end" x="70" y="92.0">Filter1</text><rect fill="rgb(230, 230, 230)" height="30" width="970" x="15" y="105" /><text style="font-family: times; font-size: 8pt" text-anchor="end" x="70" y="122.0">Filter2</text><rect fill="rgb(255, 255, 255)" height="30" width="970" x="15" y="135" /><text style="font-family: times; font-size: 8pt" text-anchor="end" x="70" y="152.0">Heater1</text><rect fill="rgb(230, 230, 230)" height="30" width="970" x="15" y="165" /><text style="font-family: times; font-size: 8pt" text-anchor="end" x="70" y="182.0">Heater2</text><rect fill="rgb(255, 255, 255)" height="30" width="970" x="15" y="195" /><text style="font-family: times; font-size: 8pt" text-anchor="end" x="70" y="212.0">Mixer1</text><rect fill="rgb(230, 230, 230)" height="30" width="970" x="15" y="225" /><text style="font-family: times; font-size: 8pt" text-anchor="end" x="70" y="242.0">Mixer2</text><rect fill="rgb(255, 255, 255)" height="30" width="970" x="15" y="255" /><text style="font-family: times; font-size: 8pt" text-anchor="end" x="70" y="272.0">Mixer3</text><rect fill="rgb(230, 230, 230)" height="30" width="970" x="15" y="285" /><text style="font-family: times; font-size: 8pt" text-anchor="end" x="70" y="302.0">Mixer4</text><line style="stroke: #888888;stroke-width: 1;" x1="985.0" x2="985.0" y1="15" y2="345" /><text style="font-family: times; font-size: 8pt" text-anchor="middle" x="985.0" y="368">32.0</text><line style="stroke: #888888;stroke-width: 1;" x1="970.859375" x2="970.859375" y1="15" y2="345" /><line style="stroke: #888888;stroke-width: 1;" x1="914.296875" x2="914.296875" y1="15" y2="345" /><text style="font-family: times; font-size: 8pt" text-anchor="middle" x="914.296875" y="368">29.5</text><line style="stroke: #888888;stroke-width: 1;" x1="900.15625" x2="900.15625" y1="15" y2="345" /><line style="stroke: #888888;stroke-width: 1;" x1="787.03125" x2="787.03125" y1="15" y2="345" /><text style="font-family: times; font-size: 8pt" text-anchor="middle" x="787.03125" y="368">25.0</text><line style="stroke: #888888;stroke-width: 1;" x1="772.890625" x2="772.890625" y1="15" y2="345" /><line style="stroke: #888888;stroke-width: 1;" x1="716.328125" x2="716.328125" y1="15" y2="345" /><text style="font-family: times; font-size: 8pt" text-anchor="middle" x="716.328125" y="368">22.5</text><line style="stroke: #888888;stroke-width: 1;" x1="702.1875" x2="702.1875" y1="15" y2="345" /><line style="stroke: #888888;stroke-width: 1;" x1="645.625" x2="645.625" y1="15" y2="345" /><text style="font-family: times; font-size: 8pt" text-anchor="middle" x="645.625" y="368">20.0</text><line style="stroke: #888888;stroke-width: 1;" x1="589.0625" x2="589.0625" y1="15" y2="345" /><text style="font-family: times; font-size: 8pt" text-anchor="middle" x="589.0625" y="368">18.0</text><line style="stroke: #888888;stroke-width: 1;" x1="490.078125" x2="490.078125" y1="15" y2="345" /><text style="font-family: times; font-size: 8pt" text-anchor="middle" x="490.078125" y="368">14.5</text><line style="stroke: #888888;stroke-width: 1;" x1="447.65625" x2="447.65625" y1="15" y2="345" /><text style="font-family: times; font-size: 8pt" text-anchor="middle" x="447.65625" y="368">13.0</text><line style="stroke: #888888;stroke-width: 1;" x1="433.515625" x2="433.515625" y1="15" y2="345" /><line style="stroke: #888888;stroke-width: 1;" x1="320.390625" x2="320.390625" y1="15" y2="345" /><text style="font-family: times; font-size: 8pt" text-anchor="middle" x="320.390625" y="368">8.5</text><line style="stroke: #888888;stroke-width: 1;" x1="306.25" x2="306.25" y1="15" y2="345" /><line style="stroke: #888888;stroke-width: 1;" x1="292.109375" x2="292.109375" y1="15" y2="345" /><line style="stroke: #888888;stroke-width: 1;" x1="277.96875" x2="277.96875" y1="15" y2="345" /><text style="font-family: times; font-size: 8pt" text-anchor="middle" x="277.96875" y="368">7.0</text><line style="stroke: #888888;stroke-width: 1;" x1="207.265625" x2="207.265625" y1="15" y2="345" /><text style="font-family: times; font-size: 8pt" text-anchor="middle" x="207.265625" y="368">4.5</text><line style="stroke: #888888;stroke-width: 1;" x1="164.84375" x2="164.84375" y1="15" y2="345" /><text style="font-family: times; font-size: 8pt" text-anchor="middle" x="164.84375" y="368">3.0</text><line style="stroke: #888888;stroke-width: 1;" x1="136.5625" x2="136.5625" y1="15" y2="345" /><line style="stroke: #888888;stroke-width: 1;" x1="108.28125" x2="108.28125" y1="15" y2="345" /><text style="font-family: times; font-size: 8pt" text-anchor="middle" x="108.28125" y="368">1.0</text><line style="stroke: #888888;stroke-width: 1;" x1="94.140625" x2="94.140625" y1="15" y2="345" /><line style="stroke: #888888;stroke-width: 1;" x1="80.0" x2="80.0" y1="15" y2="345" /><rect height="30" style="fill:#bce6b3; stroke: #166f2b; stroke-width: 2" width="113.125" x="320.390625" y="15" /><text style="font-family: times; font-size: 8pt" text-anchor="middle" x="376.953125" y="32.0">O5</text><rect height="30" style="fill:#cdcdcd; stroke: #000000; stroke-width: 2" width="14.140625" x="306.25" y="15" /><text style="font-family: times; font-size: 8pt" text-anchor="middle" x="313.3203125" y="32.0">O2</text><rect height="30" style="fill:#bce6b3; stroke: #166f2b; stroke-width: 2" width="56.5625" x="914.296875" y="45" /><text style="font-family: times; font-size: 8pt" text-anchor="middle" x="942.578125" y="62.0">O10</text><rect height="30" style="fill:#cdcdcd; stroke: #000000; stroke-width: 2" width="14.140625" x="900.15625" y="45" /><text style="font-family: times; font-size: 8pt" text-anchor="middle" x="907.2265625" y="62.0">O9</text><rect height="30" style="fill:#cdcdcd; stroke: #000000; stroke-width: 2" width="14.140625" x="970.859375" y="45" /><text style="font-family: times; font-size: 8pt" text-anchor="middle" x="977.9296875" y="62.0">o1</text><rect height="30" style="fill:#d1e6ff; stroke: #3a5684; stroke-width: 2" width="141.40625" x="306.25" y="75" /><text style="font-family: times; font-size: 8pt" text-anchor="middle" x="376.953125" y="92.0">O4</text><rect height="30" style="fill:#cdcdcd; stroke: #000000; stroke-width: 2" width="28.28125" x="277.96875" y="75" /><text style="font-family: times; font-size: 8pt" text-anchor="middle" x="292.109375" y="92.0">O1</text><rect height="30" style="fill:#d1e6ff; stroke: #3a5684; stroke-width: 2" width="56.5625" x="645.625" y="105" /><text style="font-family: times; font-size: 8pt" text-anchor="middle" x="673.90625" y="122.0">O8</text><rect height="30" style="fill:#cdcdcd; stroke: #000000; stroke-width: 2" width="56.5625" x="589.0625" y="105" /><text style="font-family: times; font-size: 8pt" text-anchor="middle" x="617.34375" y="122.0">O7</text><rect height="30" style="fill:#f0f0f0; stroke: #393939; stroke-width: 2" width="84.84375" x="207.265625" y="135" /><text style="font-family: times; font-size: 8pt" text-anchor="middle" x="249.6875" y="152.0">O3</text><rect height="30" style="fill:#cdcdcd; stroke: #000000; stroke-width: 2" width="42.421875" x="164.84375" y="135" /><text style="font-family: times; font-size: 8pt" text-anchor="middle" x="186.0546875" y="152.0">i5</text><rect height="30" style="fill:#f0f0f0; stroke: #393939; stroke-width: 2" width="226.25" x="490.078125" y="165" /><text style="font-family: times; font-size: 8pt" text-anchor="middle" x="603.203125" y="182.0">O6</text><rect height="30" style="fill:#cdcdcd; stroke: #000000; stroke-width: 2" width="42.421875" x="447.65625" y="165" /><text style="font-family: times; font-size: 8pt" text-anchor="middle" x="468.8671875" y="182.0">O4</text><rect height="30" style="fill:#fccecf; stroke: #cc3333; stroke-width: 2" width="197.96875" x="108.28125" y="195" /><text style="font-family: times; font-size: 8pt" text-anchor="middle" x="207.265625" y="212.0">O2</text><rect height="30" style="fill:#cdcdcd; stroke: #000000; stroke-width: 2" width="14.140625" x="80.0" y="195" /><text style="font-family: times; font-size: 8pt" text-anchor="middle" x="87.0703125" y="212.0">i3</text><rect height="30" style="fill:#cdcdcd; stroke: #000000; stroke-width: 2" width="14.140625" x="94.140625" y="195" /><text style="font-family: times; font-size: 8pt" text-anchor="middle" x="101.2109375" y="212.0">i4</text><rect height="30" style="fill:#fccecf; stroke: #cc3333; stroke-width: 2" width="113.125" x="164.84375" y="225" /><text style="font-family: times; font-size: 8pt" text-anchor="middle" x="221.40625" y="242.0">O1</text><rect height="30" style="fill:#cdcdcd; stroke: #000000; stroke-width: 2" width="28.28125" x="108.28125" y="225" /><text style="font-family: times; font-size: 8pt" text-anchor="middle" x="122.421875" y="242.0">i1</text><rect height="30" style="fill:#cdcdcd; stroke: #000000; stroke-width: 2" width="28.28125" x="136.5625" y="225" /><text style="font-family: times; font-size: 8pt" text-anchor="middle" x="150.703125" y="242.0">i2</text><rect height="30" style="fill:#fccecf; stroke: #cc3333; stroke-width: 2" width="141.40625" x="447.65625" y="255" /><text style="font-family: times; font-size: 8pt" text-anchor="middle" x="518.359375" y="272.0">O7</text><rect height="30" style="fill:#cdcdcd; stroke: #000000; stroke-width: 2" width="14.140625" x="433.515625" y="255" /><text style="font-family: times; font-size: 8pt" text-anchor="middle" x="440.5859375" y="272.0">O5</text><rect height="30" style="fill:#cdcdcd; stroke: #000000; stroke-width: 2" width="14.140625" x="292.109375" y="255" /><text style="font-family: times; font-size: 8pt" text-anchor="middle" x="299.1796875" y="272.0">O3</text><rect height="30" style="fill:#fccecf; stroke: #cc3333; stroke-width: 2" width="113.125" x="787.03125" y="285" /><text style="font-family: times; font-size: 8pt" text-anchor="middle" x="843.59375" y="302.0">O9</text><rect height="30" style="fill:#cdcdcd; stroke: #000000; stroke-width: 2" width="14.140625" x="772.890625" y="285" /><text style="font-family: times; font-size: 8pt" text-anchor="middle" x="779.9609375" y="302.0">O6</text><rect height="30" style="fill:#cdcdcd; stroke: #000000; stroke-width: 2" width="70.703125" x="702.1875" y="285" /><text style="font-family: times; font-size: 8pt" text-anchor="middle" x="737.5390625" y="302.0">O8</text></svg>