<?xml version="1.0" encoding="utf-8" ?>
<svg baseProfile="full" height="690" version="1.1" width="1000" xmlns="http://www.w3.org/2000/svg" xmlns:ev="http://www.w3.org/2001/xml-events" xmlns:xlink="http://www.w3.org/1999/xlink"><defs /><rect fill="rgb(255, 255, 255)" height="30" width="970" x="15" y="15" /><text style="font-family: times; font-size: 8pt" text-anchor="end" x="70" y="32.0">Detector1</text><rect fill="rgb(230, 230, 230)" height="30" width="970" x="15" y="45" /><text style="font-family: times; font-size: 8pt" text-anchor="end" x="70" y="62.0">Detector2</text><rect fill="rgb(255, 255, 255)" height="30" width="970" x="15" y="75" /><text style="font-family: times; font-size: 8pt" text-anchor="end" x="70" y="92.0">Detector3</text><rect fill="rgb(230, 230, 230)" height="30" width="970" x="15" y="105" /><text style="font-family: times; font-size: 8pt" text-anchor="end" x="70" y="122.0">Filter1</text><rect fill="rgb(255, 255, 255)" height="30" width="970" x="15" y="135" /><text style="font-family: times; font-size: 8pt" text-anchor="end" x="70" y="152.0">Filter2</text><rect fill="rgb(230, 230, 230)" height="30" width="970" x="15" y="165" /><text style="font-family: times; font-size: 8pt" text-anchor="end" x="70" y="182.0">Heater1</text><rect fill="rgb(255, 255, 255)" height="30" width="970" x="15" y="195" /><text style="font-family: times; font-size: 8pt" text-anchor="end" x="70" y="212.0">Heater2</text><rect fill="rgb(230, 230, 230)" height="30" width="970" x="15" y="225" /><text style="font-family: times; font-size: 8pt" text-anchor="end" x="70" y="242.0">Heater3</text><rect fill="rgb(255, 255, 255)" height="30" width="970" x="15" y="255" /><text style="font-family: times; font-size: 8pt" text-anchor="end" x="70" y="272.0">Heater6</text><rect fill="rgb(230, 230, 230)" height="30" width="970" x="15" y="285" /><text style="font-family: times; font-size: 8pt" text-anchor="end" x="70" y="302.0">Mixer1</text><rect fill="rgb(255, 255, 255)" height="30" width="970" x="15" y="315" /><text style="font-family: times; font-size: 8pt" text-anchor="end" x="70" y="332.0">Mixer11</text><rect fill="rgb(230, 230, 230)" height="30" width="970" x="15" y="345" /><text style="font-family: times; font-size: 8pt" text-anchor="end" x="70" y="362.0">Mixer12</text><rect fill="rgb(255, 255, 255)" height="30" width="970" x="15" y="375" /><text style="font-family: times; font-size: 8pt" text-anchor="end" x="70" y="392.0">Mixer14</text><rect fill="rgb(230, 230, 230)" height="30" width="970" x="15" y="405" /><text style="font-family: times; font-size: 8pt" text-anchor="end" x="70" y="422.0">Mixer2</text><rect fill="rgb(255, 255, 255)" height="30" width="970" x="15" y="435" /><text style="font-family: times; font-size: 8pt" text-anchor="end" x="70" y="452.0">Mixer3</text><rect fill="rgb(230, 230, 230)" height="30" width="970" x="15" y="465" /><text style="font-family: times; font-size: 8pt" text-anchor="end" x="70" y="482.0">Mixer4</text><rect fill="rgb(255, 255, 255)" height="30" width="970" x="15" y="495" /><text style="font-family: times; font-size: 8pt" text-anchor="end" x="70" y="512.0">Mixer5</text><rect fill="rgb(230, 230, 230)" height="30" width="970" x="15" y="525" /><text style="font-family: times; font-size: 8pt" text-anchor="end" x="70" y="542.0">Mixer6</text><rect fill="rgb(255, 255, 255)" height="30" width="970" x="15" y="555" /><text style="font-family: times; font-size: 8pt" text-anchor="end" x="70" y="572.0">Mixer7</text><rect fill="rgb(230, 230, 230)" height="30" width="970" x="15" y="585" /><text style="font-family: times; font-size: 8pt" text-anchor="end" x="70" y="602.0">Mixer9</text><line style="stroke: #888888;stroke-width: 1;" x1="984.9999999999999" x2="984.9999999999999" y1="15" y2="645" /><text style="font-family: times; font-size: 8pt" text-anchor="middle" x="984.9999999999999" y="668">51.5</text><line style="stroke: #888888;stroke-width: 1;" x1="976.2135922330096" x2="976.2135922330096" y1="15" y2="645" /><line style="stroke: #888888;stroke-width: 1;" x1="941.0679611650485" x2="941.0679611650485" y1="15" y2="645" /><text style="font-family: times; font-size: 8pt" text-anchor="middle" x="941.0679611650485" y="668">49.0</text><line style="stroke: #888888;stroke-width: 1;" x1="914.7087378640776" x2="914.7087378640776" y1="15" y2="645" /><line style="stroke: #888888;stroke-width: 1;" x1="879.5631067961165" x2="879.5631067961165" y1="15" y2="645" /><text style="font-family: times; font-size: 8pt" text-anchor="middle" x="879.5631067961165" y="668">45.5</text><line style="stroke: #888888;stroke-width: 1;" x1="870.7766990291261" x2="870.7766990291261" y1="15" y2="645" /><line style="stroke: #888888;stroke-width: 1;" x1="861.9902912621359" x2="861.9902912621359" y1="15" y2="645" /><line style="stroke: #888888;stroke-width: 1;" x1="844.4174757281553" x2="844.4174757281553" y1="15" y2="645" /><text style="font-family: times; font-size: 8pt" text-anchor="middle" x="844.4174757281553" y="668">43.5</text><line style="stroke: #888888;stroke-width: 1;" x1="774.126213592233" x2="774.126213592233" y1="15" y2="645" /><text style="font-family: times; font-size: 8pt" text-anchor="middle" x="774.126213592233" y="668">39.5</text><line style="stroke: #888888;stroke-width: 1;" x1="756.5533980582524" x2="756.5533980582524" y1="15" y2="645" /><line style="stroke: #888888;stroke-width: 1;" x1="747.7669902912621" x2="747.7669902912621" y1="15" y2="645" /><line style="stroke: #888888;stroke-width: 1;" x1="738.9805825242718" x2="738.9805825242718" y1="15" y2="645" /><text style="font-family: times; font-size: 8pt" text-anchor="middle" x="738.9805825242718" y="668">37.5</text><line style="stroke: #888888;stroke-width: 1;" x1="712.6213592233009" x2="712.6213592233009" y1="15" y2="645" /><line style="stroke: #888888;stroke-width: 1;" x1="695.0485436893204" x2="695.0485436893204" y1="15" y2="645" /><text style="font-family: times; font-size: 8pt" text-anchor="middle" x="695.0485436893204" y="668">35.0</text><line style="stroke: #888888;stroke-width: 1;" x1="668.6893203883494" x2="668.6893203883494" y1="15" y2="645" /><line style="stroke: #888888;stroke-width: 1;" x1="659.9029126213592" x2="659.9029126213592" y1="15" y2="645" /><text style="font-family: times; font-size: 8pt" text-anchor="middle" x="659.9029126213592" y="668">33.0</text><line style="stroke: #888888;stroke-width: 1;" x1="651.1165048543688" x2="651.1165048543688" y1="15" y2="645" /><line style="stroke: #888888;stroke-width: 1;" x1="642.3300970873786" x2="642.3300970873786" y1="15" y2="645" /><line style="stroke: #888888;stroke-width: 1;" x1="624.757281553398" x2="624.757281553398" y1="15" y2="645" /><text style="font-family: times; font-size: 8pt" text-anchor="middle" x="624.757281553398" y="668">31.0</text><line style="stroke: #888888;stroke-width: 1;" x1="615.9708737864078" x2="615.9708737864078" y1="15" y2="645" /><line style="stroke: #888888;stroke-width: 1;" x1="598.3980582524272" x2="598.3980582524272" y1="15" y2="645" /><line style="stroke: #888888;stroke-width: 1;" x1="589.6116504854368" x2="589.6116504854368" y1="15" y2="645" /><text style="font-family: times; font-size: 8pt" text-anchor="middle" x="589.6116504854368" y="668">29.0</text><line style="stroke: #888888;stroke-width: 1;" x1="580.8252427184466" x2="580.8252427184466" y1="15" y2="645" /><line style="stroke: #888888;stroke-width: 1;" x1="563.252427184466" x2="563.252427184466" y1="15" y2="645" /><line style="stroke: #888888;stroke-width: 1;" x1="554.4660194174758" x2="554.4660194174758" y1="15" y2="645" /><text style="font-family: times; font-size: 8pt" text-anchor="middle" x="554.4660194174758" y="668">27.0</text><line style="stroke: #888888;stroke-width: 1;" x1="536.8932038834951" x2="536.8932038834951" y1="15" y2="645" /><line style="stroke: #888888;stroke-width: 1;" x1="519.3203883495146" x2="519.3203883495146" y1="15" y2="645" /><text style="font-family: times; font-size: 8pt" text-anchor="middle" x="519.3203883495146" y="668">25.0</text><line style="stroke: #888888;stroke-width: 1;" x1="510.53398058252424" x2="510.53398058252424" y1="15" y2="645" /><line style="stroke: #888888;stroke-width: 1;" x1="492.96116504854365" x2="492.96116504854365" y1="15" y2="645" /><line style="stroke: #888888;stroke-width: 1;" x1="484.17475728155335" x2="484.17475728155335" y1="15" y2="645" /><text style="font-family: times; font-size: 8pt" text-anchor="middle" x="484.17475728155335" y="668">23.0</text><line style="stroke: #888888;stroke-width: 1;" x1="475.38834951456306" x2="475.38834951456306" y1="15" y2="645" /><line style="stroke: #888888;stroke-width: 1;" x1="466.60194174757277" x2="466.60194174757277" y1="15" y2="645" /><line style="stroke: #888888;stroke-width: 1;" x1="440.2427184466019" x2="440.2427184466019" y1="15" y2="645" /><text style="font-family: times; font-size: 8pt" text-anchor="middle" x="440.2427184466019" y="668">20.5</text><line style="stroke: #888888;stroke-width: 1;" x1="431.45631067961165" x2="431.45631067961165" y1="15" y2="645" /><line style="stroke: #888888;stroke-width: 1;" x1="422.66990291262135" x2="422.66990291262135" y1="15" y2="645" /><line style="stroke: #888888;stroke-width: 1;" x1="413.88349514563106" x2="413.88349514563106" y1="15" y2="645" /><line style="stroke: #888888;stroke-width: 1;" x1="405.09708737864077" x2="405.09708737864077" y1="15" y2="645" /><text style="font-family: times; font-size: 8pt" text-anchor="middle" x="405.09708737864077" y="668">18.5</text><line style="stroke: #888888;stroke-width: 1;" x1="396.31067961165047" x2="396.31067961165047" y1="15" y2="645" /><line style="stroke: #888888;stroke-width: 1;" x1="387.5242718446602" x2="387.5242718446602" y1="15" y2="645" /><line style="stroke: #888888;stroke-width: 1;" x1="369.9514563106796" x2="369.9514563106796" y1="15" y2="645" /><text style="font-family: times; font-size: 8pt" text-anchor="middle" x="369.9514563106796" y="668">16.5</text><line style="stroke: #888888;stroke-width: 1;" x1="361.1650485436893" x2="361.1650485436893" y1="15" y2="645" /><line style="stroke: #888888;stroke-width: 1;" x1="352.378640776699" x2="352.378640776699" y1="15" y2="645" /><line style="stroke: #888888;stroke-width: 1;" x1="343.5922330097087" x2="343.5922330097087" y1="15" y2="645" /><line style="stroke: #888888;stroke-width: 1;" x1="326.0194174757281" x2="326.0194174757281" y1="15" y2="645" /><text style="font-family: times; font-size: 8pt" text-anchor="middle" x="326.0194174757281" y="668">14.0</text><line style="stroke: #888888;stroke-width: 1;" x1="317.2330097087379" x2="317.2330097087379" y1="15" y2="645" /><line style="stroke: #888888;stroke-width: 1;" x1="299.6601941747573" x2="299.6601941747573" y1="15" y2="645" /><line style="stroke: #888888;stroke-width: 1;" x1="290.87378640776694" x2="290.87378640776694" y1="15" y2="645" /><text style="font-family: times; font-size: 8pt" text-anchor="middle" x="290.87378640776694" y="668">12.0</text><line style="stroke: #888888;stroke-width: 1;" x1="282.0873786407767" x2="282.0873786407767" y1="15" y2="645" /><line style="stroke: #888888;stroke-width: 1;" x1="273.30097087378635" x2="273.30097087378635" y1="15" y2="645" /><line style="stroke: #888888;stroke-width: 1;" x1="264.5145631067961" x2="264.5145631067961" y1="15" y2="645" /><line style="stroke: #888888;stroke-width: 1;" x1="255.72815533980582" x2="255.72815533980582" y1="15" y2="645" /><text style="font-family: times; font-size: 8pt" text-anchor="middle" x="255.72815533980582" y="668">10.0</text><line style="stroke: #888888;stroke-width: 1;" x1="238.15533980582524" x2="238.15533980582524" y1="15" y2="645" /><line style="stroke: #888888;stroke-width: 1;" x1="211.79611650485435" x2="211.79611650485435" y1="15" y2="645" /><text style="font-family: times; font-size: 8pt" text-anchor="middle" x="211.79611650485435" y="668">7.5</text><line style="stroke: #888888;stroke-width: 1;" x1="203.00970873786406" x2="203.00970873786406" y1="15" y2="645" /><line style="stroke: #888888;stroke-width: 1;" x1="185.43689320388347" x2="185.43689320388347" y1="15" y2="645" /><line style="stroke: #888888;stroke-width: 1;" x1="159.07766990291262" x2="159.07766990291262" y1="15" y2="645" /><text style="font-family: times; font-size: 8pt" text-anchor="middle" x="159.07766990291262" y="668">4.5</text><line style="stroke: #888888;stroke-width: 1;" x1="150.29126213592232" x2="150.29126213592232" y1="15" y2="645" /><line style="stroke: #888888;stroke-width: 1;" x1="132.71844660194174" x2="132.71844660194174" y1="15" y2="645" /><line style="stroke: #888888;stroke-width: 1;" x1="123.93203883495146" x2="123.93203883495146" y1="15" y2="645" /><text style="font-family: times; font-size: 8pt" text-anchor="middle" x="123.93203883495146" y="668">2.5</text><line style="stroke: #888888;stroke-width: 1;" x1="115.14563106796116" x2="115.14563106796116" y1="15" y2="645" /><line style="stroke: #888888;stroke-width: 1;" x1="97.57281553398059" x2="97.57281553398059" y1="15" y2="645" /><line style="stroke: #888888;stroke-width: 1;" x1="80.0" x2="80.0" y1="15" y2="645" /><rect height="30" style="fill:#bce6b3; stroke: #166f2b; stroke-width: 2" width="52.71844660194174" x="422.66990291262135" y="15" /><text style="font-family: times; font-size: 8pt" text-anchor="middle" x="449.02912621359224" y="32.0">O21</text><rect height="30" style="fill:#cdcdcd; stroke: #000000; stroke-width: 2" width="61.50485436893203" x="361.1650485436893" y="15" /><text style="font-family: times; font-size: 8pt" text-anchor="middle" x="391.9174757281553" y="32.0">O14</text><rect height="30" style="fill:#bce6b3; stroke: #166f2b; stroke-width: 2" width="70.29126213592232" x="510.53398058252424" y="45" /><text style="font-family: times; font-size: 8pt" text-anchor="middle" x="545.6796116504854" y="62.0">O19</text><rect height="30" style="fill:#cdcdcd; stroke: #000000; stroke-width: 2" width="79.07766990291262" x="431.45631067961165" y="45" /><text style="font-family: times; font-size: 8pt" text-anchor="middle" x="470.99514563106794" y="62.0">O11</text><rect height="30" style="fill:#bce6b3; stroke: #166f2b; stroke-width: 2" width="35.14563106796116" x="941.0679611650485" y="75" /><text style="font-family: times; font-size: 8pt" text-anchor="middle" x="958.6407766990291" y="92.0">O30</text><rect height="30" style="fill:#cdcdcd; stroke: #000000; stroke-width: 2" width="26.35922330097087" x="914.7087378640776" y="75" /><text style="font-family: times; font-size: 8pt" text-anchor="middle" x="927.8883495145631" y="92.0">O29</text><rect height="30" style="fill:#cdcdcd; stroke: #000000; stroke-width: 2" width="8.78640776699029" x="976.2135922330096" y="75" /><text style="font-family: times; font-size: 8pt" text-anchor="middle" x="980.6067961165048" y="92.0">o1</text><rect height="30" style="fill:#d1e6ff; stroke: #3a5684; stroke-width: 2" width="70.29126213592232" x="115.14563106796116" y="105" /><text style="font-family: times; font-size: 8pt" text-anchor="middle" x="150.29126213592232" y="122.0">O4</text><rect height="30" style="fill:#d1e6ff; stroke: #3a5684; stroke-width: 2" width="52.71844660194174" x="352.378640776699" y="105" /><text style="font-family: times; font-size: 8pt" text-anchor="middle" x="378.7378640776699" y="122.0">O6</text><rect height="30" style="fill:#d1e6ff; stroke: #3a5684; stroke-width: 2" width="35.14563106796116" x="554.4660194174758" y="105" /><text style="font-family: times; font-size: 8pt" text-anchor="middle" x="572.0388349514564" y="122.0">O15</text><rect height="30" style="fill:#cdcdcd; stroke: #000000; stroke-width: 2" width="17.57281553398058" x="97.57281553398059" y="105" /><text style="font-family: times; font-size: 8pt" text-anchor="middle" x="106.35922330097088" y="122.0">i6</text><rect height="30" style="fill:#cdcdcd; stroke: #000000; stroke-width: 2" width="8.78640776699029" x="343.5922330097087" y="105" /><text style="font-family: times; font-size: 8pt" text-anchor="middle" x="347.9854368932038" y="122.0">i9</text><rect height="30" style="fill:#cdcdcd; stroke: #000000; stroke-width: 2" width="35.14563106796116" x="519.3203883495146" y="105" /><text style="font-family: times; font-size: 8pt" text-anchor="middle" x="536.8932038834952" y="122.0">O5</text><rect height="30" style="fill:#d1e6ff; stroke: #3a5684; stroke-width: 2" width="70.29126213592232" x="255.72815533980582" y="135" /><text style="font-family: times; font-size: 8pt" text-anchor="middle" x="290.873786407767" y="152.0">O13</text><rect height="30" style="fill:#cdcdcd; stroke: #000000; stroke-width: 2" width="43.932038834951456" x="211.79611650485435" y="135" /><text style="font-family: times; font-size: 8pt" text-anchor="middle" x="233.7621359223301" y="152.0">O2</text><rect height="30" style="fill:#f0f0f0; stroke: #393939; stroke-width: 2" width="70.29126213592232" x="282.0873786407767" y="165" /><text style="font-family: times; font-size: 8pt" text-anchor="middle" x="317.2330097087379" y="182.0">O7</text><rect height="30" style="fill:#cdcdcd; stroke: #000000; stroke-width: 2" width="17.57281553398058" x="264.5145631067961" y="165" /><text style="font-family: times; font-size: 8pt" text-anchor="middle" x="273.3009708737864" y="182.0">i10</text><rect height="30" style="fill:#f0f0f0; stroke: #393939; stroke-width: 2" width="87.86407766990291" x="97.57281553398059" y="195" /><text style="font-family: times; font-size: 8pt" text-anchor="middle" x="141.50485436893206" y="212.0">O3</text><rect height="30" style="fill:#f0f0f0; stroke: #393939; stroke-width: 2" width="70.29126213592232" x="343.5922330097087" y="195" /><text style="font-family: times; font-size: 8pt" text-anchor="middle" x="378.7378640776699" y="212.0">O8</text><rect height="30" style="fill:#f0f0f0; stroke: #393939; stroke-width: 2" width="35.14563106796116" x="624.757281553398" y="195" /><text style="font-family: times; font-size: 8pt" text-anchor="middle" x="642.3300970873786" y="212.0">O22</text><rect height="30" style="fill:#cdcdcd; stroke: #000000; stroke-width: 2" width="17.57281553398058" x="80.0" y="195" /><text style="font-family: times; font-size: 8pt" text-anchor="middle" x="88.7864077669903" y="212.0">i5</text><rect height="30" style="fill:#cdcdcd; stroke: #000000; stroke-width: 2" width="17.57281553398058" x="326.0194174757281" y="195" /><text style="font-family: times; font-size: 8pt" text-anchor="middle" x="334.8058252427184" y="212.0">i11</text><rect height="30" style="fill:#cdcdcd; stroke: #000000; stroke-width: 2" width="35.14563106796116" x="589.6116504854368" y="195" /><text style="font-family: times; font-size: 8pt" text-anchor="middle" x="607.1844660194174" y="212.0">O15</text><rect height="30" style="fill:#f0f0f0; stroke: #393939; stroke-width: 2" width="17.57281553398058" x="624.757281553398" y="225" /><text style="font-family: times; font-size: 8pt" text-anchor="middle" x="633.5436893203882" y="242.0">O18</text><rect height="30" style="fill:#cdcdcd; stroke: #000000; stroke-width: 2" width="8.78640776699029" x="615.9708737864078" y="225" /><text style="font-family: times; font-size: 8pt" text-anchor="middle" x="620.3640776699029" y="242.0">O10</text><rect height="30" style="fill:#f0f0f0; stroke: #393939; stroke-width: 2" width="70.29126213592232" x="774.126213592233" y="255" /><text style="font-family: times; font-size: 8pt" text-anchor="middle" x="809.2718446601941" y="272.0">O27</text><rect height="30" style="fill:#cdcdcd; stroke: #000000; stroke-width: 2" width="17.57281553398058" x="756.5533980582524" y="255" /><text style="font-family: times; font-size: 8pt" text-anchor="middle" x="765.3398058252426" y="272.0">O24</text><rect height="30" style="fill:#fccecf; stroke: #cc3333; stroke-width: 2" width="105.43689320388349" x="326.0194174757281" y="285" /><text style="font-family: times; font-size: 8pt" text-anchor="middle" x="378.7378640776699" y="302.0">O11</text><rect height="30" style="fill:#cdcdcd; stroke: #000000; stroke-width: 2" width="26.35922330097087" x="299.6601941747573" y="285" /><text style="font-family: times; font-size: 8pt" text-anchor="middle" x="312.8398058252427" y="302.0">i16</text><rect height="30" style="fill:#cdcdcd; stroke: #000000; stroke-width: 2" width="17.57281553398058" x="273.30097087378635" y="285" /><text style="font-family: times; font-size: 8pt" text-anchor="middle" x="282.08737864077665" y="302.0">i17</text><rect height="30" style="fill:#fccecf; stroke: #cc3333; stroke-width: 2" width="52.71844660194174" x="598.3980582524272" y="315" /><text style="font-family: times; font-size: 8pt" text-anchor="middle" x="624.757281553398" y="332.0">O23</text><rect height="30" style="fill:#cdcdcd; stroke: #000000; stroke-width: 2" width="43.932038834951456" x="554.4660194174758" y="315" /><text style="font-family: times; font-size: 8pt" text-anchor="middle" x="576.4320388349515" y="332.0">O16</text><rect height="30" style="fill:#cdcdcd; stroke: #000000; stroke-width: 2" width="61.50485436893203" x="492.96116504854365" y="315" /><text style="font-family: times; font-size: 8pt" text-anchor="middle" x="523.7135922330096" y="332.0">O17</text><rect height="30" style="fill:#fccecf; stroke: #cc3333; stroke-width: 2" width="87.86407766990291" x="774.126213592233" y="345" /><text style="font-family: times; font-size: 8pt" text-anchor="middle" x="818.0582524271844" y="362.0">O28</text><rect height="30" style="fill:#cdcdcd; stroke: #000000; stroke-width: 2" width="61.50485436893203" x="695.0485436893204" y="345" /><text style="font-family: times; font-size: 8pt" text-anchor="middle" x="725.8009708737864" y="362.0">O25</text><rect height="30" style="fill:#cdcdcd; stroke: #000000; stroke-width: 2" width="17.57281553398058" x="756.5533980582524" y="345" /><text style="font-family: times; font-size: 8pt" text-anchor="middle" x="765.3398058252426" y="362.0">O26</text><rect height="30" style="fill:#fccecf; stroke: #cc3333; stroke-width: 2" width="35.14563106796116" x="879.5631067961165" y="375" /><text style="font-family: times; font-size: 8pt" text-anchor="middle" x="897.1359223300971" y="392.0">O29</text><rect height="30" style="fill:#cdcdcd; stroke: #000000; stroke-width: 2" width="8.78640776699029" x="870.7766990291261" y="375" /><text style="font-family: times; font-size: 8pt" text-anchor="middle" x="875.1699029126213" y="392.0">O28</text><rect height="30" style="fill:#cdcdcd; stroke: #000000; stroke-width: 2" width="26.35922330097087" x="844.4174757281553" y="375" /><text style="font-family: times; font-size: 8pt" text-anchor="middle" x="857.5970873786407" y="392.0">O27</text><rect height="30" style="fill:#fccecf; stroke: #cc3333; stroke-width: 2" width="35.14563106796116" x="580.8252427184466" y="405" /><text style="font-family: times; font-size: 8pt" text-anchor="middle" x="598.3980582524272" y="422.0">O10</text><rect height="30" style="fill:#fccecf; stroke: #cc3333; stroke-width: 2" width="52.71844660194174" x="159.07766990291262" y="405" /><text style="font-family: times; font-size: 8pt" text-anchor="middle" x="185.4368932038835" y="422.0">O2</text><rect height="30" style="fill:#fccecf; stroke: #cc3333; stroke-width: 2" width="35.14563106796116" x="484.17475728155335" y="405" /><text style="font-family: times; font-size: 8pt" text-anchor="middle" x="501.74757281553394" y="422.0">O5</text><rect height="30" style="fill:#cdcdcd; stroke: #000000; stroke-width: 2" width="17.57281553398058" x="132.71844660194174" y="405" /><text style="font-family: times; font-size: 8pt" text-anchor="middle" x="141.50485436893203" y="422.0">i3</text><rect height="30" style="fill:#cdcdcd; stroke: #000000; stroke-width: 2" width="8.78640776699029" x="150.29126213592232" y="405" /><text style="font-family: times; font-size: 8pt" text-anchor="middle" x="154.68446601941747" y="422.0">i4</text><rect height="30" style="fill:#cdcdcd; stroke: #000000; stroke-width: 2" width="17.57281553398058" x="466.60194174757277" y="405" /><text style="font-family: times; font-size: 8pt" text-anchor="middle" x="475.38834951456306" y="422.0">i7</text><rect height="30" style="fill:#cdcdcd; stroke: #000000; stroke-width: 2" width="8.78640776699029" x="387.5242718446602" y="405" /><text style="font-family: times; font-size: 8pt" text-anchor="middle" x="391.9174757281553" y="422.0">i8</text><rect height="30" style="fill:#cdcdcd; stroke: #000000; stroke-width: 2" width="8.78640776699029" x="554.4660194174758" y="405" /><text style="font-family: times; font-size: 8pt" text-anchor="middle" x="558.8592233009709" y="422.0">i14</text><rect height="30" style="fill:#cdcdcd; stroke: #000000; stroke-width: 2" width="17.57281553398058" x="563.252427184466" y="405" /><text style="font-family: times; font-size: 8pt" text-anchor="middle" x="572.0388349514562" y="422.0">i15</text><rect height="30" style="fill:#fccecf; stroke: #cc3333; stroke-width: 2" width="70.29126213592232" x="466.60194174757277" y="435" /><text style="font-family: times; font-size: 8pt" text-anchor="middle" x="501.74757281553394" y="452.0">O16</text><rect height="30" style="fill:#fccecf; stroke: #cc3333; stroke-width: 2" width="70.29126213592232" x="132.71844660194174" y="435" /><text style="font-family: times; font-size: 8pt" text-anchor="middle" x="167.86407766990288" y="452.0">O1</text><rect height="30" style="fill:#fccecf; stroke: #cc3333; stroke-width: 2" width="52.71844660194174" x="264.5145631067961" y="435" /><text style="font-family: times; font-size: 8pt" text-anchor="middle" x="290.873786407767" y="452.0">O12</text><rect height="30" style="fill:#cdcdcd; stroke: #000000; stroke-width: 2" width="8.78640776699029" x="115.14563106796116" y="435" /><text style="font-family: times; font-size: 8pt" text-anchor="middle" x="119.53883495145631" y="452.0">i1</text><rect height="30" style="fill:#cdcdcd; stroke: #000000; stroke-width: 2" width="8.78640776699029" x="123.93203883495146" y="435" /><text style="font-family: times; font-size: 8pt" text-anchor="middle" x="128.3252427184466" y="452.0">i2</text><rect height="30" style="fill:#cdcdcd; stroke: #000000; stroke-width: 2" width="8.78640776699029" x="255.72815533980582" y="435" /><text style="font-family: times; font-size: 8pt" text-anchor="middle" x="260.12135922330094" y="452.0">i18</text><rect height="30" style="fill:#cdcdcd; stroke: #000000; stroke-width: 2" width="43.932038834951456" x="422.66990291262135" y="435" /><text style="font-family: times; font-size: 8pt" text-anchor="middle" x="444.63592233009706" y="452.0">O6</text><rect height="30" style="fill:#cdcdcd; stroke: #000000; stroke-width: 2" width="35.14563106796116" x="352.378640776699" y="435" /><text style="font-family: times; font-size: 8pt" text-anchor="middle" x="369.9514563106796" y="452.0">O7</text><rect height="30" style="fill:#fccecf; stroke: #cc3333; stroke-width: 2" width="52.71844660194174" x="440.2427184466019" y="465" /><text style="font-family: times; font-size: 8pt" text-anchor="middle" x="466.60194174757277" y="482.0">O17</text><rect height="30" style="fill:#fccecf; stroke: #cc3333; stroke-width: 2" width="35.14563106796116" x="712.6213592233009" y="465" /><text style="font-family: times; font-size: 8pt" text-anchor="middle" x="730.1941747572815" y="482.0">O26</text><rect height="30" style="fill:#cdcdcd; stroke: #000000; stroke-width: 2" width="17.57281553398058" x="422.66990291262135" y="465" /><text style="font-family: times; font-size: 8pt" text-anchor="middle" x="431.45631067961165" y="482.0">O8</text><rect height="30" style="fill:#cdcdcd; stroke: #000000; stroke-width: 2" width="17.57281553398058" x="387.5242718446602" y="465" /><text style="font-family: times; font-size: 8pt" text-anchor="middle" x="396.31067961165047" y="482.0">O9</text><rect height="30" style="fill:#cdcdcd; stroke: #000000; stroke-width: 2" width="17.57281553398058" x="695.0485436893204" y="465" /><text style="font-family: times; font-size: 8pt" text-anchor="middle" x="703.8349514563106" y="482.0">O22</text><rect height="30" style="fill:#cdcdcd; stroke: #000000; stroke-width: 2" width="43.932038834951456" x="651.1165048543688" y="465" /><text style="font-family: times; font-size: 8pt" text-anchor="middle" x="673.0825242718446" y="482.0">O23</text><rect height="30" style="fill:#fccecf; stroke: #cc3333; stroke-width: 2" width="123.00970873786406" x="238.15533980582524" y="495" /><text style="font-family: times; font-size: 8pt" text-anchor="middle" x="299.6601941747573" y="512.0">O14</text><rect height="30" style="fill:#cdcdcd; stroke: #000000; stroke-width: 2" width="26.35922330097087" x="211.79611650485435" y="495" /><text style="font-family: times; font-size: 8pt" text-anchor="middle" x="224.9757281553398" y="512.0">O4</text><rect height="30" style="fill:#cdcdcd; stroke: #000000; stroke-width: 2" width="26.35922330097087" x="185.43689320388347" y="495" /><text style="font-family: times; font-size: 8pt" text-anchor="middle" x="198.6165048543689" y="512.0">O3</text><rect height="30" style="fill:#fccecf; stroke: #cc3333; stroke-width: 2" width="87.86407766990291" x="299.6601941747573" y="525" /><text style="font-family: times; font-size: 8pt" text-anchor="middle" x="343.59223300970876" y="542.0">O9</text><rect height="30" style="fill:#cdcdcd; stroke: #000000; stroke-width: 2" width="17.57281553398058" x="282.0873786407767" y="525" /><text style="font-family: times; font-size: 8pt" text-anchor="middle" x="290.873786407767" y="542.0">i12</text><rect height="30" style="fill:#cdcdcd; stroke: #000000; stroke-width: 2" width="17.57281553398058" x="255.72815533980582" y="525" /><text style="font-family: times; font-size: 8pt" text-anchor="middle" x="264.5145631067961" y="542.0">i13</text><rect height="30" style="fill:#fccecf; stroke: #cc3333; stroke-width: 2" width="70.29126213592232" x="668.6893203883494" y="555" /><text style="font-family: times; font-size: 8pt" text-anchor="middle" x="703.8349514563106" y="572.0">O24</text><rect height="30" style="fill:#fccecf; stroke: #cc3333; stroke-width: 2" width="70.29126213592232" x="369.9514563106796" y="555" /><text style="font-family: times; font-size: 8pt" text-anchor="middle" x="405.09708737864077" y="572.0">O20</text><rect height="30" style="fill:#cdcdcd; stroke: #000000; stroke-width: 2" width="26.35922330097087" x="317.2330097087379" y="555" /><text style="font-family: times; font-size: 8pt" text-anchor="middle" x="330.4126213592233" y="572.0">O12</text><rect height="30" style="fill:#cdcdcd; stroke: #000000; stroke-width: 2" width="26.35922330097087" x="343.5922330097087" y="555" /><text style="font-family: times; font-size: 8pt" text-anchor="middle" x="356.7718446601941" y="572.0">O13</text><rect height="30" style="fill:#cdcdcd; stroke: #000000; stroke-width: 2" width="17.57281553398058" x="651.1165048543688" y="555" /><text style="font-family: times; font-size: 8pt" text-anchor="middle" x="659.9029126213591" y="572.0">O18</text><rect height="30" style="fill:#cdcdcd; stroke: #000000; stroke-width: 2" width="52.71844660194174" x="598.3980582524272" y="555" /><text style="font-family: times; font-size: 8pt" text-anchor="middle" x="624.757281553398" y="572.0">O19</text><rect height="30" style="fill:#fccecf; stroke: #cc3333; stroke-width: 2" width="123.00970873786406" x="519.3203883495146" y="585" /><text style="font-family: times; font-size: 8pt" text-anchor="middle" x="580.8252427184466" y="602.0">O25</text><rect height="30" style="fill:#cdcdcd; stroke: #000000; stroke-width: 2" width="8.78640776699029" x="510.53398058252424" y="585" /><text style="font-family: times; font-size: 8pt" text-anchor="middle" x="514.9271844660194" y="602.0">O20</text><rect height="30" style="fill:#cdcdcd; stroke: #000000; stroke-width: 2" width="17.57281553398058" x="475.38834951456306" y="585" /><text style="font-family: times; font-size: 8pt" text-anchor="middle" x="484.17475728155335" y="602.0">O21</text></svg>