<?xml version="1.0" encoding="utf-8" ?>
<svg baseProfile="full" height="1110" version="1.1" width="1000" xmlns="http://www.w3.org/2000/svg" xmlns:ev="http://www.w3.org/2001/xml-events" xmlns:xlink="http://www.w3.org/1999/xlink"><defs /><rect fill="rgb(255, 255, 255)" height="30" width="970" x="15" y="15" /><text style="font-family: times; font-size: 8pt" text-anchor="end" x="70" y="32.0">Detector3</text><rect fill="rgb(230, 230, 230)" height="30" width="970" x="15" y="45" /><text style="font-family: times; font-size: 8pt" text-anchor="end" x="70" y="62.0">Detector4</text><rect fill="rgb(255, 255, 255)" height="30" width="970" x="15" y="75" /><text style="font-family: times; font-size: 8pt" text-anchor="end" x="70" y="92.0">Detector5</text><rect fill="rgb(230, 230, 230)" height="30" width="970" x="15" y="105" /><text style="font-family: times; font-size: 8pt" text-anchor="end" x="70" y="122.0">Filter1</text><rect fill="rgb(255, 255, 255)" height="30" width="970" x="15" y="135" /><text style="font-family: times; font-size: 8pt" text-anchor="end" x="70" y="152.0">Filter10</text><rect fill="rgb(230, 230, 230)" height="30" width="970" x="15" y="165" /><text style="font-family: times; font-size: 8pt" text-anchor="end" x="70" y="182.0">Filter2</text><rect fill="rgb(255, 255, 255)" height="30" width="970" x="15" y="195" /><text style="font-family: times; font-size: 8pt" text-anchor="end" x="70" y="212.0">Filter3</text><rect fill="rgb(230, 230, 230)" height="30" width="970" x="15" y="225" /><text style="font-family: times; font-size: 8pt" text-anchor="end" x="70" y="242.0">Filter9</text><rect fill="rgb(255, 255, 255)" height="30" width="970" x="15" y="255" /><text style="font-family: times; font-size: 8pt" text-anchor="end" x="70" y="272.0">Heater1</text><rect fill="rgb(230, 230, 230)" height="30" width="970" x="15" y="285" /><text style="font-family: times; font-size: 8pt" text-anchor="end" x="70" y="302.0">Heater10</text><rect fill="rgb(255, 255, 255)" height="30" width="970" x="15" y="315" /><text style="font-family: times; font-size: 8pt" text-anchor="end" x="70" y="332.0">Heater11</text><rect fill="rgb(230, 230, 230)" height="30" width="970" x="15" y="345" /><text style="font-family: times; font-size: 8pt" text-anchor="end" x="70" y="362.0">Heater12</text><rect fill="rgb(255, 255, 255)" height="30" width="970" x="15" y="375" /><text style="font-family: times; font-size: 8pt" text-anchor="end" x="70" y="392.0">Heater2</text><rect fill="rgb(230, 230, 230)" height="30" width="970" x="15" y="405" /><text style="font-family: times; font-size: 8pt" text-anchor="end" x="70" y="422.0">Heater3</text><rect fill="rgb(255, 255, 255)" height="30" width="970" x="15" y="435" /><text style="font-family: times; font-size: 8pt" text-anchor="end" x="70" y="452.0">Heater6</text><rect fill="rgb(230, 230, 230)" height="30" width="970" x="15" y="465" /><text style="font-family: times; font-size: 8pt" text-anchor="end" x="70" y="482.0">Heater7</text><rect fill="rgb(255, 255, 255)" height="30" width="970" x="15" y="495" /><text style="font-family: times; font-size: 8pt" text-anchor="end" x="70" y="512.0">Heater8</text><rect fill="rgb(230, 230, 230)" height="30" width="970" x="15" y="525" /><text style="font-family: times; font-size: 8pt" text-anchor="end" x="70" y="542.0">Heater9</text><rect fill="rgb(255, 255, 255)" height="30" width="970" x="15" y="555" /><text style="font-family: times; font-size: 8pt" text-anchor="end" x="70" y="572.0">Mixer1</text><rect fill="rgb(230, 230, 230)" height="30" width="970" x="15" y="585" /><text style="font-family: times; font-size: 8pt" text-anchor="end" x="70" y="602.0">Mixer10</text><rect fill="rgb(255, 255, 255)" height="30" width="970" x="15" y="615" /><text style="font-family: times; font-size: 8pt" text-anchor="end" x="70" y="632.0">Mixer12</text><rect fill="rgb(230, 230, 230)" height="30" width="970" x="15" y="645" /><text style="font-family: times; font-size: 8pt" text-anchor="end" x="70" y="662.0">Mixer13</text><rect fill="rgb(255, 255, 255)" height="30" width="970" x="15" y="675" /><text style="font-family: times; font-size: 8pt" text-anchor="end" x="70" y="692.0">Mixer14</text><rect fill="rgb(230, 230, 230)" height="30" width="970" x="15" y="705" /><text style="font-family: times; font-size: 8pt" text-anchor="end" x="70" y="722.0">Mixer15</text><rect fill="rgb(255, 255, 255)" height="30" width="970" x="15" y="735" /><text style="font-family: times; font-size: 8pt" text-anchor="end" x="70" y="752.0">Mixer2</text><rect fill="rgb(230, 230, 230)" height="30" width="970" x="15" y="765" /><text style="font-family: times; font-size: 8pt" text-anchor="end" x="70" y="782.0">Mixer22</text><rect fill="rgb(255, 255, 255)" height="30" width="970" x="15" y="795" /><text style="font-family: times; font-size: 8pt" text-anchor="end" x="70" y="812.0">Mixer23</text><rect fill="rgb(230, 230, 230)" height="30" width="970" x="15" y="825" /><text style="font-family: times; font-size: 8pt" text-anchor="end" x="70" y="842.0">Mixer25</text><rect fill="rgb(255, 255, 255)" height="30" width="970" x="15" y="855" /><text style="font-family: times; font-size: 8pt" text-anchor="end" x="70" y="872.0">Mixer26</text><rect fill="rgb(230, 230, 230)" height="30" width="970" x="15" y="885" /><text style="font-family: times; font-size: 8pt" text-anchor="end" x="70" y="902.0">Mixer3</text><rect fill="rgb(255, 255, 255)" height="30" width="970" x="15" y="915" /><text style="font-family: times; font-size: 8pt" text-anchor="end" x="70" y="932.0">Mixer5</text><rect fill="rgb(230, 230, 230)" height="30" width="970" x="15" y="945" /><text style="font-family: times; font-size: 8pt" text-anchor="end" x="70" y="962.0">Mixer7</text><rect fill="rgb(255, 255, 255)" height="30" width="970" x="15" y="975" /><text style="font-family: times; font-size: 8pt" text-anchor="end" x="70" y="992.0">Mixer8</text><rect fill="rgb(230, 230, 230)" height="30" width="970" x="15" y="1005" /><text style="font-family: times; font-size: 8pt" text-anchor="end" x="70" y="1022.0">Mixer9</text><line style="stroke: #888888;stroke-width: 1;" x1="985.0" x2="985.0" y1="15" y2="1065" /><text style="font-family: times; font-size: 8pt" text-anchor="middle" x="985.0" y="1088">54.5</text><line style="stroke: #888888;stroke-width: 1;" x1="910.2752293577981" x2="910.2752293577981" y1="15" y2="1065" /><text style="font-family: times; font-size: 8pt" text-anchor="middle" x="910.2752293577981" y="1088">50.0</text><line style="stroke: #888888;stroke-width: 1;" x1="877.0642201834862" x2="877.0642201834862" y1="15" y2="1065" /><line style="stroke: #888888;stroke-width: 1;" x1="852.1559633027523" x2="852.1559633027523" y1="15" y2="1065" /><text style="font-family: times; font-size: 8pt" text-anchor="middle" x="852.1559633027523" y="1088">46.5</text><line style="stroke: #888888;stroke-width: 1;" x1="818.9449541284404" x2="818.9449541284404" y1="15" y2="1065" /><line style="stroke: #888888;stroke-width: 1;" x1="810.6422018348624" x2="810.6422018348624" y1="15" y2="1065" /><text style="font-family: times; font-size: 8pt" text-anchor="middle" x="810.6422018348624" y="1088">44.0</text><line style="stroke: #888888;stroke-width: 1;" x1="777.4311926605504" x2="777.4311926605504" y1="15" y2="1065" /><line style="stroke: #888888;stroke-width: 1;" x1="760.8256880733945" x2="760.8256880733945" y1="15" y2="1065" /><text style="font-family: times; font-size: 8pt" text-anchor="middle" x="760.8256880733945" y="1088">41.0</text><line style="stroke: #888888;stroke-width: 1;" x1="752.5229357798165" x2="752.5229357798165" y1="15" y2="1065" /><line style="stroke: #888888;stroke-width: 1;" x1="744.2201834862385" x2="744.2201834862385" y1="15" y2="1065" /><line style="stroke: #888888;stroke-width: 1;" x1="711.0091743119266" x2="711.0091743119266" y1="15" y2="1065" /><text style="font-family: times; font-size: 8pt" text-anchor="middle" x="711.0091743119266" y="1088">38.0</text><line style="stroke: #888888;stroke-width: 1;" x1="702.7064220183486" x2="702.7064220183486" y1="15" y2="1065" /><line style="stroke: #888888;stroke-width: 1;" x1="686.1009174311927" x2="686.1009174311927" y1="15" y2="1065" /><line style="stroke: #888888;stroke-width: 1;" x1="669.4954128440367" x2="669.4954128440367" y1="15" y2="1065" /><text style="font-family: times; font-size: 8pt" text-anchor="middle" x="669.4954128440367" y="1088">35.5</text><line style="stroke: #888888;stroke-width: 1;" x1="652.8899082568807" x2="652.8899082568807" y1="15" y2="1065" /><line style="stroke: #888888;stroke-width: 1;" x1="644.5871559633027" x2="644.5871559633027" y1="15" y2="1065" /><line style="stroke: #888888;stroke-width: 1;" x1="636.2844036697247" x2="636.2844036697247" y1="15" y2="1065" /><line style="stroke: #888888;stroke-width: 1;" x1="619.6788990825688" x2="619.6788990825688" y1="15" y2="1065" /><text style="font-family: times; font-size: 8pt" text-anchor="middle" x="619.6788990825688" y="1088">32.5</text><line style="stroke: #888888;stroke-width: 1;" x1="603.0733944954128" x2="603.0733944954128" y1="15" y2="1065" /><line style="stroke: #888888;stroke-width: 1;" x1="594.7706422018348" x2="594.7706422018348" y1="15" y2="1065" /><line style="stroke: #888888;stroke-width: 1;" x1="578.1651376146789" x2="578.1651376146789" y1="15" y2="1065" /><text style="font-family: times; font-size: 8pt" text-anchor="middle" x="578.1651376146789" y="1088">30.0</text><line style="stroke: #888888;stroke-width: 1;" x1="569.8623853211009" x2="569.8623853211009" y1="15" y2="1065" /><line style="stroke: #888888;stroke-width: 1;" x1="553.256880733945" x2="553.256880733945" y1="15" y2="1065" /><line style="stroke: #888888;stroke-width: 1;" x1="544.954128440367" x2="544.954128440367" y1="15" y2="1065" /><line style="stroke: #888888;stroke-width: 1;" x1="536.651376146789" x2="536.651376146789" y1="15" y2="1065" /><text style="font-family: times; font-size: 8pt" text-anchor="middle" x="536.651376146789" y="1088">27.5</text><line style="stroke: #888888;stroke-width: 1;" x1="528.3486238532109" x2="528.3486238532109" y1="15" y2="1065" /><line style="stroke: #888888;stroke-width: 1;" x1="520.045871559633" x2="520.045871559633" y1="15" y2="1065" /><line style="stroke: #888888;stroke-width: 1;" x1="511.74311926605503" x2="511.74311926605503" y1="15" y2="1065" /><line style="stroke: #888888;stroke-width: 1;" x1="495.13761467889907" x2="495.13761467889907" y1="15" y2="1065" /><text style="font-family: times; font-size: 8pt" text-anchor="middle" x="495.13761467889907" y="1088">25.0</text><line style="stroke: #888888;stroke-width: 1;" x1="486.8348623853211" x2="486.8348623853211" y1="15" y2="1065" /><line style="stroke: #888888;stroke-width: 1;" x1="470.2293577981651" x2="470.2293577981651" y1="15" y2="1065" /><line style="stroke: #888888;stroke-width: 1;" x1="461.92660550458714" x2="461.92660550458714" y1="15" y2="1065" /><line style="stroke: #888888;stroke-width: 1;" x1="437.01834862385317" x2="437.01834862385317" y1="15" y2="1065" /><text style="font-family: times; font-size: 8pt" text-anchor="middle" x="437.01834862385317" y="1088">21.5</text><line style="stroke: #888888;stroke-width: 1;" x1="420.41284403669727" x2="420.41284403669727" y1="15" y2="1065" /><line style="stroke: #888888;stroke-width: 1;" x1="412.11009174311926" x2="412.11009174311926" y1="15" y2="1065" /><line style="stroke: #888888;stroke-width: 1;" x1="403.80733944954125" x2="403.80733944954125" y1="15" y2="1065" /><line style="stroke: #888888;stroke-width: 1;" x1="387.20183486238534" x2="387.20183486238534" y1="15" y2="1065" /><text style="font-family: times; font-size: 8pt" text-anchor="middle" x="387.20183486238534" y="1088">18.5</text><line style="stroke: #888888;stroke-width: 1;" x1="378.89908256880733" x2="378.89908256880733" y1="15" y2="1065" /><line style="stroke: #888888;stroke-width: 1;" x1="370.5963302752293" x2="370.5963302752293" y1="15" y2="1065" /><line style="stroke: #888888;stroke-width: 1;" x1="353.9908256880734" x2="353.9908256880734" y1="15" y2="1065" /><line style="stroke: #888888;stroke-width: 1;" x1="345.6880733944954" x2="345.6880733944954" y1="15" y2="1065" /><text style="font-family: times; font-size: 8pt" text-anchor="middle" x="345.6880733944954" y="1088">16.0</text><line style="stroke: #888888;stroke-width: 1;" x1="337.3853211009174" x2="337.3853211009174" y1="15" y2="1065" /><line style="stroke: #888888;stroke-width: 1;" x1="329.08256880733944" x2="329.08256880733944" y1="15" y2="1065" /><line style="stroke: #888888;stroke-width: 1;" x1="320.7798165137615" x2="320.7798165137615" y1="15" y2="1065" /><line style="stroke: #888888;stroke-width: 1;" x1="312.4770642201835" x2="312.4770642201835" y1="15" y2="1065" /><line style="stroke: #888888;stroke-width: 1;" x1="304.17431192660547" x2="304.17431192660547" y1="15" y2="1065" /><text style="font-family: times; font-size: 8pt" text-anchor="middle" x="304.17431192660547" y="1088">13.5</text><line style="stroke: #888888;stroke-width: 1;" x1="295.8715596330275" x2="295.8715596330275" y1="15" y2="1065" /><line style="stroke: #888888;stroke-width: 1;" x1="287.56880733944956" x2="287.56880733944956" y1="15" y2="1065" /><line style="stroke: #888888;stroke-width: 1;" x1="279.26605504587155" x2="279.26605504587155" y1="15" y2="1065" /><line style="stroke: #888888;stroke-width: 1;" x1="270.96330275229354" x2="270.96330275229354" y1="15" y2="1065" /><line style="stroke: #888888;stroke-width: 1;" x1="262.6605504587156" x2="262.6605504587156" y1="15" y2="1065" /><text style="font-family: times; font-size: 8pt" text-anchor="middle" x="262.6605504587156" y="1088">11.0</text><line style="stroke: #888888;stroke-width: 1;" x1="254.3577981651376" x2="254.3577981651376" y1="15" y2="1065" /><line style="stroke: #888888;stroke-width: 1;" x1="246.05504587155963" x2="246.05504587155963" y1="15" y2="1065" /><line style="stroke: #888888;stroke-width: 1;" x1="237.75229357798165" x2="237.75229357798165" y1="15" y2="1065" /><line style="stroke: #888888;stroke-width: 1;" x1="229.44954128440367" x2="229.44954128440367" y1="15" y2="1065" /><line style="stroke: #888888;stroke-width: 1;" x1="221.14678899082568" x2="221.14678899082568" y1="15" y2="1065" /><text style="font-family: times; font-size: 8pt" text-anchor="middle" x="221.14678899082568" y="1088">8.5</text><line style="stroke: #888888;stroke-width: 1;" x1="212.8440366972477" x2="212.8440366972477" y1="15" y2="1065" /><line style="stroke: #888888;stroke-width: 1;" x1="204.54128440366972" x2="204.54128440366972" y1="15" y2="1065" /><line style="stroke: #888888;stroke-width: 1;" x1="196.23853211009174" x2="196.23853211009174" y1="15" y2="1065" /><line style="stroke: #888888;stroke-width: 1;" x1="187.93577981651376" x2="187.93577981651376" y1="15" y2="1065" /><line style="stroke: #888888;stroke-width: 1;" x1="179.63302752293578" x2="179.63302752293578" y1="15" y2="1065" /><text style="font-family: times; font-size: 8pt" text-anchor="middle" x="179.63302752293578" y="1088">6.0</text><line style="stroke: #888888;stroke-width: 1;" x1="171.3302752293578" x2="171.3302752293578" y1="15" y2="1065" /><line style="stroke: #888888;stroke-width: 1;" x1="154.72477064220183" x2="154.72477064220183" y1="15" y2="1065" /><line style="stroke: #888888;stroke-width: 1;" x1="146.42201834862385" x2="146.42201834862385" y1="15" y2="1065" /><line style="stroke: #888888;stroke-width: 1;" x1="138.11926605504587" x2="138.11926605504587" y1="15" y2="1065" /><text style="font-family: times; font-size: 8pt" text-anchor="middle" x="138.11926605504587" y="1088">3.5</text><line style="stroke: #888888;stroke-width: 1;" x1="129.8165137614679" x2="129.8165137614679" y1="15" y2="1065" /><line style="stroke: #888888;stroke-width: 1;" x1="121.5137614678899" x2="121.5137614678899" y1="15" y2="1065" /><line style="stroke: #888888;stroke-width: 1;" x1="113.21100917431193" x2="113.21100917431193" y1="15" y2="1065" /><line style="stroke: #888888;stroke-width: 1;" x1="104.90825688073394" x2="104.90825688073394" y1="15" y2="1065" /><line style="stroke: #888888;stroke-width: 1;" x1="96.60550458715596" x2="96.60550458715596" y1="15" y2="1065" /><text style="font-family: times; font-size: 8pt" text-anchor="middle" x="96.60550458715596" y="1088">1.0</text><line style="stroke: #888888;stroke-width: 1;" x1="88.30275229357798" x2="88.30275229357798" y1="15" y2="1065" /><line style="stroke: #888888;stroke-width: 1;" x1="80.0" x2="80.0" y1="15" y2="1065" /><rect height="30" style="fill:#bce6b3; stroke: #166f2b; stroke-width: 2" width="49.81651376146789" x="295.8715596330275" y="15" /><text style="font-family: times; font-size: 8pt" text-anchor="middle" x="320.7798165137615" y="32.0">O37</text><rect height="30" style="fill:#bce6b3; stroke: #166f2b; stroke-width: 2" width="33.211009174311926" x="569.8623853211009" y="15" /><text style="font-family: times; font-size: 8pt" text-anchor="middle" x="586.4678899082569" y="32.0">O34</text><rect height="30" style="fill:#cdcdcd; stroke: #000000; stroke-width: 2" width="74.72477064220183" x="495.13761467889907" y="15" /><text style="font-family: times; font-size: 8pt" text-anchor="middle" x="532.5" y="32.0">O25</text><rect height="30" style="fill:#cdcdcd; stroke: #000000; stroke-width: 2" width="33.211009174311926" x="262.6605504587156" y="15" /><text style="font-family: times; font-size: 8pt" text-anchor="middle" x="279.26605504587155" y="32.0">O28</text><rect height="30" style="fill:#bce6b3; stroke: #166f2b; stroke-width: 2" width="33.211009174311926" x="877.0642201834862" y="45" /><text style="font-family: times; font-size: 8pt" text-anchor="middle" x="893.6697247706422" y="62.0">O50</text><rect height="30" style="fill:#bce6b3; stroke: #166f2b; stroke-width: 2" width="33.211009174311926" x="437.01834862385317" y="45" /><text style="font-family: times; font-size: 8pt" text-anchor="middle" x="453.62385321100913" y="62.0">O36</text><rect height="30" style="fill:#cdcdcd; stroke: #000000; stroke-width: 2" width="66.42201834862385" x="370.5963302752293" y="45" /><text style="font-family: times; font-size: 8pt" text-anchor="middle" x="403.80733944954125" y="62.0">O27</text><rect height="30" style="fill:#cdcdcd; stroke: #000000; stroke-width: 2" width="24.908256880733944" x="852.1559633027523" y="45" /><text style="font-family: times; font-size: 8pt" text-anchor="middle" x="864.6100917431193" y="62.0">O49</text><rect height="30" style="fill:#cdcdcd; stroke: #000000; stroke-width: 2" width="74.72477064220183" x="910.2752293577981" y="45" /><text style="font-family: times; font-size: 8pt" text-anchor="middle" x="947.637614678899" y="62.0">o1</text><rect height="30" style="fill:#bce6b3; stroke: #166f2b; stroke-width: 2" width="49.81651376146789" x="495.13761467889907" y="75" /><text style="font-family: times; font-size: 8pt" text-anchor="middle" x="520.045871559633" y="92.0">O35</text><rect height="30" style="fill:#cdcdcd; stroke: #000000; stroke-width: 2" width="58.11926605504587" x="437.01834862385317" y="75" /><text style="font-family: times; font-size: 8pt" text-anchor="middle" x="466.0779816513761" y="92.0">O26</text><rect height="30" style="fill:#d1e6ff; stroke: #3a5684; stroke-width: 2" width="66.42201834862385" x="204.54128440366972" y="105" /><text style="font-family: times; font-size: 8pt" text-anchor="middle" x="237.75229357798165" y="122.0">O3</text><rect height="30" style="fill:#cdcdcd; stroke: #000000; stroke-width: 2" width="16.605504587155963" x="187.93577981651376" y="105" /><text style="font-family: times; font-size: 8pt" text-anchor="middle" x="196.23853211009174" y="122.0">i4</text><rect height="30" style="fill:#d1e6ff; stroke: #3a5684; stroke-width: 2" width="33.211009174311926" x="337.3853211009174" y="135" /><text style="font-family: times; font-size: 8pt" text-anchor="middle" x="353.99082568807336" y="152.0">O31</text><rect height="30" style="fill:#cdcdcd; stroke: #000000; stroke-width: 2" width="49.81651376146789" x="287.56880733944956" y="135" /><text style="font-family: times; font-size: 8pt" text-anchor="middle" x="312.4770642201835" y="152.0">O22</text><rect height="30" style="fill:#d1e6ff; stroke: #3a5684; stroke-width: 2" width="16.605504587155963" x="337.3853211009174" y="165" /><text style="font-family: times; font-size: 8pt" text-anchor="middle" x="345.6880733944954" y="182.0">O11</text><rect height="30" style="fill:#d1e6ff; stroke: #3a5684; stroke-width: 2" width="49.81651376146789" x="470.2293577981651" y="165" /><text style="font-family: times; font-size: 8pt" text-anchor="middle" x="495.137614678899" y="182.0">O33</text><rect height="30" style="fill:#cdcdcd; stroke: #000000; stroke-width: 2" width="41.51376146788991" x="295.8715596330275" y="165" /><text style="font-family: times; font-size: 8pt" text-anchor="middle" x="316.6284403669725" y="182.0">i16</text><rect height="30" style="fill:#cdcdcd; stroke: #000000; stroke-width: 2" width="58.11926605504587" x="412.11009174311926" y="165" /><text style="font-family: times; font-size: 8pt" text-anchor="middle" x="441.1697247706422" y="182.0">O24</text><rect height="30" style="fill:#d1e6ff; stroke: #3a5684; stroke-width: 2" width="49.81651376146789" x="121.5137614678899" y="195" /><text style="font-family: times; font-size: 8pt" text-anchor="middle" x="146.42201834862385" y="212.0">O9</text><rect height="30" style="fill:#d1e6ff; stroke: #3a5684; stroke-width: 2" width="33.211009174311926" x="312.4770642201835" y="195" /><text style="font-family: times; font-size: 8pt" text-anchor="middle" x="329.08256880733944" y="212.0">O27</text><rect height="30" style="fill:#cdcdcd; stroke: #000000; stroke-width: 2" width="24.908256880733944" x="96.60550458715596" y="195" /><text style="font-family: times; font-size: 8pt" text-anchor="middle" x="109.05963302752293" y="212.0">i14</text><rect height="30" style="fill:#cdcdcd; stroke: #000000; stroke-width: 2" width="41.51376146788991" x="270.96330275229354" y="195" /><text style="font-family: times; font-size: 8pt" text-anchor="middle" x="291.7201834862385" y="212.0">O15</text><rect height="30" style="fill:#d1e6ff; stroke: #3a5684; stroke-width: 2" width="66.42201834862385" x="528.3486238532109" y="225" /><text style="font-family: times; font-size: 8pt" text-anchor="middle" x="561.5596330275229" y="242.0">O44</text><rect height="30" style="fill:#cdcdcd; stroke: #000000; stroke-width: 2" width="16.605504587155963" x="511.74311926605503" y="225" /><text style="font-family: times; font-size: 8pt" text-anchor="middle" x="520.045871559633" y="242.0">O39</text><rect height="30" style="fill:#f0f0f0; stroke: #393939; stroke-width: 2" width="116.23853211009174" x="171.3302752293578" y="255" /><text style="font-family: times; font-size: 8pt" text-anchor="middle" x="229.44954128440367" y="272.0">O22</text><rect height="30" style="fill:#cdcdcd; stroke: #000000; stroke-width: 2" width="24.908256880733944" x="146.42201834862385" y="255" /><text style="font-family: times; font-size: 8pt" text-anchor="middle" x="158.8761467889908" y="272.0">O7</text><rect height="30" style="fill:#f0f0f0; stroke: #393939; stroke-width: 2" width="49.81651376146789" x="212.8440366972477" y="285" /><text style="font-family: times; font-size: 8pt" text-anchor="middle" x="237.75229357798165" y="302.0">O20</text><rect height="30" style="fill:#cdcdcd; stroke: #000000; stroke-width: 2" width="33.211009174311926" x="179.63302752293578" y="285" /><text style="font-family: times; font-size: 8pt" text-anchor="middle" x="196.23853211009174" y="302.0">O4</text><rect height="30" style="fill:#f0f0f0; stroke: #393939; stroke-width: 2" width="49.81651376146789" x="254.3577981651376" y="315" /><text style="font-family: times; font-size: 8pt" text-anchor="middle" x="279.26605504587155" y="332.0">O18</text><rect height="30" style="fill:#cdcdcd; stroke: #000000; stroke-width: 2" width="41.51376146788991" x="212.8440366972477" y="315" /><text style="font-family: times; font-size: 8pt" text-anchor="middle" x="233.60091743119267" y="332.0">O1</text><rect height="30" style="fill:#f0f0f0; stroke: #393939; stroke-width: 2" width="16.605504587155963" x="603.0733944954128" y="345" /><text style="font-family: times; font-size: 8pt" text-anchor="middle" x="611.3761467889908" y="362.0">O41</text><rect height="30" style="fill:#cdcdcd; stroke: #000000; stroke-width: 2" width="58.11926605504587" x="544.954128440367" y="345" /><text style="font-family: times; font-size: 8pt" text-anchor="middle" x="574.0137614678899" y="362.0">O35</text><rect height="30" style="fill:#f0f0f0; stroke: #393939; stroke-width: 2" width="66.42201834862385" x="154.72477064220183" y="375" /><text style="font-family: times; font-size: 8pt" text-anchor="middle" x="187.93577981651376" y="392.0">O8</text><rect height="30" style="fill:#f0f0f0; stroke: #393939; stroke-width: 2" width="49.81651376146789" x="760.8256880733945" y="375" /><text style="font-family: times; font-size: 8pt" text-anchor="middle" x="785.7339449541284" y="392.0">O48</text><rect height="30" style="fill:#f0f0f0; stroke: #393939; stroke-width: 2" width="49.81651376146789" x="594.7706422018348" y="375" /><text style="font-family: times; font-size: 8pt" text-anchor="middle" x="619.6788990825687" y="392.0">O43</text><rect height="30" style="fill:#cdcdcd; stroke: #000000; stroke-width: 2" width="8.302752293577981" x="146.42201834862385" y="375" /><text style="font-family: times; font-size: 8pt" text-anchor="middle" x="150.57339449541286" y="392.0">i13</text><rect height="30" style="fill:#cdcdcd; stroke: #000000; stroke-width: 2" width="16.605504587155963" x="578.1651376146789" y="375" /><text style="font-family: times; font-size: 8pt" text-anchor="middle" x="586.4678899082569" y="392.0">O38</text><rect height="30" style="fill:#cdcdcd; stroke: #000000; stroke-width: 2" width="16.605504587155963" x="744.2201834862385" y="375" /><text style="font-family: times; font-size: 8pt" text-anchor="middle" x="752.5229357798165" y="392.0">O47</text><rect height="30" style="fill:#f0f0f0; stroke: #393939; stroke-width: 2" width="33.211009174311926" x="295.8715596330275" y="405" /><text style="font-family: times; font-size: 8pt" text-anchor="middle" x="312.4770642201835" y="422.0">O10</text><rect height="30" style="fill:#cdcdcd; stroke: #000000; stroke-width: 2" width="41.51376146788991" x="254.3577981651376" y="405" /><text style="font-family: times; font-size: 8pt" text-anchor="middle" x="275.11467889908255" y="422.0">i15</text><rect height="30" style="fill:#f0f0f0; stroke: #393939; stroke-width: 2" width="49.81651376146789" x="254.3577981651376" y="435" /><text style="font-family: times; font-size: 8pt" text-anchor="middle" x="279.26605504587155" y="452.0">O2</text><rect height="30" style="fill:#cdcdcd; stroke: #000000; stroke-width: 2" width="33.211009174311926" x="221.14678899082568" y="435" /><text style="font-family: times; font-size: 8pt" text-anchor="middle" x="237.75229357798165" y="452.0">i3</text><rect height="30" style="fill:#f0f0f0; stroke: #393939; stroke-width: 2" width="66.42201834862385" x="221.14678899082568" y="465" /><text style="font-family: times; font-size: 8pt" text-anchor="middle" x="254.3577981651376" y="482.0">O26</text><rect height="30" style="fill:#cdcdcd; stroke: #000000; stroke-width: 2" width="16.605504587155963" x="204.54128440366972" y="465" /><text style="font-family: times; font-size: 8pt" text-anchor="middle" x="212.8440366972477" y="482.0">O14</text><rect height="30" style="fill:#f0f0f0; stroke: #393939; stroke-width: 2" width="66.42201834862385" x="237.75229357798165" y="495" /><text style="font-family: times; font-size: 8pt" text-anchor="middle" x="270.96330275229354" y="512.0">O12</text><rect height="30" style="fill:#cdcdcd; stroke: #000000; stroke-width: 2" width="16.605504587155963" x="221.14678899082568" y="495" /><text style="font-family: times; font-size: 8pt" text-anchor="middle" x="229.44954128440367" y="512.0">i17</text><rect height="30" style="fill:#f0f0f0; stroke: #393939; stroke-width: 2" width="66.42201834862385" x="370.5963302752293" y="525" /><text style="font-family: times; font-size: 8pt" text-anchor="middle" x="403.80733944954125" y="542.0">O32</text><rect height="30" style="fill:#cdcdcd; stroke: #000000; stroke-width: 2" width="58.11926605504587" x="312.4770642201835" y="525" /><text style="font-family: times; font-size: 8pt" text-anchor="middle" x="341.5366972477064" y="542.0">O23</text><rect height="30" style="fill:#fccecf; stroke: #cc3333; stroke-width: 2" width="66.42201834862385" x="146.42201834862385" y="555" /><text style="font-family: times; font-size: 8pt" text-anchor="middle" x="179.63302752293578" y="572.0">O1</text><rect height="30" style="fill:#fccecf; stroke: #cc3333; stroke-width: 2" width="33.211009174311926" x="636.2844036697247" y="555" /><text style="font-family: times; font-size: 8pt" text-anchor="middle" x="652.8899082568807" y="572.0">O40</text><rect height="30" style="fill:#cdcdcd; stroke: #000000; stroke-width: 2" width="16.605504587155963" x="113.21100917431193" y="555" /><text style="font-family: times; font-size: 8pt" text-anchor="middle" x="121.5137614678899" y="572.0">i1</text><rect height="30" style="fill:#cdcdcd; stroke: #000000; stroke-width: 2" width="16.605504587155963" x="129.8165137614679" y="555" /><text style="font-family: times; font-size: 8pt" text-anchor="middle" x="138.11926605504587" y="572.0">i2</text><rect height="30" style="fill:#cdcdcd; stroke: #000000; stroke-width: 2" width="33.211009174311926" x="520.045871559633" y="555" /><text style="font-family: times; font-size: 8pt" text-anchor="middle" x="536.6513761467891" y="572.0">O33</text><rect height="30" style="fill:#cdcdcd; stroke: #000000; stroke-width: 2" width="33.211009174311926" x="603.0733944954128" y="555" /><text style="font-family: times; font-size: 8pt" text-anchor="middle" x="619.6788990825687" y="572.0">O34</text><rect height="30" style="fill:#fccecf; stroke: #cc3333; stroke-width: 2" width="49.81651376146789" x="221.14678899082568" y="585" /><text style="font-family: times; font-size: 8pt" text-anchor="middle" x="246.05504587155963" y="602.0">O15</text><rect height="30" style="fill:#fccecf; stroke: #cc3333; stroke-width: 2" width="33.211009174311926" x="378.89908256880733" y="585" /><text style="font-family: times; font-size: 8pt" text-anchor="middle" x="395.5045871559633" y="602.0">O24</text><rect height="30" style="fill:#cdcdcd; stroke: #000000; stroke-width: 2" width="24.908256880733944" x="171.3302752293578" y="585" /><text style="font-family: times; font-size: 8pt" text-anchor="middle" x="183.78440366972478" y="602.0">i22</text><rect height="30" style="fill:#cdcdcd; stroke: #000000; stroke-width: 2" width="24.908256880733944" x="196.23853211009174" y="585" /><text style="font-family: times; font-size: 8pt" text-anchor="middle" x="208.6926605504587" y="602.0">i23</text><rect height="30" style="fill:#cdcdcd; stroke: #000000; stroke-width: 2" width="8.302752293577981" x="329.08256880733944" y="585" /><text style="font-family: times; font-size: 8pt" text-anchor="middle" x="333.23394495412845" y="602.0">O10</text><rect height="30" style="fill:#cdcdcd; stroke: #000000; stroke-width: 2" width="24.908256880733944" x="353.9908256880734" y="585" /><text style="font-family: times; font-size: 8pt" text-anchor="middle" x="366.4449541284404" y="602.0">O11</text><rect height="30" style="fill:#fccecf; stroke: #cc3333; stroke-width: 2" width="33.211009174311926" x="279.26605504587155" y="615" /><text style="font-family: times; font-size: 8pt" text-anchor="middle" x="295.8715596330275" y="632.0">O21</text><rect height="30" style="fill:#fccecf; stroke: #cc3333; stroke-width: 2" width="66.42201834862385" x="536.651376146789" y="615" /><text style="font-family: times; font-size: 8pt" text-anchor="middle" x="569.8623853211009" y="632.0">O42</text><rect height="30" style="fill:#fccecf; stroke: #cc3333; stroke-width: 2" width="33.211009174311926" x="652.8899082568807" y="615" /><text style="font-family: times; font-size: 8pt" text-anchor="middle" x="669.4954128440368" y="632.0">O45</text><rect height="30" style="fill:#cdcdcd; stroke: #000000; stroke-width: 2" width="8.302752293577981" x="270.96330275229354" y="615" /><text style="font-family: times; font-size: 8pt" text-anchor="middle" x="275.11467889908255" y="632.0">O5</text><rect height="30" style="fill:#cdcdcd; stroke: #000000; stroke-width: 2" width="16.605504587155963" x="237.75229357798165" y="615" /><text style="font-family: times; font-size: 8pt" text-anchor="middle" x="246.05504587155963" y="632.0">O6</text><rect height="30" style="fill:#cdcdcd; stroke: #000000; stroke-width: 2" width="66.42201834862385" x="470.2293577981651" y="615" /><text style="font-family: times; font-size: 8pt" text-anchor="middle" x="503.440366972477" y="632.0">O36</text><rect height="30" style="fill:#cdcdcd; stroke: #000000; stroke-width: 2" width="33.211009174311926" x="437.01834862385317" y="615" /><text style="font-family: times; font-size: 8pt" text-anchor="middle" x="453.62385321100913" y="632.0">O37</text><rect height="30" style="fill:#cdcdcd; stroke: #000000; stroke-width: 2" width="33.211009174311926" x="619.6788990825688" y="615" /><text style="font-family: times; font-size: 8pt" text-anchor="middle" x="636.2844036697247" y="632.0">O41</text><rect height="30" style="fill:#fccecf; stroke: #cc3333; stroke-width: 2" width="33.211009174311926" x="345.6880733944954" y="645" /><text style="font-family: times; font-size: 8pt" text-anchor="middle" x="362.29357798165137" y="662.0">O19</text><rect height="30" style="fill:#cdcdcd; stroke: #000000; stroke-width: 2" width="41.51376146788991" x="304.17431192660547" y="645" /><text style="font-family: times; font-size: 8pt" text-anchor="middle" x="324.93119266055044" y="662.0">O2</text><rect height="30" style="fill:#cdcdcd; stroke: #000000; stroke-width: 2" width="24.908256880733944" x="270.96330275229354" y="645" /><text style="font-family: times; font-size: 8pt" text-anchor="middle" x="283.4174311926605" y="662.0">O3</text><rect height="30" style="fill:#fccecf; stroke: #cc3333; stroke-width: 2" width="49.81651376146789" x="437.01834862385317" y="675" /><text style="font-family: times; font-size: 8pt" text-anchor="middle" x="461.9266055045871" y="692.0">O29</text><rect height="30" style="fill:#cdcdcd; stroke: #000000; stroke-width: 2" width="16.605504587155963" x="370.5963302752293" y="675" /><text style="font-family: times; font-size: 8pt" text-anchor="middle" x="378.89908256880733" y="692.0">O18</text><rect height="30" style="fill:#cdcdcd; stroke: #000000; stroke-width: 2" width="49.81651376146789" x="387.20183486238534" y="675" /><text style="font-family: times; font-size: 8pt" text-anchor="middle" x="412.11009174311926" y="692.0">O19</text><rect height="30" style="fill:#fccecf; stroke: #cc3333; stroke-width: 2" width="49.81651376146789" x="212.8440366972477" y="705" /><text style="font-family: times; font-size: 8pt" text-anchor="middle" x="237.75229357798165" y="722.0">O28</text><rect height="30" style="fill:#cdcdcd; stroke: #000000; stroke-width: 2" width="16.605504587155963" x="179.63302752293578" y="705" /><text style="font-family: times; font-size: 8pt" text-anchor="middle" x="187.93577981651376" y="722.0">O16</text><rect height="30" style="fill:#cdcdcd; stroke: #000000; stroke-width: 2" width="8.302752293577981" x="204.54128440366972" y="705" /><text style="font-family: times; font-size: 8pt" text-anchor="middle" x="208.6926605504587" y="722.0">O17</text><rect height="30" style="fill:#fccecf; stroke: #cc3333; stroke-width: 2" width="83.02752293577981" x="96.60550458715596" y="735" /><text style="font-family: times; font-size: 8pt" text-anchor="middle" x="138.11926605504587" y="752.0">O4</text><rect height="30" style="fill:#cdcdcd; stroke: #000000; stroke-width: 2" width="8.302752293577981" x="80.0" y="735" /><text style="font-family: times; font-size: 8pt" text-anchor="middle" x="84.15137614678899" y="752.0">i5</text><rect height="30" style="fill:#cdcdcd; stroke: #000000; stroke-width: 2" width="8.302752293577981" x="88.30275229357798" y="735" /><text style="font-family: times; font-size: 8pt" text-anchor="middle" x="92.45412844036697" y="752.0">i6</text><rect height="30" style="fill:#fccecf; stroke: #cc3333; stroke-width: 2" width="49.81651376146789" x="370.5963302752293" y="765" /><text style="font-family: times; font-size: 8pt" text-anchor="middle" x="395.50458715596324" y="782.0">O25</text><rect height="30" style="fill:#cdcdcd; stroke: #000000; stroke-width: 2" width="24.908256880733944" x="304.17431192660547" y="765" /><text style="font-family: times; font-size: 8pt" text-anchor="middle" x="316.6284403669724" y="782.0">O12</text><rect height="30" style="fill:#cdcdcd; stroke: #000000; stroke-width: 2" width="41.51376146788991" x="329.08256880733944" y="765" /><text style="font-family: times; font-size: 8pt" text-anchor="middle" x="349.8394495412844" y="782.0">O13</text><rect height="30" style="fill:#fccecf; stroke: #cc3333; stroke-width: 2" width="66.42201834862385" x="511.74311926605503" y="795" /><text style="font-family: times; font-size: 8pt" text-anchor="middle" x="544.954128440367" y="812.0">O38</text><rect height="30" style="fill:#fccecf; stroke: #cc3333; stroke-width: 2" width="33.211009174311926" x="711.0091743119266" y="795" /><text style="font-family: times; font-size: 8pt" text-anchor="middle" x="727.6146788990825" y="812.0">O47</text><rect height="30" style="fill:#cdcdcd; stroke: #000000; stroke-width: 2" width="16.605504587155963" x="495.13761467889907" y="795" /><text style="font-family: times; font-size: 8pt" text-anchor="middle" x="503.440366972477" y="812.0">O29</text><rect height="30" style="fill:#cdcdcd; stroke: #000000; stroke-width: 2" width="24.908256880733944" x="470.2293577981651" y="795" /><text style="font-family: times; font-size: 8pt" text-anchor="middle" x="482.68348623853205" y="812.0">O30</text><rect height="30" style="fill:#cdcdcd; stroke: #000000; stroke-width: 2" width="16.605504587155963" x="669.4954128440367" y="795" /><text style="font-family: times; font-size: 8pt" text-anchor="middle" x="677.7981651376147" y="812.0">O40</text><rect height="30" style="fill:#cdcdcd; stroke: #000000; stroke-width: 2" width="24.908256880733944" x="686.1009174311927" y="795" /><text style="font-family: times; font-size: 8pt" text-anchor="middle" x="698.5550458715596" y="812.0">O45</text><rect height="30" style="fill:#fccecf; stroke: #cc3333; stroke-width: 2" width="49.81651376146789" x="461.92660550458714" y="825" /><text style="font-family: times; font-size: 8pt" text-anchor="middle" x="486.8348623853211" y="842.0">O39</text><rect height="30" style="fill:#cdcdcd; stroke: #000000; stroke-width: 2" width="16.605504587155963" x="370.5963302752293" y="825" /><text style="font-family: times; font-size: 8pt" text-anchor="middle" x="378.89908256880733" y="842.0">O31</text><rect height="30" style="fill:#cdcdcd; stroke: #000000; stroke-width: 2" width="24.908256880733944" x="437.01834862385317" y="825" /><text style="font-family: times; font-size: 8pt" text-anchor="middle" x="449.47247706422013" y="842.0">O32</text><rect height="30" style="fill:#fccecf; stroke: #cc3333; stroke-width: 2" width="33.211009174311926" x="279.26605504587155" y="855" /><text style="font-family: times; font-size: 8pt" text-anchor="middle" x="295.8715596330275" y="872.0">O23</text><rect height="30" style="fill:#cdcdcd; stroke: #000000; stroke-width: 2" width="49.81651376146789" x="229.44954128440367" y="855" /><text style="font-family: times; font-size: 8pt" text-anchor="middle" x="254.3577981651376" y="872.0">O8</text><rect height="30" style="fill:#cdcdcd; stroke: #000000; stroke-width: 2" width="58.11926605504587" x="171.3302752293578" y="855" /><text style="font-family: times; font-size: 8pt" text-anchor="middle" x="200.38990825688074" y="872.0">O9</text><rect height="30" style="fill:#fccecf; stroke: #cc3333; stroke-width: 2" width="33.211009174311926" x="818.9449541284404" y="885" /><text style="font-family: times; font-size: 8pt" text-anchor="middle" x="835.5504587155963" y="902.0">O49</text><rect height="30" style="fill:#fccecf; stroke: #cc3333; stroke-width: 2" width="49.81651376146789" x="187.93577981651376" y="885" /><text style="font-family: times; font-size: 8pt" text-anchor="middle" x="212.8440366972477" y="902.0">O6</text><rect height="30" style="fill:#cdcdcd; stroke: #000000; stroke-width: 2" width="16.605504587155963" x="171.3302752293578" y="885" /><text style="font-family: times; font-size: 8pt" text-anchor="middle" x="179.63302752293578" y="902.0">i9</text><rect height="30" style="fill:#cdcdcd; stroke: #000000; stroke-width: 2" width="16.605504587155963" x="154.72477064220183" y="885" /><text style="font-family: times; font-size: 8pt" text-anchor="middle" x="163.0275229357798" y="902.0">i10</text><rect height="30" style="fill:#cdcdcd; stroke: #000000; stroke-width: 2" width="24.908256880733944" x="752.5229357798165" y="885" /><text style="font-family: times; font-size: 8pt" text-anchor="middle" x="764.9770642201835" y="902.0">O46</text><rect height="30" style="fill:#cdcdcd; stroke: #000000; stroke-width: 2" width="8.302752293577981" x="810.6422018348624" y="885" /><text style="font-family: times; font-size: 8pt" text-anchor="middle" x="814.7935779816513" y="902.0">O48</text><rect height="30" style="fill:#fccecf; stroke: #cc3333; stroke-width: 2" width="33.211009174311926" x="113.21100917431193" y="915" /><text style="font-family: times; font-size: 8pt" text-anchor="middle" x="129.8165137614679" y="932.0">O7</text><rect height="30" style="fill:#fccecf; stroke: #cc3333; stroke-width: 2" width="66.42201834862385" x="337.3853211009174" y="915" /><text style="font-family: times; font-size: 8pt" text-anchor="middle" x="370.5963302752293" y="932.0">O30</text><rect height="30" style="fill:#fccecf; stroke: #cc3333; stroke-width: 2" width="49.81651376146789" x="702.7064220183486" y="915" /><text style="font-family: times; font-size: 8pt" text-anchor="middle" x="727.6146788990825" y="932.0">O46</text><rect height="30" style="fill:#fccecf; stroke: #cc3333; stroke-width: 2" width="49.81651376146789" x="221.14678899082568" y="915" /><text style="font-family: times; font-size: 8pt" text-anchor="middle" x="246.05504587155963" y="932.0">O5</text><rect height="30" style="fill:#cdcdcd; stroke: #000000; stroke-width: 2" width="8.302752293577981" x="204.54128440366972" y="915" /><text style="font-family: times; font-size: 8pt" text-anchor="middle" x="208.6926605504587" y="932.0">i7</text><rect height="30" style="fill:#cdcdcd; stroke: #000000; stroke-width: 2" width="8.302752293577981" x="212.8440366972477" y="915" /><text style="font-family: times; font-size: 8pt" text-anchor="middle" x="216.9954128440367" y="932.0">i8</text><rect height="30" style="fill:#cdcdcd; stroke: #000000; stroke-width: 2" width="8.302752293577981" x="96.60550458715596" y="915" /><text style="font-family: times; font-size: 8pt" text-anchor="middle" x="100.75688073394495" y="932.0">i11</text><rect height="30" style="fill:#cdcdcd; stroke: #000000; stroke-width: 2" width="8.302752293577981" x="104.90825688073394" y="915" /><text style="font-family: times; font-size: 8pt" text-anchor="middle" x="109.05963302752293" y="932.0">i12</text><rect height="30" style="fill:#cdcdcd; stroke: #000000; stroke-width: 2" width="33.211009174311926" x="279.26605504587155" y="915" /><text style="font-family: times; font-size: 8pt" text-anchor="middle" x="295.8715596330275" y="932.0">O20</text><rect height="30" style="fill:#cdcdcd; stroke: #000000; stroke-width: 2" width="24.908256880733944" x="312.4770642201835" y="915" /><text style="font-family: times; font-size: 8pt" text-anchor="middle" x="324.93119266055044" y="932.0">O21</text><rect height="30" style="fill:#cdcdcd; stroke: #000000; stroke-width: 2" width="16.605504587155963" x="686.1009174311927" y="915" /><text style="font-family: times; font-size: 8pt" text-anchor="middle" x="694.4036697247707" y="932.0">O43</text><rect height="30" style="fill:#cdcdcd; stroke: #000000; stroke-width: 2" width="91.3302752293578" x="594.7706422018348" y="915" /><text style="font-family: times; font-size: 8pt" text-anchor="middle" x="640.4357798165137" y="932.0">O44</text><rect height="30" style="fill:#fccecf; stroke: #cc3333; stroke-width: 2" width="83.02752293577981" x="96.60550458715596" y="945" /><text style="font-family: times; font-size: 8pt" text-anchor="middle" x="138.11926605504587" y="962.0">O16</text><rect height="30" style="fill:#fccecf; stroke: #cc3333; stroke-width: 2" width="66.42201834862385" x="254.3577981651376" y="945" /><text style="font-family: times; font-size: 8pt" text-anchor="middle" x="287.56880733944956" y="962.0">O13</text><rect height="30" style="fill:#cdcdcd; stroke: #000000; stroke-width: 2" width="8.302752293577981" x="237.75229357798165" y="945" /><text style="font-family: times; font-size: 8pt" text-anchor="middle" x="241.90366972477062" y="962.0">i18</text><rect height="30" style="fill:#cdcdcd; stroke: #000000; stroke-width: 2" width="8.302752293577981" x="246.05504587155963" y="945" /><text style="font-family: times; font-size: 8pt" text-anchor="middle" x="250.20642201834863" y="962.0">i19</text><rect height="30" style="fill:#cdcdcd; stroke: #000000; stroke-width: 2" width="8.302752293577981" x="80.0" y="945" /><text style="font-family: times; font-size: 8pt" text-anchor="middle" x="84.15137614678899" y="962.0">i24</text><rect height="30" style="fill:#cdcdcd; stroke: #000000; stroke-width: 2" width="8.302752293577981" x="88.30275229357798" y="945" /><text style="font-family: times; font-size: 8pt" text-anchor="middle" x="92.45412844036697" y="962.0">i25</text><rect height="30" style="fill:#fccecf; stroke: #cc3333; stroke-width: 2" width="33.211009174311926" x="171.3302752293578" y="975" /><text style="font-family: times; font-size: 8pt" text-anchor="middle" x="187.93577981651376" y="992.0">O17</text><rect height="30" style="fill:#cdcdcd; stroke: #000000; stroke-width: 2" width="16.605504587155963" x="138.11926605504587" y="975" /><text style="font-family: times; font-size: 8pt" text-anchor="middle" x="146.42201834862385" y="992.0">i26</text><rect height="30" style="fill:#cdcdcd; stroke: #000000; stroke-width: 2" width="16.605504587155963" x="154.72477064220183" y="975" /><text style="font-family: times; font-size: 8pt" text-anchor="middle" x="163.0275229357798" y="992.0">i27</text><rect height="30" style="fill:#fccecf; stroke: #cc3333; stroke-width: 2" width="66.42201834862385" x="138.11926605504587" y="1005" /><text style="font-family: times; font-size: 8pt" text-anchor="middle" x="171.3302752293578" y="1022.0">O14</text><rect height="30" style="fill:#cdcdcd; stroke: #000000; stroke-width: 2" width="8.302752293577981" x="121.5137614678899" y="1005" /><text style="font-family: times; font-size: 8pt" text-anchor="middle" x="125.6651376146789" y="1022.0">i20</text><rect height="30" style="fill:#cdcdcd; stroke: #000000; stroke-width: 2" width="8.302752293577981" x="129.8165137614679" y="1005" /><text style="font-family: times; font-size: 8pt" text-anchor="middle" x="133.9678899082569" y="1022.0">i21</text></svg>