<?xml version="1.0" encoding="utf-8" ?>
<svg baseProfile="full" height="510" version="1.1" width="1000" xmlns="http://www.w3.org/2000/svg" xmlns:ev="http://www.w3.org/2001/xml-events" xmlns:xlink="http://www.w3.org/1999/xlink"><defs /><rect fill="rgb(255, 255, 255)" height="30" width="970" x="15" y="15" /><text style="font-family: times; font-size: 8pt" text-anchor="end" x="70" y="32.0">Detector1</text><rect fill="rgb(230, 230, 230)" height="30" width="970" x="15" y="45" /><text style="font-family: times; font-size: 8pt" text-anchor="end" x="70" y="62.0">Filter1</text><rect fill="rgb(255, 255, 255)" height="30" width="970" x="15" y="75" /><text style="font-family: times; font-size: 8pt" text-anchor="end" x="70" y="92.0">Filter2</text><rect fill="rgb(230, 230, 230)" height="30" width="970" x="15" y="105" /><text style="font-family: times; font-size: 8pt" text-anchor="end" x="70" y="122.0">Filter3</text><rect fill="rgb(255, 255, 255)" height="30" width="970" x="15" y="135" /><text style="font-family: times; font-size: 8pt" text-anchor="end" x="70" y="152.0">Heater1</text><rect fill="rgb(230, 230, 230)" height="30" width="970" x="15" y="165" /><text style="font-family: times; font-size: 8pt" text-anchor="end" x="70" y="182.0">Heater2</text><rect fill="rgb(255, 255, 255)" height="30" width="970" x="15" y="195" /><text style="font-family: times; font-size: 8pt" text-anchor="end" x="70" y="212.0">Heater3</text><rect fill="rgb(230, 230, 230)" height="30" width="970" x="15" y="225" /><text style="font-family: times; font-size: 8pt" text-anchor="end" x="70" y="242.0">Mixer1</text><rect fill="rgb(255, 255, 255)" height="30" width="970" x="15" y="255" /><text style="font-family: times; font-size: 8pt" text-anchor="end" x="70" y="272.0">Mixer2</text><rect fill="rgb(230, 230, 230)" height="30" width="970" x="15" y="285" /><text style="font-family: times; font-size: 8pt" text-anchor="end" x="70" y="302.0">Mixer3</text><rect fill="rgb(255, 255, 255)" height="30" width="970" x="15" y="315" /><text style="font-family: times; font-size: 8pt" text-anchor="end" x="70" y="332.0">Mixer4</text><rect fill="rgb(230, 230, 230)" height="30" width="970" x="15" y="345" /><text style="font-family: times; font-size: 8pt" text-anchor="end" x="70" y="362.0">Mixer5</text><rect fill="rgb(255, 255, 255)" height="30" width="970" x="15" y="375" /><text style="font-family: times; font-size: 8pt" text-anchor="end" x="70" y="392.0">Mixer7</text><rect fill="rgb(230, 230, 230)" height="30" width="970" x="15" y="405" /><text style="font-family: times; font-size: 8pt" text-anchor="end" x="70" y="422.0">Mixer9</text><line style="stroke: #888888;stroke-width: 1;" x1="985.0" x2="985.0" y1="15" y2="465" /><text style="font-family: times; font-size: 8pt" text-anchor="middle" x="985.0" y="488">39.0</text><line style="stroke: #888888;stroke-width: 1;" x1="926.9871794871794" x2="926.9871794871794" y1="15" y2="465" /><text style="font-family: times; font-size: 8pt" text-anchor="middle" x="926.9871794871794" y="488">36.5</text><line style="stroke: #888888;stroke-width: 1;" x1="903.7820512820513" x2="903.7820512820513" y1="15" y2="465" /><line style="stroke: #888888;stroke-width: 1;" x1="857.3717948717948" x2="857.3717948717948" y1="15" y2="465" /><text style="font-family: times; font-size: 8pt" text-anchor="middle" x="857.3717948717948" y="488">33.5</text><line style="stroke: #888888;stroke-width: 1;" x1="845.7692307692307" x2="845.7692307692307" y1="15" y2="465" /><line style="stroke: #888888;stroke-width: 1;" x1="799.3589743589744" x2="799.3589743589744" y1="15" y2="465" /><text style="font-family: times; font-size: 8pt" text-anchor="middle" x="799.3589743589744" y="488">31.0</text><line style="stroke: #888888;stroke-width: 1;" x1="776.1538461538462" x2="776.1538461538462" y1="15" y2="465" /><line style="stroke: #888888;stroke-width: 1;" x1="764.551282051282" x2="764.551282051282" y1="15" y2="465" /><line style="stroke: #888888;stroke-width: 1;" x1="752.9487179487179" x2="752.9487179487179" y1="15" y2="465" /><text style="font-family: times; font-size: 8pt" text-anchor="middle" x="752.9487179487179" y="488">29.0</text><line style="stroke: #888888;stroke-width: 1;" x1="671.7307692307692" x2="671.7307692307692" y1="15" y2="465" /><text style="font-family: times; font-size: 8pt" text-anchor="middle" x="671.7307692307692" y="488">25.5</text><line style="stroke: #888888;stroke-width: 1;" x1="636.9230769230769" x2="636.9230769230769" y1="15" y2="465" /><line style="stroke: #888888;stroke-width: 1;" x1="602.1153846153846" x2="602.1153846153846" y1="15" y2="465" /><text style="font-family: times; font-size: 8pt" text-anchor="middle" x="602.1153846153846" y="488">22.5</text><line style="stroke: #888888;stroke-width: 1;" x1="590.5128205128206" x2="590.5128205128206" y1="15" y2="465" /><line style="stroke: #888888;stroke-width: 1;" x1="567.3076923076923" x2="567.3076923076923" y1="15" y2="465" /><line style="stroke: #888888;stroke-width: 1;" x1="555.7051282051282" x2="555.7051282051282" y1="15" y2="465" /><text style="font-family: times; font-size: 8pt" text-anchor="middle" x="555.7051282051282" y="488">20.5</text><line style="stroke: #888888;stroke-width: 1;" x1="544.1025641025641" x2="544.1025641025641" y1="15" y2="465" /><line style="stroke: #888888;stroke-width: 1;" x1="509.29487179487177" x2="509.29487179487177" y1="15" y2="465" /><text style="font-family: times; font-size: 8pt" text-anchor="middle" x="509.29487179487177" y="488">18.5</text><line style="stroke: #888888;stroke-width: 1;" x1="497.6923076923077" x2="497.6923076923077" y1="15" y2="465" /><line style="stroke: #888888;stroke-width: 1;" x1="474.48717948717945" x2="474.48717948717945" y1="15" y2="465" /><line style="stroke: #888888;stroke-width: 1;" x1="439.6794871794872" x2="439.6794871794872" y1="15" y2="465" /><text style="font-family: times; font-size: 8pt" text-anchor="middle" x="439.6794871794872" y="488">15.5</text><line style="stroke: #888888;stroke-width: 1;" x1="428.0769230769231" x2="428.0769230769231" y1="15" y2="465" /><line style="stroke: #888888;stroke-width: 1;" x1="404.87179487179486" x2="404.87179487179486" y1="15" y2="465" /><line style="stroke: #888888;stroke-width: 1;" x1="381.66666666666663" x2="381.66666666666663" y1="15" y2="465" /><text style="font-family: times; font-size: 8pt" text-anchor="middle" x="381.66666666666663" y="488">13.0</text><line style="stroke: #888888;stroke-width: 1;" x1="370.06410256410254" x2="370.06410256410254" y1="15" y2="465" /><line style="stroke: #888888;stroke-width: 1;" x1="358.46153846153845" x2="358.46153846153845" y1="15" y2="465" /><line style="stroke: #888888;stroke-width: 1;" x1="346.85897435897436" x2="346.85897435897436" y1="15" y2="465" /><line style="stroke: #888888;stroke-width: 1;" x1="335.2564102564103" x2="335.2564102564103" y1="15" y2="465" /><text style="font-family: times; font-size: 8pt" text-anchor="middle" x="335.2564102564103" y="488">11.0</text><line style="stroke: #888888;stroke-width: 1;" x1="312.05128205128204" x2="312.05128205128204" y1="15" y2="465" /><line style="stroke: #888888;stroke-width: 1;" x1="288.8461538461538" x2="288.8461538461538" y1="15" y2="465" /><text style="font-family: times; font-size: 8pt" text-anchor="middle" x="288.8461538461538" y="488">9.0</text><line style="stroke: #888888;stroke-width: 1;" x1="277.2435897435897" x2="277.2435897435897" y1="15" y2="465" /><line style="stroke: #888888;stroke-width: 1;" x1="265.64102564102564" x2="265.64102564102564" y1="15" y2="465" /><line style="stroke: #888888;stroke-width: 1;" x1="254.03846153846155" x2="254.03846153846155" y1="15" y2="465" /><line style="stroke: #888888;stroke-width: 1;" x1="230.83333333333331" x2="230.83333333333331" y1="15" y2="465" /><text style="font-family: times; font-size: 8pt" text-anchor="middle" x="230.83333333333331" y="488">6.5</text><line style="stroke: #888888;stroke-width: 1;" x1="207.62820512820514" x2="207.62820512820514" y1="15" y2="465" /><line style="stroke: #888888;stroke-width: 1;" x1="184.4230769230769" x2="184.4230769230769" y1="15" y2="465" /><text style="font-family: times; font-size: 8pt" text-anchor="middle" x="184.4230769230769" y="488">4.5</text><line style="stroke: #888888;stroke-width: 1;" x1="161.21794871794873" x2="161.21794871794873" y1="15" y2="465" /><line style="stroke: #888888;stroke-width: 1;" x1="138.0128205128205" x2="138.0128205128205" y1="15" y2="465" /><text style="font-family: times; font-size: 8pt" text-anchor="middle" x="138.0128205128205" y="488">2.5</text><line style="stroke: #888888;stroke-width: 1;" x1="114.8076923076923" x2="114.8076923076923" y1="15" y2="465" /><line style="stroke: #888888;stroke-width: 1;" x1="103.2051282051282" x2="103.2051282051282" y1="15" y2="465" /><line style="stroke: #888888;stroke-width: 1;" x1="91.6025641025641" x2="91.6025641025641" y1="15" y2="465" /><text style="font-family: times; font-size: 8pt" text-anchor="middle" x="91.6025641025641" y="488">0.5</text><line style="stroke: #888888;stroke-width: 1;" x1="80.0" x2="80.0" y1="15" y2="465" /><rect height="30" style="fill:#bce6b3; stroke: #166f2b; stroke-width: 2" width="116.02564102564102" x="428.0769230769231" y="15" /><text style="font-family: times; font-size: 8pt" text-anchor="middle" x="486.0897435897436" y="32.0">O11</text><rect height="30" style="fill:#cdcdcd; stroke: #000000; stroke-width: 2" width="69.61538461538461" x="358.46153846153845" y="15" /><text style="font-family: times; font-size: 8pt" text-anchor="middle" x="393.2692307692308" y="32.0">O3</text><rect height="30" style="fill:#d1e6ff; stroke: #3a5684; stroke-width: 2" width="92.82051282051282" x="161.21794871794873" y="45" /><text style="font-family: times; font-size: 8pt" text-anchor="middle" x="207.62820512820514" y="62.0">O6</text><rect height="30" style="fill:#cdcdcd; stroke: #000000; stroke-width: 2" width="23.205128205128204" x="138.0128205128205" y="45" /><text style="font-family: times; font-size: 8pt" text-anchor="middle" x="149.61538461538458" y="62.0">i10</text><rect height="30" style="fill:#d1e6ff; stroke: #3a5684; stroke-width: 2" width="69.61538461538461" x="439.6794871794872" y="75" /><text style="font-family: times; font-size: 8pt" text-anchor="middle" x="474.4871794871795" y="92.0">O14</text><rect height="30" style="fill:#cdcdcd; stroke: #000000; stroke-width: 2" width="81.21794871794872" x="358.46153846153845" y="75" /><text style="font-family: times; font-size: 8pt" text-anchor="middle" x="399.0705128205128" y="92.0">O8</text><rect height="30" style="fill:#d1e6ff; stroke: #3a5684; stroke-width: 2" width="69.61538461538461" x="474.48717948717945" y="105" /><text style="font-family: times; font-size: 8pt" text-anchor="middle" x="509.29487179487177" y="122.0">O10</text><rect height="30" style="fill:#cdcdcd; stroke: #000000; stroke-width: 2" width="34.80769230769231" x="439.6794871794872" y="105" /><text style="font-family: times; font-size: 8pt" text-anchor="middle" x="457.0833333333333" y="122.0">O2</text><rect height="30" style="fill:#f0f0f0; stroke: #393939; stroke-width: 2" width="116.02564102564102" x="312.05128205128204" y="135" /><text style="font-family: times; font-size: 8pt" text-anchor="middle" x="370.06410256410254" y="152.0">O9</text><rect height="30" style="fill:#cdcdcd; stroke: #000000; stroke-width: 2" width="34.80769230769231" x="277.2435897435897" y="135" /><text style="font-family: times; font-size: 8pt" text-anchor="middle" x="294.64743589743586" y="152.0">O1</text><rect height="30" style="fill:#f0f0f0; stroke: #393939; stroke-width: 2" width="92.82051282051282" x="277.2435897435897" y="165" /><text style="font-family: times; font-size: 8pt" text-anchor="middle" x="323.65384615384613" y="182.0">O5</text><rect height="30" style="fill:#cdcdcd; stroke: #000000; stroke-width: 2" width="11.602564102564102" x="265.64102564102564" y="165" /><text style="font-family: times; font-size: 8pt" text-anchor="middle" x="271.4423076923077" y="182.0">i9</text><rect height="30" style="fill:#f0f0f0; stroke: #393939; stroke-width: 2" width="46.41025641025641" x="358.46153846153845" y="195" /><text style="font-family: times; font-size: 8pt" text-anchor="middle" x="381.66666666666663" y="212.0">O7</text><rect height="30" style="fill:#f0f0f0; stroke: #393939; stroke-width: 2" width="46.41025641025641" x="799.3589743589744" y="195" /><text style="font-family: times; font-size: 8pt" text-anchor="middle" x="822.5641025641025" y="212.0">O19</text><rect height="30" style="fill:#cdcdcd; stroke: #000000; stroke-width: 2" width="46.41025641025641" x="312.05128205128204" y="195" /><text style="font-family: times; font-size: 8pt" text-anchor="middle" x="335.2564102564103" y="212.0">i11</text><rect height="30" style="fill:#cdcdcd; stroke: #000000; stroke-width: 2" width="23.205128205128204" x="776.1538461538462" y="195" /><text style="font-family: times; font-size: 8pt" text-anchor="middle" x="787.7564102564103" y="212.0">O17</text><rect height="30" style="fill:#fccecf; stroke: #cc3333; stroke-width: 2" width="92.82051282051282" x="184.4230769230769" y="225" /><text style="font-family: times; font-size: 8pt" text-anchor="middle" x="230.83333333333331" y="242.0">O2</text><rect height="30" style="fill:#cdcdcd; stroke: #000000; stroke-width: 2" width="23.205128205128204" x="138.0128205128205" y="225" /><text style="font-family: times; font-size: 8pt" text-anchor="middle" x="149.61538461538458" y="242.0">i3</text><rect height="30" style="fill:#cdcdcd; stroke: #000000; stroke-width: 2" width="23.205128205128204" x="161.21794871794873" y="225" /><text style="font-family: times; font-size: 8pt" text-anchor="middle" x="172.82051282051282" y="242.0">i4</text><rect height="30" style="fill:#fccecf; stroke: #cc3333; stroke-width: 2" width="116.02564102564102" x="230.83333333333331" y="255" /><text style="font-family: times; font-size: 8pt" text-anchor="middle" x="288.8461538461538" y="272.0">O4</text><rect height="30" style="fill:#cdcdcd; stroke: #000000; stroke-width: 2" width="23.205128205128204" x="184.4230769230769" y="255" /><text style="font-family: times; font-size: 8pt" text-anchor="middle" x="196.025641025641" y="272.0">i7</text><rect height="30" style="fill:#cdcdcd; stroke: #000000; stroke-width: 2" width="23.205128205128204" x="207.62820512820514" y="255" /><text style="font-family: times; font-size: 8pt" text-anchor="middle" x="219.23076923076923" y="272.0">i8</text><rect height="30" style="fill:#fccecf; stroke: #cc3333; stroke-width: 2" width="185.64102564102564" x="103.2051282051282" y="285" /><text style="font-family: times; font-size: 8pt" text-anchor="middle" x="196.02564102564102" y="302.0">O8</text><rect height="30" style="fill:#cdcdcd; stroke: #000000; stroke-width: 2" width="11.602564102564102" x="80.0" y="285" /><text style="font-family: times; font-size: 8pt" text-anchor="middle" x="85.80128205128204" y="302.0">i12</text><rect height="30" style="fill:#cdcdcd; stroke: #000000; stroke-width: 2" width="11.602564102564102" x="91.6025641025641" y="285" /><text style="font-family: times; font-size: 8pt" text-anchor="middle" x="97.40384615384616" y="302.0">i13</text><rect height="30" style="fill:#fccecf; stroke: #cc3333; stroke-width: 2" width="69.61538461538461" x="138.0128205128205" y="315" /><text style="font-family: times; font-size: 8pt" text-anchor="middle" x="172.82051282051282" y="332.0">O1</text><rect height="30" style="fill:#fccecf; stroke: #cc3333; stroke-width: 2" width="46.41025641025641" x="509.29487179487177" y="315" /><text style="font-family: times; font-size: 8pt" text-anchor="middle" x="532.5" y="332.0">O13</text><rect height="30" style="fill:#cdcdcd; stroke: #000000; stroke-width: 2" width="11.602564102564102" x="103.2051282051282" y="315" /><text style="font-family: times; font-size: 8pt" text-anchor="middle" x="109.00641025641025" y="332.0">i1</text><rect height="30" style="fill:#cdcdcd; stroke: #000000; stroke-width: 2" width="23.205128205128204" x="114.8076923076923" y="315" /><text style="font-family: times; font-size: 8pt" text-anchor="middle" x="126.41025641025641" y="332.0">i2</text><rect height="30" style="fill:#cdcdcd; stroke: #000000; stroke-width: 2" width="69.61538461538461" x="439.6794871794872" y="315" /><text style="font-family: times; font-size: 8pt" text-anchor="middle" x="474.4871794871795" y="332.0">O7</text><rect height="30" style="fill:#cdcdcd; stroke: #000000; stroke-width: 2" width="69.61538461538461" x="312.05128205128204" y="315" /><text style="font-family: times; font-size: 8pt" text-anchor="middle" x="346.85897435897436" y="332.0">O6</text><rect height="30" style="fill:#fccecf; stroke: #cc3333; stroke-width: 2" width="69.61538461538461" x="265.64102564102564" y="345" /><text style="font-family: times; font-size: 8pt" text-anchor="middle" x="300.44871794871796" y="362.0">O3</text><rect height="30" style="fill:#fccecf; stroke: #cc3333; stroke-width: 2" width="185.64102564102564" x="590.5128205128206" y="345" /><text style="font-family: times; font-size: 8pt" text-anchor="middle" x="683.3333333333334" y="362.0">O17</text><rect height="30" style="fill:#cdcdcd; stroke: #000000; stroke-width: 2" width="23.205128205128204" x="207.62820512820514" y="345" /><text style="font-family: times; font-size: 8pt" text-anchor="middle" x="219.23076923076923" y="362.0">i5</text><rect height="30" style="fill:#cdcdcd; stroke: #000000; stroke-width: 2" width="34.80769230769231" x="230.83333333333331" y="345" /><text style="font-family: times; font-size: 8pt" text-anchor="middle" x="248.23717948717947" y="362.0">i6</text><rect height="30" style="fill:#cdcdcd; stroke: #000000; stroke-width: 2" width="23.205128205128204" x="567.3076923076923" y="345" /><text style="font-family: times; font-size: 8pt" text-anchor="middle" x="578.9102564102564" y="362.0">O13</text><rect height="30" style="fill:#cdcdcd; stroke: #000000; stroke-width: 2" width="58.01282051282051" x="509.29487179487177" y="345" /><text style="font-family: times; font-size: 8pt" text-anchor="middle" x="538.301282051282" y="362.0">O14</text><rect height="30" style="fill:#fccecf; stroke: #cc3333; stroke-width: 2" width="92.82051282051282" x="381.66666666666663" y="375" /><text style="font-family: times; font-size: 8pt" text-anchor="middle" x="428.07692307692304" y="392.0">O12</text><rect height="30" style="fill:#fccecf; stroke: #cc3333; stroke-width: 2" width="69.61538461538461" x="602.1153846153846" y="375" /><text style="font-family: times; font-size: 8pt" text-anchor="middle" x="636.9230769230769" y="392.0">O16</text><rect height="30" style="fill:#cdcdcd; stroke: #000000; stroke-width: 2" width="11.602564102564102" x="370.06410256410254" y="375" /><text style="font-family: times; font-size: 8pt" text-anchor="middle" x="375.8653846153846" y="392.0">O5</text><rect height="30" style="fill:#cdcdcd; stroke: #000000; stroke-width: 2" width="23.205128205128204" x="346.85897435897436" y="375" /><text style="font-family: times; font-size: 8pt" text-anchor="middle" x="358.46153846153845" y="392.0">O4</text><rect height="30" style="fill:#cdcdcd; stroke: #000000; stroke-width: 2" width="58.01282051282051" x="544.1025641025641" y="375" /><text style="font-family: times; font-size: 8pt" text-anchor="middle" x="573.1089743589744" y="392.0">O11</text><rect height="30" style="fill:#fccecf; stroke: #cc3333; stroke-width: 2" width="92.82051282051282" x="764.551282051282" y="405" /><text style="font-family: times; font-size: 8pt" text-anchor="middle" x="810.9615384615383" y="422.0">O18</text><rect height="30" style="fill:#fccecf; stroke: #cc3333; stroke-width: 2" width="116.02564102564102" x="636.9230769230769" y="405" /><text style="font-family: times; font-size: 8pt" text-anchor="middle" x="694.9358974358975" y="422.0">O15</text><rect height="30" style="fill:#fccecf; stroke: #cc3333; stroke-width: 2" width="23.205128205128204" x="903.7820512820513" y="405" /><text style="font-family: times; font-size: 8pt" text-anchor="middle" x="915.3846153846154" y="422.0">O20</text><rect height="30" style="fill:#cdcdcd; stroke: #000000; stroke-width: 2" width="69.61538461538461" x="428.0769230769231" y="405" /><text style="font-family: times; font-size: 8pt" text-anchor="middle" x="462.8846153846154" y="422.0">O9</text><rect height="30" style="fill:#cdcdcd; stroke: #000000; stroke-width: 2" width="69.61538461538461" x="567.3076923076923" y="405" /><text style="font-family: times; font-size: 8pt" text-anchor="middle" x="602.1153846153845" y="422.0">O10</text><rect height="30" style="fill:#cdcdcd; stroke: #000000; stroke-width: 2" width="11.602564102564102" x="752.9487179487179" y="405" /><text style="font-family: times; font-size: 8pt" text-anchor="middle" x="758.75" y="422.0">O16</text><rect height="30" style="fill:#cdcdcd; stroke: #000000; stroke-width: 2" width="46.41025641025641" x="857.3717948717948" y="405" /><text style="font-family: times; font-size: 8pt" text-anchor="middle" x="880.576923076923" y="422.0">O19</text><rect height="30" style="fill:#cdcdcd; stroke: #000000; stroke-width: 2" width="58.01282051282051" x="926.9871794871794" y="405" /><text style="font-family: times; font-size: 8pt" text-anchor="middle" x="955.9935897435897" y="422.0">o1</text></svg>