<?xml version="1.0" encoding="utf-8" ?>
<svg baseProfile="full" height="690" version="1.1" width="1000" xmlns="http://www.w3.org/2000/svg" xmlns:ev="http://www.w3.org/2001/xml-events" xmlns:xlink="http://www.w3.org/1999/xlink"><defs /><rect fill="rgb(255, 255, 255)" height="30" width="970" x="15" y="15" /><text style="font-family: times; font-size: 8pt" text-anchor="end" x="70" y="32.0">Detector2</text><rect fill="rgb(230, 230, 230)" height="30" width="970" x="15" y="45" /><text style="font-family: times; font-size: 8pt" text-anchor="end" x="70" y="62.0">Detector3</text><rect fill="rgb(255, 255, 255)" height="30" width="970" x="15" y="75" /><text style="font-family: times; font-size: 8pt" text-anchor="end" x="70" y="92.0">Filter1</text><rect fill="rgb(230, 230, 230)" height="30" width="970" x="15" y="105" /><text style="font-family: times; font-size: 8pt" text-anchor="end" x="70" y="122.0">Filter4</text><rect fill="rgb(255, 255, 255)" height="30" width="970" x="15" y="135" /><text style="font-family: times; font-size: 8pt" text-anchor="end" x="70" y="152.0">Heater1</text><rect fill="rgb(230, 230, 230)" height="30" width="970" x="15" y="165" /><text style="font-family: times; font-size: 8pt" text-anchor="end" x="70" y="182.0">Heater3</text><rect fill="rgb(255, 255, 255)" height="30" width="970" x="15" y="195" /><text style="font-family: times; font-size: 8pt" text-anchor="end" x="70" y="212.0">Heater4</text><rect fill="rgb(230, 230, 230)" height="30" width="970" x="15" y="225" /><text style="font-family: times; font-size: 8pt" text-anchor="end" x="70" y="242.0">Heater5</text><rect fill="rgb(255, 255, 255)" height="30" width="970" x="15" y="255" /><text style="font-family: times; font-size: 8pt" text-anchor="end" x="70" y="272.0">Mixer1</text><rect fill="rgb(230, 230, 230)" height="30" width="970" x="15" y="285" /><text style="font-family: times; font-size: 8pt" text-anchor="end" x="70" y="302.0">Mixer10</text><rect fill="rgb(255, 255, 255)" height="30" width="970" x="15" y="315" /><text style="font-family: times; font-size: 8pt" text-anchor="end" x="70" y="332.0">Mixer11</text><rect fill="rgb(230, 230, 230)" height="30" width="970" x="15" y="345" /><text style="font-family: times; font-size: 8pt" text-anchor="end" x="70" y="362.0">Mixer12</text><rect fill="rgb(255, 255, 255)" height="30" width="970" x="15" y="375" /><text style="font-family: times; font-size: 8pt" text-anchor="end" x="70" y="392.0">Mixer13</text><rect fill="rgb(230, 230, 230)" height="30" width="970" x="15" y="405" /><text style="font-family: times; font-size: 8pt" text-anchor="end" x="70" y="422.0">Mixer14</text><rect fill="rgb(255, 255, 255)" height="30" width="970" x="15" y="435" /><text style="font-family: times; font-size: 8pt" text-anchor="end" x="70" y="452.0">Mixer17</text><rect fill="rgb(230, 230, 230)" height="30" width="970" x="15" y="465" /><text style="font-family: times; font-size: 8pt" text-anchor="end" x="70" y="482.0">Mixer2</text><rect fill="rgb(255, 255, 255)" height="30" width="970" x="15" y="495" /><text style="font-family: times; font-size: 8pt" text-anchor="end" x="70" y="512.0">Mixer3</text><rect fill="rgb(230, 230, 230)" height="30" width="970" x="15" y="525" /><text style="font-family: times; font-size: 8pt" text-anchor="end" x="70" y="542.0">Mixer5</text><rect fill="rgb(255, 255, 255)" height="30" width="970" x="15" y="555" /><text style="font-family: times; font-size: 8pt" text-anchor="end" x="70" y="572.0">Mixer7</text><rect fill="rgb(230, 230, 230)" height="30" width="970" x="15" y="585" /><text style="font-family: times; font-size: 8pt" text-anchor="end" x="70" y="602.0">Mixer9</text><line style="stroke: #888888;stroke-width: 1;" x1="985.0" x2="985.0" y1="15" y2="645" /><text style="font-family: times; font-size: 8pt" text-anchor="middle" x="985.0" y="668">45.0</text><line style="stroke: #888888;stroke-width: 1;" x1="974.9444444444445" x2="974.9444444444445" y1="15" y2="645" /><line style="stroke: #888888;stroke-width: 1;" x1="934.7222222222222" x2="934.7222222222222" y1="15" y2="645" /><text style="font-family: times; font-size: 8pt" text-anchor="middle" x="934.7222222222222" y="668">42.5</text><line style="stroke: #888888;stroke-width: 1;" x1="894.5" x2="894.5" y1="15" y2="645" /><text style="font-family: times; font-size: 8pt" text-anchor="middle" x="894.5" y="668">40.5</text><line style="stroke: #888888;stroke-width: 1;" x1="854.2777777777777" x2="854.2777777777777" y1="15" y2="645" /><text style="font-family: times; font-size: 8pt" text-anchor="middle" x="854.2777777777777" y="668">38.5</text><line style="stroke: #888888;stroke-width: 1;" x1="824.1111111111111" x2="824.1111111111111" y1="15" y2="645" /><line style="stroke: #888888;stroke-width: 1;" x1="753.7222222222222" x2="753.7222222222222" y1="15" y2="645" /><text style="font-family: times; font-size: 8pt" text-anchor="middle" x="753.7222222222222" y="668">33.5</text><line style="stroke: #888888;stroke-width: 1;" x1="723.5555555555555" x2="723.5555555555555" y1="15" y2="645" /><line style="stroke: #888888;stroke-width: 1;" x1="703.4444444444445" x2="703.4444444444445" y1="15" y2="645" /><text style="font-family: times; font-size: 8pt" text-anchor="middle" x="703.4444444444445" y="668">31.0</text><line style="stroke: #888888;stroke-width: 1;" x1="693.3888888888889" x2="693.3888888888889" y1="15" y2="645" /><line style="stroke: #888888;stroke-width: 1;" x1="673.2777777777777" x2="673.2777777777777" y1="15" y2="645" /><line style="stroke: #888888;stroke-width: 1;" x1="653.1666666666666" x2="653.1666666666666" y1="15" y2="645" /><text style="font-family: times; font-size: 8pt" text-anchor="middle" x="653.1666666666666" y="668">28.5</text><line style="stroke: #888888;stroke-width: 1;" x1="643.1111111111111" x2="643.1111111111111" y1="15" y2="645" /><line style="stroke: #888888;stroke-width: 1;" x1="612.9444444444445" x2="612.9444444444445" y1="15" y2="645" /><text style="font-family: times; font-size: 8pt" text-anchor="middle" x="612.9444444444445" y="668">26.5</text><line style="stroke: #888888;stroke-width: 1;" x1="592.8333333333334" x2="592.8333333333334" y1="15" y2="645" /><line style="stroke: #888888;stroke-width: 1;" x1="562.6666666666666" x2="562.6666666666666" y1="15" y2="645" /><text style="font-family: times; font-size: 8pt" text-anchor="middle" x="562.6666666666666" y="668">24.0</text><line style="stroke: #888888;stroke-width: 1;" x1="552.6111111111111" x2="552.6111111111111" y1="15" y2="645" /><line style="stroke: #888888;stroke-width: 1;" x1="542.5555555555555" x2="542.5555555555555" y1="15" y2="645" /><line style="stroke: #888888;stroke-width: 1;" x1="532.5" x2="532.5" y1="15" y2="645" /><line style="stroke: #888888;stroke-width: 1;" x1="512.3888888888889" x2="512.3888888888889" y1="15" y2="645" /><text style="font-family: times; font-size: 8pt" text-anchor="middle" x="512.3888888888889" y="668">21.5</text><line style="stroke: #888888;stroke-width: 1;" x1="502.3333333333333" x2="502.3333333333333" y1="15" y2="645" /><line style="stroke: #888888;stroke-width: 1;" x1="492.27777777777777" x2="492.27777777777777" y1="15" y2="645" /><line style="stroke: #888888;stroke-width: 1;" x1="472.1666666666667" x2="472.1666666666667" y1="15" y2="645" /><text style="font-family: times; font-size: 8pt" text-anchor="middle" x="472.1666666666667" y="668">19.5</text><line style="stroke: #888888;stroke-width: 1;" x1="462.1111111111111" x2="462.1111111111111" y1="15" y2="645" /><line style="stroke: #888888;stroke-width: 1;" x1="442.0" x2="442.0" y1="15" y2="645" /><line style="stroke: #888888;stroke-width: 1;" x1="421.88888888888886" x2="421.88888888888886" y1="15" y2="645" /><text style="font-family: times; font-size: 8pt" text-anchor="middle" x="421.88888888888886" y="668">17.0</text><line style="stroke: #888888;stroke-width: 1;" x1="411.8333333333333" x2="411.8333333333333" y1="15" y2="645" /><line style="stroke: #888888;stroke-width: 1;" x1="401.77777777777777" x2="401.77777777777777" y1="15" y2="645" /><line style="stroke: #888888;stroke-width: 1;" x1="381.6666666666667" x2="381.6666666666667" y1="15" y2="645" /><text style="font-family: times; font-size: 8pt" text-anchor="middle" x="381.6666666666667" y="668">15.0</text><line style="stroke: #888888;stroke-width: 1;" x1="371.6111111111111" x2="371.6111111111111" y1="15" y2="645" /><line style="stroke: #888888;stroke-width: 1;" x1="341.44444444444446" x2="341.44444444444446" y1="15" y2="645" /><text style="font-family: times; font-size: 8pt" text-anchor="middle" x="341.44444444444446" y="668">13.0</text><line style="stroke: #888888;stroke-width: 1;" x1="331.3888888888889" x2="331.3888888888889" y1="15" y2="645" /><line style="stroke: #888888;stroke-width: 1;" x1="311.27777777777777" x2="311.27777777777777" y1="15" y2="645" /><line style="stroke: #888888;stroke-width: 1;" x1="301.22222222222223" x2="301.22222222222223" y1="15" y2="645" /><text style="font-family: times; font-size: 8pt" text-anchor="middle" x="301.22222222222223" y="668">11.0</text><line style="stroke: #888888;stroke-width: 1;" x1="291.16666666666663" x2="291.16666666666663" y1="15" y2="645" /><line style="stroke: #888888;stroke-width: 1;" x1="281.1111111111111" x2="281.1111111111111" y1="15" y2="645" /><line style="stroke: #888888;stroke-width: 1;" x1="271.05555555555554" x2="271.05555555555554" y1="15" y2="645" /><line style="stroke: #888888;stroke-width: 1;" x1="261.0" x2="261.0" y1="15" y2="645" /><text style="font-family: times; font-size: 8pt" text-anchor="middle" x="261.0" y="668">9.0</text><line style="stroke: #888888;stroke-width: 1;" x1="250.94444444444443" x2="250.94444444444443" y1="15" y2="645" /><line style="stroke: #888888;stroke-width: 1;" x1="230.83333333333334" x2="230.83333333333334" y1="15" y2="645" /><line style="stroke: #888888;stroke-width: 1;" x1="220.77777777777777" x2="220.77777777777777" y1="15" y2="645" /><text style="font-family: times; font-size: 8pt" text-anchor="middle" x="220.77777777777777" y="668">7.0</text><line style="stroke: #888888;stroke-width: 1;" x1="210.72222222222223" x2="210.72222222222223" y1="15" y2="645" /><line style="stroke: #888888;stroke-width: 1;" x1="200.66666666666666" x2="200.66666666666666" y1="15" y2="645" /><line style="stroke: #888888;stroke-width: 1;" x1="190.61111111111111" x2="190.61111111111111" y1="15" y2="645" /><line style="stroke: #888888;stroke-width: 1;" x1="180.55555555555554" x2="180.55555555555554" y1="15" y2="645" /><text style="font-family: times; font-size: 8pt" text-anchor="middle" x="180.55555555555554" y="668">5.0</text><line style="stroke: #888888;stroke-width: 1;" x1="170.5" x2="170.5" y1="15" y2="645" /><line style="stroke: #888888;stroke-width: 1;" x1="160.44444444444446" x2="160.44444444444446" y1="15" y2="645" /><line style="stroke: #888888;stroke-width: 1;" x1="140.33333333333331" x2="140.33333333333331" y1="15" y2="645" /><text style="font-family: times; font-size: 8pt" text-anchor="middle" x="140.33333333333331" y="668">3.0</text><line style="stroke: #888888;stroke-width: 1;" x1="110.16666666666666" x2="110.16666666666666" y1="15" y2="645" /><line style="stroke: #888888;stroke-width: 1;" x1="100.11111111111111" x2="100.11111111111111" y1="15" y2="645" /><text style="font-family: times; font-size: 8pt" text-anchor="middle" x="100.11111111111111" y="668">1.0</text><line style="stroke: #888888;stroke-width: 1;" x1="90.05555555555556" x2="90.05555555555556" y1="15" y2="645" /><line style="stroke: #888888;stroke-width: 1;" x1="80.0" x2="80.0" y1="15" y2="645" /><rect height="30" style="fill:#bce6b3; stroke: #166f2b; stroke-width: 2" width="80.44444444444444" x="411.8333333333333" y="15" /><text style="font-family: times; font-size: 8pt" text-anchor="middle" x="452.05555555555554" y="32.0">O19</text><rect height="30" style="fill:#cdcdcd; stroke: #000000; stroke-width: 2" width="70.38888888888889" x="341.44444444444446" y="15" /><text style="font-family: times; font-size: 8pt" text-anchor="middle" x="376.6388888888889" y="32.0">O11</text><rect height="30" style="fill:#bce6b3; stroke: #166f2b; stroke-width: 2" width="60.33333333333333" x="442.0" y="45" /><text style="font-family: times; font-size: 8pt" text-anchor="middle" x="472.1666666666667" y="62.0">O21</text><rect height="30" style="fill:#bce6b3; stroke: #166f2b; stroke-width: 2" width="40.22222222222222" x="934.7222222222222" y="45" /><text style="font-family: times; font-size: 8pt" text-anchor="middle" x="954.8333333333333" y="62.0">O30</text><rect height="30" style="fill:#cdcdcd; stroke: #000000; stroke-width: 2" width="40.22222222222222" x="401.77777777777777" y="45" /><text style="font-family: times; font-size: 8pt" text-anchor="middle" x="421.88888888888886" y="62.0">O14</text><rect height="30" style="fill:#cdcdcd; stroke: #000000; stroke-width: 2" width="40.22222222222222" x="894.5" y="45" /><text style="font-family: times; font-size: 8pt" text-anchor="middle" x="914.6111111111111" y="62.0">O29</text><rect height="30" style="fill:#cdcdcd; stroke: #000000; stroke-width: 2" width="10.055555555555555" x="974.9444444444445" y="45" /><text style="font-family: times; font-size: 8pt" text-anchor="middle" x="979.9722222222223" y="62.0">o1</text><rect height="30" style="fill:#d1e6ff; stroke: #3a5684; stroke-width: 2" width="60.33333333333333" x="271.05555555555554" y="75" /><text style="font-family: times; font-size: 8pt" text-anchor="middle" x="301.22222222222223" y="92.0">O6</text><rect height="30" style="fill:#d1e6ff; stroke: #3a5684; stroke-width: 2" width="80.44444444444444" x="170.5" y="75" /><text style="font-family: times; font-size: 8pt" text-anchor="middle" x="210.72222222222223" y="92.0">O4</text><rect height="30" style="fill:#d1e6ff; stroke: #3a5684; stroke-width: 2" width="40.22222222222222" x="472.1666666666667" y="75" /><text style="font-family: times; font-size: 8pt" text-anchor="middle" x="492.27777777777777" y="92.0">O15</text><rect height="30" style="fill:#cdcdcd; stroke: #000000; stroke-width: 2" width="70.38888888888889" x="100.11111111111111" y="75" /><text style="font-family: times; font-size: 8pt" text-anchor="middle" x="135.30555555555554" y="92.0">i6</text><rect height="30" style="fill:#cdcdcd; stroke: #000000; stroke-width: 2" width="10.055555555555555" x="261.0" y="75" /><text style="font-family: times; font-size: 8pt" text-anchor="middle" x="266.02777777777777" y="92.0">i9</text><rect height="30" style="fill:#cdcdcd; stroke: #000000; stroke-width: 2" width="90.5" x="381.6666666666667" y="75" /><text style="font-family: times; font-size: 8pt" text-anchor="middle" x="426.9166666666667" y="92.0">O5</text><rect height="30" style="fill:#d1e6ff; stroke: #3a5684; stroke-width: 2" width="80.44444444444444" x="210.72222222222223" y="105" /><text style="font-family: times; font-size: 8pt" text-anchor="middle" x="250.94444444444446" y="122.0">O13</text><rect height="30" style="fill:#cdcdcd; stroke: #000000; stroke-width: 2" width="50.27777777777778" x="160.44444444444446" y="105" /><text style="font-family: times; font-size: 8pt" text-anchor="middle" x="185.58333333333334" y="122.0">O2</text><rect height="30" style="fill:#f0f0f0; stroke: #393939; stroke-width: 2" width="100.55555555555556" x="100.11111111111111" y="135" /><text style="font-family: times; font-size: 8pt" text-anchor="middle" x="150.38888888888889" y="152.0">O3</text><rect height="30" style="fill:#f0f0f0; stroke: #393939; stroke-width: 2" width="20.11111111111111" x="532.5" y="135" /><text style="font-family: times; font-size: 8pt" text-anchor="middle" x="542.5555555555555" y="152.0">O18</text><rect height="30" style="fill:#cdcdcd; stroke: #000000; stroke-width: 2" width="20.11111111111111" x="80.0" y="135" /><text style="font-family: times; font-size: 8pt" text-anchor="middle" x="90.05555555555556" y="152.0">i5</text><rect height="30" style="fill:#cdcdcd; stroke: #000000; stroke-width: 2" width="40.22222222222222" x="492.27777777777777" y="135" /><text style="font-family: times; font-size: 8pt" text-anchor="middle" x="512.3888888888889" y="152.0">O10</text><rect height="30" style="fill:#f0f0f0; stroke: #393939; stroke-width: 2" width="80.44444444444444" x="220.77777777777777" y="165" /><text style="font-family: times; font-size: 8pt" text-anchor="middle" x="261.0" y="182.0">O8</text><rect height="30" style="fill:#cdcdcd; stroke: #000000; stroke-width: 2" width="60.33333333333333" x="160.44444444444446" y="165" /><text style="font-family: times; font-size: 8pt" text-anchor="middle" x="190.61111111111111" y="182.0">i11</text><rect height="30" style="fill:#f0f0f0; stroke: #393939; stroke-width: 2" width="40.22222222222222" x="552.6111111111111" y="195" /><text style="font-family: times; font-size: 8pt" text-anchor="middle" x="572.7222222222222" y="212.0">O22</text><rect height="30" style="fill:#f0f0f0; stroke: #393939; stroke-width: 2" width="80.44444444444444" x="673.2777777777777" y="195" /><text style="font-family: times; font-size: 8pt" text-anchor="middle" x="713.4999999999999" y="212.0">O27</text><rect height="30" style="fill:#cdcdcd; stroke: #000000; stroke-width: 2" width="40.22222222222222" x="512.3888888888889" y="195" /><text style="font-family: times; font-size: 8pt" text-anchor="middle" x="532.5" y="212.0">O15</text><rect height="30" style="fill:#cdcdcd; stroke: #000000; stroke-width: 2" width="30.166666666666664" x="643.1111111111111" y="195" /><text style="font-family: times; font-size: 8pt" text-anchor="middle" x="658.1944444444445" y="212.0">O24</text><rect height="30" style="fill:#f0f0f0; stroke: #393939; stroke-width: 2" width="80.44444444444444" x="110.16666666666666" y="225" /><text style="font-family: times; font-size: 8pt" text-anchor="middle" x="150.38888888888889" y="242.0">O7</text><rect height="30" style="fill:#cdcdcd; stroke: #000000; stroke-width: 2" width="30.166666666666664" x="80.0" y="225" /><text style="font-family: times; font-size: 8pt" text-anchor="middle" x="95.08333333333333" y="242.0">i10</text><rect height="30" style="fill:#fccecf; stroke: #cc3333; stroke-width: 2" width="80.44444444444444" x="100.11111111111111" y="255" /><text style="font-family: times; font-size: 8pt" text-anchor="middle" x="140.33333333333334" y="272.0">O1</text><rect height="30" style="fill:#cdcdcd; stroke: #000000; stroke-width: 2" width="10.055555555555555" x="80.0" y="255" /><text style="font-family: times; font-size: 8pt" text-anchor="middle" x="85.02777777777777" y="272.0">i1</text><rect height="30" style="fill:#cdcdcd; stroke: #000000; stroke-width: 2" width="10.055555555555555" x="90.05555555555556" y="255" /><text style="font-family: times; font-size: 8pt" text-anchor="middle" x="95.08333333333333" y="272.0">i2</text><rect height="30" style="fill:#fccecf; stroke: #cc3333; stroke-width: 2" width="120.66666666666666" x="210.72222222222223" y="285" /><text style="font-family: times; font-size: 8pt" text-anchor="middle" x="271.05555555555554" y="302.0">O11</text><rect height="30" style="fill:#cdcdcd; stroke: #000000; stroke-width: 2" width="10.055555555555555" x="80.0" y="285" /><text style="font-family: times; font-size: 8pt" text-anchor="middle" x="85.02777777777777" y="302.0">i16</text><rect height="30" style="fill:#cdcdcd; stroke: #000000; stroke-width: 2" width="30.166666666666664" x="180.55555555555554" y="285" /><text style="font-family: times; font-size: 8pt" text-anchor="middle" x="195.63888888888889" y="302.0">i17</text><rect height="30" style="fill:#fccecf; stroke: #cc3333; stroke-width: 2" width="100.55555555555556" x="723.5555555555555" y="315" /><text style="font-family: times; font-size: 8pt" text-anchor="middle" x="773.8333333333334" y="332.0">O28</text><rect height="30" style="fill:#fccecf; stroke: #cc3333; stroke-width: 2" width="40.22222222222222" x="854.2777777777777" y="315" /><text style="font-family: times; font-size: 8pt" text-anchor="middle" x="874.3888888888888" y="332.0">O29</text><rect height="30" style="fill:#cdcdcd; stroke: #000000; stroke-width: 2" width="20.11111111111111" x="703.4444444444445" y="315" /><text style="font-family: times; font-size: 8pt" text-anchor="middle" x="713.5" y="332.0">O25</text><rect height="30" style="fill:#cdcdcd; stroke: #000000; stroke-width: 2" width="50.27777777777778" x="653.1666666666666" y="315" /><text style="font-family: times; font-size: 8pt" text-anchor="middle" x="678.3055555555555" y="332.0">O26</text><rect height="30" style="fill:#cdcdcd; stroke: #000000; stroke-width: 2" width="30.166666666666664" x="824.1111111111111" y="315" /><text style="font-family: times; font-size: 8pt" text-anchor="middle" x="839.1944444444445" y="332.0">O27</text><rect height="30" style="fill:#fccecf; stroke: #cc3333; stroke-width: 2" width="140.77777777777777" x="261.0" y="345" /><text style="font-family: times; font-size: 8pt" text-anchor="middle" x="331.3888888888889" y="362.0">O14</text><rect height="30" style="fill:#cdcdcd; stroke: #000000; stroke-width: 2" width="10.055555555555555" x="250.94444444444443" y="345" /><text style="font-family: times; font-size: 8pt" text-anchor="middle" x="255.9722222222222" y="362.0">O4</text><rect height="30" style="fill:#cdcdcd; stroke: #000000; stroke-width: 2" width="30.166666666666664" x="200.66666666666666" y="345" /><text style="font-family: times; font-size: 8pt" text-anchor="middle" x="215.75" y="362.0">O3</text><rect height="30" style="fill:#fccecf; stroke: #cc3333; stroke-width: 2" width="60.33333333333333" x="492.27777777777777" y="375" /><text style="font-family: times; font-size: 8pt" text-anchor="middle" x="522.4444444444445" y="392.0">O23</text><rect height="30" style="fill:#fccecf; stroke: #cc3333; stroke-width: 2" width="60.33333333333333" x="100.11111111111111" y="375" /><text style="font-family: times; font-size: 8pt" text-anchor="middle" x="130.27777777777777" y="392.0">O2</text><rect height="30" style="fill:#cdcdcd; stroke: #000000; stroke-width: 2" width="10.055555555555555" x="80.0" y="375" /><text style="font-family: times; font-size: 8pt" text-anchor="middle" x="85.02777777777777" y="392.0">i3</text><rect height="30" style="fill:#cdcdcd; stroke: #000000; stroke-width: 2" width="10.055555555555555" x="90.05555555555556" y="375" /><text style="font-family: times; font-size: 8pt" text-anchor="middle" x="95.08333333333333" y="392.0">i4</text><rect height="30" style="fill:#cdcdcd; stroke: #000000; stroke-width: 2" width="30.166666666666664" x="462.1111111111111" y="375" /><text style="font-family: times; font-size: 8pt" text-anchor="middle" x="477.1944444444444" y="392.0">O16</text><rect height="30" style="fill:#cdcdcd; stroke: #000000; stroke-width: 2" width="50.27777777777778" x="411.8333333333333" y="375" /><text style="font-family: times; font-size: 8pt" text-anchor="middle" x="436.97222222222223" y="392.0">O17</text><rect height="30" style="fill:#fccecf; stroke: #cc3333; stroke-width: 2" width="60.33333333333333" x="220.77777777777777" y="405" /><text style="font-family: times; font-size: 8pt" text-anchor="middle" x="250.94444444444443" y="422.0">O12</text><rect height="30" style="fill:#fccecf; stroke: #cc3333; stroke-width: 2" width="80.44444444444444" x="341.44444444444446" y="405" /><text style="font-family: times; font-size: 8pt" text-anchor="middle" x="381.6666666666667" y="422.0">O20</text><rect height="30" style="fill:#fccecf; stroke: #cc3333; stroke-width: 2" width="40.22222222222222" x="612.9444444444445" y="405" /><text style="font-family: times; font-size: 8pt" text-anchor="middle" x="633.0555555555555" y="422.0">O26</text><rect height="30" style="fill:#cdcdcd; stroke: #000000; stroke-width: 2" width="40.22222222222222" x="180.55555555555554" y="405" /><text style="font-family: times; font-size: 8pt" text-anchor="middle" x="200.66666666666666" y="422.0">O1</text><rect height="30" style="fill:#cdcdcd; stroke: #000000; stroke-width: 2" width="80.44444444444444" x="100.11111111111111" y="405" /><text style="font-family: times; font-size: 8pt" text-anchor="middle" x="140.33333333333334" y="422.0">i18</text><rect height="30" style="fill:#cdcdcd; stroke: #000000; stroke-width: 2" width="50.27777777777778" x="291.16666666666663" y="405" /><text style="font-family: times; font-size: 8pt" text-anchor="middle" x="316.30555555555554" y="422.0">O13</text><rect height="30" style="fill:#cdcdcd; stroke: #000000; stroke-width: 2" width="20.11111111111111" x="592.8333333333334" y="405" /><text style="font-family: times; font-size: 8pt" text-anchor="middle" x="602.8888888888889" y="422.0">O22</text><rect height="30" style="fill:#cdcdcd; stroke: #000000; stroke-width: 2" width="40.22222222222222" x="552.6111111111111" y="405" /><text style="font-family: times; font-size: 8pt" text-anchor="middle" x="572.7222222222222" y="422.0">O23</text><rect height="30" style="fill:#fccecf; stroke: #cc3333; stroke-width: 2" width="140.77777777777777" x="552.6111111111111" y="435" /><text style="font-family: times; font-size: 8pt" text-anchor="middle" x="623.0" y="452.0">O25</text><rect height="30" style="fill:#cdcdcd; stroke: #000000; stroke-width: 2" width="30.166666666666664" x="442.0" y="435" /><text style="font-family: times; font-size: 8pt" text-anchor="middle" x="457.0833333333333" y="452.0">O20</text><rect height="30" style="fill:#cdcdcd; stroke: #000000; stroke-width: 2" width="50.27777777777778" x="502.3333333333333" y="435" /><text style="font-family: times; font-size: 8pt" text-anchor="middle" x="527.4722222222222" y="452.0">O21</text><rect height="30" style="fill:#fccecf; stroke: #cc3333; stroke-width: 2" width="80.44444444444444" x="381.6666666666667" y="465" /><text style="font-family: times; font-size: 8pt" text-anchor="middle" x="421.8888888888889" y="482.0">O16</text><rect height="30" style="fill:#cdcdcd; stroke: #000000; stroke-width: 2" width="50.27777777777778" x="331.3888888888889" y="465" /><text style="font-family: times; font-size: 8pt" text-anchor="middle" x="356.5277777777778" y="482.0">O6</text><rect height="30" style="fill:#cdcdcd; stroke: #000000; stroke-width: 2" width="60.33333333333333" x="220.77777777777777" y="465" /><text style="font-family: times; font-size: 8pt" text-anchor="middle" x="250.94444444444443" y="482.0">O7</text><rect height="30" style="fill:#fccecf; stroke: #cc3333; stroke-width: 2" width="40.22222222222222" x="250.94444444444443" y="495" /><text style="font-family: times; font-size: 8pt" text-anchor="middle" x="271.05555555555554" y="512.0">O5</text><rect height="30" style="fill:#cdcdcd; stroke: #000000; stroke-width: 2" width="40.22222222222222" x="210.72222222222223" y="495" /><text style="font-family: times; font-size: 8pt" text-anchor="middle" x="230.83333333333334" y="512.0">i7</text><rect height="30" style="fill:#cdcdcd; stroke: #000000; stroke-width: 2" width="20.11111111111111" x="170.5" y="495" /><text style="font-family: times; font-size: 8pt" text-anchor="middle" x="180.55555555555554" y="512.0">i8</text><rect height="30" style="fill:#fccecf; stroke: #cc3333; stroke-width: 2" width="40.22222222222222" x="100.11111111111111" y="525" /><text style="font-family: times; font-size: 8pt" text-anchor="middle" x="120.22222222222223" y="542.0">O10</text><rect height="30" style="fill:#cdcdcd; stroke: #000000; stroke-width: 2" width="10.055555555555555" x="80.0" y="525" /><text style="font-family: times; font-size: 8pt" text-anchor="middle" x="85.02777777777777" y="542.0">i14</text><rect height="30" style="fill:#cdcdcd; stroke: #000000; stroke-width: 2" width="10.055555555555555" x="90.05555555555556" y="525" /><text style="font-family: times; font-size: 8pt" text-anchor="middle" x="95.08333333333333" y="542.0">i15</text><rect height="30" style="fill:#fccecf; stroke: #cc3333; stroke-width: 2" width="80.44444444444444" x="562.6666666666666" y="555" /><text style="font-family: times; font-size: 8pt" text-anchor="middle" x="602.8888888888888" y="572.0">O24</text><rect height="30" style="fill:#cdcdcd; stroke: #000000; stroke-width: 2" width="10.055555555555555" x="552.6111111111111" y="555" /><text style="font-family: times; font-size: 8pt" text-anchor="middle" x="557.6388888888889" y="572.0">O18</text><rect height="30" style="fill:#cdcdcd; stroke: #000000; stroke-width: 2" width="50.27777777777778" x="492.27777777777777" y="555" /><text style="font-family: times; font-size: 8pt" text-anchor="middle" x="517.4166666666666" y="572.0">O19</text><rect height="30" style="fill:#fccecf; stroke: #cc3333; stroke-width: 2" width="100.55555555555556" x="160.44444444444446" y="585" /><text style="font-family: times; font-size: 8pt" text-anchor="middle" x="210.72222222222223" y="602.0">O9</text><rect height="30" style="fill:#fccecf; stroke: #cc3333; stroke-width: 2" width="60.33333333333333" x="311.27777777777777" y="585" /><text style="font-family: times; font-size: 8pt" text-anchor="middle" x="341.44444444444446" y="602.0">O17</text><rect height="30" style="fill:#cdcdcd; stroke: #000000; stroke-width: 2" width="60.33333333333333" x="80.0" y="585" /><text style="font-family: times; font-size: 8pt" text-anchor="middle" x="110.16666666666666" y="602.0">i12</text><rect height="30" style="fill:#cdcdcd; stroke: #000000; stroke-width: 2" width="20.11111111111111" x="140.33333333333331" y="585" /><text style="font-family: times; font-size: 8pt" text-anchor="middle" x="150.38888888888886" y="602.0">i13</text><rect height="30" style="fill:#cdcdcd; stroke: #000000; stroke-width: 2" width="10.055555555555555" x="301.22222222222223" y="585" /><text style="font-family: times; font-size: 8pt" text-anchor="middle" x="306.25" y="602.0">O8</text></svg>