<?xml version="1.0" encoding="utf-8" ?>
<svg baseProfile="full" height="390" version="1.1" width="1000" xmlns="http://www.w3.org/2000/svg" xmlns:ev="http://www.w3.org/2001/xml-events" xmlns:xlink="http://www.w3.org/1999/xlink"><defs /><rect fill="rgb(255, 255, 255)" height="30" width="970" x="15" y="15" /><text style="font-family: times; font-size: 8pt" text-anchor="end" x="70" y="32.0">Detector1</text><rect fill="rgb(230, 230, 230)" height="30" width="970" x="15" y="45" /><text style="font-family: times; font-size: 8pt" text-anchor="end" x="70" y="62.0">Detector2</text><rect fill="rgb(255, 255, 255)" height="30" width="970" x="15" y="75" /><text style="font-family: times; font-size: 8pt" text-anchor="end" x="70" y="92.0">Filter1</text><rect fill="rgb(230, 230, 230)" height="30" width="970" x="15" y="105" /><text style="font-family: times; font-size: 8pt" text-anchor="end" x="70" y="122.0">Filter2</text><rect fill="rgb(255, 255, 255)" height="30" width="970" x="15" y="135" /><text style="font-family: times; font-size: 8pt" text-anchor="end" x="70" y="152.0">Heater1</text><rect fill="rgb(230, 230, 230)" height="30" width="970" x="15" y="165" /><text style="font-family: times; font-size: 8pt" text-anchor="end" x="70" y="182.0">Heater2</text><rect fill="rgb(255, 255, 255)" height="30" width="970" x="15" y="195" /><text style="font-family: times; font-size: 8pt" text-anchor="end" x="70" y="212.0">Mixer1</text><rect fill="rgb(230, 230, 230)" height="30" width="970" x="15" y="225" /><text style="font-family: times; font-size: 8pt" text-anchor="end" x="70" y="242.0">Mixer2</text><rect fill="rgb(255, 255, 255)" height="30" width="970" x="15" y="255" /><text style="font-family: times; font-size: 8pt" text-anchor="end" x="70" y="272.0">Mixer3</text><rect fill="rgb(230, 230, 230)" height="30" width="970" x="15" y="285" /><text style="font-family: times; font-size: 8pt" text-anchor="end" x="70" y="302.0">Mixer4</text><line style="stroke: #888888;stroke-width: 1;" x1="985.0" x2="985.0" y1="15" y2="345" /><text style="font-family: times; font-size: 8pt" text-anchor="middle" x="985.0" y="368">32.0</text><line style="stroke: #888888;stroke-width: 1;" x1="970.859375" x2="970.859375" y1="15" y2="345" /><line style="stroke: #888888;stroke-width: 1;" x1="914.296875" x2="914.296875" y1="15" y2="345" /><text style="font-family: times; font-size: 8pt" text-anchor="middle" x="914.296875" y="368">29.5</text><line style="stroke: #888888;stroke-width: 1;" x1="886.015625" x2="886.015625" y1="15" y2="345" /><line style="stroke: #888888;stroke-width: 1;" x1="772.890625" x2="772.890625" y1="15" y2="345" /><text style="font-family: times; font-size: 8pt" text-anchor="middle" x="772.890625" y="368">24.5</text><line style="stroke: #888888;stroke-width: 1;" x1="744.609375" x2="744.609375" y1="15" y2="345" /><line style="stroke: #888888;stroke-width: 1;" x1="730.46875" x2="730.46875" y1="15" y2="345" /><text style="font-family: times; font-size: 8pt" text-anchor="middle" x="730.46875" y="368">23.0</text><line style="stroke: #888888;stroke-width: 1;" x1="688.046875" x2="688.046875" y1="15" y2="345" /><text style="font-family: times; font-size: 8pt" text-anchor="middle" x="688.046875" y="368">21.5</text><line style="stroke: #888888;stroke-width: 1;" x1="645.625" x2="645.625" y1="15" y2="345" /><text style="font-family: times; font-size: 8pt" text-anchor="middle" x="645.625" y="368">20.0</text><line style="stroke: #888888;stroke-width: 1;" x1="504.21875" x2="504.21875" y1="15" y2="345" /><text style="font-family: times; font-size: 8pt" text-anchor="middle" x="504.21875" y="368">15.0</text><line style="stroke: #888888;stroke-width: 1;" x1="490.078125" x2="490.078125" y1="15" y2="345" /><line style="stroke: #888888;stroke-width: 1;" x1="475.9375" x2="475.9375" y1="15" y2="345" /><line style="stroke: #888888;stroke-width: 1;" x1="461.796875" x2="461.796875" y1="15" y2="345" /><text style="font-family: times; font-size: 8pt" text-anchor="middle" x="461.796875" y="368">13.5</text><line style="stroke: #888888;stroke-width: 1;" x1="391.09375" x2="391.09375" y1="15" y2="345" /><text style="font-family: times; font-size: 8pt" text-anchor="middle" x="391.09375" y="368">11.0</text><line style="stroke: #888888;stroke-width: 1;" x1="362.8125" x2="362.8125" y1="15" y2="345" /><line style="stroke: #888888;stroke-width: 1;" x1="320.390625" x2="320.390625" y1="15" y2="345" /><text style="font-family: times; font-size: 8pt" text-anchor="middle" x="320.390625" y="368">8.5</text><line style="stroke: #888888;stroke-width: 1;" x1="306.25" x2="306.25" y1="15" y2="345" /><line style="stroke: #888888;stroke-width: 1;" x1="235.546875" x2="235.546875" y1="15" y2="345" /><text style="font-family: times; font-size: 8pt" text-anchor="middle" x="235.546875" y="368">5.5</text><line style="stroke: #888888;stroke-width: 1;" x1="122.421875" x2="122.421875" y1="15" y2="345" /><text style="font-family: times; font-size: 8pt" text-anchor="middle" x="122.421875" y="368">1.5</text><line style="stroke: #888888;stroke-width: 1;" x1="108.28125" x2="108.28125" y1="15" y2="345" /><line style="stroke: #888888;stroke-width: 1;" x1="94.140625" x2="94.140625" y1="15" y2="345" /><line style="stroke: #888888;stroke-width: 1;" x1="80.0" x2="80.0" y1="15" y2="345" /><rect height="30" style="fill:#bce6b3; stroke: #166f2b; stroke-width: 2" width="113.125" x="362.8125" y="15" /><text style="font-family: times; font-size: 8pt" text-anchor="middle" x="419.375" y="32.0">O5</text><rect height="30" style="fill:#cdcdcd; stroke: #000000; stroke-width: 2" width="42.421875" x="320.390625" y="15" /><text style="font-family: times; font-size: 8pt" text-anchor="middle" x="341.6015625" y="32.0">O2</text><rect height="30" style="fill:#bce6b3; stroke: #166f2b; stroke-width: 2" width="56.5625" x="914.296875" y="45" /><text style="font-family: times; font-size: 8pt" text-anchor="middle" x="942.578125" y="62.0">O10</text><rect height="30" style="fill:#cdcdcd; stroke: #000000; stroke-width: 2" width="28.28125" x="886.015625" y="45" /><text style="font-family: times; font-size: 8pt" text-anchor="middle" x="900.15625" y="62.0">O9</text><rect height="30" style="fill:#cdcdcd; stroke: #000000; stroke-width: 2" width="14.140625" x="970.859375" y="45" /><text style="font-family: times; font-size: 8pt" text-anchor="middle" x="977.9296875" y="62.0">o1</text><rect height="30" style="fill:#d1e6ff; stroke: #3a5684; stroke-width: 2" width="141.40625" x="320.390625" y="75" /><text style="font-family: times; font-size: 8pt" text-anchor="middle" x="391.09375" y="92.0">O4</text><rect height="30" style="fill:#cdcdcd; stroke: #000000; stroke-width: 2" width="84.84375" x="235.546875" y="75" /><text style="font-family: times; font-size: 8pt" text-anchor="middle" x="277.96875" y="92.0">O1</text><rect height="30" style="fill:#d1e6ff; stroke: #3a5684; stroke-width: 2" width="56.5625" x="688.046875" y="105" /><text style="font-family: times; font-size: 8pt" text-anchor="middle" x="716.328125" y="122.0">O8</text><rect height="30" style="fill:#cdcdcd; stroke: #000000; stroke-width: 2" width="42.421875" x="645.625" y="105" /><text style="font-family: times; font-size: 8pt" text-anchor="middle" x="666.8359375" y="122.0">O7</text><rect height="30" style="fill:#f0f0f0; stroke: #393939; stroke-width: 2" width="84.84375" x="391.09375" y="135" /><text style="font-family: times; font-size: 8pt" text-anchor="middle" x="433.515625" y="152.0">O3</text><rect height="30" style="fill:#cdcdcd; stroke: #000000; stroke-width: 2" width="28.28125" x="362.8125" y="135" /><text style="font-family: times; font-size: 8pt" text-anchor="middle" x="376.953125" y="152.0">i5</text><rect height="30" style="fill:#f0f0f0; stroke: #393939; stroke-width: 2" width="226.25" x="504.21875" y="165" /><text style="font-family: times; font-size: 8pt" text-anchor="middle" x="617.34375" y="182.0">O6</text><rect height="30" style="fill:#cdcdcd; stroke: #000000; stroke-width: 2" width="42.421875" x="461.796875" y="165" /><text style="font-family: times; font-size: 8pt" text-anchor="middle" x="483.0078125" y="182.0">O4</text><rect height="30" style="fill:#fccecf; stroke: #cc3333; stroke-width: 2" width="113.125" x="122.421875" y="195" /><text style="font-family: times; font-size: 8pt" text-anchor="middle" x="178.984375" y="212.0">O1</text><rect height="30" style="fill:#cdcdcd; stroke: #000000; stroke-width: 2" width="14.140625" x="94.140625" y="195" /><text style="font-family: times; font-size: 8pt" text-anchor="middle" x="101.2109375" y="212.0">i1</text><rect height="30" style="fill:#cdcdcd; stroke: #000000; stroke-width: 2" width="14.140625" x="108.28125" y="195" /><text style="font-family: times; font-size: 8pt" text-anchor="middle" x="115.3515625" y="212.0">i2</text><rect height="30" style="fill:#fccecf; stroke: #cc3333; stroke-width: 2" width="197.96875" x="108.28125" y="225" /><text style="font-family: times; font-size: 8pt" text-anchor="middle" x="207.265625" y="242.0">O2</text><rect height="30" style="fill:#cdcdcd; stroke: #000000; stroke-width: 2" width="14.140625" x="80.0" y="225" /><text style="font-family: times; font-size: 8pt" text-anchor="middle" x="87.0703125" y="242.0">i3</text><rect height="30" style="fill:#cdcdcd; stroke: #000000; stroke-width: 2" width="14.140625" x="94.140625" y="225" /><text style="font-family: times; font-size: 8pt" text-anchor="middle" x="101.2109375" y="242.0">i4</text><rect height="30" style="fill:#fccecf; stroke: #cc3333; stroke-width: 2" width="141.40625" x="504.21875" y="255" /><text style="font-family: times; font-size: 8pt" text-anchor="middle" x="574.921875" y="272.0">O7</text><rect height="30" style="fill:#cdcdcd; stroke: #000000; stroke-width: 2" width="14.140625" x="490.078125" y="255" /><text style="font-family: times; font-size: 8pt" text-anchor="middle" x="497.1484375" y="272.0">O5</text><rect height="30" style="fill:#cdcdcd; stroke: #000000; stroke-width: 2" width="14.140625" x="475.9375" y="255" /><text style="font-family: times; font-size: 8pt" text-anchor="middle" x="483.0078125" y="272.0">O3</text><rect height="30" style="fill:#fccecf; stroke: #cc3333; stroke-width: 2" width="113.125" x="772.890625" y="285" /><text style="font-family: times; font-size: 8pt" text-anchor="middle" x="829.453125" y="302.0">O9</text><rect height="30" style="fill:#cdcdcd; stroke: #000000; stroke-width: 2" width="14.140625" x="730.46875" y="285" /><text style="font-family: times; font-size: 8pt" text-anchor="middle" x="737.5390625" y="302.0">O6</text><rect height="30" style="fill:#cdcdcd; stroke: #000000; stroke-width: 2" width="28.28125" x="744.609375" y="285" /><text style="font-family: times; font-size: 8pt" text-anchor="middle" x="758.75" y="302.0">O8</text></svg>