<?xml version="1.0" encoding="utf-8" ?>
<svg baseProfile="full" height="840" version="1.1" width="1000" xmlns="http://www.w3.org/2000/svg" xmlns:ev="http://www.w3.org/2001/xml-events" xmlns:xlink="http://www.w3.org/1999/xlink"><defs /><rect fill="rgb(255, 255, 255)" height="30" width="970" x="15" y="15" /><text style="font-family: times; font-size: 8pt" text-anchor="end" x="70" y="32.0">Detector1</text><rect fill="rgb(230, 230, 230)" height="30" width="970" x="15" y="45" /><text style="font-family: times; font-size: 8pt" text-anchor="end" x="70" y="62.0">Detector2</text><rect fill="rgb(255, 255, 255)" height="30" width="970" x="15" y="75" /><text style="font-family: times; font-size: 8pt" text-anchor="end" x="70" y="92.0">Detector3</text><rect fill="rgb(230, 230, 230)" height="30" width="970" x="15" y="105" /><text style="font-family: times; font-size: 8pt" text-anchor="end" x="70" y="122.0">Detector5</text><rect fill="rgb(255, 255, 255)" height="30" width="970" x="15" y="135" /><text style="font-family: times; font-size: 8pt" text-anchor="end" x="70" y="152.0">Filter10</text><rect fill="rgb(230, 230, 230)" height="30" width="970" x="15" y="165" /><text style="font-family: times; font-size: 8pt" text-anchor="end" x="70" y="182.0">Filter2</text><rect fill="rgb(255, 255, 255)" height="30" width="970" x="15" y="195" /><text style="font-family: times; font-size: 8pt" text-anchor="end" x="70" y="212.0">Filter8</text><rect fill="rgb(230, 230, 230)" height="30" width="970" x="15" y="225" /><text style="font-family: times; font-size: 8pt" text-anchor="end" x="70" y="242.0">Heater1</text><rect fill="rgb(255, 255, 255)" height="30" width="970" x="15" y="255" /><text style="font-family: times; font-size: 8pt" text-anchor="end" x="70" y="272.0">Heater10</text><rect fill="rgb(230, 230, 230)" height="30" width="970" x="15" y="285" /><text style="font-family: times; font-size: 8pt" text-anchor="end" x="70" y="302.0">Heater11</text><rect fill="rgb(255, 255, 255)" height="30" width="970" x="15" y="315" /><text style="font-family: times; font-size: 8pt" text-anchor="end" x="70" y="332.0">Heater12</text><rect fill="rgb(230, 230, 230)" height="30" width="970" x="15" y="345" /><text style="font-family: times; font-size: 8pt" text-anchor="end" x="70" y="362.0">Heater2</text><rect fill="rgb(255, 255, 255)" height="30" width="970" x="15" y="375" /><text style="font-family: times; font-size: 8pt" text-anchor="end" x="70" y="392.0">Heater5</text><rect fill="rgb(230, 230, 230)" height="30" width="970" x="15" y="405" /><text style="font-family: times; font-size: 8pt" text-anchor="end" x="70" y="422.0">Heater8</text><rect fill="rgb(255, 255, 255)" height="30" width="970" x="15" y="435" /><text style="font-family: times; font-size: 8pt" text-anchor="end" x="70" y="452.0">Mixer1</text><rect fill="rgb(230, 230, 230)" height="30" width="970" x="15" y="465" /><text style="font-family: times; font-size: 8pt" text-anchor="end" x="70" y="482.0">Mixer11</text><rect fill="rgb(255, 255, 255)" height="30" width="970" x="15" y="495" /><text style="font-family: times; font-size: 8pt" text-anchor="end" x="70" y="512.0">Mixer12</text><rect fill="rgb(230, 230, 230)" height="30" width="970" x="15" y="525" /><text style="font-family: times; font-size: 8pt" text-anchor="end" x="70" y="542.0">Mixer14</text><rect fill="rgb(255, 255, 255)" height="30" width="970" x="15" y="555" /><text style="font-family: times; font-size: 8pt" text-anchor="end" x="70" y="572.0">Mixer15</text><rect fill="rgb(230, 230, 230)" height="30" width="970" x="15" y="585" /><text style="font-family: times; font-size: 8pt" text-anchor="end" x="70" y="602.0">Mixer17</text><rect fill="rgb(255, 255, 255)" height="30" width="970" x="15" y="615" /><text style="font-family: times; font-size: 8pt" text-anchor="end" x="70" y="632.0">Mixer18</text><rect fill="rgb(230, 230, 230)" height="30" width="970" x="15" y="645" /><text style="font-family: times; font-size: 8pt" text-anchor="end" x="70" y="662.0">Mixer2</text><rect fill="rgb(255, 255, 255)" height="30" width="970" x="15" y="675" /><text style="font-family: times; font-size: 8pt" text-anchor="end" x="70" y="692.0">Mixer20</text><rect fill="rgb(230, 230, 230)" height="30" width="970" x="15" y="705" /><text style="font-family: times; font-size: 8pt" text-anchor="end" x="70" y="722.0">Mixer26</text><rect fill="rgb(255, 255, 255)" height="30" width="970" x="15" y="735" /><text style="font-family: times; font-size: 8pt" text-anchor="end" x="70" y="752.0">Mixer8</text><line style="stroke: #888888;stroke-width: 1;" x1="985.0" x2="985.0" y1="15" y2="795" /><text style="font-family: times; font-size: 8pt" text-anchor="middle" x="985.0" y="818">75.5</text><line style="stroke: #888888;stroke-width: 1;" x1="913.0794701986755" x2="913.0794701986755" y1="15" y2="795" /><text style="font-family: times; font-size: 8pt" text-anchor="middle" x="913.0794701986755" y="818">69.5</text><line style="stroke: #888888;stroke-width: 1;" x1="889.1059602649007" x2="889.1059602649007" y1="15" y2="795" /><line style="stroke: #888888;stroke-width: 1;" x1="877.1192052980133" x2="877.1192052980133" y1="15" y2="795" /><text style="font-family: times; font-size: 8pt" text-anchor="middle" x="877.1192052980133" y="818">66.5</text><line style="stroke: #888888;stroke-width: 1;" x1="853.1456953642385" x2="853.1456953642385" y1="15" y2="795" /><line style="stroke: #888888;stroke-width: 1;" x1="847.1523178807947" x2="847.1523178807947" y1="15" y2="795" /><line style="stroke: #888888;stroke-width: 1;" x1="823.1788079470199" x2="823.1788079470199" y1="15" y2="795" /><text style="font-family: times; font-size: 8pt" text-anchor="middle" x="823.1788079470199" y="818">62.0</text><line style="stroke: #888888;stroke-width: 1;" x1="811.1920529801325" x2="811.1920529801325" y1="15" y2="795" /><line style="stroke: #888888;stroke-width: 1;" x1="787.2185430463576" x2="787.2185430463576" y1="15" y2="795" /><text style="font-family: times; font-size: 8pt" text-anchor="middle" x="787.2185430463576" y="818">59.0</text><line style="stroke: #888888;stroke-width: 1;" x1="781.225165562914" x2="781.225165562914" y1="15" y2="795" /><line style="stroke: #888888;stroke-width: 1;" x1="775.2317880794702" x2="775.2317880794702" y1="15" y2="795" /><line style="stroke: #888888;stroke-width: 1;" x1="757.2516556291391" x2="757.2516556291391" y1="15" y2="795" /><line style="stroke: #888888;stroke-width: 1;" x1="745.2649006622516" x2="745.2649006622516" y1="15" y2="795" /><text style="font-family: times; font-size: 8pt" text-anchor="middle" x="745.2649006622516" y="818">55.5</text><line style="stroke: #888888;stroke-width: 1;" x1="733.2781456953643" x2="733.2781456953643" y1="15" y2="795" /><line style="stroke: #888888;stroke-width: 1;" x1="727.2847682119206" x2="727.2847682119206" y1="15" y2="795" /><line style="stroke: #888888;stroke-width: 1;" x1="721.2913907284768" x2="721.2913907284768" y1="15" y2="795" /><line style="stroke: #888888;stroke-width: 1;" x1="709.3046357615895" x2="709.3046357615895" y1="15" y2="795" /><text style="font-family: times; font-size: 8pt" text-anchor="middle" x="709.3046357615895" y="818">52.5</text><line style="stroke: #888888;stroke-width: 1;" x1="703.3112582781457" x2="703.3112582781457" y1="15" y2="795" /><line style="stroke: #888888;stroke-width: 1;" x1="685.3311258278146" x2="685.3311258278146" y1="15" y2="795" /><line style="stroke: #888888;stroke-width: 1;" x1="679.3377483443709" x2="679.3377483443709" y1="15" y2="795" /><line style="stroke: #888888;stroke-width: 1;" x1="667.3509933774835" x2="667.3509933774835" y1="15" y2="795" /><text style="font-family: times; font-size: 8pt" text-anchor="middle" x="667.3509933774835" y="818">49.0</text><line style="stroke: #888888;stroke-width: 1;" x1="655.364238410596" x2="655.364238410596" y1="15" y2="795" /><line style="stroke: #888888;stroke-width: 1;" x1="637.384105960265" x2="637.384105960265" y1="15" y2="795" /><line style="stroke: #888888;stroke-width: 1;" x1="631.3907284768212" x2="631.3907284768212" y1="15" y2="795" /><text style="font-family: times; font-size: 8pt" text-anchor="middle" x="631.3907284768212" y="818">46.0</text><line style="stroke: #888888;stroke-width: 1;" x1="625.3973509933775" x2="625.3973509933775" y1="15" y2="795" /><line style="stroke: #888888;stroke-width: 1;" x1="619.4039735099338" x2="619.4039735099338" y1="15" y2="795" /><line style="stroke: #888888;stroke-width: 1;" x1="613.4105960264901" x2="613.4105960264901" y1="15" y2="795" /><line style="stroke: #888888;stroke-width: 1;" x1="601.4238410596026" x2="601.4238410596026" y1="15" y2="795" /><line style="stroke: #888888;stroke-width: 1;" x1="595.4304635761589" x2="595.4304635761589" y1="15" y2="795" /><text style="font-family: times; font-size: 8pt" text-anchor="middle" x="595.4304635761589" y="818">43.0</text><line style="stroke: #888888;stroke-width: 1;" x1="583.4437086092715" x2="583.4437086092715" y1="15" y2="795" /><line style="stroke: #888888;stroke-width: 1;" x1="577.4503311258278" x2="577.4503311258278" y1="15" y2="795" /><line style="stroke: #888888;stroke-width: 1;" x1="571.4569536423842" x2="571.4569536423842" y1="15" y2="795" /><line style="stroke: #888888;stroke-width: 1;" x1="559.4701986754967" x2="559.4701986754967" y1="15" y2="795" /><text style="font-family: times; font-size: 8pt" text-anchor="middle" x="559.4701986754967" y="818">40.0</text><line style="stroke: #888888;stroke-width: 1;" x1="553.476821192053" x2="553.476821192053" y1="15" y2="795" /><line style="stroke: #888888;stroke-width: 1;" x1="541.4900662251656" x2="541.4900662251656" y1="15" y2="795" /><line style="stroke: #888888;stroke-width: 1;" x1="535.4966887417219" x2="535.4966887417219" y1="15" y2="795" /><line style="stroke: #888888;stroke-width: 1;" x1="529.5033112582781" x2="529.5033112582781" y1="15" y2="795" /><line style="stroke: #888888;stroke-width: 1;" x1="523.5099337748345" x2="523.5099337748345" y1="15" y2="795" /><text style="font-family: times; font-size: 8pt" text-anchor="middle" x="523.5099337748345" y="818">37.0</text><line style="stroke: #888888;stroke-width: 1;" x1="517.5165562913908" x2="517.5165562913908" y1="15" y2="795" /><line style="stroke: #888888;stroke-width: 1;" x1="499.5364238410596" x2="499.5364238410596" y1="15" y2="795" /><line style="stroke: #888888;stroke-width: 1;" x1="493.54304635761594" x2="493.54304635761594" y1="15" y2="795" /><line style="stroke: #888888;stroke-width: 1;" x1="487.5496688741722" x2="487.5496688741722" y1="15" y2="795" /><text style="font-family: times; font-size: 8pt" text-anchor="middle" x="487.5496688741722" y="818">34.0</text><line style="stroke: #888888;stroke-width: 1;" x1="475.5629139072848" x2="475.5629139072848" y1="15" y2="795" /><line style="stroke: #888888;stroke-width: 1;" x1="469.5695364238411" x2="469.5695364238411" y1="15" y2="795" /><line style="stroke: #888888;stroke-width: 1;" x1="457.5827814569536" x2="457.5827814569536" y1="15" y2="795" /><line style="stroke: #888888;stroke-width: 1;" x1="451.58940397350995" x2="451.58940397350995" y1="15" y2="795" /><text style="font-family: times; font-size: 8pt" text-anchor="middle" x="451.58940397350995" y="818">31.0</text><line style="stroke: #888888;stroke-width: 1;" x1="445.59602649006627" x2="445.59602649006627" y1="15" y2="795" /><line style="stroke: #888888;stroke-width: 1;" x1="439.6026490066225" x2="439.6026490066225" y1="15" y2="795" /><line style="stroke: #888888;stroke-width: 1;" x1="433.6092715231788" x2="433.6092715231788" y1="15" y2="795" /><line style="stroke: #888888;stroke-width: 1;" x1="427.6158940397351" x2="427.6158940397351" y1="15" y2="795" /><line style="stroke: #888888;stroke-width: 1;" x1="421.62251655629143" x2="421.62251655629143" y1="15" y2="795" /><line style="stroke: #888888;stroke-width: 1;" x1="415.6291390728477" x2="415.6291390728477" y1="15" y2="795" /><text style="font-family: times; font-size: 8pt" text-anchor="middle" x="415.6291390728477" y="818">28.0</text><line style="stroke: #888888;stroke-width: 1;" x1="409.63576158940396" x2="409.63576158940396" y1="15" y2="795" /><line style="stroke: #888888;stroke-width: 1;" x1="397.6490066225166" x2="397.6490066225166" y1="15" y2="795" /><line style="stroke: #888888;stroke-width: 1;" x1="391.65562913907286" x2="391.65562913907286" y1="15" y2="795" /><line style="stroke: #888888;stroke-width: 1;" x1="385.6622516556291" x2="385.6622516556291" y1="15" y2="795" /><line style="stroke: #888888;stroke-width: 1;" x1="379.66887417218544" x2="379.66887417218544" y1="15" y2="795" /><text style="font-family: times; font-size: 8pt" text-anchor="middle" x="379.66887417218544" y="818">25.0</text><line style="stroke: #888888;stroke-width: 1;" x1="367.682119205298" x2="367.682119205298" y1="15" y2="795" /><line style="stroke: #888888;stroke-width: 1;" x1="355.6953642384106" x2="355.6953642384106" y1="15" y2="795" /><line style="stroke: #888888;stroke-width: 1;" x1="349.7019867549669" x2="349.7019867549669" y1="15" y2="795" /><line style="stroke: #888888;stroke-width: 1;" x1="343.7086092715232" x2="343.7086092715232" y1="15" y2="795" /><text style="font-family: times; font-size: 8pt" text-anchor="middle" x="343.7086092715232" y="818">22.0</text><line style="stroke: #888888;stroke-width: 1;" x1="337.71523178807945" x2="337.71523178807945" y1="15" y2="795" /><line style="stroke: #888888;stroke-width: 1;" x1="325.7284768211921" x2="325.7284768211921" y1="15" y2="795" /><line style="stroke: #888888;stroke-width: 1;" x1="319.73509933774835" x2="319.73509933774835" y1="15" y2="795" /><line style="stroke: #888888;stroke-width: 1;" x1="313.7417218543046" x2="313.7417218543046" y1="15" y2="795" /><line style="stroke: #888888;stroke-width: 1;" x1="307.74834437086093" x2="307.74834437086093" y1="15" y2="795" /><text style="font-family: times; font-size: 8pt" text-anchor="middle" x="307.74834437086093" y="818">19.0</text><line style="stroke: #888888;stroke-width: 1;" x1="301.75496688741725" x2="301.75496688741725" y1="15" y2="795" /><line style="stroke: #888888;stroke-width: 1;" x1="277.7814569536424" x2="277.7814569536424" y1="15" y2="795" /><line style="stroke: #888888;stroke-width: 1;" x1="271.7880794701987" x2="271.7880794701987" y1="15" y2="795" /><text style="font-family: times; font-size: 8pt" text-anchor="middle" x="271.7880794701987" y="818">16.0</text><line style="stroke: #888888;stroke-width: 1;" x1="265.79470198675494" x2="265.79470198675494" y1="15" y2="795" /><line style="stroke: #888888;stroke-width: 1;" x1="259.80132450331126" x2="259.80132450331126" y1="15" y2="795" /><line style="stroke: #888888;stroke-width: 1;" x1="253.80794701986756" x2="253.80794701986756" y1="15" y2="795" /><line style="stroke: #888888;stroke-width: 1;" x1="247.81456953642385" x2="247.81456953642385" y1="15" y2="795" /><line style="stroke: #888888;stroke-width: 1;" x1="241.82119205298014" x2="241.82119205298014" y1="15" y2="795" /><line style="stroke: #888888;stroke-width: 1;" x1="229.83443708609272" x2="229.83443708609272" y1="15" y2="795" /><text style="font-family: times; font-size: 8pt" text-anchor="middle" x="229.83443708609272" y="818">12.5</text><line style="stroke: #888888;stroke-width: 1;" x1="211.8543046357616" x2="211.8543046357616" y1="15" y2="795" /><line style="stroke: #888888;stroke-width: 1;" x1="193.87417218543047" x2="193.87417218543047" y1="15" y2="795" /><text style="font-family: times; font-size: 8pt" text-anchor="middle" x="193.87417218543047" y="818">9.5</text><line style="stroke: #888888;stroke-width: 1;" x1="187.88079470198676" x2="187.88079470198676" y1="15" y2="795" /><line style="stroke: #888888;stroke-width: 1;" x1="181.88741721854305" x2="181.88741721854305" y1="15" y2="795" /><line style="stroke: #888888;stroke-width: 1;" x1="163.90728476821192" x2="163.90728476821192" y1="15" y2="795" /><line style="stroke: #888888;stroke-width: 1;" x1="151.9205298013245" x2="151.9205298013245" y1="15" y2="795" /><text style="font-family: times; font-size: 8pt" text-anchor="middle" x="151.9205298013245" y="818">6.0</text><line style="stroke: #888888;stroke-width: 1;" x1="145.9271523178808" x2="145.9271523178808" y1="15" y2="795" /><line style="stroke: #888888;stroke-width: 1;" x1="127.94701986754967" x2="127.94701986754967" y1="15" y2="795" /><line style="stroke: #888888;stroke-width: 1;" x1="109.96688741721854" x2="109.96688741721854" y1="15" y2="795" /><text style="font-family: times; font-size: 8pt" text-anchor="middle" x="109.96688741721854" y="818">2.5</text><line style="stroke: #888888;stroke-width: 1;" x1="91.98675496688742" x2="91.98675496688742" y1="15" y2="795" /><line style="stroke: #888888;stroke-width: 1;" x1="85.99337748344371" x2="85.99337748344371" y1="15" y2="795" /><line style="stroke: #888888;stroke-width: 1;" x1="80.0" x2="80.0" y1="15" y2="795" /><rect height="30" style="fill:#bce6b3; stroke: #166f2b; stroke-width: 2" width="23.973509933774835" x="889.1059602649007" y="15" /><text style="font-family: times; font-size: 8pt" text-anchor="middle" x="901.0927152317881" y="32.0">O50</text><rect height="30" style="fill:#cdcdcd; stroke: #000000; stroke-width: 2" width="11.986754966887418" x="877.1192052980133" y="15" /><text style="font-family: times; font-size: 8pt" text-anchor="middle" x="883.112582781457" y="32.0">O49</text><rect height="30" style="fill:#cdcdcd; stroke: #000000; stroke-width: 2" width="71.9205298013245" x="913.0794701986755" y="15" /><text style="font-family: times; font-size: 8pt" text-anchor="middle" x="949.0397350993378" y="32.0">o1</text><rect height="30" style="fill:#bce6b3; stroke: #166f2b; stroke-width: 2" width="35.96026490066225" x="391.65562913907286" y="45" /><text style="font-family: times; font-size: 8pt" text-anchor="middle" x="409.63576158940396" y="62.0">O37</text><rect height="30" style="fill:#cdcdcd; stroke: #000000; stroke-width: 2" width="41.95364238410596" x="349.7019867549669" y="45" /><text style="font-family: times; font-size: 8pt" text-anchor="middle" x="370.6788079470199" y="62.0">O28</text><rect height="30" style="fill:#bce6b3; stroke: #166f2b; stroke-width: 2" width="23.973509933774835" x="499.5364238410596" y="75" /><text style="font-family: times; font-size: 8pt" text-anchor="middle" x="511.52317880794703" y="92.0">O36</text><rect height="30" style="fill:#bce6b3; stroke: #166f2b; stroke-width: 2" width="23.973509933774835" x="655.364238410596" y="75" /><text style="font-family: times; font-size: 8pt" text-anchor="middle" x="667.3509933774835" y="92.0">O34</text><rect height="30" style="fill:#cdcdcd; stroke: #000000; stroke-width: 2" width="41.95364238410596" x="613.4105960264901" y="75" /><text style="font-family: times; font-size: 8pt" text-anchor="middle" x="634.3874172185431" y="92.0">O25</text><rect height="30" style="fill:#cdcdcd; stroke: #000000; stroke-width: 2" width="23.973509933774835" x="475.5629139072848" y="75" /><text style="font-family: times; font-size: 8pt" text-anchor="middle" x="487.5496688741722" y="92.0">O27</text><rect height="30" style="fill:#bce6b3; stroke: #166f2b; stroke-width: 2" width="35.96026490066225" x="541.4900662251656" y="105" /><text style="font-family: times; font-size: 8pt" text-anchor="middle" x="559.4701986754967" y="122.0">O35</text><rect height="30" style="fill:#cdcdcd; stroke: #000000; stroke-width: 2" width="23.973509933774835" x="517.5165562913908" y="105" /><text style="font-family: times; font-size: 8pt" text-anchor="middle" x="529.5033112582782" y="122.0">O26</text><rect height="30" style="fill:#d1e6ff; stroke: #3a5684; stroke-width: 2" width="47.94701986754967" x="253.80794701986756" y="135" /><text style="font-family: times; font-size: 8pt" text-anchor="middle" x="277.7814569536424" y="152.0">O3</text><rect height="30" style="fill:#d1e6ff; stroke: #3a5684; stroke-width: 2" width="23.973509933774835" x="451.58940397350995" y="135" /><text style="font-family: times; font-size: 8pt" text-anchor="middle" x="463.57615894039736" y="152.0">O27</text><rect height="30" style="fill:#cdcdcd; stroke: #000000; stroke-width: 2" width="59.93377483443709" x="193.87417218543047" y="135" /><text style="font-family: times; font-size: 8pt" text-anchor="middle" x="223.841059602649" y="152.0">i4</text><rect height="30" style="fill:#cdcdcd; stroke: #000000; stroke-width: 2" width="35.96026490066225" x="415.6291390728477" y="135" /><text style="font-family: times; font-size: 8pt" text-anchor="middle" x="433.6092715231788" y="152.0">O15,St</text><rect height="30" style="fill:#d1e6ff; stroke: #3a5684; stroke-width: 2" width="23.973509933774835" x="535.4966887417219" y="165" /><text style="font-family: times; font-size: 8pt" text-anchor="middle" x="547.4834437086092" y="182.0">O31</text><rect height="30" style="fill:#d1e6ff; stroke: #3a5684; stroke-width: 2" width="47.94701986754967" x="685.3311258278146" y="165" /><text style="font-family: times; font-size: 8pt" text-anchor="middle" x="709.3046357615895" y="182.0">O44</text><rect height="30" style="fill:#cdcdcd; stroke: #000000; stroke-width: 2" width="47.94701986754967" x="487.5496688741722" y="165" /><text style="font-family: times; font-size: 8pt" text-anchor="middle" x="511.52317880794703" y="182.0">O22,St</text><rect height="30" style="fill:#cdcdcd; stroke: #000000; stroke-width: 2" width="53.94039735099338" x="631.3907284768212" y="165" /><text style="font-family: times; font-size: 8pt" text-anchor="middle" x="658.3609271523179" y="182.0">O39</text><rect height="30" style="fill:#d1e6ff; stroke: #3a5684; stroke-width: 2" width="35.96026490066225" x="601.4238410596026" y="195" /><text style="font-family: times; font-size: 8pt" text-anchor="middle" x="619.4039735099337" y="212.0">O33</text><rect height="30" style="fill:#d1e6ff; stroke: #3a5684; stroke-width: 2" width="35.96026490066225" x="151.9205298013245" y="195" /><text style="font-family: times; font-size: 8pt" text-anchor="middle" x="169.90066225165563" y="212.0">O9</text><rect height="30" style="fill:#d1e6ff; stroke: #3a5684; stroke-width: 2" width="11.986754966887418" x="529.5033112582781" y="195" /><text style="font-family: times; font-size: 8pt" text-anchor="middle" x="535.4966887417219" y="212.0">O11</text><rect height="30" style="fill:#cdcdcd; stroke: #000000; stroke-width: 2" width="59.93377483443709" x="91.98675496688742" y="195" /><text style="font-family: times; font-size: 8pt" text-anchor="middle" x="121.95364238410596" y="212.0">i14</text><rect height="30" style="fill:#cdcdcd; stroke: #000000; stroke-width: 2" width="59.93377483443709" x="469.5695364238411" y="195" /><text style="font-family: times; font-size: 8pt" text-anchor="middle" x="499.5364238410597" y="212.0">i16</text><rect height="30" style="fill:#cdcdcd; stroke: #000000; stroke-width: 2" width="23.973509933774835" x="577.4503311258278" y="195" /><text style="font-family: times; font-size: 8pt" text-anchor="middle" x="589.4370860927152" y="212.0">O24</text><rect height="30" style="fill:#f0f0f0; stroke: #393939; stroke-width: 2" width="35.96026490066225" x="241.82119205298014" y="225" /><text style="font-family: times; font-size: 8pt" text-anchor="middle" x="259.80132450331126" y="242.0">O18</text><rect height="30" style="fill:#f0f0f0; stroke: #393939; stroke-width: 2" width="35.96026490066225" x="811.1920529801325" y="225" /><text style="font-family: times; font-size: 8pt" text-anchor="middle" x="829.1721854304636" y="242.0">O48</text><rect height="30" style="fill:#f0f0f0; stroke: #393939; stroke-width: 2" width="11.986754966887418" x="613.4105960264901" y="225" /><text style="font-family: times; font-size: 8pt" text-anchor="middle" x="619.4039735099338" y="242.0">O41</text><rect height="30" style="fill:#cdcdcd; stroke: #000000; stroke-width: 2" width="29.966887417218544" x="211.8543046357616" y="225" /><text style="font-family: times; font-size: 8pt" text-anchor="middle" x="226.83774834437088" y="242.0">O1</text><rect height="30" style="fill:#cdcdcd; stroke: #000000; stroke-width: 2" width="35.96026490066225" x="577.4503311258278" y="225" /><text style="font-family: times; font-size: 8pt" text-anchor="middle" x="595.4304635761589" y="242.0">O35</text><rect height="30" style="fill:#cdcdcd; stroke: #000000; stroke-width: 2" width="29.966887417218544" x="781.225165562914" y="225" /><text style="font-family: times; font-size: 8pt" text-anchor="middle" x="796.2086092715232" y="242.0">O47</text><rect height="30" style="fill:#f0f0f0; stroke: #393939; stroke-width: 2" width="47.94701986754967" x="181.88741721854305" y="255" /><text style="font-family: times; font-size: 8pt" text-anchor="middle" x="205.86092715231788" y="272.0">O8</text><rect height="30" style="fill:#f0f0f0; stroke: #393939; stroke-width: 2" width="47.94701986754967" x="391.65562913907286" y="255" /><text style="font-family: times; font-size: 8pt" text-anchor="middle" x="415.6291390728477" y="272.0">O26</text><rect height="30" style="fill:#cdcdcd; stroke: #000000; stroke-width: 2" width="17.980132450331126" x="163.90728476821192" y="255" /><text style="font-family: times; font-size: 8pt" text-anchor="middle" x="172.89735099337747" y="272.0">i13</text><rect height="30" style="fill:#cdcdcd; stroke: #000000; stroke-width: 2" width="35.96026490066225" x="355.6953642384106" y="255" /><text style="font-family: times; font-size: 8pt" text-anchor="middle" x="373.67549668874176" y="272.0">O14</text><rect height="30" style="fill:#f0f0f0; stroke: #393939; stroke-width: 2" width="35.96026490066225" x="193.87417218543047" y="285" /><text style="font-family: times; font-size: 8pt" text-anchor="middle" x="211.8543046357616" y="302.0">O20</text><rect height="30" style="fill:#cdcdcd; stroke: #000000; stroke-width: 2" width="11.986754966887418" x="181.88741721854305" y="285" /><text style="font-family: times; font-size: 8pt" text-anchor="middle" x="187.88079470198676" y="302.0">O4,St</text><rect height="30" style="fill:#f0f0f0; stroke: #393939; stroke-width: 2" width="83.90728476821192" x="163.90728476821192" y="315" /><text style="font-family: times; font-size: 8pt" text-anchor="middle" x="205.86092715231788" y="332.0">O22</text><rect height="30" style="fill:#f0f0f0; stroke: #393939; stroke-width: 2" width="23.973509933774835" x="469.5695364238411" y="315" /><text style="font-family: times; font-size: 8pt" text-anchor="middle" x="481.5562913907285" y="332.0">O10</text><rect height="30" style="fill:#f0f0f0; stroke: #393939; stroke-width: 2" width="35.96026490066225" x="709.3046357615895" y="315" /><text style="font-family: times; font-size: 8pt" text-anchor="middle" x="727.2847682119206" y="332.0">O43</text><rect height="30" style="fill:#cdcdcd; stroke: #000000; stroke-width: 2" width="35.96026490066225" x="433.6092715231788" y="315" /><text style="font-family: times; font-size: 8pt" text-anchor="middle" x="451.5894039735099" y="332.0">i15</text><rect height="30" style="fill:#cdcdcd; stroke: #000000; stroke-width: 2" width="11.986754966887418" x="151.9205298013245" y="315" /><text style="font-family: times; font-size: 8pt" text-anchor="middle" x="157.91390728476821" y="332.0">O7</text><rect height="30" style="fill:#cdcdcd; stroke: #000000; stroke-width: 2" width="17.980132450331126" x="415.6291390728477" y="315" /><text style="font-family: times; font-size: 8pt" text-anchor="middle" x="424.61920529801324" y="332.0">St</text><rect height="30" style="fill:#cdcdcd; stroke: #000000; stroke-width: 2" width="23.973509933774835" x="685.3311258278146" y="315" /><text style="font-family: times; font-size: 8pt" text-anchor="middle" x="697.317880794702" y="332.0">O38</text><rect height="30" style="fill:#f0f0f0; stroke: #393939; stroke-width: 2" width="47.94701986754967" x="409.63576158940396" y="345" /><text style="font-family: times; font-size: 8pt" text-anchor="middle" x="433.6092715231788" y="362.0">O32</text><rect height="30" style="fill:#cdcdcd; stroke: #000000; stroke-width: 2" width="29.966887417218544" x="379.66887417218544" y="345" /><text style="font-family: times; font-size: 8pt" text-anchor="middle" x="394.6523178807947" y="362.0">O23</text><rect height="30" style="fill:#f0f0f0; stroke: #393939; stroke-width: 2" width="35.96026490066225" x="301.75496688741725" y="375" /><text style="font-family: times; font-size: 8pt" text-anchor="middle" x="319.73509933774835" y="392.0">O2</text><rect height="30" style="fill:#cdcdcd; stroke: #000000; stroke-width: 2" width="29.966887417218544" x="271.7880794701987" y="375" /><text style="font-family: times; font-size: 8pt" text-anchor="middle" x="286.77152317880797" y="392.0">i3</text><rect height="30" style="fill:#f0f0f0; stroke: #393939; stroke-width: 2" width="47.94701986754967" x="385.6622516556291" y="405" /><text style="font-family: times; font-size: 8pt" text-anchor="middle" x="409.63576158940396" y="422.0">O12</text><rect height="30" style="fill:#cdcdcd; stroke: #000000; stroke-width: 2" width="65.9271523178808" x="319.73509933774835" y="405" /><text style="font-family: times; font-size: 8pt" text-anchor="middle" x="352.69867549668874" y="422.0">i17</text><rect height="30" style="fill:#fccecf; stroke: #cc3333; stroke-width: 2" width="59.93377483443709" x="91.98675496688742" y="435" /><text style="font-family: times; font-size: 8pt" text-anchor="middle" x="121.95364238410596" y="452.0">O4</text><rect height="30" style="fill:#fccecf; stroke: #cc3333; stroke-width: 2" width="35.96026490066225" x="271.7880794701987" y="435" /><text style="font-family: times; font-size: 8pt" text-anchor="middle" x="289.7682119205298" y="452.0">O5</text><rect height="30" style="fill:#fccecf; stroke: #cc3333; stroke-width: 2" width="47.94701986754967" x="619.4039735099338" y="435" /><text style="font-family: times; font-size: 8pt" text-anchor="middle" x="643.3774834437087" y="452.0">O42</text><rect height="30" style="fill:#fccecf; stroke: #cc3333; stroke-width: 2" width="35.96026490066225" x="193.87417218543047" y="435" /><text style="font-family: times; font-size: 8pt" text-anchor="middle" x="211.8543046357616" y="452.0">O6</text><rect height="30" style="fill:#cdcdcd; stroke: #000000; stroke-width: 2" width="5.993377483443709" x="80.0" y="435" /><text style="font-family: times; font-size: 8pt" text-anchor="middle" x="82.99668874172185" y="452.0">i5</text><rect height="30" style="fill:#cdcdcd; stroke: #000000; stroke-width: 2" width="5.993377483443709" x="85.99337748344371" y="435" /><text style="font-family: times; font-size: 8pt" text-anchor="middle" x="88.99006622516556" y="452.0">i6</text><rect height="30" style="fill:#cdcdcd; stroke: #000000; stroke-width: 2" width="5.993377483443709" x="259.80132450331126" y="435" /><text style="font-family: times; font-size: 8pt" text-anchor="middle" x="262.79801324503313" y="452.0">i7</text><rect height="30" style="fill:#cdcdcd; stroke: #000000; stroke-width: 2" width="5.993377483443709" x="265.79470198675494" y="435" /><text style="font-family: times; font-size: 8pt" text-anchor="middle" x="268.7913907284768" y="452.0">i8</text><rect height="30" style="fill:#cdcdcd; stroke: #000000; stroke-width: 2" width="5.993377483443709" x="187.88079470198676" y="435" /><text style="font-family: times; font-size: 8pt" text-anchor="middle" x="190.87748344370863" y="452.0">i9</text><rect height="30" style="fill:#cdcdcd; stroke: #000000; stroke-width: 2" width="5.993377483443709" x="181.88741721854305" y="435" /><text style="font-family: times; font-size: 8pt" text-anchor="middle" x="184.8841059602649" y="452.0">i10</text><rect height="30" style="fill:#cdcdcd; stroke: #000000; stroke-width: 2" width="17.980132450331126" x="163.90728476821192" y="435" /><text style="font-family: times; font-size: 8pt" text-anchor="middle" x="172.89735099337747" y="452.0">St</text><rect height="30" style="fill:#cdcdcd; stroke: #000000; stroke-width: 2" width="17.980132450331126" x="241.82119205298014" y="435" /><text style="font-family: times; font-size: 8pt" text-anchor="middle" x="250.81125827814571" y="452.0">St</text><rect height="30" style="fill:#cdcdcd; stroke: #000000; stroke-width: 2" width="29.966887417218544" x="541.4900662251656" y="435" /><text style="font-family: times; font-size: 8pt" text-anchor="middle" x="556.4735099337748" y="452.0">O36</text><rect height="30" style="fill:#cdcdcd; stroke: #000000; stroke-width: 2" width="41.95364238410596" x="577.4503311258278" y="435" /><text style="font-family: times; font-size: 8pt" text-anchor="middle" x="598.4271523178808" y="452.0">O37</text><rect height="30" style="fill:#fccecf; stroke: #cc3333; stroke-width: 2" width="47.94701986754967" x="637.384105960265" y="465" /><text style="font-family: times; font-size: 8pt" text-anchor="middle" x="661.3576158940398" y="482.0">O38</text><rect height="30" style="fill:#fccecf; stroke: #cc3333; stroke-width: 2" width="23.973509933774835" x="757.2516556291391" y="465" /><text style="font-family: times; font-size: 8pt" text-anchor="middle" x="769.2384105960266" y="482.0">O47</text><rect height="30" style="fill:#fccecf; stroke: #cc3333; stroke-width: 2" width="47.94701986754967" x="163.90728476821192" y="465" /><text style="font-family: times; font-size: 8pt" text-anchor="middle" x="187.88079470198676" y="482.0">O1</text><rect height="30" style="fill:#fccecf; stroke: #cc3333; stroke-width: 2" width="23.973509933774835" x="343.7086092715232" y="465" /><text style="font-family: times; font-size: 8pt" text-anchor="middle" x="355.6953642384106" y="482.0">O21</text><rect height="30" style="fill:#cdcdcd; stroke: #000000; stroke-width: 2" width="17.980132450331126" x="127.94701986754967" y="465" /><text style="font-family: times; font-size: 8pt" text-anchor="middle" x="136.93708609271522" y="482.0">i1</text><rect height="30" style="fill:#cdcdcd; stroke: #000000; stroke-width: 2" width="17.980132450331126" x="145.9271523178808" y="465" /><text style="font-family: times; font-size: 8pt" text-anchor="middle" x="154.91721854304637" y="482.0">i2</text><rect height="30" style="fill:#cdcdcd; stroke: #000000; stroke-width: 2" width="5.993377483443709" x="307.74834437086093" y="465" /><text style="font-family: times; font-size: 8pt" text-anchor="middle" x="310.7450331125828" y="482.0">O5</text><rect height="30" style="fill:#cdcdcd; stroke: #000000; stroke-width: 2" width="29.966887417218544" x="313.7417218543046" y="465" /><text style="font-family: times; font-size: 8pt" text-anchor="middle" x="328.7251655629139" y="482.0">O6,St</text><rect height="30" style="fill:#cdcdcd; stroke: #000000; stroke-width: 2" width="17.980132450331126" x="577.4503311258278" y="465" /><text style="font-family: times; font-size: 8pt" text-anchor="middle" x="586.4403973509934" y="482.0">O29</text><rect height="30" style="fill:#cdcdcd; stroke: #000000; stroke-width: 2" width="17.980132450331126" x="619.4039735099338" y="465" /><text style="font-family: times; font-size: 8pt" text-anchor="middle" x="628.3940397350995" y="482.0">O30</text><rect height="30" style="fill:#cdcdcd; stroke: #000000; stroke-width: 2" width="11.986754966887418" x="745.2649006622516" y="465" /><text style="font-family: times; font-size: 8pt" text-anchor="middle" x="751.2582781456954" y="482.0">O40</text><rect height="30" style="fill:#cdcdcd; stroke: #000000; stroke-width: 2" width="17.980132450331126" x="709.3046357615895" y="465" /><text style="font-family: times; font-size: 8pt" text-anchor="middle" x="718.2947019867551" y="482.0">O45</text><rect height="30" style="fill:#fccecf; stroke: #cc3333; stroke-width: 2" width="23.973509933774835" x="853.1456953642385" y="495" /><text style="font-family: times; font-size: 8pt" text-anchor="middle" x="865.1324503311259" y="512.0">O49</text><rect height="30" style="fill:#fccecf; stroke: #cc3333; stroke-width: 2" width="35.96026490066225" x="493.54304635761594" y="495" /><text style="font-family: times; font-size: 8pt" text-anchor="middle" x="511.52317880794703" y="512.0">O29</text><rect height="30" style="fill:#fccecf; stroke: #cc3333; stroke-width: 2" width="47.94701986754967" x="211.8543046357616" y="495" /><text style="font-family: times; font-size: 8pt" text-anchor="middle" x="235.82781456953643" y="512.0">O14</text><rect height="30" style="fill:#fccecf; stroke: #cc3333; stroke-width: 2" width="23.973509933774835" x="679.3377483443709" y="495" /><text style="font-family: times; font-size: 8pt" text-anchor="middle" x="691.3245033112582" y="512.0">O45</text><rect height="30" style="fill:#cdcdcd; stroke: #000000; stroke-width: 2" width="29.966887417218544" x="151.9205298013245" y="495" /><text style="font-family: times; font-size: 8pt" text-anchor="middle" x="166.9039735099338" y="512.0">i20</text><rect height="30" style="fill:#cdcdcd; stroke: #000000; stroke-width: 2" width="29.966887417218544" x="181.88741721854305" y="495" /><text style="font-family: times; font-size: 8pt" text-anchor="middle" x="196.8708609271523" y="512.0">i21</text><rect height="30" style="fill:#cdcdcd; stroke: #000000; stroke-width: 2" width="5.993377483443709" x="391.65562913907286" y="495" /><text style="font-family: times; font-size: 8pt" text-anchor="middle" x="394.6523178807947" y="512.0">O18</text><rect height="30" style="fill:#cdcdcd; stroke: #000000; stroke-width: 2" width="23.973509933774835" x="469.5695364238411" y="495" /><text style="font-family: times; font-size: 8pt" text-anchor="middle" x="481.5562913907285" y="512.0">O19</text><rect height="30" style="fill:#cdcdcd; stroke: #000000; stroke-width: 2" width="5.993377483443709" x="625.3973509933775" y="495" /><text style="font-family: times; font-size: 8pt" text-anchor="middle" x="628.3940397350993" y="512.0">O41</text><rect height="30" style="fill:#cdcdcd; stroke: #000000; stroke-width: 2" width="11.986754966887418" x="667.3509933774835" y="495" /><text style="font-family: times; font-size: 8pt" text-anchor="middle" x="673.3443708609273" y="512.0">O42</text><rect height="30" style="fill:#cdcdcd; stroke: #000000; stroke-width: 2" width="23.973509933774835" x="823.1788079470199" y="495" /><text style="font-family: times; font-size: 8pt" text-anchor="middle" x="835.1655629139073" y="512.0">O46</text><rect height="30" style="fill:#cdcdcd; stroke: #000000; stroke-width: 2" width="5.993377483443709" x="847.1523178807947" y="495" /><text style="font-family: times; font-size: 8pt" text-anchor="middle" x="850.1490066225166" y="512.0">O48</text><rect height="30" style="fill:#fccecf; stroke: #cc3333; stroke-width: 2" width="35.96026490066225" x="595.4304635761589" y="525" /><text style="font-family: times; font-size: 8pt" text-anchor="middle" x="613.41059602649" y="542.0">O39</text><rect height="30" style="fill:#cdcdcd; stroke: #000000; stroke-width: 2" width="11.986754966887418" x="583.4437086092715" y="525" /><text style="font-family: times; font-size: 8pt" text-anchor="middle" x="589.4370860927153" y="542.0">O31</text><rect height="30" style="fill:#cdcdcd; stroke: #000000; stroke-width: 2" width="47.94701986754967" x="535.4966887417219" y="525" /><text style="font-family: times; font-size: 8pt" text-anchor="middle" x="559.4701986754967" y="542.0">O32</text><rect height="30" style="fill:#fccecf; stroke: #cc3333; stroke-width: 2" width="47.94701986754967" x="397.6490066225166" y="555" /><text style="font-family: times; font-size: 8pt" text-anchor="middle" x="421.62251655629143" y="572.0">O30</text><rect height="30" style="fill:#fccecf; stroke: #cc3333; stroke-width: 2" width="35.96026490066225" x="787.2185430463576" y="555" /><text style="font-family: times; font-size: 8pt" text-anchor="middle" x="805.1986754966887" y="572.0">O46</text><rect height="30" style="fill:#cdcdcd; stroke: #000000; stroke-width: 2" width="23.973509933774835" x="301.75496688741725" y="555" /><text style="font-family: times; font-size: 8pt" text-anchor="middle" x="313.74172185430467" y="572.0">O20</text><rect height="30" style="fill:#cdcdcd; stroke: #000000; stroke-width: 2" width="29.966887417218544" x="367.682119205298" y="555" /><text style="font-family: times; font-size: 8pt" text-anchor="middle" x="382.6655629139073" y="572.0">O21</text><rect height="30" style="fill:#cdcdcd; stroke: #000000; stroke-width: 2" width="11.986754966887418" x="775.2317880794702" y="555" /><text style="font-family: times; font-size: 8pt" text-anchor="middle" x="781.225165562914" y="572.0">O43</text><rect height="30" style="fill:#cdcdcd; stroke: #000000; stroke-width: 2" width="41.95364238410596" x="733.2781456953643" y="555" /><text style="font-family: times; font-size: 8pt" text-anchor="middle" x="754.2549668874173" y="572.0">O44</text><rect height="30" style="fill:#fccecf; stroke: #cc3333; stroke-width: 2" width="35.96026490066225" x="577.4503311258278" y="585" /><text style="font-family: times; font-size: 8pt" text-anchor="middle" x="595.4304635761589" y="602.0">O25</text><rect height="30" style="fill:#cdcdcd; stroke: #000000; stroke-width: 2" width="35.96026490066225" x="451.58940397350995" y="585" /><text style="font-family: times; font-size: 8pt" text-anchor="middle" x="469.5695364238411" y="602.0">O12</text><rect height="30" style="fill:#cdcdcd; stroke: #000000; stroke-width: 2" width="47.94701986754967" x="529.5033112582781" y="585" /><text style="font-family: times; font-size: 8pt" text-anchor="middle" x="553.476821192053" y="602.0">O13</text><rect height="30" style="fill:#fccecf; stroke: #cc3333; stroke-width: 2" width="35.96026490066225" x="313.7417218543046" y="615" /><text style="font-family: times; font-size: 8pt" text-anchor="middle" x="331.7218543046357" y="632.0">O28</text><rect height="30" style="fill:#cdcdcd; stroke: #000000; stroke-width: 2" width="5.993377483443709" x="241.82119205298014" y="615" /><text style="font-family: times; font-size: 8pt" text-anchor="middle" x="244.81788079470198" y="632.0">O16,St</text><rect height="30" style="fill:#cdcdcd; stroke: #000000; stroke-width: 2" width="5.993377483443709" x="307.74834437086093" y="615" /><text style="font-family: times; font-size: 8pt" text-anchor="middle" x="310.7450331125828" y="632.0">O17,St</text><rect height="30" style="fill:#fccecf; stroke: #cc3333; stroke-width: 2" width="59.93377483443709" x="91.98675496688742" y="645" /><text style="font-family: times; font-size: 8pt" text-anchor="middle" x="121.95364238410596" y="662.0">O16</text><rect height="30" style="fill:#fccecf; stroke: #cc3333; stroke-width: 2" width="47.94701986754967" x="427.6158940397351" y="645" /><text style="font-family: times; font-size: 8pt" text-anchor="middle" x="451.58940397350995" y="662.0">O13</text><rect height="30" style="fill:#fccecf; stroke: #cc3333; stroke-width: 2" width="35.96026490066225" x="319.73509933774835" y="645" /><text style="font-family: times; font-size: 8pt" text-anchor="middle" x="337.71523178807945" y="662.0">O15</text><rect height="30" style="fill:#fccecf; stroke: #cc3333; stroke-width: 2" width="23.973509933774835" x="253.80794701986756" y="645" /><text style="font-family: times; font-size: 8pt" text-anchor="middle" x="265.79470198675494" y="662.0">O17</text><rect height="30" style="fill:#cdcdcd; stroke: #000000; stroke-width: 2" width="5.993377483443709" x="415.6291390728477" y="645" /><text style="font-family: times; font-size: 8pt" text-anchor="middle" x="418.62582781456956" y="662.0">i18</text><rect height="30" style="fill:#cdcdcd; stroke: #000000; stroke-width: 2" width="5.993377483443709" x="421.62251655629143" y="645" /><text style="font-family: times; font-size: 8pt" text-anchor="middle" x="424.6192052980133" y="662.0">i19</text><rect height="30" style="fill:#cdcdcd; stroke: #000000; stroke-width: 2" width="5.993377483443709" x="307.74834437086093" y="645" /><text style="font-family: times; font-size: 8pt" text-anchor="middle" x="310.7450331125828" y="662.0">i22</text><rect height="30" style="fill:#cdcdcd; stroke: #000000; stroke-width: 2" width="5.993377483443709" x="313.7417218543046" y="645" /><text style="font-family: times; font-size: 8pt" text-anchor="middle" x="316.7384105960265" y="662.0">i23</text><rect height="30" style="fill:#cdcdcd; stroke: #000000; stroke-width: 2" width="5.993377483443709" x="80.0" y="645" /><text style="font-family: times; font-size: 8pt" text-anchor="middle" x="82.99668874172185" y="662.0">i24</text><rect height="30" style="fill:#cdcdcd; stroke: #000000; stroke-width: 2" width="5.993377483443709" x="85.99337748344371" y="645" /><text style="font-family: times; font-size: 8pt" text-anchor="middle" x="88.99006622516556" y="662.0">i25</text><rect height="30" style="fill:#cdcdcd; stroke: #000000; stroke-width: 2" width="5.993377483443709" x="241.82119205298014" y="645" /><text style="font-family: times; font-size: 8pt" text-anchor="middle" x="244.81788079470198" y="662.0">i26</text><rect height="30" style="fill:#cdcdcd; stroke: #000000; stroke-width: 2" width="5.993377483443709" x="247.81456953642385" y="645" /><text style="font-family: times; font-size: 8pt" text-anchor="middle" x="250.81125827814571" y="662.0">i27</text><rect height="30" style="fill:#cdcdcd; stroke: #000000; stroke-width: 2" width="29.966887417218544" x="385.6622516556291" y="645" /><text style="font-family: times; font-size: 8pt" text-anchor="middle" x="400.6456953642384" y="662.0">St</text><rect height="30" style="fill:#cdcdcd; stroke: #000000; stroke-width: 2" width="29.966887417218544" x="211.8543046357616" y="645" /><text style="font-family: times; font-size: 8pt" text-anchor="middle" x="226.83774834437088" y="662.0">St</text><rect height="30" style="fill:#cdcdcd; stroke: #000000; stroke-width: 2" width="29.966887417218544" x="277.7814569536424" y="645" /><text style="font-family: times; font-size: 8pt" text-anchor="middle" x="292.7649006622517" y="662.0">St</text><rect height="30" style="fill:#fccecf; stroke: #cc3333; stroke-width: 2" width="23.973509933774835" x="553.476821192053" y="675" /><text style="font-family: times; font-size: 8pt" text-anchor="middle" x="565.4635761589404" y="692.0">O24</text><rect height="30" style="fill:#fccecf; stroke: #cc3333; stroke-width: 2" width="23.973509933774835" x="355.6953642384106" y="675" /><text style="font-family: times; font-size: 8pt" text-anchor="middle" x="367.682119205298" y="692.0">O23</text><rect height="30" style="fill:#cdcdcd; stroke: #000000; stroke-width: 2" width="11.986754966887418" x="343.7086092715232" y="675" /><text style="font-family: times; font-size: 8pt" text-anchor="middle" x="349.7019867549669" y="692.0">O8</text><rect height="30" style="fill:#cdcdcd; stroke: #000000; stroke-width: 2" width="11.986754966887418" x="307.74834437086093" y="675" /><text style="font-family: times; font-size: 8pt" text-anchor="middle" x="313.7417218543046" y="692.0">O9</text><rect height="30" style="fill:#cdcdcd; stroke: #000000; stroke-width: 2" width="23.973509933774835" x="493.54304635761594" y="675" /><text style="font-family: times; font-size: 8pt" text-anchor="middle" x="505.52980132450335" y="692.0">O10</text><rect height="30" style="fill:#cdcdcd; stroke: #000000; stroke-width: 2" width="11.986754966887418" x="541.4900662251656" y="675" /><text style="font-family: times; font-size: 8pt" text-anchor="middle" x="547.4834437086093" y="692.0">O11</text><rect height="30" style="fill:#fccecf; stroke: #cc3333; stroke-width: 2" width="23.973509933774835" x="343.7086092715232" y="705" /><text style="font-family: times; font-size: 8pt" text-anchor="middle" x="355.6953642384106" y="722.0">O19</text><rect height="30" style="fill:#cdcdcd; stroke: #000000; stroke-width: 2" width="5.993377483443709" x="337.71523178807945" y="705" /><text style="font-family: times; font-size: 8pt" text-anchor="middle" x="340.7119205298013" y="722.0">O2</text><rect height="30" style="fill:#cdcdcd; stroke: #000000; stroke-width: 2" width="17.980132450331126" x="301.75496688741725" y="705" /><text style="font-family: times; font-size: 8pt" text-anchor="middle" x="310.7450331125828" y="722.0">O3</text><rect height="30" style="fill:#fccecf; stroke: #cc3333; stroke-width: 2" width="23.973509933774835" x="127.94701986754967" y="735" /><text style="font-family: times; font-size: 8pt" text-anchor="middle" x="139.9337748344371" y="752.0">O7</text><rect height="30" style="fill:#fccecf; stroke: #cc3333; stroke-width: 2" width="23.973509933774835" x="721.2913907284768" y="735" /><text style="font-family: times; font-size: 8pt" text-anchor="middle" x="733.2781456953642" y="752.0">O40</text><rect height="30" style="fill:#cdcdcd; stroke: #000000; stroke-width: 2" width="17.980132450331126" x="91.98675496688742" y="735" /><text style="font-family: times; font-size: 8pt" text-anchor="middle" x="100.97682119205298" y="752.0">i11</text><rect height="30" style="fill:#cdcdcd; stroke: #000000; stroke-width: 2" width="17.980132450331126" x="109.96688741721854" y="735" /><text style="font-family: times; font-size: 8pt" text-anchor="middle" x="118.95695364238411" y="752.0">i12</text><rect height="30" style="fill:#cdcdcd; stroke: #000000; stroke-width: 2" width="17.980132450331126" x="637.384105960265" y="735" /><text style="font-family: times; font-size: 8pt" text-anchor="middle" x="646.3741721854306" y="752.0">O33</text><rect height="30" style="fill:#cdcdcd; stroke: #000000; stroke-width: 2" width="41.95364238410596" x="679.3377483443709" y="735" /><text style="font-family: times; font-size: 8pt" text-anchor="middle" x="700.3145695364238" y="752.0">O34</text></svg>