<?xml version="1.0" encoding="utf-8" ?>
<svg baseProfile="full" height="930" version="1.1" width="1000" xmlns="http://www.w3.org/2000/svg" xmlns:ev="http://www.w3.org/2001/xml-events" xmlns:xlink="http://www.w3.org/1999/xlink"><defs /><rect fill="rgb(255, 255, 255)" height="30" width="970" x="15" y="15" /><text style="font-family: times; font-size: 8pt" text-anchor="end" x="70" y="32.0">Detector1</text><rect fill="rgb(230, 230, 230)" height="30" width="970" x="15" y="45" /><text style="font-family: times; font-size: 8pt" text-anchor="end" x="70" y="62.0">Detector3</text><rect fill="rgb(255, 255, 255)" height="30" width="970" x="15" y="75" /><text style="font-family: times; font-size: 8pt" text-anchor="end" x="70" y="92.0">Detector4</text><rect fill="rgb(230, 230, 230)" height="30" width="970" x="15" y="105" /><text style="font-family: times; font-size: 8pt" text-anchor="end" x="70" y="122.0">Filter1</text><rect fill="rgb(255, 255, 255)" height="30" width="970" x="15" y="135" /><text style="font-family: times; font-size: 8pt" text-anchor="end" x="70" y="152.0">Filter3</text><rect fill="rgb(230, 230, 230)" height="30" width="970" x="15" y="165" /><text style="font-family: times; font-size: 8pt" text-anchor="end" x="70" y="182.0">Filter4</text><rect fill="rgb(255, 255, 255)" height="30" width="970" x="15" y="195" /><text style="font-family: times; font-size: 8pt" text-anchor="end" x="70" y="212.0">Filter5</text><rect fill="rgb(230, 230, 230)" height="30" width="970" x="15" y="225" /><text style="font-family: times; font-size: 8pt" text-anchor="end" x="70" y="242.0">Filter6</text><rect fill="rgb(255, 255, 255)" height="30" width="970" x="15" y="255" /><text style="font-family: times; font-size: 8pt" text-anchor="end" x="70" y="272.0">Heater1</text><rect fill="rgb(230, 230, 230)" height="30" width="970" x="15" y="285" /><text style="font-family: times; font-size: 8pt" text-anchor="end" x="70" y="302.0">Heater2</text><rect fill="rgb(255, 255, 255)" height="30" width="970" x="15" y="315" /><text style="font-family: times; font-size: 8pt" text-anchor="end" x="70" y="332.0">Heater4</text><rect fill="rgb(230, 230, 230)" height="30" width="970" x="15" y="345" /><text style="font-family: times; font-size: 8pt" text-anchor="end" x="70" y="362.0">Heater5</text><rect fill="rgb(255, 255, 255)" height="30" width="970" x="15" y="375" /><text style="font-family: times; font-size: 8pt" text-anchor="end" x="70" y="392.0">Heater6</text><rect fill="rgb(230, 230, 230)" height="30" width="970" x="15" y="405" /><text style="font-family: times; font-size: 8pt" text-anchor="end" x="70" y="422.0">Heater9</text><rect fill="rgb(255, 255, 255)" height="30" width="970" x="15" y="435" /><text style="font-family: times; font-size: 8pt" text-anchor="end" x="70" y="452.0">Mixer10</text><rect fill="rgb(230, 230, 230)" height="30" width="970" x="15" y="465" /><text style="font-family: times; font-size: 8pt" text-anchor="end" x="70" y="482.0">Mixer11</text><rect fill="rgb(255, 255, 255)" height="30" width="970" x="15" y="495" /><text style="font-family: times; font-size: 8pt" text-anchor="end" x="70" y="512.0">Mixer12</text><rect fill="rgb(230, 230, 230)" height="30" width="970" x="15" y="525" /><text style="font-family: times; font-size: 8pt" text-anchor="end" x="70" y="542.0">Mixer14</text><rect fill="rgb(255, 255, 255)" height="30" width="970" x="15" y="555" /><text style="font-family: times; font-size: 8pt" text-anchor="end" x="70" y="572.0">Mixer15</text><rect fill="rgb(230, 230, 230)" height="30" width="970" x="15" y="585" /><text style="font-family: times; font-size: 8pt" text-anchor="end" x="70" y="602.0">Mixer16</text><rect fill="rgb(255, 255, 255)" height="30" width="970" x="15" y="615" /><text style="font-family: times; font-size: 8pt" text-anchor="end" x="70" y="632.0">Mixer18</text><rect fill="rgb(230, 230, 230)" height="30" width="970" x="15" y="645" /><text style="font-family: times; font-size: 8pt" text-anchor="end" x="70" y="662.0">Mixer19</text><rect fill="rgb(255, 255, 255)" height="30" width="970" x="15" y="675" /><text style="font-family: times; font-size: 8pt" text-anchor="end" x="70" y="692.0">Mixer21</text><rect fill="rgb(230, 230, 230)" height="30" width="970" x="15" y="705" /><text style="font-family: times; font-size: 8pt" text-anchor="end" x="70" y="722.0">Mixer3</text><rect fill="rgb(255, 255, 255)" height="30" width="970" x="15" y="735" /><text style="font-family: times; font-size: 8pt" text-anchor="end" x="70" y="752.0">Mixer4</text><rect fill="rgb(230, 230, 230)" height="30" width="970" x="15" y="765" /><text style="font-family: times; font-size: 8pt" text-anchor="end" x="70" y="782.0">Mixer6</text><rect fill="rgb(255, 255, 255)" height="30" width="970" x="15" y="795" /><text style="font-family: times; font-size: 8pt" text-anchor="end" x="70" y="812.0">Mixer8</text><rect fill="rgb(230, 230, 230)" height="30" width="970" x="15" y="825" /><text style="font-family: times; font-size: 8pt" text-anchor="end" x="70" y="842.0">Mixer9</text><line style="stroke: #888888;stroke-width: 1;" x1="985.0" x2="985.0" y1="15" y2="885" /><text style="font-family: times; font-size: 8pt" text-anchor="middle" x="985.0" y="908">59.5</text><line style="stroke: #888888;stroke-width: 1;" x1="977.3949579831932" x2="977.3949579831932" y1="15" y2="885" /><line style="stroke: #888888;stroke-width: 1;" x1="931.7647058823529" x2="931.7647058823529" y1="15" y2="885" /><text style="font-family: times; font-size: 8pt" text-anchor="middle" x="931.7647058823529" y="908">56.0</text><line style="stroke: #888888;stroke-width: 1;" x1="908.9495798319327" x2="908.9495798319327" y1="15" y2="885" /><line style="stroke: #888888;stroke-width: 1;" x1="878.5294117647059" x2="878.5294117647059" y1="15" y2="885" /><text style="font-family: times; font-size: 8pt" text-anchor="middle" x="878.5294117647059" y="908">52.5</text><line style="stroke: #888888;stroke-width: 1;" x1="863.3193277310924" x2="863.3193277310924" y1="15" y2="885" /><line style="stroke: #888888;stroke-width: 1;" x1="832.8991596638655" x2="832.8991596638655" y1="15" y2="885" /><text style="font-family: times; font-size: 8pt" text-anchor="middle" x="832.8991596638655" y="908">49.5</text><line style="stroke: #888888;stroke-width: 1;" x1="810.0840336134454" x2="810.0840336134454" y1="15" y2="885" /><line style="stroke: #888888;stroke-width: 1;" x1="779.6638655462184" x2="779.6638655462184" y1="15" y2="885" /><text style="font-family: times; font-size: 8pt" text-anchor="middle" x="779.6638655462184" y="908">46.0</text><line style="stroke: #888888;stroke-width: 1;" x1="764.453781512605" x2="764.453781512605" y1="15" y2="885" /><line style="stroke: #888888;stroke-width: 1;" x1="749.2436974789915" x2="749.2436974789915" y1="15" y2="885" /><line style="stroke: #888888;stroke-width: 1;" x1="741.6386554621848" x2="741.6386554621848" y1="15" y2="885" /><text style="font-family: times; font-size: 8pt" text-anchor="middle" x="741.6386554621848" y="908">43.5</text><line style="stroke: #888888;stroke-width: 1;" x1="734.0336134453781" x2="734.0336134453781" y1="15" y2="885" /><line style="stroke: #888888;stroke-width: 1;" x1="711.218487394958" x2="711.218487394958" y1="15" y2="885" /><line style="stroke: #888888;stroke-width: 1;" x1="703.6134453781513" x2="703.6134453781513" y1="15" y2="885" /><text style="font-family: times; font-size: 8pt" text-anchor="middle" x="703.6134453781513" y="908">41.0</text><line style="stroke: #888888;stroke-width: 1;" x1="673.1932773109244" x2="673.1932773109244" y1="15" y2="885" /><line style="stroke: #888888;stroke-width: 1;" x1="657.9831932773109" x2="657.9831932773109" y1="15" y2="885" /><text style="font-family: times; font-size: 8pt" text-anchor="middle" x="657.9831932773109" y="908">38.0</text><line style="stroke: #888888;stroke-width: 1;" x1="650.3781512605042" x2="650.3781512605042" y1="15" y2="885" /><line style="stroke: #888888;stroke-width: 1;" x1="627.563025210084" x2="627.563025210084" y1="15" y2="885" /><line style="stroke: #888888;stroke-width: 1;" x1="619.9579831932773" x2="619.9579831932773" y1="15" y2="885" /><text style="font-family: times; font-size: 8pt" text-anchor="middle" x="619.9579831932773" y="908">35.5</text><line style="stroke: #888888;stroke-width: 1;" x1="612.3529411764706" x2="612.3529411764706" y1="15" y2="885" /><line style="stroke: #888888;stroke-width: 1;" x1="581.9327731092437" x2="581.9327731092437" y1="15" y2="885" /><text style="font-family: times; font-size: 8pt" text-anchor="middle" x="581.9327731092437" y="908">33.0</text><line style="stroke: #888888;stroke-width: 1;" x1="551.5126050420167" x2="551.5126050420167" y1="15" y2="885" /><line style="stroke: #888888;stroke-width: 1;" x1="543.90756302521" x2="543.90756302521" y1="15" y2="885" /><text style="font-family: times; font-size: 8pt" text-anchor="middle" x="543.90756302521" y="908">30.5</text><line style="stroke: #888888;stroke-width: 1;" x1="536.3025210084033" x2="536.3025210084033" y1="15" y2="885" /><line style="stroke: #888888;stroke-width: 1;" x1="528.6974789915967" x2="528.6974789915967" y1="15" y2="885" /><line style="stroke: #888888;stroke-width: 1;" x1="521.09243697479" x2="521.09243697479" y1="15" y2="885" /><line style="stroke: #888888;stroke-width: 1;" x1="490.672268907563" x2="490.672268907563" y1="15" y2="885" /><text style="font-family: times; font-size: 8pt" text-anchor="middle" x="490.672268907563" y="908">27.0</text><line style="stroke: #888888;stroke-width: 1;" x1="483.0672268907563" x2="483.0672268907563" y1="15" y2="885" /><line style="stroke: #888888;stroke-width: 1;" x1="475.4621848739496" x2="475.4621848739496" y1="15" y2="885" /><line style="stroke: #888888;stroke-width: 1;" x1="460.25210084033614" x2="460.25210084033614" y1="15" y2="885" /><line style="stroke: #888888;stroke-width: 1;" x1="445.0420168067227" x2="445.0420168067227" y1="15" y2="885" /><text style="font-family: times; font-size: 8pt" text-anchor="middle" x="445.0420168067227" y="908">24.0</text><line style="stroke: #888888;stroke-width: 1;" x1="437.43697478991595" x2="437.43697478991595" y1="15" y2="885" /><line style="stroke: #888888;stroke-width: 1;" x1="422.2268907563025" x2="422.2268907563025" y1="15" y2="885" /><line style="stroke: #888888;stroke-width: 1;" x1="414.62184873949576" x2="414.62184873949576" y1="15" y2="885" /><line style="stroke: #888888;stroke-width: 1;" x1="407.01680672268907" x2="407.01680672268907" y1="15" y2="885" /><text style="font-family: times; font-size: 8pt" text-anchor="middle" x="407.01680672268907" y="908">21.5</text><line style="stroke: #888888;stroke-width: 1;" x1="399.4117647058823" x2="399.4117647058823" y1="15" y2="885" /><line style="stroke: #888888;stroke-width: 1;" x1="391.8067226890756" x2="391.8067226890756" y1="15" y2="885" /><line style="stroke: #888888;stroke-width: 1;" x1="376.5966386554622" x2="376.5966386554622" y1="15" y2="885" /><line style="stroke: #888888;stroke-width: 1;" x1="368.99159663865544" x2="368.99159663865544" y1="15" y2="885" /><text style="font-family: times; font-size: 8pt" text-anchor="middle" x="368.99159663865544" y="908">19.0</text><line style="stroke: #888888;stroke-width: 1;" x1="361.38655462184875" x2="361.38655462184875" y1="15" y2="885" /><line style="stroke: #888888;stroke-width: 1;" x1="353.781512605042" x2="353.781512605042" y1="15" y2="885" /><line style="stroke: #888888;stroke-width: 1;" x1="346.1764705882353" x2="346.1764705882353" y1="15" y2="885" /><line style="stroke: #888888;stroke-width: 1;" x1="338.57142857142856" x2="338.57142857142856" y1="15" y2="885" /><line style="stroke: #888888;stroke-width: 1;" x1="330.96638655462186" x2="330.96638655462186" y1="15" y2="885" /><text style="font-family: times; font-size: 8pt" text-anchor="middle" x="330.96638655462186" y="908">16.5</text><line style="stroke: #888888;stroke-width: 1;" x1="323.3613445378151" x2="323.3613445378151" y1="15" y2="885" /><line style="stroke: #888888;stroke-width: 1;" x1="315.75630252100837" x2="315.75630252100837" y1="15" y2="885" /><line style="stroke: #888888;stroke-width: 1;" x1="285.3361344537815" x2="285.3361344537815" y1="15" y2="885" /><text style="font-family: times; font-size: 8pt" text-anchor="middle" x="285.3361344537815" y="908">13.5</text><line style="stroke: #888888;stroke-width: 1;" x1="270.1260504201681" x2="270.1260504201681" y1="15" y2="885" /><line style="stroke: #888888;stroke-width: 1;" x1="254.9159663865546" x2="254.9159663865546" y1="15" y2="885" /><line style="stroke: #888888;stroke-width: 1;" x1="239.70588235294116" x2="239.70588235294116" y1="15" y2="885" /><text style="font-family: times; font-size: 8pt" text-anchor="middle" x="239.70588235294116" y="908">10.5</text><line style="stroke: #888888;stroke-width: 1;" x1="232.10084033613444" x2="232.10084033613444" y1="15" y2="885" /><line style="stroke: #888888;stroke-width: 1;" x1="224.49579831932772" x2="224.49579831932772" y1="15" y2="885" /><line style="stroke: #888888;stroke-width: 1;" x1="216.890756302521" x2="216.890756302521" y1="15" y2="885" /><line style="stroke: #888888;stroke-width: 1;" x1="201.68067226890756" x2="201.68067226890756" y1="15" y2="885" /><text style="font-family: times; font-size: 8pt" text-anchor="middle" x="201.68067226890756" y="908">8.0</text><line style="stroke: #888888;stroke-width: 1;" x1="194.07563025210084" x2="194.07563025210084" y1="15" y2="885" /><line style="stroke: #888888;stroke-width: 1;" x1="178.8655462184874" x2="178.8655462184874" y1="15" y2="885" /><line style="stroke: #888888;stroke-width: 1;" x1="171.26050420168067" x2="171.26050420168067" y1="15" y2="885" /><line style="stroke: #888888;stroke-width: 1;" x1="163.65546218487395" x2="163.65546218487395" y1="15" y2="885" /><text style="font-family: times; font-size: 8pt" text-anchor="middle" x="163.65546218487395" y="908">5.5</text><line style="stroke: #888888;stroke-width: 1;" x1="156.0504201680672" x2="156.0504201680672" y1="15" y2="885" /><line style="stroke: #888888;stroke-width: 1;" x1="133.23529411764707" x2="133.23529411764707" y1="15" y2="885" /><line style="stroke: #888888;stroke-width: 1;" x1="125.63025210084034" x2="125.63025210084034" y1="15" y2="885" /><text style="font-family: times; font-size: 8pt" text-anchor="middle" x="125.63025210084034" y="908">3.0</text><line style="stroke: #888888;stroke-width: 1;" x1="118.0252100840336" x2="118.0252100840336" y1="15" y2="885" /><line style="stroke: #888888;stroke-width: 1;" x1="102.81512605042016" x2="102.81512605042016" y1="15" y2="885" /><line style="stroke: #888888;stroke-width: 1;" x1="95.21008403361344" x2="95.21008403361344" y1="15" y2="885" /><line style="stroke: #888888;stroke-width: 1;" x1="87.60504201680672" x2="87.60504201680672" y1="15" y2="885" /><text style="font-family: times; font-size: 8pt" text-anchor="middle" x="87.60504201680672" y="908">0.5</text><line style="stroke: #888888;stroke-width: 1;" x1="80.0" x2="80.0" y1="15" y2="885" /><rect height="30" style="fill:#bce6b3; stroke: #166f2b; stroke-width: 2" width="60.84033613445378" x="194.07563025210084" y="15" /><text style="font-family: times; font-size: 8pt" text-anchor="middle" x="224.49579831932772" y="32.0">O12</text><rect height="30" style="fill:#bce6b3; stroke: #166f2b; stroke-width: 2" width="15.210084033613445" x="749.2436974789915" y="15" /><text style="font-family: times; font-size: 8pt" text-anchor="middle" x="756.8487394957982" y="32.0">O34</text><rect height="30" style="fill:#cdcdcd; stroke: #000000; stroke-width: 2" width="76.05042016806722" x="118.0252100840336" y="15" /><text style="font-family: times; font-size: 8pt" text-anchor="middle" x="156.0504201680672" y="32.0">i20</text><rect height="30" style="fill:#cdcdcd; stroke: #000000; stroke-width: 2" width="98.8655462184874" x="650.3781512605042" y="15" /><text style="font-family: times; font-size: 8pt" text-anchor="middle" x="699.8109243697479" y="32.0">O29</text><rect height="30" style="fill:#bce6b3; stroke: #166f2b; stroke-width: 2" width="45.63025210084034" x="323.3613445378151" y="45" /><text style="font-family: times; font-size: 8pt" text-anchor="middle" x="346.1764705882353" y="62.0">O14</text><rect height="30" style="fill:#cdcdcd; stroke: #000000; stroke-width: 2" width="106.47058823529412" x="216.890756302521" y="45" /><text style="font-family: times; font-size: 8pt" text-anchor="middle" x="270.12605042016804" y="62.0">i21</text><rect height="30" style="fill:#bce6b3; stroke: #166f2b; stroke-width: 2" width="60.84033613445378" x="270.1260504201681" y="75" /><text style="font-family: times; font-size: 8pt" text-anchor="middle" x="300.546218487395" y="92.0">O13</text><rect height="30" style="fill:#cdcdcd; stroke: #000000; stroke-width: 2" width="91.26050420168067" x="178.8655462184874" y="75" /><text style="font-family: times; font-size: 8pt" text-anchor="middle" x="224.49579831932772" y="92.0">i15</text><rect height="30" style="fill:#d1e6ff; stroke: #3a5684; stroke-width: 2" width="60.84033613445378" x="551.5126050420167" y="105" /><text style="font-family: times; font-size: 8pt" text-anchor="middle" x="581.9327731092436" y="122.0">O31</text><rect height="30" style="fill:#cdcdcd; stroke: #000000; stroke-width: 2" width="76.05042016806722" x="475.4621848739496" y="105" /><text style="font-family: times; font-size: 8pt" text-anchor="middle" x="513.4873949579832" y="122.0">O24</text><rect height="30" style="fill:#d1e6ff; stroke: #3a5684; stroke-width: 2" width="45.63025210084034" x="536.3025210084033" y="135" /><text style="font-family: times; font-size: 8pt" text-anchor="middle" x="559.1176470588235" y="152.0">O18</text><rect height="30" style="fill:#cdcdcd; stroke: #000000; stroke-width: 2" width="53.23529411764706" x="483.0672268907563" y="135" /><text style="font-family: times; font-size: 8pt" text-anchor="middle" x="509.6848739495798" y="152.0">O6</text><rect height="30" style="fill:#d1e6ff; stroke: #3a5684; stroke-width: 2" width="45.63025210084034" x="353.781512605042" y="165" /><text style="font-family: times; font-size: 8pt" text-anchor="middle" x="376.5966386554622" y="182.0">O7</text><rect height="30" style="fill:#cdcdcd; stroke: #000000; stroke-width: 2" width="68.4453781512605" x="285.3361344537815" y="165" /><text style="font-family: times; font-size: 8pt" text-anchor="middle" x="319.5588235294117" y="182.0">i7</text><rect height="30" style="fill:#d1e6ff; stroke: #3a5684; stroke-width: 2" width="30.42016806722689" x="551.5126050420167" y="195" /><text style="font-family: times; font-size: 8pt" text-anchor="middle" x="566.7226890756302" y="212.0">O28</text><rect height="30" style="fill:#cdcdcd; stroke: #000000; stroke-width: 2" width="15.210084033613445" x="536.3025210084033" y="195" /><text style="font-family: times; font-size: 8pt" text-anchor="middle" x="543.90756302521" y="212.0">O20</text><rect height="30" style="fill:#d1e6ff; stroke: #3a5684; stroke-width: 2" width="30.42016806722689" x="832.8991596638655" y="225" /><text style="font-family: times; font-size: 8pt" text-anchor="middle" x="848.109243697479" y="242.0">O38</text><rect height="30" style="fill:#d1e6ff; stroke: #3a5684; stroke-width: 2" width="30.42016806722689" x="460.25210084033614" y="225" /><text style="font-family: times; font-size: 8pt" text-anchor="middle" x="475.4621848739496" y="242.0">O8</text><rect height="30" style="fill:#cdcdcd; stroke: #000000; stroke-width: 2" width="53.23529411764706" x="407.01680672268907" y="225" /><text style="font-family: times; font-size: 8pt" text-anchor="middle" x="433.6344537815126" y="242.0">i8</text><rect height="30" style="fill:#cdcdcd; stroke: #000000; stroke-width: 2" width="22.81512605042017" x="810.0840336134454" y="225" /><text style="font-family: times; font-size: 8pt" text-anchor="middle" x="821.4915966386554" y="242.0">O36</text><rect height="30" style="fill:#f0f0f0; stroke: #393939; stroke-width: 2" width="60.84033613445378" x="422.2268907563025" y="255" /><text style="font-family: times; font-size: 8pt" text-anchor="middle" x="452.6470588235294" y="272.0">O21</text><rect height="30" style="fill:#cdcdcd; stroke: #000000; stroke-width: 2" width="15.210084033613445" x="407.01680672268907" y="255" /><text style="font-family: times; font-size: 8pt" text-anchor="middle" x="414.6218487394958" y="272.0">O10</text><rect height="30" style="fill:#f0f0f0; stroke: #393939; stroke-width: 2" width="45.63025210084034" x="414.62184873949576" y="285" /><text style="font-family: times; font-size: 8pt" text-anchor="middle" x="437.43697478991595" y="302.0">O23</text><rect height="30" style="fill:#cdcdcd; stroke: #000000; stroke-width: 2" width="60.84033613445378" x="353.781512605042" y="285" /><text style="font-family: times; font-size: 8pt" text-anchor="middle" x="384.2016806722689" y="302.0">O12</text><rect height="30" style="fill:#f0f0f0; stroke: #393939; stroke-width: 2" width="45.63025210084034" x="391.8067226890756" y="315" /><text style="font-family: times; font-size: 8pt" text-anchor="middle" x="414.6218487394958" y="332.0">O22</text><rect height="30" style="fill:#f0f0f0; stroke: #393939; stroke-width: 2" width="76.05042016806722" x="95.21008403361344" y="315" /><text style="font-family: times; font-size: 8pt" text-anchor="middle" x="133.23529411764704" y="332.0">O5</text><rect height="30" style="fill:#cdcdcd; stroke: #000000; stroke-width: 2" width="15.210084033613445" x="80.0" y="315" /><text style="font-family: times; font-size: 8pt" text-anchor="middle" x="87.60504201680672" y="332.0">i5</text><rect height="30" style="fill:#cdcdcd; stroke: #000000; stroke-width: 2" width="15.210084033613445" x="376.5966386554622" y="315" /><text style="font-family: times; font-size: 8pt" text-anchor="middle" x="384.20168067226894" y="332.0">O11</text><rect height="30" style="fill:#f0f0f0; stroke: #393939; stroke-width: 2" width="60.84033613445378" x="285.3361344537815" y="345" /><text style="font-family: times; font-size: 8pt" text-anchor="middle" x="315.75630252100837" y="362.0">O6</text><rect height="30" style="fill:#cdcdcd; stroke: #000000; stroke-width: 2" width="15.210084033613445" x="270.1260504201681" y="345" /><text style="font-family: times; font-size: 8pt" text-anchor="middle" x="277.73109243697485" y="362.0">i6</text><rect height="30" style="fill:#f0f0f0; stroke: #393939; stroke-width: 2" width="30.42016806722689" x="171.26050420168067" y="375" /><text style="font-family: times; font-size: 8pt" text-anchor="middle" x="186.47058823529412" y="392.0">O20</text><rect height="30" style="fill:#cdcdcd; stroke: #000000; stroke-width: 2" width="15.210084033613445" x="156.0504201680672" y="375" /><text style="font-family: times; font-size: 8pt" text-anchor="middle" x="163.65546218487393" y="392.0">O9</text><rect height="30" style="fill:#f0f0f0; stroke: #393939; stroke-width: 2" width="30.42016806722689" x="407.01680672268907" y="405" /><text style="font-family: times; font-size: 8pt" text-anchor="middle" x="422.2268907563025" y="422.0">O16</text><rect height="30" style="fill:#f0f0f0; stroke: #393939; stroke-width: 2" width="45.63025210084034" x="832.8991596638655" y="405" /><text style="font-family: times; font-size: 8pt" text-anchor="middle" x="855.7142857142857" y="422.0">O39</text><rect height="30" style="fill:#f0f0f0; stroke: #393939; stroke-width: 2" width="60.84033613445378" x="483.0672268907563" y="405" /><text style="font-family: times; font-size: 8pt" text-anchor="middle" x="513.4873949579832" y="422.0">O26</text><rect height="30" style="fill:#cdcdcd; stroke: #000000; stroke-width: 2" width="7.605042016806722" x="399.4117647058823" y="405" /><text style="font-family: times; font-size: 8pt" text-anchor="middle" x="403.21428571428567" y="422.0">O3</text><rect height="30" style="fill:#cdcdcd; stroke: #000000; stroke-width: 2" width="22.81512605042017" x="437.43697478991595" y="405" /><text style="font-family: times; font-size: 8pt" text-anchor="middle" x="448.84453781512605" y="422.0">St</text><rect height="30" style="fill:#cdcdcd; stroke: #000000; stroke-width: 2" width="22.81512605042017" x="460.25210084033614" y="405" /><text style="font-family: times; font-size: 8pt" text-anchor="middle" x="471.65966386554624" y="422.0">O17</text><rect height="30" style="fill:#cdcdcd; stroke: #000000; stroke-width: 2" width="22.81512605042017" x="810.0840336134454" y="405" /><text style="font-family: times; font-size: 8pt" text-anchor="middle" x="821.4915966386554" y="422.0">O37</text><rect height="30" style="fill:#fccecf; stroke: #cc3333; stroke-width: 2" width="45.63025210084034" x="483.0672268907563" y="435" /><text style="font-family: times; font-size: 8pt" text-anchor="middle" x="505.88235294117646" y="452.0">O30</text><rect height="30" style="fill:#fccecf; stroke: #cc3333; stroke-width: 2" width="45.63025210084034" x="657.9831932773109" y="435" /><text style="font-family: times; font-size: 8pt" text-anchor="middle" x="680.7983193277311" y="452.0">O35</text><rect height="30" style="fill:#cdcdcd; stroke: #000000; stroke-width: 2" width="38.02521008403361" x="437.43697478991595" y="435" /><text style="font-family: times; font-size: 8pt" text-anchor="middle" x="456.44957983193274" y="452.0">O22</text><rect height="30" style="fill:#cdcdcd; stroke: #000000; stroke-width: 2" width="7.605042016806722" x="475.4621848739496" y="435" /><text style="font-family: times; font-size: 8pt" text-anchor="middle" x="479.2647058823529" y="452.0">O23</text><rect height="30" style="fill:#cdcdcd; stroke: #000000; stroke-width: 2" width="38.02521008403361" x="619.9579831932773" y="435" /><text style="font-family: times; font-size: 8pt" text-anchor="middle" x="638.9705882352941" y="452.0">O31</text><rect height="30" style="fill:#fccecf; stroke: #cc3333; stroke-width: 2" width="76.05042016806722" x="254.9159663865546" y="465" /><text style="font-family: times; font-size: 8pt" text-anchor="middle" x="292.94117647058823" y="482.0">O15</text><rect height="30" style="fill:#cdcdcd; stroke: #000000; stroke-width: 2" width="30.42016806722689" x="163.65546218487395" y="465" /><text style="font-family: times; font-size: 8pt" text-anchor="middle" x="178.8655462184874" y="482.0">O1</text><rect height="30" style="fill:#cdcdcd; stroke: #000000; stroke-width: 2" width="38.02521008403361" x="216.890756302521" y="465" /><text style="font-family: times; font-size: 8pt" text-anchor="middle" x="235.9033613445378" y="482.0">O2</text><rect height="30" style="fill:#fccecf; stroke: #cc3333; stroke-width: 2" width="45.63025210084034" x="178.8655462184874" y="495" /><text style="font-family: times; font-size: 8pt" text-anchor="middle" x="201.68067226890756" y="512.0">O4</text><rect height="30" style="fill:#fccecf; stroke: #cc3333; stroke-width: 2" width="30.42016806722689" x="711.218487394958" y="495" /><text style="font-family: times; font-size: 8pt" text-anchor="middle" x="726.4285714285714" y="512.0">O33</text><rect height="30" style="fill:#cdcdcd; stroke: #000000; stroke-width: 2" width="53.23529411764706" x="80.0" y="495" /><text style="font-family: times; font-size: 8pt" text-anchor="middle" x="106.61764705882354" y="512.0">i3</text><rect height="30" style="fill:#cdcdcd; stroke: #000000; stroke-width: 2" width="45.63025210084034" x="133.23529411764707" y="495" /><text style="font-family: times; font-size: 8pt" text-anchor="middle" x="156.05042016806723" y="512.0">i4</text><rect height="30" style="fill:#cdcdcd; stroke: #000000; stroke-width: 2" width="38.02521008403361" x="673.1932773109244" y="495" /><text style="font-family: times; font-size: 8pt" text-anchor="middle" x="692.2058823529412" y="512.0">O27</text><rect height="30" style="fill:#cdcdcd; stroke: #000000; stroke-width: 2" width="45.63025210084034" x="581.9327731092437" y="495" /><text style="font-family: times; font-size: 8pt" text-anchor="middle" x="604.7478991596639" y="512.0">O28</text><rect height="30" style="fill:#fccecf; stroke: #cc3333; stroke-width: 2" width="30.42016806722689" x="619.9579831932773" y="525" /><text style="font-family: times; font-size: 8pt" text-anchor="middle" x="635.1680672268908" y="542.0">O29</text><rect height="30" style="fill:#cdcdcd; stroke: #000000; stroke-width: 2" width="15.210084033613445" x="536.3025210084033" y="525" /><text style="font-family: times; font-size: 8pt" text-anchor="middle" x="543.90756302521" y="542.0">O21</text><rect height="30" style="fill:#cdcdcd; stroke: #000000; stroke-width: 2" width="68.4453781512605" x="551.5126050420167" y="525" /><text style="font-family: times; font-size: 8pt" text-anchor="middle" x="585.735294117647" y="542.0">i22</text><rect height="30" style="fill:#fccecf; stroke: #cc3333; stroke-width: 2" width="45.63025210084034" x="475.4621848739496" y="555" /><text style="font-family: times; font-size: 8pt" text-anchor="middle" x="498.2773109243698" y="572.0">O25</text><rect height="30" style="fill:#fccecf; stroke: #cc3333; stroke-width: 2" width="30.42016806722689" x="346.1764705882353" y="555" /><text style="font-family: times; font-size: 8pt" text-anchor="middle" x="361.38655462184875" y="572.0">O11</text><rect height="30" style="fill:#cdcdcd; stroke: #000000; stroke-width: 2" width="45.63025210084034" x="270.1260504201681" y="555" /><text style="font-family: times; font-size: 8pt" text-anchor="middle" x="292.9411764705883" y="572.0">i13</text><rect height="30" style="fill:#cdcdcd; stroke: #000000; stroke-width: 2" width="22.81512605042017" x="323.3613445378151" y="555" /><text style="font-family: times; font-size: 8pt" text-anchor="middle" x="334.7689075630252" y="572.0">i14</text><rect height="30" style="fill:#cdcdcd; stroke: #000000; stroke-width: 2" width="15.210084033613445" x="391.8067226890756" y="555" /><text style="font-family: times; font-size: 8pt" text-anchor="middle" x="399.4117647058824" y="572.0">O15</text><rect height="30" style="fill:#cdcdcd; stroke: #000000; stroke-width: 2" width="15.210084033613445" x="460.25210084033614" y="555" /><text style="font-family: times; font-size: 8pt" text-anchor="middle" x="467.8571428571429" y="572.0">O16,St</text><rect height="30" style="fill:#fccecf; stroke: #cc3333; stroke-width: 2" width="106.47058823529412" x="232.10084033613444" y="585" /><text style="font-family: times; font-size: 8pt" text-anchor="middle" x="285.3361344537815" y="602.0">O17</text><rect height="30" style="fill:#fccecf; stroke: #cc3333; stroke-width: 2" width="60.84033613445378" x="749.2436974789915" y="585" /><text style="font-family: times; font-size: 8pt" text-anchor="middle" x="779.6638655462184" y="602.0">O36</text><rect height="30" style="fill:#cdcdcd; stroke: #000000; stroke-width: 2" width="7.605042016806722" x="224.49579831932772" y="585" /><text style="font-family: times; font-size: 8pt" text-anchor="middle" x="228.2983193277311" y="602.0">O4</text><rect height="30" style="fill:#cdcdcd; stroke: #000000; stroke-width: 2" width="38.02521008403361" x="178.8655462184874" y="585" /><text style="font-family: times; font-size: 8pt" text-anchor="middle" x="197.8781512605042" y="602.0">O5</text><rect height="30" style="fill:#cdcdcd; stroke: #000000; stroke-width: 2" width="22.81512605042017" x="711.218487394958" y="585" /><text style="font-family: times; font-size: 8pt" text-anchor="middle" x="722.626050420168" y="602.0">O32</text><rect height="30" style="fill:#cdcdcd; stroke: #000000; stroke-width: 2" width="7.605042016806722" x="741.6386554621848" y="585" /><text style="font-family: times; font-size: 8pt" text-anchor="middle" x="745.4411764705882" y="602.0">O33</text><rect height="30" style="fill:#fccecf; stroke: #cc3333; stroke-width: 2" width="45.63025210084034" x="581.9327731092437" y="615" /><text style="font-family: times; font-size: 8pt" text-anchor="middle" x="604.7478991596639" y="632.0">O32</text><rect height="30" style="fill:#cdcdcd; stroke: #000000; stroke-width: 2" width="22.81512605042017" x="521.09243697479" y="615" /><text style="font-family: times; font-size: 8pt" text-anchor="middle" x="532.5" y="632.0">O25</text><rect height="30" style="fill:#cdcdcd; stroke: #000000; stroke-width: 2" width="38.02521008403361" x="543.90756302521" y="615" /><text style="font-family: times; font-size: 8pt" text-anchor="middle" x="562.9201680672269" y="632.0">O26</text><rect height="30" style="fill:#fccecf; stroke: #cc3333; stroke-width: 2" width="30.42016806722689" x="445.0420168067227" y="645" /><text style="font-family: times; font-size: 8pt" text-anchor="middle" x="460.25210084033614" y="662.0">O24</text><rect height="30" style="fill:#cdcdcd; stroke: #000000; stroke-width: 2" width="22.81512605042017" x="422.2268907563025" y="645" /><text style="font-family: times; font-size: 8pt" text-anchor="middle" x="433.6344537815126" y="662.0">O13</text><rect height="30" style="fill:#cdcdcd; stroke: #000000; stroke-width: 2" width="53.23529411764706" x="368.99159663865544" y="645" /><text style="font-family: times; font-size: 8pt" text-anchor="middle" x="395.609243697479" y="662.0">O14</text><rect height="30" style="fill:#fccecf; stroke: #cc3333; stroke-width: 2" width="45.63025210084034" x="536.3025210084033" y="675" /><text style="font-family: times; font-size: 8pt" text-anchor="middle" x="559.1176470588235" y="692.0">O19</text><rect height="30" style="fill:#fccecf; stroke: #cc3333; stroke-width: 2" width="45.63025210084034" x="931.7647058823529" y="675" /><text style="font-family: times; font-size: 8pt" text-anchor="middle" x="954.5798319327731" y="692.0">O40</text><rect height="30" style="fill:#fccecf; stroke: #cc3333; stroke-width: 2" width="15.210084033613445" x="657.9831932773109" y="675" /><text style="font-family: times; font-size: 8pt" text-anchor="middle" x="665.5882352941176" y="692.0">O27</text><rect height="30" style="fill:#cdcdcd; stroke: #000000; stroke-width: 2" width="15.210084033613445" x="460.25210084033614" y="675" /><text style="font-family: times; font-size: 8pt" text-anchor="middle" x="467.8571428571429" y="692.0">O7</text><rect height="30" style="fill:#cdcdcd; stroke: #000000; stroke-width: 2" width="45.63025210084034" x="490.672268907563" y="675" /><text style="font-family: times; font-size: 8pt" text-anchor="middle" x="513.4873949579832" y="692.0">O8</text><rect height="30" style="fill:#cdcdcd; stroke: #000000; stroke-width: 2" width="76.05042016806722" x="581.9327731092437" y="675" /><text style="font-family: times; font-size: 8pt" text-anchor="middle" x="619.9579831932773" y="692.0">O18</text><rect height="30" style="fill:#cdcdcd; stroke: #000000; stroke-width: 2" width="45.63025210084034" x="863.3193277310924" y="675" /><text style="font-family: times; font-size: 8pt" text-anchor="middle" x="886.1344537815125" y="692.0">O38</text><rect height="30" style="fill:#cdcdcd; stroke: #000000; stroke-width: 2" width="22.81512605042017" x="908.9495798319327" y="675" /><text style="font-family: times; font-size: 8pt" text-anchor="middle" x="920.3571428571428" y="692.0">O39</text><rect height="30" style="fill:#cdcdcd; stroke: #000000; stroke-width: 2" width="7.605042016806722" x="977.3949579831932" y="675" /><text style="font-family: times; font-size: 8pt" text-anchor="middle" x="981.1974789915965" y="692.0">o1</text><rect height="30" style="fill:#fccecf; stroke: #cc3333; stroke-width: 2" width="60.84033613445378" x="95.21008403361344" y="705" /><text style="font-family: times; font-size: 8pt" text-anchor="middle" x="125.63025210084032" y="722.0">O9</text><rect height="30" style="fill:#cdcdcd; stroke: #000000; stroke-width: 2" width="7.605042016806722" x="87.60504201680672" y="705" /><text style="font-family: times; font-size: 8pt" text-anchor="middle" x="91.40756302521008" y="722.0">i9</text><rect height="30" style="fill:#cdcdcd; stroke: #000000; stroke-width: 2" width="7.605042016806722" x="80.0" y="705" /><text style="font-family: times; font-size: 8pt" text-anchor="middle" x="83.80252100840336" y="722.0">i10</text><rect height="30" style="fill:#fccecf; stroke: #cc3333; stroke-width: 2" width="60.84033613445378" x="102.81512605042016" y="735" /><text style="font-family: times; font-size: 8pt" text-anchor="middle" x="133.23529411764704" y="752.0">O1</text><rect height="30" style="fill:#cdcdcd; stroke: #000000; stroke-width: 2" width="7.605042016806722" x="80.0" y="735" /><text style="font-family: times; font-size: 8pt" text-anchor="middle" x="83.80252100840336" y="752.0">i16</text><rect height="30" style="fill:#cdcdcd; stroke: #000000; stroke-width: 2" width="15.210084033613445" x="87.60504201680672" y="735" /><text style="font-family: times; font-size: 8pt" text-anchor="middle" x="95.21008403361344" y="752.0">i17</text><rect height="30" style="fill:#fccecf; stroke: #cc3333; stroke-width: 2" width="30.42016806722689" x="368.99159663865544" y="765" /><text style="font-family: times; font-size: 8pt" text-anchor="middle" x="384.2016806722689" y="782.0">O3</text><rect height="30" style="fill:#cdcdcd; stroke: #000000; stroke-width: 2" width="45.63025210084034" x="323.3613445378151" y="765" /><text style="font-family: times; font-size: 8pt" text-anchor="middle" x="346.1764705882353" y="782.0">i18</text><rect height="30" style="fill:#cdcdcd; stroke: #000000; stroke-width: 2" width="22.81512605042017" x="216.890756302521" y="765" /><text style="font-family: times; font-size: 8pt" text-anchor="middle" x="228.2983193277311" y="782.0">i19</text><rect height="30" style="fill:#fccecf; stroke: #cc3333; stroke-width: 2" width="45.63025210084034" x="171.26050420168067" y="795" /><text style="font-family: times; font-size: 8pt" text-anchor="middle" x="194.07563025210084" y="812.0">O2</text><rect height="30" style="fill:#fccecf; stroke: #cc3333; stroke-width: 2" width="30.42016806722689" x="779.6638655462184" y="795" /><text style="font-family: times; font-size: 8pt" text-anchor="middle" x="794.8739495798319" y="812.0">O37</text><rect height="30" style="fill:#cdcdcd; stroke: #000000; stroke-width: 2" width="38.02521008403361" x="80.0" y="795" /><text style="font-family: times; font-size: 8pt" text-anchor="middle" x="99.0126050420168" y="812.0">i1</text><rect height="30" style="fill:#cdcdcd; stroke: #000000; stroke-width: 2" width="53.23529411764706" x="118.0252100840336" y="795" /><text style="font-family: times; font-size: 8pt" text-anchor="middle" x="144.64285714285714" y="812.0">i2</text><rect height="30" style="fill:#cdcdcd; stroke: #000000; stroke-width: 2" width="15.210084033613445" x="764.453781512605" y="795" /><text style="font-family: times; font-size: 8pt" text-anchor="middle" x="772.0588235294117" y="812.0">O34</text><rect height="30" style="fill:#cdcdcd; stroke: #000000; stroke-width: 2" width="45.63025210084034" x="703.6134453781513" y="795" /><text style="font-family: times; font-size: 8pt" text-anchor="middle" x="726.4285714285714" y="812.0">O35</text><rect height="30" style="fill:#fccecf; stroke: #cc3333; stroke-width: 2" width="45.63025210084034" x="361.38655462184875" y="825" /><text style="font-family: times; font-size: 8pt" text-anchor="middle" x="384.20168067226894" y="842.0">O10</text><rect height="30" style="fill:#cdcdcd; stroke: #000000; stroke-width: 2" width="45.63025210084034" x="315.75630252100837" y="825" /><text style="font-family: times; font-size: 8pt" text-anchor="middle" x="338.57142857142856" y="842.0">i11</text><rect height="30" style="fill:#cdcdcd; stroke: #000000; stroke-width: 2" width="45.63025210084034" x="80.0" y="825" /><text style="font-family: times; font-size: 8pt" text-anchor="middle" x="102.81512605042016" y="842.0">i12</text></svg>