<?xml version="1.0" encoding="utf-8" ?>
<svg baseProfile="full" height="900" version="1.1" width="1000" xmlns="http://www.w3.org/2000/svg" xmlns:ev="http://www.w3.org/2001/xml-events" xmlns:xlink="http://www.w3.org/1999/xlink"><defs /><rect fill="rgb(255, 255, 255)" height="30" width="970" x="15" y="15" /><text style="font-family: times; font-size: 8pt" text-anchor="end" x="70" y="32.0">Detector2</text><rect fill="rgb(230, 230, 230)" height="30" width="970" x="15" y="45" /><text style="font-family: times; font-size: 8pt" text-anchor="end" x="70" y="62.0">Detector3</text><rect fill="rgb(255, 255, 255)" height="30" width="970" x="15" y="75" /><text style="font-family: times; font-size: 8pt" text-anchor="end" x="70" y="92.0">Detector4</text><rect fill="rgb(230, 230, 230)" height="30" width="970" x="15" y="105" /><text style="font-family: times; font-size: 8pt" text-anchor="end" x="70" y="122.0">Filter3</text><rect fill="rgb(255, 255, 255)" height="30" width="970" x="15" y="135" /><text style="font-family: times; font-size: 8pt" text-anchor="end" x="70" y="152.0">Filter4</text><rect fill="rgb(230, 230, 230)" height="30" width="970" x="15" y="165" /><text style="font-family: times; font-size: 8pt" text-anchor="end" x="70" y="182.0">Filter5</text><rect fill="rgb(255, 255, 255)" height="30" width="970" x="15" y="195" /><text style="font-family: times; font-size: 8pt" text-anchor="end" x="70" y="212.0">Filter6</text><rect fill="rgb(230, 230, 230)" height="30" width="970" x="15" y="225" /><text style="font-family: times; font-size: 8pt" text-anchor="end" x="70" y="242.0">Heater1</text><rect fill="rgb(255, 255, 255)" height="30" width="970" x="15" y="255" /><text style="font-family: times; font-size: 8pt" text-anchor="end" x="70" y="272.0">Heater2</text><rect fill="rgb(230, 230, 230)" height="30" width="970" x="15" y="285" /><text style="font-family: times; font-size: 8pt" text-anchor="end" x="70" y="302.0">Heater3</text><rect fill="rgb(255, 255, 255)" height="30" width="970" x="15" y="315" /><text style="font-family: times; font-size: 8pt" text-anchor="end" x="70" y="332.0">Heater4</text><rect fill="rgb(230, 230, 230)" height="30" width="970" x="15" y="345" /><text style="font-family: times; font-size: 8pt" text-anchor="end" x="70" y="362.0">Heater5</text><rect fill="rgb(255, 255, 255)" height="30" width="970" x="15" y="375" /><text style="font-family: times; font-size: 8pt" text-anchor="end" x="70" y="392.0">Heater6</text><rect fill="rgb(230, 230, 230)" height="30" width="970" x="15" y="405" /><text style="font-family: times; font-size: 8pt" text-anchor="end" x="70" y="422.0">Heater7</text><rect fill="rgb(255, 255, 255)" height="30" width="970" x="15" y="435" /><text style="font-family: times; font-size: 8pt" text-anchor="end" x="70" y="452.0">Mixer1</text><rect fill="rgb(230, 230, 230)" height="30" width="970" x="15" y="465" /><text style="font-family: times; font-size: 8pt" text-anchor="end" x="70" y="482.0">Mixer12</text><rect fill="rgb(255, 255, 255)" height="30" width="970" x="15" y="495" /><text style="font-family: times; font-size: 8pt" text-anchor="end" x="70" y="512.0">Mixer13</text><rect fill="rgb(230, 230, 230)" height="30" width="970" x="15" y="525" /><text style="font-family: times; font-size: 8pt" text-anchor="end" x="70" y="542.0">Mixer16</text><rect fill="rgb(255, 255, 255)" height="30" width="970" x="15" y="555" /><text style="font-family: times; font-size: 8pt" text-anchor="end" x="70" y="572.0">Mixer19</text><rect fill="rgb(230, 230, 230)" height="30" width="970" x="15" y="585" /><text style="font-family: times; font-size: 8pt" text-anchor="end" x="70" y="602.0">Mixer2</text><rect fill="rgb(255, 255, 255)" height="30" width="970" x="15" y="615" /><text style="font-family: times; font-size: 8pt" text-anchor="end" x="70" y="632.0">Mixer20</text><rect fill="rgb(230, 230, 230)" height="30" width="970" x="15" y="645" /><text style="font-family: times; font-size: 8pt" text-anchor="end" x="70" y="662.0">Mixer21</text><rect fill="rgb(255, 255, 255)" height="30" width="970" x="15" y="675" /><text style="font-family: times; font-size: 8pt" text-anchor="end" x="70" y="692.0">Mixer4</text><rect fill="rgb(230, 230, 230)" height="30" width="970" x="15" y="705" /><text style="font-family: times; font-size: 8pt" text-anchor="end" x="70" y="722.0">Mixer5</text><rect fill="rgb(255, 255, 255)" height="30" width="970" x="15" y="735" /><text style="font-family: times; font-size: 8pt" text-anchor="end" x="70" y="752.0">Mixer6</text><rect fill="rgb(230, 230, 230)" height="30" width="970" x="15" y="765" /><text style="font-family: times; font-size: 8pt" text-anchor="end" x="70" y="782.0">Mixer7</text><rect fill="rgb(255, 255, 255)" height="30" width="970" x="15" y="795" /><text style="font-family: times; font-size: 8pt" text-anchor="end" x="70" y="812.0">Mixer8</text><line style="stroke: #888888;stroke-width: 1;" x1="985.0" x2="985.0" y1="15" y2="855" /><text style="font-family: times; font-size: 8pt" text-anchor="middle" x="985.0" y="878">56.5</text><line style="stroke: #888888;stroke-width: 1;" x1="952.9646017699115" x2="952.9646017699115" y1="15" y2="855" /><line style="stroke: #888888;stroke-width: 1;" x1="904.9115044247787" x2="904.9115044247787" y1="15" y2="855" /><text style="font-family: times; font-size: 8pt" text-anchor="middle" x="904.9115044247787" y="878">51.5</text><line style="stroke: #888888;stroke-width: 1;" x1="880.8849557522124" x2="880.8849557522124" y1="15" y2="855" /><line style="stroke: #888888;stroke-width: 1;" x1="840.8407079646018" x2="840.8407079646018" y1="15" y2="855" /><text style="font-family: times; font-size: 8pt" text-anchor="middle" x="840.8407079646018" y="878">47.5</text><line style="stroke: #888888;stroke-width: 1;" x1="832.8318584070797" x2="832.8318584070797" y1="15" y2="855" /><line style="stroke: #888888;stroke-width: 1;" x1="800.7964601769912" x2="800.7964601769912" y1="15" y2="855" /><text style="font-family: times; font-size: 8pt" text-anchor="middle" x="800.7964601769912" y="878">45.0</text><line style="stroke: #888888;stroke-width: 1;" x1="792.7876106194691" x2="792.7876106194691" y1="15" y2="855" /><line style="stroke: #888888;stroke-width: 1;" x1="776.7699115044248" x2="776.7699115044248" y1="15" y2="855" /><line style="stroke: #888888;stroke-width: 1;" x1="744.7345132743363" x2="744.7345132743363" y1="15" y2="855" /><text style="font-family: times; font-size: 8pt" text-anchor="middle" x="744.7345132743363" y="878">41.5</text><line style="stroke: #888888;stroke-width: 1;" x1="728.7168141592921" x2="728.7168141592921" y1="15" y2="855" /><line style="stroke: #888888;stroke-width: 1;" x1="712.6991150442478" x2="712.6991150442478" y1="15" y2="855" /><line style="stroke: #888888;stroke-width: 1;" x1="704.6902654867257" x2="704.6902654867257" y1="15" y2="855" /><text style="font-family: times; font-size: 8pt" text-anchor="middle" x="704.6902654867257" y="878">39.0</text><line style="stroke: #888888;stroke-width: 1;" x1="696.6814159292036" x2="696.6814159292036" y1="15" y2="855" /><line style="stroke: #888888;stroke-width: 1;" x1="680.6637168141593" x2="680.6637168141593" y1="15" y2="855" /><line style="stroke: #888888;stroke-width: 1;" x1="672.6548672566372" x2="672.6548672566372" y1="15" y2="855" /><line style="stroke: #888888;stroke-width: 1;" x1="656.637168141593" x2="656.637168141593" y1="15" y2="855" /><text style="font-family: times; font-size: 8pt" text-anchor="middle" x="656.637168141593" y="878">36.0</text><line style="stroke: #888888;stroke-width: 1;" x1="648.6283185840708" x2="648.6283185840708" y1="15" y2="855" /><line style="stroke: #888888;stroke-width: 1;" x1="632.6106194690266" x2="632.6106194690266" y1="15" y2="855" /><line style="stroke: #888888;stroke-width: 1;" x1="624.6017699115044" x2="624.6017699115044" y1="15" y2="855" /><line style="stroke: #888888;stroke-width: 1;" x1="616.5929203539823" x2="616.5929203539823" y1="15" y2="855" /><text style="font-family: times; font-size: 8pt" text-anchor="middle" x="616.5929203539823" y="878">33.5</text><line style="stroke: #888888;stroke-width: 1;" x1="608.5840707964602" x2="608.5840707964602" y1="15" y2="855" /><line style="stroke: #888888;stroke-width: 1;" x1="600.5752212389381" x2="600.5752212389381" y1="15" y2="855" /><line style="stroke: #888888;stroke-width: 1;" x1="592.566371681416" x2="592.566371681416" y1="15" y2="855" /><line style="stroke: #888888;stroke-width: 1;" x1="584.5575221238938" x2="584.5575221238938" y1="15" y2="855" /><line style="stroke: #888888;stroke-width: 1;" x1="568.5398230088496" x2="568.5398230088496" y1="15" y2="855" /><text style="font-family: times; font-size: 8pt" text-anchor="middle" x="568.5398230088496" y="878">30.5</text><line style="stroke: #888888;stroke-width: 1;" x1="560.5309734513274" x2="560.5309734513274" y1="15" y2="855" /><line style="stroke: #888888;stroke-width: 1;" x1="552.5221238938053" x2="552.5221238938053" y1="15" y2="855" /><line style="stroke: #888888;stroke-width: 1;" x1="544.5132743362832" x2="544.5132743362832" y1="15" y2="855" /><line style="stroke: #888888;stroke-width: 1;" x1="536.5044247787611" x2="536.5044247787611" y1="15" y2="855" /><line style="stroke: #888888;stroke-width: 1;" x1="528.4955752212389" x2="528.4955752212389" y1="15" y2="855" /><text style="font-family: times; font-size: 8pt" text-anchor="middle" x="528.4955752212389" y="878">28.0</text><line style="stroke: #888888;stroke-width: 1;" x1="520.4867256637168" x2="520.4867256637168" y1="15" y2="855" /><line style="stroke: #888888;stroke-width: 1;" x1="512.4778761061947" x2="512.4778761061947" y1="15" y2="855" /><line style="stroke: #888888;stroke-width: 1;" x1="504.46902654867256" x2="504.46902654867256" y1="15" y2="855" /><line style="stroke: #888888;stroke-width: 1;" x1="496.46017699115043" x2="496.46017699115043" y1="15" y2="855" /><line style="stroke: #888888;stroke-width: 1;" x1="480.4424778761062" x2="480.4424778761062" y1="15" y2="855" /><text style="font-family: times; font-size: 8pt" text-anchor="middle" x="480.4424778761062" y="878">25.0</text><line style="stroke: #888888;stroke-width: 1;" x1="472.43362831858406" x2="472.43362831858406" y1="15" y2="855" /><line style="stroke: #888888;stroke-width: 1;" x1="464.42477876106193" x2="464.42477876106193" y1="15" y2="855" /><line style="stroke: #888888;stroke-width: 1;" x1="456.41592920353986" x2="456.41592920353986" y1="15" y2="855" /><line style="stroke: #888888;stroke-width: 1;" x1="448.40707964601773" x2="448.40707964601773" y1="15" y2="855" /><line style="stroke: #888888;stroke-width: 1;" x1="440.3982300884956" x2="440.3982300884956" y1="15" y2="855" /><text style="font-family: times; font-size: 8pt" text-anchor="middle" x="440.3982300884956" y="878">22.5</text><line style="stroke: #888888;stroke-width: 1;" x1="432.3893805309735" x2="432.3893805309735" y1="15" y2="855" /><line style="stroke: #888888;stroke-width: 1;" x1="424.38053097345136" x2="424.38053097345136" y1="15" y2="855" /><line style="stroke: #888888;stroke-width: 1;" x1="416.37168141592923" x2="416.37168141592923" y1="15" y2="855" /><line style="stroke: #888888;stroke-width: 1;" x1="408.3628318584071" x2="408.3628318584071" y1="15" y2="855" /><line style="stroke: #888888;stroke-width: 1;" x1="400.353982300885" x2="400.353982300885" y1="15" y2="855" /><text style="font-family: times; font-size: 8pt" text-anchor="middle" x="400.353982300885" y="878">20.0</text><line style="stroke: #888888;stroke-width: 1;" x1="392.34513274336285" x2="392.34513274336285" y1="15" y2="855" /><line style="stroke: #888888;stroke-width: 1;" x1="384.3362831858407" x2="384.3362831858407" y1="15" y2="855" /><line style="stroke: #888888;stroke-width: 1;" x1="376.3274336283186" x2="376.3274336283186" y1="15" y2="855" /><line style="stroke: #888888;stroke-width: 1;" x1="360.30973451327435" x2="360.30973451327435" y1="15" y2="855" /><text style="font-family: times; font-size: 8pt" text-anchor="middle" x="360.30973451327435" y="878">17.5</text><line style="stroke: #888888;stroke-width: 1;" x1="352.3008849557522" x2="352.3008849557522" y1="15" y2="855" /><line style="stroke: #888888;stroke-width: 1;" x1="344.2920353982301" x2="344.2920353982301" y1="15" y2="855" /><line style="stroke: #888888;stroke-width: 1;" x1="336.283185840708" x2="336.283185840708" y1="15" y2="855" /><line style="stroke: #888888;stroke-width: 1;" x1="328.27433628318585" x2="328.27433628318585" y1="15" y2="855" /><line style="stroke: #888888;stroke-width: 1;" x1="320.2654867256637" x2="320.2654867256637" y1="15" y2="855" /><text style="font-family: times; font-size: 8pt" text-anchor="middle" x="320.2654867256637" y="878">15.0</text><line style="stroke: #888888;stroke-width: 1;" x1="312.2566371681416" x2="312.2566371681416" y1="15" y2="855" /><line style="stroke: #888888;stroke-width: 1;" x1="304.24778761061947" x2="304.24778761061947" y1="15" y2="855" /><line style="stroke: #888888;stroke-width: 1;" x1="296.23893805309734" x2="296.23893805309734" y1="15" y2="855" /><line style="stroke: #888888;stroke-width: 1;" x1="288.2300884955752" x2="288.2300884955752" y1="15" y2="855" /><line style="stroke: #888888;stroke-width: 1;" x1="280.2212389380531" x2="280.2212389380531" y1="15" y2="855" /><text style="font-family: times; font-size: 8pt" text-anchor="middle" x="280.2212389380531" y="878">12.5</text><line style="stroke: #888888;stroke-width: 1;" x1="272.21238938053096" x2="272.21238938053096" y1="15" y2="855" /><line style="stroke: #888888;stroke-width: 1;" x1="256.19469026548677" x2="256.19469026548677" y1="15" y2="855" /><line style="stroke: #888888;stroke-width: 1;" x1="232.16814159292036" x2="232.16814159292036" y1="15" y2="855" /><text style="font-family: times; font-size: 8pt" text-anchor="middle" x="232.16814159292036" y="878">9.5</text><line style="stroke: #888888;stroke-width: 1;" x1="208.141592920354" x2="208.141592920354" y1="15" y2="855" /><line style="stroke: #888888;stroke-width: 1;" x1="176.10619469026548" x2="176.10619469026548" y1="15" y2="855" /><text style="font-family: times; font-size: 8pt" text-anchor="middle" x="176.10619469026548" y="878">6.0</text><line style="stroke: #888888;stroke-width: 1;" x1="160.08849557522126" x2="160.08849557522126" y1="15" y2="855" /><line style="stroke: #888888;stroke-width: 1;" x1="144.070796460177" x2="144.070796460177" y1="15" y2="855" /><line style="stroke: #888888;stroke-width: 1;" x1="112.0353982300885" x2="112.0353982300885" y1="15" y2="855" /><text style="font-family: times; font-size: 8pt" text-anchor="middle" x="112.0353982300885" y="878">2.0</text><line style="stroke: #888888;stroke-width: 1;" x1="104.02654867256638" x2="104.02654867256638" y1="15" y2="855" /><line style="stroke: #888888;stroke-width: 1;" x1="96.01769911504425" x2="96.01769911504425" y1="15" y2="855" /><line style="stroke: #888888;stroke-width: 1;" x1="88.00884955752213" x2="88.00884955752213" y1="15" y2="855" /><line style="stroke: #888888;stroke-width: 1;" x1="80.0" x2="80.0" y1="15" y2="855" /><rect height="30" style="fill:#bce6b3; stroke: #166f2b; stroke-width: 2" width="64.070796460177" x="144.070796460177" y="15" /><text style="font-family: times; font-size: 8pt" text-anchor="middle" x="176.1061946902655" y="32.0">O13</text><rect height="30" style="fill:#bce6b3; stroke: #166f2b; stroke-width: 2" width="16.01769911504425" x="616.5929203539823" y="15" /><text style="font-family: times; font-size: 8pt" text-anchor="middle" x="624.6017699115044" y="32.0">O34</text><rect height="30" style="fill:#cdcdcd; stroke: #000000; stroke-width: 2" width="48.05309734513274" x="96.01769911504425" y="15" /><text style="font-family: times; font-size: 8pt" text-anchor="middle" x="120.04424778761063" y="32.0">i15</text><rect height="30" style="fill:#cdcdcd; stroke: #000000; stroke-width: 2" width="32.0353982300885" x="584.5575221238938" y="15" /><text style="font-family: times; font-size: 8pt" text-anchor="middle" x="600.5752212389381" y="32.0">O29</text><rect height="30" style="fill:#bce6b3; stroke: #166f2b; stroke-width: 2" width="64.070796460177" x="208.141592920354" y="45" /><text style="font-family: times; font-size: 8pt" text-anchor="middle" x="240.1769911504425" y="62.0">O12</text><rect height="30" style="fill:#cdcdcd; stroke: #000000; stroke-width: 2" width="64.070796460177" x="144.070796460177" y="45" /><text style="font-family: times; font-size: 8pt" text-anchor="middle" x="176.1061946902655" y="62.0">i20</text><rect height="30" style="fill:#bce6b3; stroke: #166f2b; stroke-width: 2" width="48.05309734513274" x="312.2566371681416" y="75" /><text style="font-family: times; font-size: 8pt" text-anchor="middle" x="336.283185840708" y="92.0">O14</text><rect height="30" style="fill:#cdcdcd; stroke: #000000; stroke-width: 2" width="104.11504424778761" x="208.141592920354" y="75" /><text style="font-family: times; font-size: 8pt" text-anchor="middle" x="260.1991150442478" y="92.0">i21</text><rect height="30" style="fill:#d1e6ff; stroke: #3a5684; stroke-width: 2" width="48.05309734513274" x="352.3008849557522" y="105" /><text style="font-family: times; font-size: 8pt" text-anchor="middle" x="376.3274336283186" y="122.0">O7</text><rect height="30" style="fill:#d1e6ff; stroke: #3a5684; stroke-width: 2" width="48.05309734513274" x="496.46017699115043" y="105" /><text style="font-family: times; font-size: 8pt" text-anchor="middle" x="520.4867256637168" y="122.0">O18</text><rect height="30" style="fill:#cdcdcd; stroke: #000000; stroke-width: 2" width="64.070796460177" x="288.2300884955752" y="105" /><text style="font-family: times; font-size: 8pt" text-anchor="middle" x="320.2654867256637" y="122.0">i7</text><rect height="30" style="fill:#cdcdcd; stroke: #000000; stroke-width: 2" width="56.06194690265487" x="440.3982300884956" y="105" /><text style="font-family: times; font-size: 8pt" text-anchor="middle" x="468.42920353982305" y="122.0">O6</text><rect height="30" style="fill:#cdcdcd; stroke: #000000; stroke-width: 2" width="32.0353982300885" x="400.353982300885" y="105" /><text style="font-family: times; font-size: 8pt" text-anchor="middle" x="416.37168141592923" y="122.0">St</text><rect height="30" style="fill:#d1e6ff; stroke: #3a5684; stroke-width: 2" width="64.070796460177" x="496.46017699115043" y="135" /><text style="font-family: times; font-size: 8pt" text-anchor="middle" x="528.4955752212389" y="152.0">O31</text><rect height="30" style="fill:#cdcdcd; stroke: #000000; stroke-width: 2" width="32.0353982300885" x="464.42477876106193" y="135" /><text style="font-family: times; font-size: 8pt" text-anchor="middle" x="480.4424778761062" y="152.0">O24</text><rect height="30" style="fill:#d1e6ff; stroke: #3a5684; stroke-width: 2" width="32.0353982300885" x="800.7964601769912" y="165" /><text style="font-family: times; font-size: 8pt" text-anchor="middle" x="816.8141592920355" y="182.0">O38</text><rect height="30" style="fill:#d1e6ff; stroke: #3a5684; stroke-width: 2" width="32.0353982300885" x="528.4955752212389" y="165" /><text style="font-family: times; font-size: 8pt" text-anchor="middle" x="544.5132743362832" y="182.0">O28</text><rect height="30" style="fill:#cdcdcd; stroke: #000000; stroke-width: 2" width="24.02654867256637" x="504.46902654867256" y="165" /><text style="font-family: times; font-size: 8pt" text-anchor="middle" x="516.4823008849557" y="182.0">O20</text><rect height="30" style="fill:#cdcdcd; stroke: #000000; stroke-width: 2" width="8.008849557522124" x="792.7876106194691" y="165" /><text style="font-family: times; font-size: 8pt" text-anchor="middle" x="796.7920353982302" y="182.0">O36</text><rect height="30" style="fill:#d1e6ff; stroke: #3a5684; stroke-width: 2" width="32.0353982300885" x="408.3628318584071" y="195" /><text style="font-family: times; font-size: 8pt" text-anchor="middle" x="424.38053097345136" y="212.0">O8</text><rect height="30" style="fill:#cdcdcd; stroke: #000000; stroke-width: 2" width="56.06194690265487" x="352.3008849557522" y="195" /><text style="font-family: times; font-size: 8pt" text-anchor="middle" x="380.33185840707966" y="212.0">i8</text><rect height="30" style="fill:#f0f0f0; stroke: #393939; stroke-width: 2" width="48.05309734513274" x="400.353982300885" y="225" /><text style="font-family: times; font-size: 8pt" text-anchor="middle" x="424.38053097345136" y="242.0">O22</text><rect height="30" style="fill:#cdcdcd; stroke: #000000; stroke-width: 2" width="24.02654867256637" x="376.3274336283186" y="225" /><text style="font-family: times; font-size: 8pt" text-anchor="middle" x="388.3407079646018" y="242.0">O11</text><rect height="30" style="fill:#f0f0f0; stroke: #393939; stroke-width: 2" width="32.0353982300885" x="424.38053097345136" y="255" /><text style="font-family: times; font-size: 8pt" text-anchor="middle" x="440.3982300884956" y="272.0">O16</text><rect height="30" style="fill:#cdcdcd; stroke: #000000; stroke-width: 2" width="16.01769911504425" x="408.3628318584071" y="255" /><text style="font-family: times; font-size: 8pt" text-anchor="middle" x="416.37168141592923" y="272.0">O3</text><rect height="30" style="fill:#f0f0f0; stroke: #393939; stroke-width: 2" width="80.08849557522124" x="96.01769911504425" y="285" /><text style="font-family: times; font-size: 8pt" text-anchor="middle" x="136.06194690265488" y="302.0">O5</text><rect height="30" style="fill:#f0f0f0; stroke: #393939; stroke-width: 2" width="64.070796460177" x="440.3982300884956" y="285" /><text style="font-family: times; font-size: 8pt" text-anchor="middle" x="472.4336283185841" y="302.0">O26</text><rect height="30" style="fill:#cdcdcd; stroke: #000000; stroke-width: 2" width="16.01769911504425" x="80.0" y="285" /><text style="font-family: times; font-size: 8pt" text-anchor="middle" x="88.00884955752213" y="302.0">i5</text><rect height="30" style="fill:#cdcdcd; stroke: #000000; stroke-width: 2" width="32.0353982300885" x="408.3628318584071" y="285" /><text style="font-family: times; font-size: 8pt" text-anchor="middle" x="424.38053097345136" y="302.0">O17</text><rect height="30" style="fill:#f0f0f0; stroke: #393939; stroke-width: 2" width="48.05309734513274" x="792.7876106194691" y="315" /><text style="font-family: times; font-size: 8pt" text-anchor="middle" x="816.8141592920355" y="332.0">O39</text><rect height="30" style="fill:#cdcdcd; stroke: #000000; stroke-width: 2" width="16.01769911504425" x="776.7699115044248" y="315" /><text style="font-family: times; font-size: 8pt" text-anchor="middle" x="784.778761061947" y="332.0">O37</text><rect height="30" style="fill:#f0f0f0; stroke: #393939; stroke-width: 2" width="64.070796460177" x="280.2212389380531" y="345" /><text style="font-family: times; font-size: 8pt" text-anchor="middle" x="312.2566371681416" y="362.0">O6</text><rect height="30" style="fill:#cdcdcd; stroke: #000000; stroke-width: 2" width="24.02654867256637" x="256.19469026548677" y="345" /><text style="font-family: times; font-size: 8pt" text-anchor="middle" x="268.20796460176996" y="362.0">i6</text><rect height="30" style="fill:#f0f0f0; stroke: #393939; stroke-width: 2" width="32.0353982300885" x="472.43362831858406" y="375" /><text style="font-family: times; font-size: 8pt" text-anchor="middle" x="488.4513274336283" y="392.0">O20</text><rect height="30" style="fill:#cdcdcd; stroke: #000000; stroke-width: 2" width="40.04424778761062" x="432.3893805309735" y="375" /><text style="font-family: times; font-size: 8pt" text-anchor="middle" x="452.4115044247788" y="392.0">O9</text><rect height="30" style="fill:#f0f0f0; stroke: #393939; stroke-width: 2" width="48.05309734513274" x="296.23893805309734" y="405" /><text style="font-family: times; font-size: 8pt" text-anchor="middle" x="320.2654867256637" y="422.0">O23</text><rect height="30" style="fill:#f0f0f0; stroke: #393939; stroke-width: 2" width="64.070796460177" x="480.4424778761062" y="405" /><text style="font-family: times; font-size: 8pt" text-anchor="middle" x="512.4778761061947" y="422.0">O21</text><rect height="30" style="fill:#cdcdcd; stroke: #000000; stroke-width: 2" width="8.008849557522124" x="472.43362831858406" y="405" /><text style="font-family: times; font-size: 8pt" text-anchor="middle" x="476.4380530973451" y="422.0">O10</text><rect height="30" style="fill:#cdcdcd; stroke: #000000; stroke-width: 2" width="24.02654867256637" x="272.21238938053096" y="405" /><text style="font-family: times; font-size: 8pt" text-anchor="middle" x="284.22566371681415" y="422.0">O12</text><rect height="30" style="fill:#cdcdcd; stroke: #000000; stroke-width: 2" width="40.04424778761062" x="432.3893805309735" y="405" /><text style="font-family: times; font-size: 8pt" text-anchor="middle" x="452.4115044247788" y="422.0">St</text><rect height="30" style="fill:#fccecf; stroke: #cc3333; stroke-width: 2" width="48.05309734513274" x="544.5132743362832" y="435" /><text style="font-family: times; font-size: 8pt" text-anchor="middle" x="568.5398230088496" y="452.0">O25</text><rect height="30" style="fill:#fccecf; stroke: #cc3333; stroke-width: 2" width="48.05309734513274" x="608.5840707964602" y="435" /><text style="font-family: times; font-size: 8pt" text-anchor="middle" x="632.6106194690266" y="452.0">O32</text><rect height="30" style="fill:#cdcdcd; stroke: #000000; stroke-width: 2" width="48.05309734513274" x="416.37168141592923" y="435" /><text style="font-family: times; font-size: 8pt" text-anchor="middle" x="440.3982300884956" y="452.0">O15</text><rect height="30" style="fill:#cdcdcd; stroke: #000000; stroke-width: 2" width="48.05309734513274" x="496.46017699115043" y="435" /><text style="font-family: times; font-size: 8pt" text-anchor="middle" x="520.4867256637168" y="452.0">O16</text><rect height="30" style="fill:#cdcdcd; stroke: #000000; stroke-width: 2" width="16.01769911504425" x="592.566371681416" y="435" /><text style="font-family: times; font-size: 8pt" text-anchor="middle" x="600.5752212389381" y="452.0">O26</text><rect height="30" style="fill:#fccecf; stroke: #cc3333; stroke-width: 2" width="48.05309734513274" x="536.5044247787611" y="465" /><text style="font-family: times; font-size: 8pt" text-anchor="middle" x="560.5309734513274" y="482.0">O19</text><rect height="30" style="fill:#fccecf; stroke: #cc3333; stroke-width: 2" width="32.0353982300885" x="744.7345132743363" y="465" /><text style="font-family: times; font-size: 8pt" text-anchor="middle" x="760.7522123893806" y="482.0">O37</text><rect height="30" style="fill:#cdcdcd; stroke: #000000; stroke-width: 2" width="24.02654867256637" x="512.4778761061947" y="465" /><text style="font-family: times; font-size: 8pt" text-anchor="middle" x="524.4911504424779" y="482.0">O7,St</text><rect height="30" style="fill:#cdcdcd; stroke: #000000; stroke-width: 2" width="72.07964601769912" x="440.3982300884956" y="465" /><text style="font-family: times; font-size: 8pt" text-anchor="middle" x="476.4380530973452" y="482.0">O8</text><rect height="30" style="fill:#cdcdcd; stroke: #000000; stroke-width: 2" width="48.05309734513274" x="632.6106194690266" y="465" /><text style="font-family: times; font-size: 8pt" text-anchor="middle" x="656.637168141593" y="482.0">O34</text><rect height="30" style="fill:#cdcdcd; stroke: #000000; stroke-width: 2" width="32.0353982300885" x="712.6991150442478" y="465" /><text style="font-family: times; font-size: 8pt" text-anchor="middle" x="728.7168141592921" y="482.0">O35</text><rect height="30" style="fill:#fccecf; stroke: #cc3333; stroke-width: 2" width="48.05309734513274" x="256.19469026548677" y="495" /><text style="font-family: times; font-size: 8pt" text-anchor="middle" x="280.22123893805315" y="512.0">O2</text><rect height="30" style="fill:#cdcdcd; stroke: #000000; stroke-width: 2" width="24.02654867256637" x="208.141592920354" y="495" /><text style="font-family: times; font-size: 8pt" text-anchor="middle" x="220.15486725663717" y="512.0">i1</text><rect height="30" style="fill:#cdcdcd; stroke: #000000; stroke-width: 2" width="24.02654867256637" x="232.16814159292036" y="495" /><text style="font-family: times; font-size: 8pt" text-anchor="middle" x="244.18141592920355" y="512.0">i2</text><rect height="30" style="fill:#fccecf; stroke: #cc3333; stroke-width: 2" width="16.01769911504425" x="608.5840707964602" y="525" /><text style="font-family: times; font-size: 8pt" text-anchor="middle" x="616.5929203539823" y="542.0">O27</text><rect height="30" style="fill:#fccecf; stroke: #cc3333; stroke-width: 2" width="32.0353982300885" x="416.37168141592923" y="525" /><text style="font-family: times; font-size: 8pt" text-anchor="middle" x="432.3893805309735" y="542.0">O24</text><rect height="30" style="fill:#cdcdcd; stroke: #000000; stroke-width: 2" width="48.05309734513274" x="336.283185840708" y="525" /><text style="font-family: times; font-size: 8pt" text-anchor="middle" x="360.30973451327435" y="542.0">O13</text><rect height="30" style="fill:#cdcdcd; stroke: #000000; stroke-width: 2" width="32.0353982300885" x="384.3362831858407" y="525" /><text style="font-family: times; font-size: 8pt" text-anchor="middle" x="400.353982300885" y="542.0">O14</text><rect height="30" style="fill:#cdcdcd; stroke: #000000; stroke-width: 2" width="48.05309734513274" x="544.5132743362832" y="525" /><text style="font-family: times; font-size: 8pt" text-anchor="middle" x="568.5398230088496" y="542.0">O18</text><rect height="30" style="fill:#cdcdcd; stroke: #000000; stroke-width: 2" width="16.01769911504425" x="592.566371681416" y="525" /><text style="font-family: times; font-size: 8pt" text-anchor="middle" x="600.5752212389381" y="542.0">O19</text><rect height="30" style="fill:#fccecf; stroke: #cc3333; stroke-width: 2" width="48.05309734513274" x="648.6283185840708" y="555" /><text style="font-family: times; font-size: 8pt" text-anchor="middle" x="672.6548672566372" y="572.0">O35</text><rect height="30" style="fill:#cdcdcd; stroke: #000000; stroke-width: 2" width="48.05309734513274" x="600.5752212389381" y="555" /><text style="font-family: times; font-size: 8pt" text-anchor="middle" x="624.6017699115044" y="572.0">O30</text><rect height="30" style="fill:#cdcdcd; stroke: #000000; stroke-width: 2" width="8.008849557522124" x="560.5309734513274" y="555" /><text style="font-family: times; font-size: 8pt" text-anchor="middle" x="564.5353982300885" y="572.0">O31</text><rect height="30" style="fill:#fccecf; stroke: #cc3333; stroke-width: 2" width="48.05309734513274" x="112.0353982300885" y="585" /><text style="font-family: times; font-size: 8pt" text-anchor="middle" x="136.06194690265488" y="602.0">O4</text><rect height="30" style="fill:#fccecf; stroke: #cc3333; stroke-width: 2" width="112.12389380530973" x="208.141592920354" y="585" /><text style="font-family: times; font-size: 8pt" text-anchor="middle" x="264.20353982300884" y="602.0">O17</text><rect height="30" style="fill:#cdcdcd; stroke: #000000; stroke-width: 2" width="8.008849557522124" x="96.01769911504425" y="585" /><text style="font-family: times; font-size: 8pt" text-anchor="middle" x="100.02212389380531" y="602.0">i3</text><rect height="30" style="fill:#cdcdcd; stroke: #000000; stroke-width: 2" width="8.008849557522124" x="104.02654867256638" y="585" /><text style="font-family: times; font-size: 8pt" text-anchor="middle" x="108.03097345132744" y="602.0">i4</text><rect height="30" style="fill:#cdcdcd; stroke: #000000; stroke-width: 2" width="32.0353982300885" x="176.10619469026548" y="585" /><text style="font-family: times; font-size: 8pt" text-anchor="middle" x="192.12389380530973" y="602.0">O5</text><rect height="30" style="fill:#fccecf; stroke: #cc3333; stroke-width: 2" width="48.05309734513274" x="904.9115044247787" y="615" /><text style="font-family: times; font-size: 8pt" text-anchor="middle" x="928.9380530973451" y="632.0">O40</text><rect height="30" style="fill:#fccecf; stroke: #cc3333; stroke-width: 2" width="32.0353982300885" x="672.6548672566372" y="615" /><text style="font-family: times; font-size: 8pt" text-anchor="middle" x="688.6725663716815" y="632.0">O33</text><rect height="30" style="fill:#cdcdcd; stroke: #000000; stroke-width: 2" width="48.05309734513274" x="624.6017699115044" y="615" /><text style="font-family: times; font-size: 8pt" text-anchor="middle" x="648.6283185840708" y="632.0">O27</text><rect height="30" style="fill:#cdcdcd; stroke: #000000; stroke-width: 2" width="48.05309734513274" x="560.5309734513274" y="615" /><text style="font-family: times; font-size: 8pt" text-anchor="middle" x="584.5575221238938" y="632.0">O28</text><rect height="30" style="fill:#cdcdcd; stroke: #000000; stroke-width: 2" width="48.05309734513274" x="832.8318584070797" y="615" /><text style="font-family: times; font-size: 8pt" text-anchor="middle" x="856.8584070796461" y="632.0">O38</text><rect height="30" style="fill:#cdcdcd; stroke: #000000; stroke-width: 2" width="24.02654867256637" x="880.8849557522124" y="615" /><text style="font-family: times; font-size: 8pt" text-anchor="middle" x="892.8982300884956" y="632.0">O39</text><rect height="30" style="fill:#cdcdcd; stroke: #000000; stroke-width: 2" width="32.0353982300885" x="952.9646017699115" y="615" /><text style="font-family: times; font-size: 8pt" text-anchor="middle" x="968.9823008849557" y="632.0">o1</text><rect height="30" style="fill:#fccecf; stroke: #cc3333; stroke-width: 2" width="64.070796460177" x="728.7168141592921" y="645" /><text style="font-family: times; font-size: 8pt" text-anchor="middle" x="760.7522123893806" y="662.0">O36</text><rect height="30" style="fill:#cdcdcd; stroke: #000000; stroke-width: 2" width="40.04424778761062" x="672.6548672566372" y="645" /><text style="font-family: times; font-size: 8pt" text-anchor="middle" x="692.6769911504425" y="662.0">O32</text><rect height="30" style="fill:#cdcdcd; stroke: #000000; stroke-width: 2" width="16.01769911504425" x="712.6991150442478" y="645" /><text style="font-family: times; font-size: 8pt" text-anchor="middle" x="720.70796460177" y="662.0">O33</text><rect height="30" style="fill:#fccecf; stroke: #cc3333; stroke-width: 2" width="32.0353982300885" x="376.3274336283186" y="675" /><text style="font-family: times; font-size: 8pt" text-anchor="middle" x="392.34513274336285" y="692.0">O3</text><rect height="30" style="fill:#cdcdcd; stroke: #000000; stroke-width: 2" width="16.01769911504425" x="344.2920353982301" y="675" /><text style="font-family: times; font-size: 8pt" text-anchor="middle" x="352.3008849557522" y="692.0">i18</text><rect height="30" style="fill:#cdcdcd; stroke: #000000; stroke-width: 2" width="16.01769911504425" x="360.30973451327435" y="675" /><text style="font-family: times; font-size: 8pt" text-anchor="middle" x="368.3185840707965" y="692.0">i19</text><rect height="30" style="fill:#fccecf; stroke: #cc3333; stroke-width: 2" width="48.05309734513274" x="408.3628318584071" y="705" /><text style="font-family: times; font-size: 8pt" text-anchor="middle" x="432.3893805309735" y="722.0">O10</text><rect height="30" style="fill:#fccecf; stroke: #cc3333; stroke-width: 2" width="48.05309734513274" x="552.5221238938053" y="705" /><text style="font-family: times; font-size: 8pt" text-anchor="middle" x="576.5486725663717" y="722.0">O30</text><rect height="30" style="fill:#cdcdcd; stroke: #000000; stroke-width: 2" width="16.01769911504425" x="376.3274336283186" y="705" /><text style="font-family: times; font-size: 8pt" text-anchor="middle" x="384.3362831858407" y="722.0">i11</text><rect height="30" style="fill:#cdcdcd; stroke: #000000; stroke-width: 2" width="16.01769911504425" x="392.34513274336285" y="705" /><text style="font-family: times; font-size: 8pt" text-anchor="middle" x="400.353982300885" y="722.0">i12</text><rect height="30" style="fill:#cdcdcd; stroke: #000000; stroke-width: 2" width="32.0353982300885" x="480.4424778761062" y="705" /><text style="font-family: times; font-size: 8pt" text-anchor="middle" x="496.46017699115043" y="722.0">O22</text><rect height="30" style="fill:#cdcdcd; stroke: #000000; stroke-width: 2" width="16.01769911504425" x="536.5044247787611" y="705" /><text style="font-family: times; font-size: 8pt" text-anchor="middle" x="544.5132743362832" y="722.0">O23,St</text><rect height="30" style="fill:#fccecf; stroke: #cc3333; stroke-width: 2" width="64.070796460177" x="96.01769911504425" y="735" /><text style="font-family: times; font-size: 8pt" text-anchor="middle" x="128.05309734513276" y="752.0">O1</text><rect height="30" style="fill:#fccecf; stroke: #cc3333; stroke-width: 2" width="64.070796460177" x="328.27433628318585" y="735" /><text style="font-family: times; font-size: 8pt" text-anchor="middle" x="360.30973451327435" y="752.0">O9</text><rect height="30" style="fill:#cdcdcd; stroke: #000000; stroke-width: 2" width="8.008849557522124" x="80.0" y="735" /><text style="font-family: times; font-size: 8pt" text-anchor="middle" x="84.00442477876106" y="752.0">i16</text><rect height="30" style="fill:#cdcdcd; stroke: #000000; stroke-width: 2" width="8.008849557522124" x="88.00884955752213" y="735" /><text style="font-family: times; font-size: 8pt" text-anchor="middle" x="92.01327433628319" y="752.0">i17</text><rect height="30" style="fill:#cdcdcd; stroke: #000000; stroke-width: 2" width="8.008849557522124" x="320.2654867256637" y="735" /><text style="font-family: times; font-size: 8pt" text-anchor="middle" x="324.2699115044248" y="752.0">i9</text><rect height="30" style="fill:#cdcdcd; stroke: #000000; stroke-width: 2" width="8.008849557522124" x="312.2566371681416" y="735" /><text style="font-family: times; font-size: 8pt" text-anchor="middle" x="316.26106194690266" y="752.0">i10</text><rect height="30" style="fill:#fccecf; stroke: #cc3333; stroke-width: 2" width="32.0353982300885" x="344.2920353982301" y="765" /><text style="font-family: times; font-size: 8pt" text-anchor="middle" x="360.30973451327435" y="782.0">O11</text><rect height="30" style="fill:#fccecf; stroke: #cc3333; stroke-width: 2" width="32.0353982300885" x="552.5221238938053" y="765" /><text style="font-family: times; font-size: 8pt" text-anchor="middle" x="568.5398230088496" y="782.0">O29</text><rect height="30" style="fill:#cdcdcd; stroke: #000000; stroke-width: 2" width="8.008849557522124" x="328.27433628318585" y="765" /><text style="font-family: times; font-size: 8pt" text-anchor="middle" x="332.2787610619469" y="782.0">i13</text><rect height="30" style="fill:#cdcdcd; stroke: #000000; stroke-width: 2" width="8.008849557522124" x="336.283185840708" y="765" /><text style="font-family: times; font-size: 8pt" text-anchor="middle" x="340.28761061946904" y="782.0">i14</text><rect height="30" style="fill:#cdcdcd; stroke: #000000; stroke-width: 2" width="8.008849557522124" x="544.5132743362832" y="765" /><text style="font-family: times; font-size: 8pt" text-anchor="middle" x="548.5176991150443" y="782.0">O21</text><rect height="30" style="fill:#cdcdcd; stroke: #000000; stroke-width: 2" width="8.008849557522124" x="512.4778761061947" y="765" /><text style="font-family: times; font-size: 8pt" text-anchor="middle" x="516.4823008849557" y="782.0">i22</text><rect height="30" style="fill:#fccecf; stroke: #cc3333; stroke-width: 2" width="80.08849557522124" x="336.283185840708" y="795" /><text style="font-family: times; font-size: 8pt" text-anchor="middle" x="376.3274336283186" y="812.0">O15</text><rect height="30" style="fill:#cdcdcd; stroke: #000000; stroke-width: 2" width="80.08849557522124" x="208.141592920354" y="795" /><text style="font-family: times; font-size: 8pt" text-anchor="middle" x="248.18584070796462" y="812.0">O1</text><rect height="30" style="fill:#cdcdcd; stroke: #000000; stroke-width: 2" width="32.0353982300885" x="304.24778761061947" y="795" /><text style="font-family: times; font-size: 8pt" text-anchor="middle" x="320.2654867256637" y="812.0">O2</text></svg>