<?xml version="1.0" encoding="utf-8" ?>
<svg baseProfile="full" height="510" version="1.1" width="1000" xmlns="http://www.w3.org/2000/svg" xmlns:ev="http://www.w3.org/2001/xml-events" xmlns:xlink="http://www.w3.org/1999/xlink"><defs /><rect fill="rgb(255, 255, 255)" height="30" width="970" x="15" y="15" /><text style="font-family: times; font-size: 8pt" text-anchor="end" x="70" y="32.0">Detector1</text><rect fill="rgb(230, 230, 230)" height="30" width="970" x="15" y="45" /><text style="font-family: times; font-size: 8pt" text-anchor="end" x="70" y="62.0">Filter1</text><rect fill="rgb(255, 255, 255)" height="30" width="970" x="15" y="75" /><text style="font-family: times; font-size: 8pt" text-anchor="end" x="70" y="92.0">Filter2</text><rect fill="rgb(230, 230, 230)" height="30" width="970" x="15" y="105" /><text style="font-family: times; font-size: 8pt" text-anchor="end" x="70" y="122.0">Filter3</text><rect fill="rgb(255, 255, 255)" height="30" width="970" x="15" y="135" /><text style="font-family: times; font-size: 8pt" text-anchor="end" x="70" y="152.0">Heater1</text><rect fill="rgb(230, 230, 230)" height="30" width="970" x="15" y="165" /><text style="font-family: times; font-size: 8pt" text-anchor="end" x="70" y="182.0">Heater2</text><rect fill="rgb(255, 255, 255)" height="30" width="970" x="15" y="195" /><text style="font-family: times; font-size: 8pt" text-anchor="end" x="70" y="212.0">Heater3</text><rect fill="rgb(230, 230, 230)" height="30" width="970" x="15" y="225" /><text style="font-family: times; font-size: 8pt" text-anchor="end" x="70" y="242.0">Mixer10</text><rect fill="rgb(255, 255, 255)" height="30" width="970" x="15" y="255" /><text style="font-family: times; font-size: 8pt" text-anchor="end" x="70" y="272.0">Mixer12</text><rect fill="rgb(230, 230, 230)" height="30" width="970" x="15" y="285" /><text style="font-family: times; font-size: 8pt" text-anchor="end" x="70" y="302.0">Mixer2</text><rect fill="rgb(255, 255, 255)" height="30" width="970" x="15" y="315" /><text style="font-family: times; font-size: 8pt" text-anchor="end" x="70" y="332.0">Mixer4</text><rect fill="rgb(230, 230, 230)" height="30" width="970" x="15" y="345" /><text style="font-family: times; font-size: 8pt" text-anchor="end" x="70" y="362.0">Mixer5</text><rect fill="rgb(255, 255, 255)" height="30" width="970" x="15" y="375" /><text style="font-family: times; font-size: 8pt" text-anchor="end" x="70" y="392.0">Mixer6</text><rect fill="rgb(230, 230, 230)" height="30" width="970" x="15" y="405" /><text style="font-family: times; font-size: 8pt" text-anchor="end" x="70" y="422.0">Mixer8</text><line style="stroke: #888888;stroke-width: 1;" x1="985.0" x2="985.0" y1="15" y2="465" /><text style="font-family: times; font-size: 8pt" text-anchor="middle" x="985.0" y="488">36.0</text><line style="stroke: #888888;stroke-width: 1;" x1="972.4305555555555" x2="972.4305555555555" y1="15" y2="465" /><line style="stroke: #888888;stroke-width: 1;" x1="947.2916666666666" x2="947.2916666666666" y1="15" y2="465" /><text style="font-family: times; font-size: 8pt" text-anchor="middle" x="947.2916666666666" y="488">34.5</text><line style="stroke: #888888;stroke-width: 1;" x1="909.5833333333334" x2="909.5833333333334" y1="15" y2="465" /><text style="font-family: times; font-size: 8pt" text-anchor="middle" x="909.5833333333334" y="488">33.0</text><line style="stroke: #888888;stroke-width: 1;" x1="897.0138888888889" x2="897.0138888888889" y1="15" y2="465" /><line style="stroke: #888888;stroke-width: 1;" x1="859.3055555555555" x2="859.3055555555555" y1="15" y2="465" /><text style="font-family: times; font-size: 8pt" text-anchor="middle" x="859.3055555555555" y="488">31.0</text><line style="stroke: #888888;stroke-width: 1;" x1="796.4583333333334" x2="796.4583333333334" y1="15" y2="465" /><text style="font-family: times; font-size: 8pt" text-anchor="middle" x="796.4583333333334" y="488">28.5</text><line style="stroke: #888888;stroke-width: 1;" x1="771.3194444444445" x2="771.3194444444445" y1="15" y2="465" /><line style="stroke: #888888;stroke-width: 1;" x1="695.9027777777778" x2="695.9027777777778" y1="15" y2="465" /><text style="font-family: times; font-size: 8pt" text-anchor="middle" x="695.9027777777778" y="488">24.5</text><line style="stroke: #888888;stroke-width: 1;" x1="658.1944444444445" x2="658.1944444444445" y1="15" y2="465" /><text style="font-family: times; font-size: 8pt" text-anchor="middle" x="658.1944444444445" y="488">23.0</text><line style="stroke: #888888;stroke-width: 1;" x1="620.4861111111111" x2="620.4861111111111" y1="15" y2="465" /><text style="font-family: times; font-size: 8pt" text-anchor="middle" x="620.4861111111111" y="488">21.5</text><line style="stroke: #888888;stroke-width: 1;" x1="595.3472222222223" x2="595.3472222222223" y1="15" y2="465" /><line style="stroke: #888888;stroke-width: 1;" x1="582.7777777777778" x2="582.7777777777778" y1="15" y2="465" /><text style="font-family: times; font-size: 8pt" text-anchor="middle" x="582.7777777777778" y="488">20.0</text><line style="stroke: #888888;stroke-width: 1;" x1="570.2083333333333" x2="570.2083333333333" y1="15" y2="465" /><line style="stroke: #888888;stroke-width: 1;" x1="532.5" x2="532.5" y1="15" y2="465" /><text style="font-family: times; font-size: 8pt" text-anchor="middle" x="532.5" y="488">18.0</text><line style="stroke: #888888;stroke-width: 1;" x1="519.9305555555555" x2="519.9305555555555" y1="15" y2="465" /><line style="stroke: #888888;stroke-width: 1;" x1="507.36111111111114" x2="507.36111111111114" y1="15" y2="465" /><line style="stroke: #888888;stroke-width: 1;" x1="469.65277777777777" x2="469.65277777777777" y1="15" y2="465" /><text style="font-family: times; font-size: 8pt" text-anchor="middle" x="469.65277777777777" y="488">15.5</text><line style="stroke: #888888;stroke-width: 1;" x1="457.0833333333333" x2="457.0833333333333" y1="15" y2="465" /><line style="stroke: #888888;stroke-width: 1;" x1="444.5138888888889" x2="444.5138888888889" y1="15" y2="465" /><line style="stroke: #888888;stroke-width: 1;" x1="431.94444444444446" x2="431.94444444444446" y1="15" y2="465" /><text style="font-family: times; font-size: 8pt" text-anchor="middle" x="431.94444444444446" y="488">14.0</text><line style="stroke: #888888;stroke-width: 1;" x1="419.375" x2="419.375" y1="15" y2="465" /><line style="stroke: #888888;stroke-width: 1;" x1="406.80555555555554" x2="406.80555555555554" y1="15" y2="465" /><line style="stroke: #888888;stroke-width: 1;" x1="394.23611111111114" x2="394.23611111111114" y1="15" y2="465" /><text style="font-family: times; font-size: 8pt" text-anchor="middle" x="394.23611111111114" y="488">12.5</text><line style="stroke: #888888;stroke-width: 1;" x1="369.09722222222223" x2="369.09722222222223" y1="15" y2="465" /><line style="stroke: #888888;stroke-width: 1;" x1="356.52777777777777" x2="356.52777777777777" y1="15" y2="465" /><text style="font-family: times; font-size: 8pt" text-anchor="middle" x="356.52777777777777" y="488">11.0</text><line style="stroke: #888888;stroke-width: 1;" x1="343.9583333333333" x2="343.9583333333333" y1="15" y2="465" /><line style="stroke: #888888;stroke-width: 1;" x1="318.81944444444446" x2="318.81944444444446" y1="15" y2="465" /><text style="font-family: times; font-size: 8pt" text-anchor="middle" x="318.81944444444446" y="488">9.5</text><line style="stroke: #888888;stroke-width: 1;" x1="306.25" x2="306.25" y1="15" y2="465" /><line style="stroke: #888888;stroke-width: 1;" x1="268.54166666666663" x2="268.54166666666663" y1="15" y2="465" /><text style="font-family: times; font-size: 8pt" text-anchor="middle" x="268.54166666666663" y="488">7.5</text><line style="stroke: #888888;stroke-width: 1;" x1="255.97222222222223" x2="255.97222222222223" y1="15" y2="465" /><line style="stroke: #888888;stroke-width: 1;" x1="243.40277777777777" x2="243.40277777777777" y1="15" y2="465" /><line style="stroke: #888888;stroke-width: 1;" x1="218.26388888888889" x2="218.26388888888889" y1="15" y2="465" /><text style="font-family: times; font-size: 8pt" text-anchor="middle" x="218.26388888888889" y="488">5.5</text><line style="stroke: #888888;stroke-width: 1;" x1="205.69444444444446" x2="205.69444444444446" y1="15" y2="465" /><line style="stroke: #888888;stroke-width: 1;" x1="193.125" x2="193.125" y1="15" y2="465" /><line style="stroke: #888888;stroke-width: 1;" x1="167.98611111111111" x2="167.98611111111111" y1="15" y2="465" /><text style="font-family: times; font-size: 8pt" text-anchor="middle" x="167.98611111111111" y="488">3.5</text><line style="stroke: #888888;stroke-width: 1;" x1="130.27777777777777" x2="130.27777777777777" y1="15" y2="465" /><text style="font-family: times; font-size: 8pt" text-anchor="middle" x="130.27777777777777" y="488">2.0</text><line style="stroke: #888888;stroke-width: 1;" x1="117.70833333333334" x2="117.70833333333334" y1="15" y2="465" /><line style="stroke: #888888;stroke-width: 1;" x1="105.13888888888889" x2="105.13888888888889" y1="15" y2="465" /><line style="stroke: #888888;stroke-width: 1;" x1="92.56944444444444" x2="92.56944444444444" y1="15" y2="465" /><text style="font-family: times; font-size: 8pt" text-anchor="middle" x="92.56944444444444" y="488">0.5</text><line style="stroke: #888888;stroke-width: 1;" x1="80.0" x2="80.0" y1="15" y2="465" /><rect height="30" style="fill:#bce6b3; stroke: #166f2b; stroke-width: 2" width="125.69444444444444" x="532.5" y="15" /><text style="font-family: times; font-size: 8pt" text-anchor="middle" x="595.3472222222222" y="32.0">O11</text><rect height="30" style="fill:#cdcdcd; stroke: #000000; stroke-width: 2" width="113.125" x="419.375" y="15" /><text style="font-family: times; font-size: 8pt" text-anchor="middle" x="475.9375" y="32.0">O3</text><rect height="30" style="fill:#d1e6ff; stroke: #3a5684; stroke-width: 2" width="75.41666666666667" x="431.94444444444446" y="45" /><text style="font-family: times; font-size: 8pt" text-anchor="middle" x="469.65277777777777" y="62.0">O14</text><rect height="30" style="fill:#cdcdcd; stroke: #000000; stroke-width: 2" width="75.41666666666667" x="356.52777777777777" y="45" /><text style="font-family: times; font-size: 8pt" text-anchor="middle" x="394.2361111111111" y="62.0">O8</text><rect height="30" style="fill:#d1e6ff; stroke: #3a5684; stroke-width: 2" width="75.41666666666667" x="369.09722222222223" y="75" /><text style="font-family: times; font-size: 8pt" text-anchor="middle" x="406.80555555555554" y="92.0">O10</text><rect height="30" style="fill:#cdcdcd; stroke: #000000; stroke-width: 2" width="50.27777777777778" x="318.81944444444446" y="75" /><text style="font-family: times; font-size: 8pt" text-anchor="middle" x="343.95833333333337" y="92.0">O2</text><rect height="30" style="fill:#d1e6ff; stroke: #3a5684; stroke-width: 2" width="100.55555555555556" x="167.98611111111111" y="105" /><text style="font-family: times; font-size: 8pt" text-anchor="middle" x="218.26388888888889" y="122.0">O6</text><rect height="30" style="fill:#cdcdcd; stroke: #000000; stroke-width: 2" width="37.708333333333336" x="130.27777777777777" y="105" /><text style="font-family: times; font-size: 8pt" text-anchor="middle" x="149.13194444444443" y="122.0">i10</text><rect height="30" style="fill:#f0f0f0; stroke: #393939; stroke-width: 2" width="100.55555555555556" x="356.52777777777777" y="135" /><text style="font-family: times; font-size: 8pt" text-anchor="middle" x="406.80555555555554" y="152.0">O5</text><rect height="30" style="fill:#cdcdcd; stroke: #000000; stroke-width: 2" width="12.569444444444445" x="343.9583333333333" y="135" /><text style="font-family: times; font-size: 8pt" text-anchor="middle" x="350.24305555555554" y="152.0">i9</text><rect height="30" style="fill:#f0f0f0; stroke: #393939; stroke-width: 2" width="125.69444444444444" x="268.54166666666663" y="165" /><text style="font-family: times; font-size: 8pt" text-anchor="middle" x="331.38888888888886" y="182.0">O9</text><rect height="30" style="fill:#cdcdcd; stroke: #000000; stroke-width: 2" width="25.13888888888889" x="243.40277777777777" y="165" /><text style="font-family: times; font-size: 8pt" text-anchor="middle" x="255.97222222222223" y="182.0">O1,St</text><rect height="30" style="fill:#f0f0f0; stroke: #393939; stroke-width: 2" width="50.27777777777778" x="859.3055555555555" y="195" /><text style="font-family: times; font-size: 8pt" text-anchor="middle" x="884.4444444444445" y="212.0">O19</text><rect height="30" style="fill:#f0f0f0; stroke: #393939; stroke-width: 2" width="50.27777777777778" x="406.80555555555554" y="195" /><text style="font-family: times; font-size: 8pt" text-anchor="middle" x="431.94444444444446" y="212.0">O7</text><rect height="30" style="fill:#cdcdcd; stroke: #000000; stroke-width: 2" width="50.27777777777778" x="356.52777777777777" y="195" /><text style="font-family: times; font-size: 8pt" text-anchor="middle" x="381.6666666666667" y="212.0">i11</text><rect height="30" style="fill:#cdcdcd; stroke: #000000; stroke-width: 2" width="62.84722222222222" x="796.4583333333334" y="195" /><text style="font-family: times; font-size: 8pt" text-anchor="middle" x="827.8819444444445" y="212.0">O17</text><rect height="30" style="fill:#fccecf; stroke: #cc3333; stroke-width: 2" width="50.27777777777778" x="469.65277777777777" y="225" /><text style="font-family: times; font-size: 8pt" text-anchor="middle" x="494.7916666666667" y="242.0">O13</text><rect height="30" style="fill:#fccecf; stroke: #cc3333; stroke-width: 2" width="201.11111111111111" x="595.3472222222223" y="225" /><text style="font-family: times; font-size: 8pt" text-anchor="middle" x="695.9027777777778" y="242.0">O17</text><rect height="30" style="fill:#cdcdcd; stroke: #000000; stroke-width: 2" width="12.569444444444445" x="457.0833333333333" y="225" /><text style="font-family: times; font-size: 8pt" text-anchor="middle" x="463.36805555555554" y="242.0">O7</text><rect height="30" style="fill:#cdcdcd; stroke: #000000; stroke-width: 2" width="50.27777777777778" x="268.54166666666663" y="225" /><text style="font-family: times; font-size: 8pt" text-anchor="middle" x="293.68055555555554" y="242.0">O6</text><rect height="30" style="fill:#cdcdcd; stroke: #000000; stroke-width: 2" width="75.41666666666667" x="519.9305555555555" y="225" /><text style="font-family: times; font-size: 8pt" text-anchor="middle" x="557.6388888888889" y="242.0">O14</text><rect height="30" style="fill:#fccecf; stroke: #cc3333; stroke-width: 2" width="25.13888888888889" x="947.2916666666666" y="255" /><text style="font-family: times; font-size: 8pt" text-anchor="middle" x="959.8611111111111" y="272.0">O20</text><rect height="30" style="fill:#fccecf; stroke: #cc3333; stroke-width: 2" width="75.41666666666667" x="695.9027777777778" y="255" /><text style="font-family: times; font-size: 8pt" text-anchor="middle" x="733.6111111111112" y="272.0">O16</text><rect height="30" style="fill:#fccecf; stroke: #cc3333; stroke-width: 2" width="100.55555555555556" x="796.4583333333334" y="255" /><text style="font-family: times; font-size: 8pt" text-anchor="middle" x="846.7361111111112" y="272.0">O18</text><rect height="30" style="fill:#cdcdcd; stroke: #000000; stroke-width: 2" width="37.708333333333336" x="658.1944444444445" y="255" /><text style="font-family: times; font-size: 8pt" text-anchor="middle" x="677.0486111111111" y="272.0">O11</text><rect height="30" style="fill:#cdcdcd; stroke: #000000; stroke-width: 2" width="50.27777777777778" x="570.2083333333333" y="255" /><text style="font-family: times; font-size: 8pt" text-anchor="middle" x="595.3472222222222" y="272.0">O12</text><rect height="30" style="fill:#cdcdcd; stroke: #000000; stroke-width: 2" width="25.13888888888889" x="771.3194444444445" y="255" /><text style="font-family: times; font-size: 8pt" text-anchor="middle" x="783.8888888888889" y="272.0">O15</text><rect height="30" style="fill:#cdcdcd; stroke: #000000; stroke-width: 2" width="37.708333333333336" x="909.5833333333334" y="255" /><text style="font-family: times; font-size: 8pt" text-anchor="middle" x="928.4375" y="272.0">O19</text><rect height="30" style="fill:#cdcdcd; stroke: #000000; stroke-width: 2" width="12.569444444444445" x="972.4305555555555" y="255" /><text style="font-family: times; font-size: 8pt" text-anchor="middle" x="978.7152777777777" y="272.0">o1</text><rect height="30" style="fill:#fccecf; stroke: #cc3333; stroke-width: 2" width="75.41666666666667" x="130.27777777777777" y="285" /><text style="font-family: times; font-size: 8pt" text-anchor="middle" x="167.98611111111111" y="302.0">O1</text><rect height="30" style="fill:#fccecf; stroke: #cc3333; stroke-width: 2" width="125.69444444444444" x="268.54166666666663" y="285" /><text style="font-family: times; font-size: 8pt" text-anchor="middle" x="331.38888888888886" y="302.0">O4</text><rect height="30" style="fill:#cdcdcd; stroke: #000000; stroke-width: 2" width="12.569444444444445" x="105.13888888888889" y="285" /><text style="font-family: times; font-size: 8pt" text-anchor="middle" x="111.42361111111111" y="302.0">i1</text><rect height="30" style="fill:#cdcdcd; stroke: #000000; stroke-width: 2" width="12.569444444444445" x="117.70833333333334" y="285" /><text style="font-family: times; font-size: 8pt" text-anchor="middle" x="123.99305555555557" y="302.0">i2</text><rect height="30" style="fill:#cdcdcd; stroke: #000000; stroke-width: 2" width="12.569444444444445" x="243.40277777777777" y="285" /><text style="font-family: times; font-size: 8pt" text-anchor="middle" x="249.6875" y="302.0">i7</text><rect height="30" style="fill:#cdcdcd; stroke: #000000; stroke-width: 2" width="12.569444444444445" x="255.97222222222223" y="285" /><text style="font-family: times; font-size: 8pt" text-anchor="middle" x="262.25694444444446" y="302.0">i8</text><rect height="30" style="fill:#cdcdcd; stroke: #000000; stroke-width: 2" width="37.708333333333336" x="205.69444444444446" y="285" /><text style="font-family: times; font-size: 8pt" text-anchor="middle" x="224.54861111111111" y="302.0">St</text><rect height="30" style="fill:#fccecf; stroke: #cc3333; stroke-width: 2" width="201.11111111111111" x="105.13888888888889" y="315" /><text style="font-family: times; font-size: 8pt" text-anchor="middle" x="205.69444444444446" y="332.0">O8</text><rect height="30" style="fill:#cdcdcd; stroke: #000000; stroke-width: 2" width="12.569444444444445" x="80.0" y="315" /><text style="font-family: times; font-size: 8pt" text-anchor="middle" x="86.28472222222223" y="332.0">i12</text><rect height="30" style="fill:#cdcdcd; stroke: #000000; stroke-width: 2" width="12.569444444444445" x="92.56944444444444" y="315" /><text style="font-family: times; font-size: 8pt" text-anchor="middle" x="98.85416666666667" y="332.0">i13</text><rect height="30" style="fill:#fccecf; stroke: #cc3333; stroke-width: 2" width="75.41666666666667" x="343.9583333333333" y="345" /><text style="font-family: times; font-size: 8pt" text-anchor="middle" x="381.66666666666663" y="362.0">O3</text><rect height="30" style="fill:#cdcdcd; stroke: #000000; stroke-width: 2" width="37.708333333333336" x="268.54166666666663" y="345" /><text style="font-family: times; font-size: 8pt" text-anchor="middle" x="287.3958333333333" y="362.0">i5</text><rect height="30" style="fill:#cdcdcd; stroke: #000000; stroke-width: 2" width="37.708333333333336" x="306.25" y="345" /><text style="font-family: times; font-size: 8pt" text-anchor="middle" x="325.1041666666667" y="362.0">i6</text><rect height="30" style="fill:#fccecf; stroke: #cc3333; stroke-width: 2" width="100.55555555555556" x="218.26388888888889" y="375" /><text style="font-family: times; font-size: 8pt" text-anchor="middle" x="268.5416666666667" y="392.0">O2</text><rect height="30" style="fill:#fccecf; stroke: #cc3333; stroke-width: 2" width="100.55555555555556" x="469.65277777777777" y="375" /><text style="font-family: times; font-size: 8pt" text-anchor="middle" x="519.9305555555555" y="392.0">O12</text><rect height="30" style="fill:#cdcdcd; stroke: #000000; stroke-width: 2" width="25.13888888888889" x="167.98611111111111" y="375" /><text style="font-family: times; font-size: 8pt" text-anchor="middle" x="180.55555555555557" y="392.0">i3</text><rect height="30" style="fill:#cdcdcd; stroke: #000000; stroke-width: 2" width="25.13888888888889" x="193.125" y="375" /><text style="font-family: times; font-size: 8pt" text-anchor="middle" x="205.69444444444446" y="392.0">i4</text><rect height="30" style="fill:#cdcdcd; stroke: #000000; stroke-width: 2" width="12.569444444444445" x="457.0833333333333" y="375" /><text style="font-family: times; font-size: 8pt" text-anchor="middle" x="463.36805555555554" y="392.0">O5</text><rect height="30" style="fill:#cdcdcd; stroke: #000000; stroke-width: 2" width="50.27777777777778" x="406.80555555555554" y="375" /><text style="font-family: times; font-size: 8pt" text-anchor="middle" x="431.94444444444446" y="392.0">O4</text><rect height="30" style="fill:#fccecf; stroke: #cc3333; stroke-width: 2" width="125.69444444444444" x="457.0833333333333" y="405" /><text style="font-family: times; font-size: 8pt" text-anchor="middle" x="519.9305555555555" y="422.0">O15</text><rect height="30" style="fill:#cdcdcd; stroke: #000000; stroke-width: 2" width="50.27777777777778" x="394.23611111111114" y="405" /><text style="font-family: times; font-size: 8pt" text-anchor="middle" x="419.37500000000006" y="422.0">O9</text><rect height="30" style="fill:#cdcdcd; stroke: #000000; stroke-width: 2" width="12.569444444444445" x="444.5138888888889" y="405" /><text style="font-family: times; font-size: 8pt" text-anchor="middle" x="450.79861111111114" y="422.0">O10</text></svg>